<?xml version="1.0" encoding="utf-8" standalone="no"?>
<!DOCTYPE svg PUBLIC "-//W3C//DTD SVG 1.1//EN"
  "http://www.w3.org/Graphics/SVG/1.1/DTD/svg11.dtd">
<svg xmlns:xlink="http://www.w3.org/1999/xlink" width="864pt" height="432pt" viewBox="0 0 864 432" xmlns="http://www.w3.org/2000/svg" version="1.1">
 <metadata>
  <rdf:RDF xmlns:dc="http://purl.org/dc/elements/1.1/" xmlns:cc="http://creativecommons.org/ns#" xmlns:rdf="http://www.w3.org/1999/02/22-rdf-syntax-ns#">
   <cc:Work>
    <dc:type rdf:resource="http://purl.org/dc/dcmitype/StillImage"/>
    <dc:date>2024-04-15T11:20:08.588502</dc:date>
    <dc:format>image/svg+xml</dc:format>
    <dc:creator>
     <cc:Agent>
      <dc:title>Matplotlib v3.8.2, https://matplotlib.org/</dc:title>
     </cc:Agent>
    </dc:creator>
   </cc:Work>
  </rdf:RDF>
 </metadata>
 <defs>
  <style type="text/css">*{stroke-linejoin: round; stroke-linecap: butt}</style>
 </defs>
 <g id="figure_1">
  <g id="patch_1">
   <path d="M 0 432 
L 864 432 
L 864 0 
L 0 0 
z
" style="fill: #ffffff"/>
  </g>
  <g id="axes_1">
   <g id="patch_2">
    <path d="M 108 384.48 
L 777.6 384.48 
L 777.6 51.84 
L 108 51.84 
z
" style="fill: #ffffff"/>
   </g>
   <g id="matplotlib.axis_1">
    <g id="xtick_1">
     <g id="line2d_1">
      <defs>
       <path id="m22271bcc7a" d="M 0 0 
L 0 3.5 
" style="stroke: #000000; stroke-width: 0.8"/>
      </defs>
      <g>
       <use xlink:href="#m22271bcc7a" x="138.436364" y="384.48" style="stroke: #000000; stroke-width: 0.8"/>
      </g>
     </g>
     <g id="text_1">
      <!-- 0 -->
      <g transform="translate(135.255114 399.078438) scale(0.1 -0.1)">
       <defs>
        <path id="DejaVuSans-30" d="M 2034 4250 
Q 1547 4250 1301 3770 
Q 1056 3291 1056 2328 
Q 1056 1369 1301 889 
Q 1547 409 2034 409 
Q 2525 409 2770 889 
Q 3016 1369 3016 2328 
Q 3016 3291 2770 3770 
Q 2525 4250 2034 4250 
z
M 2034 4750 
Q 2819 4750 3233 4129 
Q 3647 3509 3647 2328 
Q 3647 1150 3233 529 
Q 2819 -91 2034 -91 
Q 1250 -91 836 529 
Q 422 1150 422 2328 
Q 422 3509 836 4129 
Q 1250 4750 2034 4750 
z
" transform="scale(0.015625)"/>
       </defs>
       <use xlink:href="#DejaVuSans-30"/>
      </g>
     </g>
    </g>
    <g id="xtick_2">
     <g id="line2d_2">
      <g>
       <use xlink:href="#m22271bcc7a" x="231.799442" y="384.48" style="stroke: #000000; stroke-width: 0.8"/>
      </g>
     </g>
     <g id="text_2">
      <!-- 100 -->
      <g transform="translate(222.255692 399.078438) scale(0.1 -0.1)">
       <defs>
        <path id="DejaVuSans-31" d="M 794 531 
L 1825 531 
L 1825 4091 
L 703 3866 
L 703 4441 
L 1819 4666 
L 2450 4666 
L 2450 531 
L 3481 531 
L 3481 0 
L 794 0 
L 794 531 
z
" transform="scale(0.015625)"/>
       </defs>
       <use xlink:href="#DejaVuSans-31"/>
       <use xlink:href="#DejaVuSans-30" x="63.623047"/>
       <use xlink:href="#DejaVuSans-30" x="127.246094"/>
      </g>
     </g>
    </g>
    <g id="xtick_3">
     <g id="line2d_3">
      <g>
       <use xlink:href="#m22271bcc7a" x="325.162521" y="384.48" style="stroke: #000000; stroke-width: 0.8"/>
      </g>
     </g>
     <g id="text_3">
      <!-- 200 -->
      <g transform="translate(315.618771 399.078438) scale(0.1 -0.1)">
       <defs>
        <path id="DejaVuSans-32" d="M 1228 531 
L 3431 531 
L 3431 0 
L 469 0 
L 469 531 
Q 828 903 1448 1529 
Q 2069 2156 2228 2338 
Q 2531 2678 2651 2914 
Q 2772 3150 2772 3378 
Q 2772 3750 2511 3984 
Q 2250 4219 1831 4219 
Q 1534 4219 1204 4116 
Q 875 4013 500 3803 
L 500 4441 
Q 881 4594 1212 4672 
Q 1544 4750 1819 4750 
Q 2544 4750 2975 4387 
Q 3406 4025 3406 3419 
Q 3406 3131 3298 2873 
Q 3191 2616 2906 2266 
Q 2828 2175 2409 1742 
Q 1991 1309 1228 531 
z
" transform="scale(0.015625)"/>
       </defs>
       <use xlink:href="#DejaVuSans-32"/>
       <use xlink:href="#DejaVuSans-30" x="63.623047"/>
       <use xlink:href="#DejaVuSans-30" x="127.246094"/>
      </g>
     </g>
    </g>
    <g id="xtick_4">
     <g id="line2d_4">
      <g>
       <use xlink:href="#m22271bcc7a" x="418.5256" y="384.48" style="stroke: #000000; stroke-width: 0.8"/>
      </g>
     </g>
     <g id="text_4">
      <!-- 300 -->
      <g transform="translate(408.98185 399.078438) scale(0.1 -0.1)">
       <defs>
        <path id="DejaVuSans-33" d="M 2597 2516 
Q 3050 2419 3304 2112 
Q 3559 1806 3559 1356 
Q 3559 666 3084 287 
Q 2609 -91 1734 -91 
Q 1441 -91 1130 -33 
Q 819 25 488 141 
L 488 750 
Q 750 597 1062 519 
Q 1375 441 1716 441 
Q 2309 441 2620 675 
Q 2931 909 2931 1356 
Q 2931 1769 2642 2001 
Q 2353 2234 1838 2234 
L 1294 2234 
L 1294 2753 
L 1863 2753 
Q 2328 2753 2575 2939 
Q 2822 3125 2822 3475 
Q 2822 3834 2567 4026 
Q 2313 4219 1838 4219 
Q 1578 4219 1281 4162 
Q 984 4106 628 3988 
L 628 4550 
Q 988 4650 1302 4700 
Q 1616 4750 1894 4750 
Q 2613 4750 3031 4423 
Q 3450 4097 3450 3541 
Q 3450 3153 3228 2886 
Q 3006 2619 2597 2516 
z
" transform="scale(0.015625)"/>
       </defs>
       <use xlink:href="#DejaVuSans-33"/>
       <use xlink:href="#DejaVuSans-30" x="63.623047"/>
       <use xlink:href="#DejaVuSans-30" x="127.246094"/>
      </g>
     </g>
    </g>
    <g id="xtick_5">
     <g id="line2d_5">
      <g>
       <use xlink:href="#m22271bcc7a" x="511.888678" y="384.48" style="stroke: #000000; stroke-width: 0.8"/>
      </g>
     </g>
     <g id="text_5">
      <!-- 400 -->
      <g transform="translate(502.344928 399.078438) scale(0.1 -0.1)">
       <defs>
        <path id="DejaVuSans-34" d="M 2419 4116 
L 825 1625 
L 2419 1625 
L 2419 4116 
z
M 2253 4666 
L 3047 4666 
L 3047 1625 
L 3713 1625 
L 3713 1100 
L 3047 1100 
L 3047 0 
L 2419 0 
L 2419 1100 
L 313 1100 
L 313 1709 
L 2253 4666 
z
" transform="scale(0.015625)"/>
       </defs>
       <use xlink:href="#DejaVuSans-34"/>
       <use xlink:href="#DejaVuSans-30" x="63.623047"/>
       <use xlink:href="#DejaVuSans-30" x="127.246094"/>
      </g>
     </g>
    </g>
    <g id="xtick_6">
     <g id="line2d_6">
      <g>
       <use xlink:href="#m22271bcc7a" x="605.251757" y="384.48" style="stroke: #000000; stroke-width: 0.8"/>
      </g>
     </g>
     <g id="text_6">
      <!-- 500 -->
      <g transform="translate(595.708007 399.078438) scale(0.1 -0.1)">
       <defs>
        <path id="DejaVuSans-35" d="M 691 4666 
L 3169 4666 
L 3169 4134 
L 1269 4134 
L 1269 2991 
Q 1406 3038 1543 3061 
Q 1681 3084 1819 3084 
Q 2600 3084 3056 2656 
Q 3513 2228 3513 1497 
Q 3513 744 3044 326 
Q 2575 -91 1722 -91 
Q 1428 -91 1123 -41 
Q 819 9 494 109 
L 494 744 
Q 775 591 1075 516 
Q 1375 441 1709 441 
Q 2250 441 2565 725 
Q 2881 1009 2881 1497 
Q 2881 1984 2565 2268 
Q 2250 2553 1709 2553 
Q 1456 2553 1204 2497 
Q 953 2441 691 2322 
L 691 4666 
z
" transform="scale(0.015625)"/>
       </defs>
       <use xlink:href="#DejaVuSans-35"/>
       <use xlink:href="#DejaVuSans-30" x="63.623047"/>
       <use xlink:href="#DejaVuSans-30" x="127.246094"/>
      </g>
     </g>
    </g>
    <g id="xtick_7">
     <g id="line2d_7">
      <g>
       <use xlink:href="#m22271bcc7a" x="698.614835" y="384.48" style="stroke: #000000; stroke-width: 0.8"/>
      </g>
     </g>
     <g id="text_7">
      <!-- 600 -->
      <g transform="translate(689.071085 399.078438) scale(0.1 -0.1)">
       <defs>
        <path id="DejaVuSans-36" d="M 2113 2584 
Q 1688 2584 1439 2293 
Q 1191 2003 1191 1497 
Q 1191 994 1439 701 
Q 1688 409 2113 409 
Q 2538 409 2786 701 
Q 3034 994 3034 1497 
Q 3034 2003 2786 2293 
Q 2538 2584 2113 2584 
z
M 3366 4563 
L 3366 3988 
Q 3128 4100 2886 4159 
Q 2644 4219 2406 4219 
Q 1781 4219 1451 3797 
Q 1122 3375 1075 2522 
Q 1259 2794 1537 2939 
Q 1816 3084 2150 3084 
Q 2853 3084 3261 2657 
Q 3669 2231 3669 1497 
Q 3669 778 3244 343 
Q 2819 -91 2113 -91 
Q 1303 -91 875 529 
Q 447 1150 447 2328 
Q 447 3434 972 4092 
Q 1497 4750 2381 4750 
Q 2619 4750 2861 4703 
Q 3103 4656 3366 4563 
z
" transform="scale(0.015625)"/>
       </defs>
       <use xlink:href="#DejaVuSans-36"/>
       <use xlink:href="#DejaVuSans-30" x="63.623047"/>
       <use xlink:href="#DejaVuSans-30" x="127.246094"/>
      </g>
     </g>
    </g>
    <g id="text_8">
     <!-- Sample Number -->
     <g transform="translate(402.376562 412.756563) scale(0.1 -0.1)">
      <defs>
       <path id="DejaVuSans-53" d="M 3425 4513 
L 3425 3897 
Q 3066 4069 2747 4153 
Q 2428 4238 2131 4238 
Q 1616 4238 1336 4038 
Q 1056 3838 1056 3469 
Q 1056 3159 1242 3001 
Q 1428 2844 1947 2747 
L 2328 2669 
Q 3034 2534 3370 2195 
Q 3706 1856 3706 1288 
Q 3706 609 3251 259 
Q 2797 -91 1919 -91 
Q 1588 -91 1214 -16 
Q 841 59 441 206 
L 441 856 
Q 825 641 1194 531 
Q 1563 422 1919 422 
Q 2459 422 2753 634 
Q 3047 847 3047 1241 
Q 3047 1584 2836 1778 
Q 2625 1972 2144 2069 
L 1759 2144 
Q 1053 2284 737 2584 
Q 422 2884 422 3419 
Q 422 4038 858 4394 
Q 1294 4750 2059 4750 
Q 2388 4750 2728 4690 
Q 3069 4631 3425 4513 
z
" transform="scale(0.015625)"/>
       <path id="DejaVuSans-61" d="M 2194 1759 
Q 1497 1759 1228 1600 
Q 959 1441 959 1056 
Q 959 750 1161 570 
Q 1363 391 1709 391 
Q 2188 391 2477 730 
Q 2766 1069 2766 1631 
L 2766 1759 
L 2194 1759 
z
M 3341 1997 
L 3341 0 
L 2766 0 
L 2766 531 
Q 2569 213 2275 61 
Q 1981 -91 1556 -91 
Q 1019 -91 701 211 
Q 384 513 384 1019 
Q 384 1609 779 1909 
Q 1175 2209 1959 2209 
L 2766 2209 
L 2766 2266 
Q 2766 2663 2505 2880 
Q 2244 3097 1772 3097 
Q 1472 3097 1187 3025 
Q 903 2953 641 2809 
L 641 3341 
Q 956 3463 1253 3523 
Q 1550 3584 1831 3584 
Q 2591 3584 2966 3190 
Q 3341 2797 3341 1997 
z
" transform="scale(0.015625)"/>
       <path id="DejaVuSans-6d" d="M 3328 2828 
Q 3544 3216 3844 3400 
Q 4144 3584 4550 3584 
Q 5097 3584 5394 3201 
Q 5691 2819 5691 2113 
L 5691 0 
L 5113 0 
L 5113 2094 
Q 5113 2597 4934 2840 
Q 4756 3084 4391 3084 
Q 3944 3084 3684 2787 
Q 3425 2491 3425 1978 
L 3425 0 
L 2847 0 
L 2847 2094 
Q 2847 2600 2669 2842 
Q 2491 3084 2119 3084 
Q 1678 3084 1418 2786 
Q 1159 2488 1159 1978 
L 1159 0 
L 581 0 
L 581 3500 
L 1159 3500 
L 1159 2956 
Q 1356 3278 1631 3431 
Q 1906 3584 2284 3584 
Q 2666 3584 2933 3390 
Q 3200 3197 3328 2828 
z
" transform="scale(0.015625)"/>
       <path id="DejaVuSans-70" d="M 1159 525 
L 1159 -1331 
L 581 -1331 
L 581 3500 
L 1159 3500 
L 1159 2969 
Q 1341 3281 1617 3432 
Q 1894 3584 2278 3584 
Q 2916 3584 3314 3078 
Q 3713 2572 3713 1747 
Q 3713 922 3314 415 
Q 2916 -91 2278 -91 
Q 1894 -91 1617 61 
Q 1341 213 1159 525 
z
M 3116 1747 
Q 3116 2381 2855 2742 
Q 2594 3103 2138 3103 
Q 1681 3103 1420 2742 
Q 1159 2381 1159 1747 
Q 1159 1113 1420 752 
Q 1681 391 2138 391 
Q 2594 391 2855 752 
Q 3116 1113 3116 1747 
z
" transform="scale(0.015625)"/>
       <path id="DejaVuSans-6c" d="M 603 4863 
L 1178 4863 
L 1178 0 
L 603 0 
L 603 4863 
z
" transform="scale(0.015625)"/>
       <path id="DejaVuSans-65" d="M 3597 1894 
L 3597 1613 
L 953 1613 
Q 991 1019 1311 708 
Q 1631 397 2203 397 
Q 2534 397 2845 478 
Q 3156 559 3463 722 
L 3463 178 
Q 3153 47 2828 -22 
Q 2503 -91 2169 -91 
Q 1331 -91 842 396 
Q 353 884 353 1716 
Q 353 2575 817 3079 
Q 1281 3584 2069 3584 
Q 2775 3584 3186 3129 
Q 3597 2675 3597 1894 
z
M 3022 2063 
Q 3016 2534 2758 2815 
Q 2500 3097 2075 3097 
Q 1594 3097 1305 2825 
Q 1016 2553 972 2059 
L 3022 2063 
z
" transform="scale(0.015625)"/>
       <path id="DejaVuSans-20" transform="scale(0.015625)"/>
       <path id="DejaVuSans-4e" d="M 628 4666 
L 1478 4666 
L 3547 763 
L 3547 4666 
L 4159 4666 
L 4159 0 
L 3309 0 
L 1241 3903 
L 1241 0 
L 628 0 
L 628 4666 
z
" transform="scale(0.015625)"/>
       <path id="DejaVuSans-75" d="M 544 1381 
L 544 3500 
L 1119 3500 
L 1119 1403 
Q 1119 906 1312 657 
Q 1506 409 1894 409 
Q 2359 409 2629 706 
Q 2900 1003 2900 1516 
L 2900 3500 
L 3475 3500 
L 3475 0 
L 2900 0 
L 2900 538 
Q 2691 219 2414 64 
Q 2138 -91 1772 -91 
Q 1169 -91 856 284 
Q 544 659 544 1381 
z
M 1991 3584 
L 1991 3584 
z
" transform="scale(0.015625)"/>
       <path id="DejaVuSans-62" d="M 3116 1747 
Q 3116 2381 2855 2742 
Q 2594 3103 2138 3103 
Q 1681 3103 1420 2742 
Q 1159 2381 1159 1747 
Q 1159 1113 1420 752 
Q 1681 391 2138 391 
Q 2594 391 2855 752 
Q 3116 1113 3116 1747 
z
M 1159 2969 
Q 1341 3281 1617 3432 
Q 1894 3584 2278 3584 
Q 2916 3584 3314 3078 
Q 3713 2572 3713 1747 
Q 3713 922 3314 415 
Q 2916 -91 2278 -91 
Q 1894 -91 1617 61 
Q 1341 213 1159 525 
L 1159 0 
L 581 0 
L 581 4863 
L 1159 4863 
L 1159 2969 
z
" transform="scale(0.015625)"/>
       <path id="DejaVuSans-72" d="M 2631 2963 
Q 2534 3019 2420 3045 
Q 2306 3072 2169 3072 
Q 1681 3072 1420 2755 
Q 1159 2438 1159 1844 
L 1159 0 
L 581 0 
L 581 3500 
L 1159 3500 
L 1159 2956 
Q 1341 3275 1631 3429 
Q 1922 3584 2338 3584 
Q 2397 3584 2469 3576 
Q 2541 3569 2628 3553 
L 2631 2963 
z
" transform="scale(0.015625)"/>
      </defs>
      <use xlink:href="#DejaVuSans-53"/>
      <use xlink:href="#DejaVuSans-61" x="63.476562"/>
      <use xlink:href="#DejaVuSans-6d" x="124.755859"/>
      <use xlink:href="#DejaVuSans-70" x="222.167969"/>
      <use xlink:href="#DejaVuSans-6c" x="285.644531"/>
      <use xlink:href="#DejaVuSans-65" x="313.427734"/>
      <use xlink:href="#DejaVuSans-20" x="374.951172"/>
      <use xlink:href="#DejaVuSans-4e" x="406.738281"/>
      <use xlink:href="#DejaVuSans-75" x="481.542969"/>
      <use xlink:href="#DejaVuSans-6d" x="544.921875"/>
      <use xlink:href="#DejaVuSans-62" x="642.333984"/>
      <use xlink:href="#DejaVuSans-65" x="705.810547"/>
      <use xlink:href="#DejaVuSans-72" x="767.333984"/>
     </g>
    </g>
   </g>
   <g id="matplotlib.axis_2">
    <g id="ytick_1">
     <g id="line2d_8">
      <defs>
       <path id="mfd49e686ef" d="M 0 0 
L -3.5 0 
" style="stroke: #000000; stroke-width: 0.8"/>
      </defs>
      <g>
       <use xlink:href="#mfd49e686ef" x="108" y="344.038342" style="stroke: #000000; stroke-width: 0.8"/>
      </g>
     </g>
     <g id="text_9">
      <!-- 0 -->
      <g transform="translate(94.6375 347.837561) scale(0.1 -0.1)">
       <use xlink:href="#DejaVuSans-30"/>
      </g>
     </g>
    </g>
    <g id="ytick_2">
     <g id="line2d_9">
      <g>
       <use xlink:href="#mfd49e686ef" x="108" y="281.111756" style="stroke: #000000; stroke-width: 0.8"/>
      </g>
     </g>
     <g id="text_10">
      <!-- 5 -->
      <g transform="translate(94.6375 284.910975) scale(0.1 -0.1)">
       <use xlink:href="#DejaVuSans-35"/>
      </g>
     </g>
    </g>
    <g id="ytick_3">
     <g id="line2d_10">
      <g>
       <use xlink:href="#mfd49e686ef" x="108" y="218.185171" style="stroke: #000000; stroke-width: 0.8"/>
      </g>
     </g>
     <g id="text_11">
      <!-- 10 -->
      <g transform="translate(88.275 221.984389) scale(0.1 -0.1)">
       <use xlink:href="#DejaVuSans-31"/>
       <use xlink:href="#DejaVuSans-30" x="63.623047"/>
      </g>
     </g>
    </g>
    <g id="ytick_4">
     <g id="line2d_11">
      <g>
       <use xlink:href="#mfd49e686ef" x="108" y="155.258585" style="stroke: #000000; stroke-width: 0.8"/>
      </g>
     </g>
     <g id="text_12">
      <!-- 15 -->
      <g transform="translate(88.275 159.057804) scale(0.1 -0.1)">
       <use xlink:href="#DejaVuSans-31"/>
       <use xlink:href="#DejaVuSans-35" x="63.623047"/>
      </g>
     </g>
    </g>
    <g id="ytick_5">
     <g id="line2d_12">
      <g>
       <use xlink:href="#mfd49e686ef" x="108" y="92.331999" style="stroke: #000000; stroke-width: 0.8"/>
      </g>
     </g>
     <g id="text_13">
      <!-- 20 -->
      <g transform="translate(88.275 96.131218) scale(0.1 -0.1)">
       <use xlink:href="#DejaVuSans-32"/>
       <use xlink:href="#DejaVuSans-30" x="63.623047"/>
      </g>
     </g>
    </g>
    <g id="text_14">
     <!-- Magnetism -->
     <g transform="translate(82.195312 245.781875) rotate(-90) scale(0.1 -0.1)">
      <defs>
       <path id="DejaVuSans-4d" d="M 628 4666 
L 1569 4666 
L 2759 1491 
L 3956 4666 
L 4897 4666 
L 4897 0 
L 4281 0 
L 4281 4097 
L 3078 897 
L 2444 897 
L 1241 4097 
L 1241 0 
L 628 0 
L 628 4666 
z
" transform="scale(0.015625)"/>
       <path id="DejaVuSans-67" d="M 2906 1791 
Q 2906 2416 2648 2759 
Q 2391 3103 1925 3103 
Q 1463 3103 1205 2759 
Q 947 2416 947 1791 
Q 947 1169 1205 825 
Q 1463 481 1925 481 
Q 2391 481 2648 825 
Q 2906 1169 2906 1791 
z
M 3481 434 
Q 3481 -459 3084 -895 
Q 2688 -1331 1869 -1331 
Q 1566 -1331 1297 -1286 
Q 1028 -1241 775 -1147 
L 775 -588 
Q 1028 -725 1275 -790 
Q 1522 -856 1778 -856 
Q 2344 -856 2625 -561 
Q 2906 -266 2906 331 
L 2906 616 
Q 2728 306 2450 153 
Q 2172 0 1784 0 
Q 1141 0 747 490 
Q 353 981 353 1791 
Q 353 2603 747 3093 
Q 1141 3584 1784 3584 
Q 2172 3584 2450 3431 
Q 2728 3278 2906 2969 
L 2906 3500 
L 3481 3500 
L 3481 434 
z
" transform="scale(0.015625)"/>
       <path id="DejaVuSans-6e" d="M 3513 2113 
L 3513 0 
L 2938 0 
L 2938 2094 
Q 2938 2591 2744 2837 
Q 2550 3084 2163 3084 
Q 1697 3084 1428 2787 
Q 1159 2491 1159 1978 
L 1159 0 
L 581 0 
L 581 3500 
L 1159 3500 
L 1159 2956 
Q 1366 3272 1645 3428 
Q 1925 3584 2291 3584 
Q 2894 3584 3203 3211 
Q 3513 2838 3513 2113 
z
" transform="scale(0.015625)"/>
       <path id="DejaVuSans-74" d="M 1172 4494 
L 1172 3500 
L 2356 3500 
L 2356 3053 
L 1172 3053 
L 1172 1153 
Q 1172 725 1289 603 
Q 1406 481 1766 481 
L 2356 481 
L 2356 0 
L 1766 0 
Q 1100 0 847 248 
Q 594 497 594 1153 
L 594 3053 
L 172 3053 
L 172 3500 
L 594 3500 
L 594 4494 
L 1172 4494 
z
" transform="scale(0.015625)"/>
       <path id="DejaVuSans-69" d="M 603 3500 
L 1178 3500 
L 1178 0 
L 603 0 
L 603 3500 
z
M 603 4863 
L 1178 4863 
L 1178 4134 
L 603 4134 
L 603 4863 
z
" transform="scale(0.015625)"/>
       <path id="DejaVuSans-73" d="M 2834 3397 
L 2834 2853 
Q 2591 2978 2328 3040 
Q 2066 3103 1784 3103 
Q 1356 3103 1142 2972 
Q 928 2841 928 2578 
Q 928 2378 1081 2264 
Q 1234 2150 1697 2047 
L 1894 2003 
Q 2506 1872 2764 1633 
Q 3022 1394 3022 966 
Q 3022 478 2636 193 
Q 2250 -91 1575 -91 
Q 1294 -91 989 -36 
Q 684 19 347 128 
L 347 722 
Q 666 556 975 473 
Q 1284 391 1588 391 
Q 1994 391 2212 530 
Q 2431 669 2431 922 
Q 2431 1156 2273 1281 
Q 2116 1406 1581 1522 
L 1381 1569 
Q 847 1681 609 1914 
Q 372 2147 372 2553 
Q 372 3047 722 3315 
Q 1072 3584 1716 3584 
Q 2034 3584 2315 3537 
Q 2597 3491 2834 3397 
z
" transform="scale(0.015625)"/>
      </defs>
      <use xlink:href="#DejaVuSans-4d"/>
      <use xlink:href="#DejaVuSans-61" x="86.279297"/>
      <use xlink:href="#DejaVuSans-67" x="147.558594"/>
      <use xlink:href="#DejaVuSans-6e" x="211.035156"/>
      <use xlink:href="#DejaVuSans-65" x="274.414062"/>
      <use xlink:href="#DejaVuSans-74" x="335.9375"/>
      <use xlink:href="#DejaVuSans-69" x="375.146484"/>
      <use xlink:href="#DejaVuSans-73" x="402.929688"/>
      <use xlink:href="#DejaVuSans-6d" x="455.029297"/>
     </g>
    </g>
   </g>
   <g id="line2d_13">
    <path d="M 161.777133 384.48 
L 161.777133 51.84 
" clip-path="url(#pdb2dfaa3f5)" style="fill: none; stroke-dasharray: 5.55,2.4; stroke-dashoffset: 0; stroke: #008000; stroke-width: 1.5"/>
   </g>
   <g id="line2d_14">
    <path d="M 448.401785 384.48 
L 448.401785 51.84 
" clip-path="url(#pdb2dfaa3f5)" style="fill: none; stroke-dasharray: 5.55,2.4; stroke-dashoffset: 0; stroke: #008000; stroke-width: 1.5"/>
   </g>
   <g id="line2d_15">
    <path d="M 138.436364 369.36 
L 139.369994 367.9882 
L 140.303625 363.180609 
L 141.237256 362.438076 
L 142.170887 362.312222 
L 143.104518 359.140722 
L 144.038148 358.461115 
L 144.971779 358.247165 
L 145.90541 358.159068 
L 146.839041 349.248663 
L 148.706302 349.248663 
L 149.639933 348.984372 
L 150.573564 348.984372 
L 151.507195 348.745251 
L 152.440825 348.745251 
L 153.374456 348.002717 
L 154.308087 346.895209 
L 155.241718 346.895209 
L 156.175349 345.347215 
L 157.108979 344.856388 
L 158.04261 344.55434 
L 158.976241 344.529169 
L 161.777133 344.038342 
L 449.335416 343.975415 
L 450.269046 343.685953 
L 452.136308 343.497173 
L 454.003569 343.472003 
L 454.9372 343.119614 
L 456.804462 342.956005 
L 460.538985 342.263812 
L 461.472616 342.16313 
L 462.406247 341.810741 
L 464.273508 341.647132 
L 465.207139 341.294743 
L 466.14077 340.514453 
L 468.941662 340.086552 
L 469.875293 340.048796 
L 470.808924 339.671237 
L 471.742554 339.545384 
L 472.676185 339.218165 
L 474.543447 338.790265 
L 475.477078 338.777679 
L 476.410708 338.475632 
L 477.344339 338.450461 
L 478.27797 337.380709 
L 480.145231 337.078662 
L 481.078862 335.807545 
L 482.012493 335.794959 
L 482.946124 335.606179 
L 483.879755 335.555838 
L 484.813385 335.241205 
L 485.747016 335.178279 
L 488.547909 333.114287 
L 489.481539 333.038775 
L 490.41517 332.547947 
L 491.348801 332.43468 
L 492.282432 332.132632 
L 493.216062 332.082291 
L 495.083324 331.692146 
L 496.950586 331.65439 
L 497.884216 330.622394 
L 498.817847 330.332932 
L 499.751478 330.169322 
L 500.685109 329.225424 
L 501.61874 329.099571 
L 503.486001 327.29987 
L 504.419632 327.29987 
L 507.220524 326.771287 
L 508.154155 326.771287 
L 509.087786 326.607678 
L 510.955047 326.481825 
L 512.822309 325.827388 
L 514.689571 325.613438 
L 515.623201 325.235878 
L 516.556832 325.059684 
L 517.490463 324.619198 
L 519.357724 324.140956 
L 520.291355 322.869839 
L 521.224986 322.064378 
L 522.158617 320.893944 
L 523.092248 318.77961 
L 524.025878 318.452392 
L 524.959509 314.299238 
L 526.826771 314.299238 
L 527.760402 313.317583 
L 528.694032 313.19173 
L 529.627663 313.19173 
L 530.561294 312.524708 
L 532.428555 312.348513 
L 533.362186 312.348513 
L 534.295817 311.832515 
L 535.229448 311.618565 
L 536.163079 311.618565 
L 537.096709 311.190664 
L 538.03034 311.064811 
L 538.963971 310.737593 
L 540.831233 310.662081 
L 541.764863 309.881791 
L 542.698494 309.541988 
L 544.565756 309.403549 
L 545.499387 308.812039 
L 546.433017 307.050095 
L 548.300279 306.974583 
L 549.23391 305.66571 
L 551.101171 305.66571 
L 552.034802 304.86025 
L 552.968433 303.400353 
L 553.902064 302.28026 
L 554.835694 300.581242 
L 555.769325 300.077829 
L 556.702956 298.995492 
L 557.636587 298.970321 
L 558.570218 297.963496 
L 559.503848 297.497839 
L 562.304741 297.447498 
L 563.238371 296.994427 
L 566.039264 296.730135 
L 566.972895 296.52877 
L 567.906525 296.52877 
L 568.840156 295.710724 
L 569.773787 295.207311 
L 570.707418 295.207311 
L 571.641049 293.709659 
L 572.574679 293.181075 
L 573.50831 291.280693 
L 574.441941 291.230351 
L 576.309202 290.915718 
L 578.176464 287.907828 
L 579.110095 287.681292 
L 580.043726 286.649296 
L 581.910987 286.649296 
L 582.844618 286.045201 
L 583.778249 285.692812 
L 585.64551 284.2455 
L 586.579141 283.112822 
L 587.512772 282.496141 
L 588.446403 281.149512 
L 589.380033 280.444734 
L 590.313664 280.205613 
L 593.114557 278.758302 
L 594.048187 277.826989 
L 594.981818 277.776647 
L 596.84908 277.210308 
L 597.782711 277.210308 
L 598.716341 276.820163 
L 600.583603 276.820163 
L 601.517234 276.48036 
L 602.450864 274.353441 
L 603.384495 273.988467 
L 604.318126 272.088084 
L 605.251757 271.257453 
L 607.119018 271.169356 
L 608.052649 267.922344 
L 609.919911 267.821661 
L 613.654434 267.821661 
L 614.588065 267.066542 
L 615.521695 265.757669 
L 616.455326 264.776015 
L 617.388957 264.776015 
L 618.322588 263.681092 
L 619.256219 263.278362 
L 620.189849 262.284122 
L 621.12348 260.723543 
L 622.990742 259.477596 
L 628.592526 259.477596 
L 629.526157 258.735062 
L 630.459788 257.249995 
L 631.393419 256.520047 
L 632.32705 252.48016 
L 633.26068 252.1026 
L 634.194311 252.1026 
L 635.127942 251.561432 
L 636.061573 250.630118 
L 637.928834 250.378412 
L 638.862465 249.912755 
L 639.796096 246.187501 
L 640.729727 246.187501 
L 641.663358 243.657853 
L 642.596988 242.864978 
L 643.530619 242.474833 
L 645.397881 242.1602 
L 646.331511 242.1602 
L 647.265142 241.732299 
L 648.198773 241.556105 
L 649.132404 240.939424 
L 650.999665 238.258751 
L 651.933296 237.138658 
L 652.866927 233.589599 
L 653.800558 231.361998 
L 654.734189 227.926206 
L 656.60145 227.875865 
L 658.468712 227.208843 
L 659.402342 225.144851 
L 660.335973 225.132266 
L 661.269604 222.955006 
L 662.203235 221.620962 
L 665.004127 221.495109 
L 665.937758 220.677063 
L 666.871389 220.286919 
L 667.80502 219.103899 
L 668.73865 217.442637 
L 669.672281 217.291613 
L 670.605912 216.662347 
L 671.539543 214.132699 
L 672.473173 213.276897 
L 673.406804 213.125873 
L 674.340435 211.540123 
L 675.274066 210.772419 
L 676.207697 207.928137 
L 677.141327 207.210774 
L 678.074958 206.229119 
L 679.008589 206.178778 
L 679.94222 205.461415 
L 680.875851 203.08279 
L 681.809481 202.201818 
L 682.743112 202.113721 
L 683.676743 201.648064 
L 684.610374 201.648064 
L 685.544004 201.119481 
L 686.477635 201.119481 
L 687.411266 200.993627 
L 688.344897 200.540556 
L 689.278528 200.527971 
L 690.212158 200.049729 
L 691.145789 198.91705 
L 692.07942 193.782241 
L 693.013051 192.913854 
L 693.946682 189.692013 
L 695.813943 189.629086 
L 696.747574 186.82256 
L 697.681205 185.82832 
L 699.548466 185.82832 
L 700.482097 181.398289 
L 701.415728 180.378878 
L 702.349359 179.888051 
L 703.282989 179.799953 
L 704.21662 179.434979 
L 705.150251 178.830884 
L 707.017513 176.376747 
L 707.951143 173.834513 
L 708.884774 173.834513 
L 709.818405 172.047398 
L 710.752036 171.883789 
L 712.619297 171.883789 
L 713.552928 169.580676 
L 714.486559 168.020097 
L 715.42019 167.567025 
L 716.35382 165.691813 
L 717.287451 164.269672 
L 719.154713 164.269672 
L 720.088344 161.513488 
L 721.021974 161.513488 
L 721.955605 161.161099 
L 722.889236 160.670271 
L 723.822867 159.512422 
L 724.756497 154.692246 
L 726.623759 154.67966 
L 727.55739 149.809143 
L 728.491021 149.49451 
L 729.424651 148.009442 
L 730.358282 139.375915 
L 731.291913 138.658552 
L 733.159175 135.449296 
L 734.092805 131.598189 
L 735.026436 129.345417 
L 735.960067 129.345417 
L 736.893698 128.87976 
L 737.827328 125.09158 
L 738.760959 112.518848 
L 739.69459 111.247731 
L 740.628221 100.764162 
L 741.561852 92.118049 
L 742.495482 91.073468 
L 743.429113 90.431616 
L 744.362744 90.431616 
L 745.296375 89.160499 
L 746.230006 87.146849 
L 747.163636 66.96 
L 747.163636 66.96 
" clip-path="url(#pdb2dfaa3f5)" style="fill: none; stroke: #ff0000; stroke-width: 0.5; stroke-linecap: square"/>
   </g>
   <g id="line2d_16">
    <path d="M 138.436364 360.592312 
L 139.369994 344.038342 
L 140.303625 344.058708 
L 141.237256 339.207594 
L 142.170887 355.278486 
L 143.104518 351.288455 
L 144.038148 363.26614 
L 144.971779 344.04325 
L 145.90541 346.924035 
L 146.839041 346.282933 
L 150.573564 346.282933 
L 151.507195 344.062153 
L 153.374456 344.058708 
L 154.308087 341.281108 
L 155.241718 341.281108 
L 156.175349 344.05503 
L 157.108979 345.5804 
L 158.04261 342.073909 
L 158.976241 305.081439 
L 159.909872 334.109104 
L 160.843503 355.549209 
L 161.777133 344.038342 
L 163.644395 344.038342 
L 164.578026 351.288455 
L 165.511656 344.038342 
L 166.445287 343.961111 
L 168.312549 344.038342 
L 171.113441 344.038342 
L 172.047072 344.739357 
L 172.980703 344.038342 
L 189.786057 344.038342 
L 190.719688 340.941566 
L 191.653318 344.038342 
L 195.387842 344.038342 
L 196.321472 338.637143 
L 197.255103 344.038342 
L 201.923257 344.038342 
L 202.856888 341.71759 
L 203.790519 344.038342 
L 204.724149 344.038342 
L 205.65778 346.127226 
L 206.591411 344.038342 
L 222.463134 344.038342 
L 223.396765 345.5804 
L 224.330396 344.038342 
L 234.600335 344.038342 
L 235.533965 345.924985 
L 236.467596 344.038342 
L 239.268489 344.038342 
L 240.202119 346.282933 
L 241.13575 344.038342 
L 250.472058 344.038342 
L 251.405689 355.549209 
L 252.33932 344.038342 
L 264.47652 344.038342 
L 265.410151 341.71759 
L 266.343781 344.038342 
L 271.011935 344.038342 
L 271.945566 355.634645 
L 272.879197 344.038342 
L 312.09169 344.038342 
L 313.025321 355.09809 
L 313.958951 344.038342 
L 317.693475 344.038342 
L 318.627105 344.272051 
L 319.560736 344.038342 
L 328.897044 344.038342 
L 329.830675 346.282933 
L 330.764306 344.038342 
L 334.498829 344.038342 
L 335.43246 340.955837 
L 336.36609 344.038342 
L 343.835137 344.038342 
L 344.768767 343.096771 
L 345.702398 344.206989 
L 346.636029 344.037964 
L 373.711322 344.038342 
L 374.644953 355.634645 
L 375.578583 344.038342 
L 376.512214 345.924985 
L 377.445845 344.038342 
L 402.653876 344.038342 
L 403.587507 352.544993 
L 404.521138 344.038342 
L 418.5256 344.038342 
L 419.45923 346.282933 
L 420.392861 344.038342 
L 425.061015 344.063408 
L 425.994646 346.282933 
L 426.928277 344.038342 
L 428.795538 344.038342 
L 429.729169 355.750025 
L 430.6628 344.038342 
L 445.600892 344.038342 
L 446.534523 346.282933 
L 447.468154 344.038342 
L 448.401785 344.800215 
L 449.335416 327.713422 
L 450.269046 334.109104 
L 451.202677 336.80318 
L 452.136308 342.378577 
L 453.069939 334.109104 
L 454.003569 344.04755 
L 455.870831 344.038342 
L 456.804462 339.445974 
L 457.738093 338.019527 
L 458.671723 336.381104 
L 459.605354 344.037461 
L 460.538985 343.351003 
L 461.472616 344.037461 
L 462.406247 355.549209 
L 463.339877 334.109104 
L 464.273508 330.183941 
L 465.207139 340.612374 
L 466.14077 339.457464 
L 467.0744 339.445974 
L 468.008031 305.697292 
L 468.941662 339.334779 
L 469.875293 339.445974 
L 470.808924 346.176868 
L 471.742554 344.05503 
L 472.676185 339.643525 
L 473.609816 338.918473 
L 474.543447 322.10217 
L 475.477078 339.445974 
L 476.410708 334.259833 
L 477.344339 353.94091 
L 478.27797 325.871769 
L 479.211601 336.381104 
L 480.145231 336.381104 
L 481.078862 336.563701 
L 482.012493 335.639604 
L 482.946124 343.814322 
L 483.879755 335.639604 
L 484.813385 323.860425 
L 485.747016 344.038342 
L 486.680647 336.381104 
L 487.614278 336.381104 
L 488.547909 328.658687 
L 489.481539 333.906686 
L 490.41517 305.472074 
L 491.348801 336.381104 
L 492.282432 305.472074 
L 493.216062 325.866482 
L 494.149693 331.962613 
L 495.083324 310.196816 
L 496.016955 310.615216 
L 496.950586 331.561273 
L 497.884216 342.120533 
L 498.817847 336.381104 
L 499.751478 329.866178 
L 500.685109 305.439348 
L 501.61874 325.574743 
L 502.55237 320.783983 
L 503.486001 333.906686 
L 504.419632 323.860425 
L 505.353263 342.36747 
L 506.286893 324.440587 
L 507.220524 339.678473 
L 509.087786 324.580749 
L 510.021417 339.335238 
L 510.955047 331.097639 
L 511.888678 325.574743 
L 512.822309 346.438441 
L 513.75594 314.887541 
L 514.689571 324.580749 
L 515.623201 331.097639 
L 516.556832 324.440587 
L 517.490463 329.7587 
L 518.424094 314.643394 
L 519.357724 324.440587 
L 520.291355 282.585413 
L 521.224986 290.284718 
L 522.158617 310.494279 
L 523.092248 342.80179 
L 524.025878 305.472074 
L 524.959509 312.648878 
L 525.89314 312.648878 
L 526.826771 320.907851 
L 527.760402 310.520604 
L 528.694032 312.434012 
L 529.627663 320.907851 
L 530.561294 324.533706 
L 531.494925 278.593128 
L 532.428555 312.434012 
L 533.362186 312.648878 
L 534.295817 323.860425 
L 535.229448 313.544337 
L 536.163079 310.520604 
L 537.096709 331.097639 
L 538.03034 310.590724 
L 538.963971 305.051553 
L 539.897602 310.196816 
L 540.831233 300.984056 
L 541.764863 311.00307 
L 542.698494 296.213241 
L 543.632125 305.051553 
L 544.565756 310.194466 
L 545.499387 305.051553 
L 546.433017 307.873102 
L 547.366648 300.436465 
L 548.300279 303.168502 
L 549.23391 305.152729 
L 550.16754 304.957935 
L 551.101171 300.575752 
L 552.034802 305.051553 
L 552.968433 307.873102 
L 553.902064 305.051553 
L 554.835694 303.168502 
L 555.769325 305.439348 
L 556.702956 297.909726 
L 557.636587 297.909726 
L 558.570218 305.152729 
L 559.503848 297.909726 
L 562.304741 297.909726 
L 563.238371 290.104142 
L 564.172002 292.715272 
L 565.105633 280.519667 
L 566.039264 297.607329 
L 566.972895 305.051553 
L 567.906525 305.078808 
L 568.840156 300.598137 
L 569.773787 297.909726 
L 570.707418 297.909726 
L 571.641049 293.942644 
L 572.574679 265.826137 
L 573.50831 265.250134 
L 574.441941 264.341297 
L 575.375572 282.867706 
L 576.309202 293.953554 
L 577.242833 264.467987 
L 578.176464 305.471153 
L 579.110095 300.598137 
L 580.043726 292.237846 
L 580.977356 290.104142 
L 581.910987 292.237846 
L 582.844618 300.524242 
L 583.778249 274.851274 
L 584.71188 277.862311 
L 585.64551 294.488417 
L 586.579141 222.47537 
L 587.512772 265.723407 
L 588.446403 267.665641 
L 589.380033 296.675374 
L 590.313664 275.818078 
L 591.247295 213.698841 
L 592.180926 298.715791 
L 593.114557 275.818078 
L 594.048187 279.264756 
L 594.981818 252.388652 
L 596.84908 296.356667 
L 597.782711 296.356667 
L 598.716341 279.264756 
L 599.649972 282.867706 
L 600.583603 282.867706 
L 601.517234 225.480293 
L 602.450864 264.200351 
L 604.318126 282.821079 
L 605.251757 255.098734 
L 606.185388 296.356667 
L 607.119018 286.15575 
L 608.052649 267.73227 
L 608.98628 265.826137 
L 613.654434 265.826137 
L 614.588065 227.279535 
L 615.521695 256.952625 
L 616.455326 264.501443 
L 617.388957 264.272999 
L 618.322588 260.164126 
L 619.256219 264.467987 
L 620.189849 305.388 
L 621.12348 245.495234 
L 622.057111 240.518921 
L 622.990742 265.826137 
L 628.592526 265.826137 
L 629.526157 240.371222 
L 630.459788 256.338883 
L 631.393419 234.170353 
L 632.32705 256.338883 
L 633.26068 298.715791 
L 634.194311 254.855869 
L 635.127942 237.115536 
L 636.061573 275.177393 
L 636.995204 248.03517 
L 637.928834 240.518921 
L 638.862465 212.711014 
L 639.796096 260.164126 
L 640.729727 245.953063 
L 641.663358 237.714394 
L 642.596988 255.098734 
L 643.530619 235.926906 
L 644.46425 278.353276 
L 645.397881 255.115336 
L 646.331511 234.70317 
L 647.265142 254.855869 
L 648.198773 266.675194 
L 649.132404 265.688466 
L 650.066035 254.855869 
L 650.999665 296.679035 
L 651.933296 238.709516 
L 652.866927 236.390422 
L 653.800558 266.461884 
L 654.734189 232.497244 
L 656.60145 232.497244 
L 657.535081 227.36115 
L 658.468712 248.03517 
L 659.402342 217.836191 
L 660.335973 202.127009 
L 661.269604 205.641169 
L 662.203235 209.610017 
L 663.136866 267.460377 
L 664.070496 269.02013 
L 665.004127 211.796688 
L 665.937758 248.03517 
L 666.871389 211.65608 
L 667.80502 217.858814 
L 668.73865 213.889544 
L 669.672281 180.82099 
L 670.605912 216.936246 
L 671.539543 211.796688 
L 672.473173 213.188268 
L 673.406804 212.338859 
L 674.340435 213.188268 
L 675.274066 225.340553 
L 676.207697 229.246517 
L 677.141327 202.477185 
L 678.074958 209.610017 
L 679.008589 201.341668 
L 679.94222 201.410466 
L 680.875851 205.692292 
L 681.809481 202.477185 
L 682.743112 201.109748 
L 683.676743 206.362401 
L 684.610374 206.489323 
L 685.544004 206.362401 
L 686.477635 206.489323 
L 687.411266 209.610017 
L 688.344897 201.262176 
L 689.278528 209.610017 
L 690.212158 209.610017 
L 691.145789 202.477185 
L 692.07942 206.196528 
L 693.013051 168.609026 
L 693.946682 189.318308 
L 694.880312 187.865516 
L 695.813943 191.796774 
L 696.747574 188.496621 
L 697.681205 225.480293 
L 698.614835 225.480293 
L 699.548466 227.058513 
L 701.415728 177.482231 
L 702.349359 182.496582 
L 703.282989 193.992878 
L 704.21662 179.40814 
L 705.150251 179.556725 
L 706.083882 176.506403 
L 707.017513 176.506403 
L 707.951143 205.935789 
L 708.884774 199.474233 
L 709.818405 228.324414 
L 710.752036 184.01372 
L 711.685666 176.094293 
L 712.619297 176.094293 
L 713.552928 244.008018 
L 714.486559 168.487819 
L 715.42019 168.569351 
L 716.35382 168.198418 
L 717.287451 160.885013 
L 718.221082 168.844645 
L 719.154713 160.885013 
L 720.088344 161.397331 
L 721.021974 151.879962 
L 721.955605 229.246517 
L 722.889236 229.246517 
L 723.822867 146.054644 
L 724.756497 217.836191 
L 726.623759 217.836191 
L 727.55739 264.341297 
L 728.491021 149.116814 
L 729.424651 176.094293 
L 730.358282 159.388029 
L 731.291913 146.240672 
L 732.225544 159.445865 
L 733.159175 146.240672 
L 734.092805 275.59849 
L 735.026436 275.61105 
L 735.960067 227.388504 
L 736.893698 193.992878 
L 737.827328 224.810249 
L 738.760959 227.98787 
L 739.69459 227.98787 
L 740.628221 102.996797 
L 741.561852 80.48242 
L 742.495482 104.684182 
L 743.429113 118.829827 
L 744.362744 221.226958 
L 745.296375 118.829827 
L 746.230006 222.236987 
L 747.163636 126.41308 
L 747.163636 126.41308 
" clip-path="url(#pdb2dfaa3f5)" style="fill: none; stroke: #1f77b4; stroke-width: 0.5; stroke-linecap: square"/>
   </g>
   <g id="patch_3">
    <path d="M 108 384.48 
L 108 51.84 
" style="fill: none; stroke: #000000; stroke-width: 0.8; stroke-linejoin: miter; stroke-linecap: square"/>
   </g>
   <g id="patch_4">
    <path d="M 777.6 384.48 
L 777.6 51.84 
" style="fill: none; stroke: #000000; stroke-width: 0.8; stroke-linejoin: miter; stroke-linecap: square"/>
   </g>
   <g id="patch_5">
    <path d="M 108 384.48 
L 777.6 384.48 
" style="fill: none; stroke: #000000; stroke-width: 0.8; stroke-linejoin: miter; stroke-linecap: square"/>
   </g>
   <g id="patch_6">
    <path d="M 108 51.84 
L 777.6 51.84 
" style="fill: none; stroke: #000000; stroke-width: 0.8; stroke-linejoin: miter; stroke-linecap: square"/>
   </g>
   <g id="text_15">
    <!-- 1108 samples predictions -->
    <g transform="translate(365.55 45.84) scale(0.12 -0.12)">
     <defs>
      <path id="DejaVuSans-38" d="M 2034 2216 
Q 1584 2216 1326 1975 
Q 1069 1734 1069 1313 
Q 1069 891 1326 650 
Q 1584 409 2034 409 
Q 2484 409 2743 651 
Q 3003 894 3003 1313 
Q 3003 1734 2745 1975 
Q 2488 2216 2034 2216 
z
M 1403 2484 
Q 997 2584 770 2862 
Q 544 3141 544 3541 
Q 544 4100 942 4425 
Q 1341 4750 2034 4750 
Q 2731 4750 3128 4425 
Q 3525 4100 3525 3541 
Q 3525 3141 3298 2862 
Q 3072 2584 2669 2484 
Q 3125 2378 3379 2068 
Q 3634 1759 3634 1313 
Q 3634 634 3220 271 
Q 2806 -91 2034 -91 
Q 1263 -91 848 271 
Q 434 634 434 1313 
Q 434 1759 690 2068 
Q 947 2378 1403 2484 
z
M 1172 3481 
Q 1172 3119 1398 2916 
Q 1625 2713 2034 2713 
Q 2441 2713 2670 2916 
Q 2900 3119 2900 3481 
Q 2900 3844 2670 4047 
Q 2441 4250 2034 4250 
Q 1625 4250 1398 4047 
Q 1172 3844 1172 3481 
z
" transform="scale(0.015625)"/>
      <path id="DejaVuSans-64" d="M 2906 2969 
L 2906 4863 
L 3481 4863 
L 3481 0 
L 2906 0 
L 2906 525 
Q 2725 213 2448 61 
Q 2172 -91 1784 -91 
Q 1150 -91 751 415 
Q 353 922 353 1747 
Q 353 2572 751 3078 
Q 1150 3584 1784 3584 
Q 2172 3584 2448 3432 
Q 2725 3281 2906 2969 
z
M 947 1747 
Q 947 1113 1208 752 
Q 1469 391 1925 391 
Q 2381 391 2643 752 
Q 2906 1113 2906 1747 
Q 2906 2381 2643 2742 
Q 2381 3103 1925 3103 
Q 1469 3103 1208 2742 
Q 947 2381 947 1747 
z
" transform="scale(0.015625)"/>
      <path id="DejaVuSans-63" d="M 3122 3366 
L 3122 2828 
Q 2878 2963 2633 3030 
Q 2388 3097 2138 3097 
Q 1578 3097 1268 2742 
Q 959 2388 959 1747 
Q 959 1106 1268 751 
Q 1578 397 2138 397 
Q 2388 397 2633 464 
Q 2878 531 3122 666 
L 3122 134 
Q 2881 22 2623 -34 
Q 2366 -91 2075 -91 
Q 1284 -91 818 406 
Q 353 903 353 1747 
Q 353 2603 823 3093 
Q 1294 3584 2113 3584 
Q 2378 3584 2631 3529 
Q 2884 3475 3122 3366 
z
" transform="scale(0.015625)"/>
      <path id="DejaVuSans-6f" d="M 1959 3097 
Q 1497 3097 1228 2736 
Q 959 2375 959 1747 
Q 959 1119 1226 758 
Q 1494 397 1959 397 
Q 2419 397 2687 759 
Q 2956 1122 2956 1747 
Q 2956 2369 2687 2733 
Q 2419 3097 1959 3097 
z
M 1959 3584 
Q 2709 3584 3137 3096 
Q 3566 2609 3566 1747 
Q 3566 888 3137 398 
Q 2709 -91 1959 -91 
Q 1206 -91 779 398 
Q 353 888 353 1747 
Q 353 2609 779 3096 
Q 1206 3584 1959 3584 
z
" transform="scale(0.015625)"/>
     </defs>
     <use xlink:href="#DejaVuSans-31"/>
     <use xlink:href="#DejaVuSans-31" x="63.623047"/>
     <use xlink:href="#DejaVuSans-30" x="127.246094"/>
     <use xlink:href="#DejaVuSans-38" x="190.869141"/>
     <use xlink:href="#DejaVuSans-20" x="254.492188"/>
     <use xlink:href="#DejaVuSans-73" x="286.279297"/>
     <use xlink:href="#DejaVuSans-61" x="338.378906"/>
     <use xlink:href="#DejaVuSans-6d" x="399.658203"/>
     <use xlink:href="#DejaVuSans-70" x="497.070312"/>
     <use xlink:href="#DejaVuSans-6c" x="560.546875"/>
     <use xlink:href="#DejaVuSans-65" x="588.330078"/>
     <use xlink:href="#DejaVuSans-73" x="649.853516"/>
     <use xlink:href="#DejaVuSans-20" x="701.953125"/>
     <use xlink:href="#DejaVuSans-70" x="733.740234"/>
     <use xlink:href="#DejaVuSans-72" x="797.216797"/>
     <use xlink:href="#DejaVuSans-65" x="836.080078"/>
     <use xlink:href="#DejaVuSans-64" x="897.603516"/>
     <use xlink:href="#DejaVuSans-69" x="961.080078"/>
     <use xlink:href="#DejaVuSans-63" x="988.863281"/>
     <use xlink:href="#DejaVuSans-74" x="1043.84375"/>
     <use xlink:href="#DejaVuSans-69" x="1083.052734"/>
     <use xlink:href="#DejaVuSans-6f" x="1110.835938"/>
     <use xlink:href="#DejaVuSans-6e" x="1172.017578"/>
     <use xlink:href="#DejaVuSans-73" x="1235.396484"/>
    </g>
   </g>
   <g id="legend_1">
    <g id="patch_7">
     <path d="M 661.01875 379.48 
L 770.6 379.48 
Q 772.6 379.48 772.6 377.48 
L 772.6 349.12375 
Q 772.6 347.12375 770.6 347.12375 
L 661.01875 347.12375 
Q 659.01875 347.12375 659.01875 349.12375 
L 659.01875 377.48 
Q 659.01875 379.48 661.01875 379.48 
z
" style="fill: #ffffff; opacity: 0.8; stroke: #cccccc; stroke-linejoin: miter"/>
    </g>
    <g id="line2d_17">
     <path d="M 663.01875 355.222188 
L 673.01875 355.222188 
L 683.01875 355.222188 
" style="fill: none; stroke: #ff0000; stroke-width: 0.5; stroke-linecap: square"/>
    </g>
    <g id="text_16">
     <!-- Actual Value -->
     <g transform="translate(691.01875 358.722188) scale(0.1 -0.1)">
      <defs>
       <path id="DejaVuSans-41" d="M 2188 4044 
L 1331 1722 
L 3047 1722 
L 2188 4044 
z
M 1831 4666 
L 2547 4666 
L 4325 0 
L 3669 0 
L 3244 1197 
L 1141 1197 
L 716 0 
L 50 0 
L 1831 4666 
z
" transform="scale(0.015625)"/>
       <path id="DejaVuSans-56" d="M 1831 0 
L 50 4666 
L 709 4666 
L 2188 738 
L 3669 4666 
L 4325 4666 
L 2547 0 
L 1831 0 
z
" transform="scale(0.015625)"/>
      </defs>
      <use xlink:href="#DejaVuSans-41"/>
      <use xlink:href="#DejaVuSans-63" x="66.658203"/>
      <use xlink:href="#DejaVuSans-74" x="121.638672"/>
      <use xlink:href="#DejaVuSans-75" x="160.847656"/>
      <use xlink:href="#DejaVuSans-61" x="224.226562"/>
      <use xlink:href="#DejaVuSans-6c" x="285.505859"/>
      <use xlink:href="#DejaVuSans-20" x="313.289062"/>
      <use xlink:href="#DejaVuSans-56" x="345.076172"/>
      <use xlink:href="#DejaVuSans-61" x="405.734375"/>
      <use xlink:href="#DejaVuSans-6c" x="467.013672"/>
      <use xlink:href="#DejaVuSans-75" x="494.796875"/>
      <use xlink:href="#DejaVuSans-65" x="558.175781"/>
     </g>
    </g>
    <g id="line2d_18">
     <path d="M 663.01875 369.900312 
L 673.01875 369.900312 
L 683.01875 369.900312 
" style="fill: none; stroke: #1f77b4; stroke-width: 0.5; stroke-linecap: square"/>
    </g>
    <g id="text_17">
     <!-- Predicted Value -->
     <g transform="translate(691.01875 373.400312) scale(0.1 -0.1)">
      <defs>
       <path id="DejaVuSans-50" d="M 1259 4147 
L 1259 2394 
L 2053 2394 
Q 2494 2394 2734 2622 
Q 2975 2850 2975 3272 
Q 2975 3691 2734 3919 
Q 2494 4147 2053 4147 
L 1259 4147 
z
M 628 4666 
L 2053 4666 
Q 2838 4666 3239 4311 
Q 3641 3956 3641 3272 
Q 3641 2581 3239 2228 
Q 2838 1875 2053 1875 
L 1259 1875 
L 1259 0 
L 628 0 
L 628 4666 
z
" transform="scale(0.015625)"/>
      </defs>
      <use xlink:href="#DejaVuSans-50"/>
      <use xlink:href="#DejaVuSans-72" x="58.552734"/>
      <use xlink:href="#DejaVuSans-65" x="97.416016"/>
      <use xlink:href="#DejaVuSans-64" x="158.939453"/>
      <use xlink:href="#DejaVuSans-69" x="222.416016"/>
      <use xlink:href="#DejaVuSans-63" x="250.199219"/>
      <use xlink:href="#DejaVuSans-74" x="305.179688"/>
      <use xlink:href="#DejaVuSans-65" x="344.388672"/>
      <use xlink:href="#DejaVuSans-64" x="405.912109"/>
      <use xlink:href="#DejaVuSans-20" x="469.388672"/>
      <use xlink:href="#DejaVuSans-56" x="501.175781"/>
      <use xlink:href="#DejaVuSans-61" x="561.833984"/>
      <use xlink:href="#DejaVuSans-6c" x="623.113281"/>
      <use xlink:href="#DejaVuSans-75" x="650.896484"/>
      <use xlink:href="#DejaVuSans-65" x="714.275391"/>
     </g>
    </g>
   </g>
  </g>
 </g>
 <defs>
  <clipPath id="pdb2dfaa3f5">
   <rect x="108" y="51.84" width="669.6" height="332.64"/>
  </clipPath>
 </defs>
</svg>
