<?xml version="1.0" encoding="utf-8" standalone="no"?>
<!DOCTYPE svg PUBLIC "-//W3C//DTD SVG 1.1//EN"
  "http://www.w3.org/Graphics/SVG/1.1/DTD/svg11.dtd">
<svg xmlns:xlink="http://www.w3.org/1999/xlink" width="864pt" height="432pt" viewBox="0 0 864 432" xmlns="http://www.w3.org/2000/svg" version="1.1">
 <metadata>
  <rdf:RDF xmlns:dc="http://purl.org/dc/elements/1.1/" xmlns:cc="http://creativecommons.org/ns#" xmlns:rdf="http://www.w3.org/1999/02/22-rdf-syntax-ns#">
   <cc:Work>
    <dc:type rdf:resource="http://purl.org/dc/dcmitype/StillImage"/>
    <dc:date>2024-04-15T11:20:03.006502</dc:date>
    <dc:format>image/svg+xml</dc:format>
    <dc:creator>
     <cc:Agent>
      <dc:title>Matplotlib v3.8.2, https://matplotlib.org/</dc:title>
     </cc:Agent>
    </dc:creator>
   </cc:Work>
  </rdf:RDF>
 </metadata>
 <defs>
  <style type="text/css">*{stroke-linejoin: round; stroke-linecap: butt}</style>
 </defs>
 <g id="figure_1">
  <g id="patch_1">
   <path d="M 0 432 
L 864 432 
L 864 0 
L 0 0 
z
" style="fill: #ffffff"/>
  </g>
  <g id="axes_1">
   <g id="patch_2">
    <path d="M 108 384.48 
L 777.6 384.48 
L 777.6 51.84 
L 108 51.84 
z
" style="fill: #ffffff"/>
   </g>
   <g id="matplotlib.axis_1">
    <g id="xtick_1">
     <g id="line2d_1">
      <defs>
       <path id="m56f00679ed" d="M 0 0 
L 0 3.5 
" style="stroke: #000000; stroke-width: 0.8"/>
      </defs>
      <g>
       <use xlink:href="#m56f00679ed" x="138.436364" y="384.48" style="stroke: #000000; stroke-width: 0.8"/>
      </g>
     </g>
     <g id="text_1">
      <!-- 0 -->
      <g transform="translate(135.255114 399.078438) scale(0.1 -0.1)">
       <defs>
        <path id="DejaVuSans-30" d="M 2034 4250 
Q 1547 4250 1301 3770 
Q 1056 3291 1056 2328 
Q 1056 1369 1301 889 
Q 1547 409 2034 409 
Q 2525 409 2770 889 
Q 3016 1369 3016 2328 
Q 3016 3291 2770 3770 
Q 2525 4250 2034 4250 
z
M 2034 4750 
Q 2819 4750 3233 4129 
Q 3647 3509 3647 2328 
Q 3647 1150 3233 529 
Q 2819 -91 2034 -91 
Q 1250 -91 836 529 
Q 422 1150 422 2328 
Q 422 3509 836 4129 
Q 1250 4750 2034 4750 
z
" transform="scale(0.015625)"/>
       </defs>
       <use xlink:href="#DejaVuSans-30"/>
      </g>
     </g>
    </g>
    <g id="xtick_2">
     <g id="line2d_2">
      <g>
       <use xlink:href="#m56f00679ed" x="231.799442" y="384.48" style="stroke: #000000; stroke-width: 0.8"/>
      </g>
     </g>
     <g id="text_2">
      <!-- 100 -->
      <g transform="translate(222.255692 399.078438) scale(0.1 -0.1)">
       <defs>
        <path id="DejaVuSans-31" d="M 794 531 
L 1825 531 
L 1825 4091 
L 703 3866 
L 703 4441 
L 1819 4666 
L 2450 4666 
L 2450 531 
L 3481 531 
L 3481 0 
L 794 0 
L 794 531 
z
" transform="scale(0.015625)"/>
       </defs>
       <use xlink:href="#DejaVuSans-31"/>
       <use xlink:href="#DejaVuSans-30" x="63.623047"/>
       <use xlink:href="#DejaVuSans-30" x="127.246094"/>
      </g>
     </g>
    </g>
    <g id="xtick_3">
     <g id="line2d_3">
      <g>
       <use xlink:href="#m56f00679ed" x="325.162521" y="384.48" style="stroke: #000000; stroke-width: 0.8"/>
      </g>
     </g>
     <g id="text_3">
      <!-- 200 -->
      <g transform="translate(315.618771 399.078438) scale(0.1 -0.1)">
       <defs>
        <path id="DejaVuSans-32" d="M 1228 531 
L 3431 531 
L 3431 0 
L 469 0 
L 469 531 
Q 828 903 1448 1529 
Q 2069 2156 2228 2338 
Q 2531 2678 2651 2914 
Q 2772 3150 2772 3378 
Q 2772 3750 2511 3984 
Q 2250 4219 1831 4219 
Q 1534 4219 1204 4116 
Q 875 4013 500 3803 
L 500 4441 
Q 881 4594 1212 4672 
Q 1544 4750 1819 4750 
Q 2544 4750 2975 4387 
Q 3406 4025 3406 3419 
Q 3406 3131 3298 2873 
Q 3191 2616 2906 2266 
Q 2828 2175 2409 1742 
Q 1991 1309 1228 531 
z
" transform="scale(0.015625)"/>
       </defs>
       <use xlink:href="#DejaVuSans-32"/>
       <use xlink:href="#DejaVuSans-30" x="63.623047"/>
       <use xlink:href="#DejaVuSans-30" x="127.246094"/>
      </g>
     </g>
    </g>
    <g id="xtick_4">
     <g id="line2d_4">
      <g>
       <use xlink:href="#m56f00679ed" x="418.5256" y="384.48" style="stroke: #000000; stroke-width: 0.8"/>
      </g>
     </g>
     <g id="text_4">
      <!-- 300 -->
      <g transform="translate(408.98185 399.078438) scale(0.1 -0.1)">
       <defs>
        <path id="DejaVuSans-33" d="M 2597 2516 
Q 3050 2419 3304 2112 
Q 3559 1806 3559 1356 
Q 3559 666 3084 287 
Q 2609 -91 1734 -91 
Q 1441 -91 1130 -33 
Q 819 25 488 141 
L 488 750 
Q 750 597 1062 519 
Q 1375 441 1716 441 
Q 2309 441 2620 675 
Q 2931 909 2931 1356 
Q 2931 1769 2642 2001 
Q 2353 2234 1838 2234 
L 1294 2234 
L 1294 2753 
L 1863 2753 
Q 2328 2753 2575 2939 
Q 2822 3125 2822 3475 
Q 2822 3834 2567 4026 
Q 2313 4219 1838 4219 
Q 1578 4219 1281 4162 
Q 984 4106 628 3988 
L 628 4550 
Q 988 4650 1302 4700 
Q 1616 4750 1894 4750 
Q 2613 4750 3031 4423 
Q 3450 4097 3450 3541 
Q 3450 3153 3228 2886 
Q 3006 2619 2597 2516 
z
" transform="scale(0.015625)"/>
       </defs>
       <use xlink:href="#DejaVuSans-33"/>
       <use xlink:href="#DejaVuSans-30" x="63.623047"/>
       <use xlink:href="#DejaVuSans-30" x="127.246094"/>
      </g>
     </g>
    </g>
    <g id="xtick_5">
     <g id="line2d_5">
      <g>
       <use xlink:href="#m56f00679ed" x="511.888678" y="384.48" style="stroke: #000000; stroke-width: 0.8"/>
      </g>
     </g>
     <g id="text_5">
      <!-- 400 -->
      <g transform="translate(502.344928 399.078438) scale(0.1 -0.1)">
       <defs>
        <path id="DejaVuSans-34" d="M 2419 4116 
L 825 1625 
L 2419 1625 
L 2419 4116 
z
M 2253 4666 
L 3047 4666 
L 3047 1625 
L 3713 1625 
L 3713 1100 
L 3047 1100 
L 3047 0 
L 2419 0 
L 2419 1100 
L 313 1100 
L 313 1709 
L 2253 4666 
z
" transform="scale(0.015625)"/>
       </defs>
       <use xlink:href="#DejaVuSans-34"/>
       <use xlink:href="#DejaVuSans-30" x="63.623047"/>
       <use xlink:href="#DejaVuSans-30" x="127.246094"/>
      </g>
     </g>
    </g>
    <g id="xtick_6">
     <g id="line2d_6">
      <g>
       <use xlink:href="#m56f00679ed" x="605.251757" y="384.48" style="stroke: #000000; stroke-width: 0.8"/>
      </g>
     </g>
     <g id="text_6">
      <!-- 500 -->
      <g transform="translate(595.708007 399.078438) scale(0.1 -0.1)">
       <defs>
        <path id="DejaVuSans-35" d="M 691 4666 
L 3169 4666 
L 3169 4134 
L 1269 4134 
L 1269 2991 
Q 1406 3038 1543 3061 
Q 1681 3084 1819 3084 
Q 2600 3084 3056 2656 
Q 3513 2228 3513 1497 
Q 3513 744 3044 326 
Q 2575 -91 1722 -91 
Q 1428 -91 1123 -41 
Q 819 9 494 109 
L 494 744 
Q 775 591 1075 516 
Q 1375 441 1709 441 
Q 2250 441 2565 725 
Q 2881 1009 2881 1497 
Q 2881 1984 2565 2268 
Q 2250 2553 1709 2553 
Q 1456 2553 1204 2497 
Q 953 2441 691 2322 
L 691 4666 
z
" transform="scale(0.015625)"/>
       </defs>
       <use xlink:href="#DejaVuSans-35"/>
       <use xlink:href="#DejaVuSans-30" x="63.623047"/>
       <use xlink:href="#DejaVuSans-30" x="127.246094"/>
      </g>
     </g>
    </g>
    <g id="xtick_7">
     <g id="line2d_7">
      <g>
       <use xlink:href="#m56f00679ed" x="698.614835" y="384.48" style="stroke: #000000; stroke-width: 0.8"/>
      </g>
     </g>
     <g id="text_7">
      <!-- 600 -->
      <g transform="translate(689.071085 399.078438) scale(0.1 -0.1)">
       <defs>
        <path id="DejaVuSans-36" d="M 2113 2584 
Q 1688 2584 1439 2293 
Q 1191 2003 1191 1497 
Q 1191 994 1439 701 
Q 1688 409 2113 409 
Q 2538 409 2786 701 
Q 3034 994 3034 1497 
Q 3034 2003 2786 2293 
Q 2538 2584 2113 2584 
z
M 3366 4563 
L 3366 3988 
Q 3128 4100 2886 4159 
Q 2644 4219 2406 4219 
Q 1781 4219 1451 3797 
Q 1122 3375 1075 2522 
Q 1259 2794 1537 2939 
Q 1816 3084 2150 3084 
Q 2853 3084 3261 2657 
Q 3669 2231 3669 1497 
Q 3669 778 3244 343 
Q 2819 -91 2113 -91 
Q 1303 -91 875 529 
Q 447 1150 447 2328 
Q 447 3434 972 4092 
Q 1497 4750 2381 4750 
Q 2619 4750 2861 4703 
Q 3103 4656 3366 4563 
z
" transform="scale(0.015625)"/>
       </defs>
       <use xlink:href="#DejaVuSans-36"/>
       <use xlink:href="#DejaVuSans-30" x="63.623047"/>
       <use xlink:href="#DejaVuSans-30" x="127.246094"/>
      </g>
     </g>
    </g>
    <g id="text_8">
     <!-- Sample Number -->
     <g transform="translate(402.376562 412.756563) scale(0.1 -0.1)">
      <defs>
       <path id="DejaVuSans-53" d="M 3425 4513 
L 3425 3897 
Q 3066 4069 2747 4153 
Q 2428 4238 2131 4238 
Q 1616 4238 1336 4038 
Q 1056 3838 1056 3469 
Q 1056 3159 1242 3001 
Q 1428 2844 1947 2747 
L 2328 2669 
Q 3034 2534 3370 2195 
Q 3706 1856 3706 1288 
Q 3706 609 3251 259 
Q 2797 -91 1919 -91 
Q 1588 -91 1214 -16 
Q 841 59 441 206 
L 441 856 
Q 825 641 1194 531 
Q 1563 422 1919 422 
Q 2459 422 2753 634 
Q 3047 847 3047 1241 
Q 3047 1584 2836 1778 
Q 2625 1972 2144 2069 
L 1759 2144 
Q 1053 2284 737 2584 
Q 422 2884 422 3419 
Q 422 4038 858 4394 
Q 1294 4750 2059 4750 
Q 2388 4750 2728 4690 
Q 3069 4631 3425 4513 
z
" transform="scale(0.015625)"/>
       <path id="DejaVuSans-61" d="M 2194 1759 
Q 1497 1759 1228 1600 
Q 959 1441 959 1056 
Q 959 750 1161 570 
Q 1363 391 1709 391 
Q 2188 391 2477 730 
Q 2766 1069 2766 1631 
L 2766 1759 
L 2194 1759 
z
M 3341 1997 
L 3341 0 
L 2766 0 
L 2766 531 
Q 2569 213 2275 61 
Q 1981 -91 1556 -91 
Q 1019 -91 701 211 
Q 384 513 384 1019 
Q 384 1609 779 1909 
Q 1175 2209 1959 2209 
L 2766 2209 
L 2766 2266 
Q 2766 2663 2505 2880 
Q 2244 3097 1772 3097 
Q 1472 3097 1187 3025 
Q 903 2953 641 2809 
L 641 3341 
Q 956 3463 1253 3523 
Q 1550 3584 1831 3584 
Q 2591 3584 2966 3190 
Q 3341 2797 3341 1997 
z
" transform="scale(0.015625)"/>
       <path id="DejaVuSans-6d" d="M 3328 2828 
Q 3544 3216 3844 3400 
Q 4144 3584 4550 3584 
Q 5097 3584 5394 3201 
Q 5691 2819 5691 2113 
L 5691 0 
L 5113 0 
L 5113 2094 
Q 5113 2597 4934 2840 
Q 4756 3084 4391 3084 
Q 3944 3084 3684 2787 
Q 3425 2491 3425 1978 
L 3425 0 
L 2847 0 
L 2847 2094 
Q 2847 2600 2669 2842 
Q 2491 3084 2119 3084 
Q 1678 3084 1418 2786 
Q 1159 2488 1159 1978 
L 1159 0 
L 581 0 
L 581 3500 
L 1159 3500 
L 1159 2956 
Q 1356 3278 1631 3431 
Q 1906 3584 2284 3584 
Q 2666 3584 2933 3390 
Q 3200 3197 3328 2828 
z
" transform="scale(0.015625)"/>
       <path id="DejaVuSans-70" d="M 1159 525 
L 1159 -1331 
L 581 -1331 
L 581 3500 
L 1159 3500 
L 1159 2969 
Q 1341 3281 1617 3432 
Q 1894 3584 2278 3584 
Q 2916 3584 3314 3078 
Q 3713 2572 3713 1747 
Q 3713 922 3314 415 
Q 2916 -91 2278 -91 
Q 1894 -91 1617 61 
Q 1341 213 1159 525 
z
M 3116 1747 
Q 3116 2381 2855 2742 
Q 2594 3103 2138 3103 
Q 1681 3103 1420 2742 
Q 1159 2381 1159 1747 
Q 1159 1113 1420 752 
Q 1681 391 2138 391 
Q 2594 391 2855 752 
Q 3116 1113 3116 1747 
z
" transform="scale(0.015625)"/>
       <path id="DejaVuSans-6c" d="M 603 4863 
L 1178 4863 
L 1178 0 
L 603 0 
L 603 4863 
z
" transform="scale(0.015625)"/>
       <path id="DejaVuSans-65" d="M 3597 1894 
L 3597 1613 
L 953 1613 
Q 991 1019 1311 708 
Q 1631 397 2203 397 
Q 2534 397 2845 478 
Q 3156 559 3463 722 
L 3463 178 
Q 3153 47 2828 -22 
Q 2503 -91 2169 -91 
Q 1331 -91 842 396 
Q 353 884 353 1716 
Q 353 2575 817 3079 
Q 1281 3584 2069 3584 
Q 2775 3584 3186 3129 
Q 3597 2675 3597 1894 
z
M 3022 2063 
Q 3016 2534 2758 2815 
Q 2500 3097 2075 3097 
Q 1594 3097 1305 2825 
Q 1016 2553 972 2059 
L 3022 2063 
z
" transform="scale(0.015625)"/>
       <path id="DejaVuSans-20" transform="scale(0.015625)"/>
       <path id="DejaVuSans-4e" d="M 628 4666 
L 1478 4666 
L 3547 763 
L 3547 4666 
L 4159 4666 
L 4159 0 
L 3309 0 
L 1241 3903 
L 1241 0 
L 628 0 
L 628 4666 
z
" transform="scale(0.015625)"/>
       <path id="DejaVuSans-75" d="M 544 1381 
L 544 3500 
L 1119 3500 
L 1119 1403 
Q 1119 906 1312 657 
Q 1506 409 1894 409 
Q 2359 409 2629 706 
Q 2900 1003 2900 1516 
L 2900 3500 
L 3475 3500 
L 3475 0 
L 2900 0 
L 2900 538 
Q 2691 219 2414 64 
Q 2138 -91 1772 -91 
Q 1169 -91 856 284 
Q 544 659 544 1381 
z
M 1991 3584 
L 1991 3584 
z
" transform="scale(0.015625)"/>
       <path id="DejaVuSans-62" d="M 3116 1747 
Q 3116 2381 2855 2742 
Q 2594 3103 2138 3103 
Q 1681 3103 1420 2742 
Q 1159 2381 1159 1747 
Q 1159 1113 1420 752 
Q 1681 391 2138 391 
Q 2594 391 2855 752 
Q 3116 1113 3116 1747 
z
M 1159 2969 
Q 1341 3281 1617 3432 
Q 1894 3584 2278 3584 
Q 2916 3584 3314 3078 
Q 3713 2572 3713 1747 
Q 3713 922 3314 415 
Q 2916 -91 2278 -91 
Q 1894 -91 1617 61 
Q 1341 213 1159 525 
L 1159 0 
L 581 0 
L 581 4863 
L 1159 4863 
L 1159 2969 
z
" transform="scale(0.015625)"/>
       <path id="DejaVuSans-72" d="M 2631 2963 
Q 2534 3019 2420 3045 
Q 2306 3072 2169 3072 
Q 1681 3072 1420 2755 
Q 1159 2438 1159 1844 
L 1159 0 
L 581 0 
L 581 3500 
L 1159 3500 
L 1159 2956 
Q 1341 3275 1631 3429 
Q 1922 3584 2338 3584 
Q 2397 3584 2469 3576 
Q 2541 3569 2628 3553 
L 2631 2963 
z
" transform="scale(0.015625)"/>
      </defs>
      <use xlink:href="#DejaVuSans-53"/>
      <use xlink:href="#DejaVuSans-61" x="63.476562"/>
      <use xlink:href="#DejaVuSans-6d" x="124.755859"/>
      <use xlink:href="#DejaVuSans-70" x="222.167969"/>
      <use xlink:href="#DejaVuSans-6c" x="285.644531"/>
      <use xlink:href="#DejaVuSans-65" x="313.427734"/>
      <use xlink:href="#DejaVuSans-20" x="374.951172"/>
      <use xlink:href="#DejaVuSans-4e" x="406.738281"/>
      <use xlink:href="#DejaVuSans-75" x="481.542969"/>
      <use xlink:href="#DejaVuSans-6d" x="544.921875"/>
      <use xlink:href="#DejaVuSans-62" x="642.333984"/>
      <use xlink:href="#DejaVuSans-65" x="705.810547"/>
      <use xlink:href="#DejaVuSans-72" x="767.333984"/>
     </g>
    </g>
   </g>
   <g id="matplotlib.axis_2">
    <g id="ytick_1">
     <g id="line2d_8">
      <defs>
       <path id="m9f8089dca0" d="M 0 0 
L -3.5 0 
" style="stroke: #000000; stroke-width: 0.8"/>
      </defs>
      <g>
       <use xlink:href="#m9f8089dca0" x="108" y="339.006383" style="stroke: #000000; stroke-width: 0.8"/>
      </g>
     </g>
     <g id="text_9">
      <!-- 0 -->
      <g transform="translate(94.6375 342.805602) scale(0.1 -0.1)">
       <use xlink:href="#DejaVuSans-30"/>
      </g>
     </g>
    </g>
    <g id="ytick_2">
     <g id="line2d_9">
      <g>
       <use xlink:href="#m9f8089dca0" x="108" y="277.222593" style="stroke: #000000; stroke-width: 0.8"/>
      </g>
     </g>
     <g id="text_10">
      <!-- 5 -->
      <g transform="translate(94.6375 281.021812) scale(0.1 -0.1)">
       <use xlink:href="#DejaVuSans-35"/>
      </g>
     </g>
    </g>
    <g id="ytick_3">
     <g id="line2d_10">
      <g>
       <use xlink:href="#m9f8089dca0" x="108" y="215.438804" style="stroke: #000000; stroke-width: 0.8"/>
      </g>
     </g>
     <g id="text_11">
      <!-- 10 -->
      <g transform="translate(88.275 219.238022) scale(0.1 -0.1)">
       <use xlink:href="#DejaVuSans-31"/>
       <use xlink:href="#DejaVuSans-30" x="63.623047"/>
      </g>
     </g>
    </g>
    <g id="ytick_4">
     <g id="line2d_11">
      <g>
       <use xlink:href="#m9f8089dca0" x="108" y="153.655014" style="stroke: #000000; stroke-width: 0.8"/>
      </g>
     </g>
     <g id="text_12">
      <!-- 15 -->
      <g transform="translate(88.275 157.454233) scale(0.1 -0.1)">
       <use xlink:href="#DejaVuSans-31"/>
       <use xlink:href="#DejaVuSans-35" x="63.623047"/>
      </g>
     </g>
    </g>
    <g id="ytick_5">
     <g id="line2d_12">
      <g>
       <use xlink:href="#m9f8089dca0" x="108" y="91.871224" style="stroke: #000000; stroke-width: 0.8"/>
      </g>
     </g>
     <g id="text_13">
      <!-- 20 -->
      <g transform="translate(88.275 95.670443) scale(0.1 -0.1)">
       <use xlink:href="#DejaVuSans-32"/>
       <use xlink:href="#DejaVuSans-30" x="63.623047"/>
      </g>
     </g>
    </g>
    <g id="text_14">
     <!-- Magnetism -->
     <g transform="translate(82.195312 245.781875) rotate(-90) scale(0.1 -0.1)">
      <defs>
       <path id="DejaVuSans-4d" d="M 628 4666 
L 1569 4666 
L 2759 1491 
L 3956 4666 
L 4897 4666 
L 4897 0 
L 4281 0 
L 4281 4097 
L 3078 897 
L 2444 897 
L 1241 4097 
L 1241 0 
L 628 0 
L 628 4666 
z
" transform="scale(0.015625)"/>
       <path id="DejaVuSans-67" d="M 2906 1791 
Q 2906 2416 2648 2759 
Q 2391 3103 1925 3103 
Q 1463 3103 1205 2759 
Q 947 2416 947 1791 
Q 947 1169 1205 825 
Q 1463 481 1925 481 
Q 2391 481 2648 825 
Q 2906 1169 2906 1791 
z
M 3481 434 
Q 3481 -459 3084 -895 
Q 2688 -1331 1869 -1331 
Q 1566 -1331 1297 -1286 
Q 1028 -1241 775 -1147 
L 775 -588 
Q 1028 -725 1275 -790 
Q 1522 -856 1778 -856 
Q 2344 -856 2625 -561 
Q 2906 -266 2906 331 
L 2906 616 
Q 2728 306 2450 153 
Q 2172 0 1784 0 
Q 1141 0 747 490 
Q 353 981 353 1791 
Q 353 2603 747 3093 
Q 1141 3584 1784 3584 
Q 2172 3584 2450 3431 
Q 2728 3278 2906 2969 
L 2906 3500 
L 3481 3500 
L 3481 434 
z
" transform="scale(0.015625)"/>
       <path id="DejaVuSans-6e" d="M 3513 2113 
L 3513 0 
L 2938 0 
L 2938 2094 
Q 2938 2591 2744 2837 
Q 2550 3084 2163 3084 
Q 1697 3084 1428 2787 
Q 1159 2491 1159 1978 
L 1159 0 
L 581 0 
L 581 3500 
L 1159 3500 
L 1159 2956 
Q 1366 3272 1645 3428 
Q 1925 3584 2291 3584 
Q 2894 3584 3203 3211 
Q 3513 2838 3513 2113 
z
" transform="scale(0.015625)"/>
       <path id="DejaVuSans-74" d="M 1172 4494 
L 1172 3500 
L 2356 3500 
L 2356 3053 
L 1172 3053 
L 1172 1153 
Q 1172 725 1289 603 
Q 1406 481 1766 481 
L 2356 481 
L 2356 0 
L 1766 0 
Q 1100 0 847 248 
Q 594 497 594 1153 
L 594 3053 
L 172 3053 
L 172 3500 
L 594 3500 
L 594 4494 
L 1172 4494 
z
" transform="scale(0.015625)"/>
       <path id="DejaVuSans-69" d="M 603 3500 
L 1178 3500 
L 1178 0 
L 603 0 
L 603 3500 
z
M 603 4863 
L 1178 4863 
L 1178 4134 
L 603 4134 
L 603 4863 
z
" transform="scale(0.015625)"/>
       <path id="DejaVuSans-73" d="M 2834 3397 
L 2834 2853 
Q 2591 2978 2328 3040 
Q 2066 3103 1784 3103 
Q 1356 3103 1142 2972 
Q 928 2841 928 2578 
Q 928 2378 1081 2264 
Q 1234 2150 1697 2047 
L 1894 2003 
Q 2506 1872 2764 1633 
Q 3022 1394 3022 966 
Q 3022 478 2636 193 
Q 2250 -91 1575 -91 
Q 1294 -91 989 -36 
Q 684 19 347 128 
L 347 722 
Q 666 556 975 473 
Q 1284 391 1588 391 
Q 1994 391 2212 530 
Q 2431 669 2431 922 
Q 2431 1156 2273 1281 
Q 2116 1406 1581 1522 
L 1381 1569 
Q 847 1681 609 1914 
Q 372 2147 372 2553 
Q 372 3047 722 3315 
Q 1072 3584 1716 3584 
Q 2034 3584 2315 3537 
Q 2597 3491 2834 3397 
z
" transform="scale(0.015625)"/>
      </defs>
      <use xlink:href="#DejaVuSans-4d"/>
      <use xlink:href="#DejaVuSans-61" x="86.279297"/>
      <use xlink:href="#DejaVuSans-67" x="147.558594"/>
      <use xlink:href="#DejaVuSans-6e" x="211.035156"/>
      <use xlink:href="#DejaVuSans-65" x="274.414062"/>
      <use xlink:href="#DejaVuSans-74" x="335.9375"/>
      <use xlink:href="#DejaVuSans-69" x="375.146484"/>
      <use xlink:href="#DejaVuSans-73" x="402.929688"/>
      <use xlink:href="#DejaVuSans-6d" x="455.029297"/>
     </g>
    </g>
   </g>
   <g id="line2d_13">
    <path d="M 161.777133 384.48 
L 161.777133 51.84 
" clip-path="url(#p083e1b0d0d)" style="fill: none; stroke-dasharray: 5.55,2.4; stroke-dashoffset: 0; stroke: #008000; stroke-width: 1.5"/>
   </g>
   <g id="line2d_14">
    <path d="M 448.401785 384.48 
L 448.401785 51.84 
" clip-path="url(#p083e1b0d0d)" style="fill: none; stroke-dasharray: 5.55,2.4; stroke-dashoffset: 0; stroke: #008000; stroke-width: 1.5"/>
   </g>
   <g id="line2d_15">
    <path d="M 138.436364 363.86818 
L 139.369994 362.521294 
L 140.303625 357.801012 
L 141.237256 357.071963 
L 142.170887 356.948396 
L 143.104518 353.834493 
L 144.038148 353.167228 
L 144.971779 352.957163 
L 145.90541 352.870666 
L 146.839041 344.122081 
L 148.706302 344.122081 
L 149.639933 343.862589 
L 150.573564 343.862589 
L 151.507195 343.627811 
L 152.440825 343.627811 
L 153.374456 342.898762 
L 154.308087 341.811367 
L 155.241718 341.811367 
L 156.175349 340.291486 
L 157.108979 339.809572 
L 158.04261 339.51301 
L 158.976241 339.488297 
L 162.710764 339.006383 
L 449.335416 338.944599 
L 450.269046 338.660394 
L 452.136308 338.475043 
L 454.003569 338.450329 
L 454.9372 338.10434 
L 456.804462 337.943702 
L 460.538985 337.26408 
L 461.472616 337.165226 
L 462.406247 336.819237 
L 464.273508 336.658599 
L 465.207139 336.31261 
L 466.14077 335.546491 
L 468.941662 335.126361 
L 469.875293 335.089291 
L 470.808924 334.718588 
L 471.742554 334.595021 
L 472.676185 334.273745 
L 474.543447 333.853615 
L 475.477078 333.841258 
L 476.410708 333.544696 
L 477.344339 333.519983 
L 478.27797 332.469658 
L 480.145231 332.173096 
L 481.078862 330.925063 
L 482.012493 330.912707 
L 482.946124 330.727355 
L 483.879755 330.677928 
L 484.813385 330.369009 
L 485.747016 330.307226 
L 488.547909 328.280717 
L 489.481539 328.206577 
L 490.41517 327.724663 
L 491.348801 327.613452 
L 492.282432 327.31689 
L 493.216062 327.267463 
L 495.083324 326.884404 
L 496.950586 326.847333 
L 497.884216 325.834079 
L 498.817847 325.549874 
L 499.751478 325.389236 
L 500.685109 324.462479 
L 501.61874 324.338911 
L 503.486001 322.571895 
L 504.419632 322.571895 
L 507.220524 322.052911 
L 508.154155 322.052911 
L 509.087786 321.892273 
L 510.955047 321.768706 
L 512.822309 321.126154 
L 514.689571 320.916089 
L 515.623201 320.545387 
L 516.556832 320.372392 
L 517.490463 319.939906 
L 519.357724 319.470349 
L 520.291355 318.222316 
L 521.224986 317.431484 
L 522.158617 316.282305 
L 523.092248 314.20637 
L 524.025878 313.885094 
L 524.959509 309.807364 
L 526.826771 309.807364 
L 527.760402 308.843537 
L 528.694032 308.719969 
L 529.627663 308.719969 
L 530.561294 308.065061 
L 532.428555 307.892067 
L 533.362186 307.892067 
L 534.295817 307.38544 
L 535.229448 307.175375 
L 536.163079 307.175375 
L 537.096709 306.755245 
L 538.03034 306.631677 
L 538.963971 306.310402 
L 540.831233 306.236261 
L 541.764863 305.470142 
L 542.698494 305.13651 
L 544.565756 305.000585 
L 545.499387 304.419818 
L 546.433017 302.689872 
L 548.300279 302.615731 
L 549.23391 301.330628 
L 551.101171 301.330628 
L 552.034802 300.539796 
L 552.968433 299.106412 
L 553.902064 298.00666 
L 554.835694 296.338498 
L 555.769325 295.844228 
L 556.702956 294.781546 
L 557.636587 294.756833 
L 558.570218 293.768292 
L 559.503848 293.311092 
L 562.304741 293.261665 
L 563.238371 292.816822 
L 566.039264 292.55733 
L 566.972895 292.359622 
L 567.906525 292.359622 
L 568.840156 291.556433 
L 569.773787 291.062162 
L 570.707418 291.062162 
L 571.641049 289.591708 
L 572.574679 289.072724 
L 573.50831 287.206854 
L 574.441941 287.157427 
L 576.309202 286.848508 
L 578.176464 283.895243 
L 579.110095 283.672821 
L 580.043726 282.659567 
L 581.910987 282.659567 
L 582.844618 282.066442 
L 583.778249 281.720453 
L 585.64551 280.299426 
L 586.579141 279.187318 
L 587.512772 278.581837 
L 588.446403 277.259664 
L 589.380033 276.567685 
L 590.313664 276.332907 
L 593.114557 274.91188 
L 594.048187 273.99748 
L 594.981818 273.948053 
L 596.84908 273.391998 
L 597.782711 273.391998 
L 598.716341 273.008939 
L 600.583603 273.008939 
L 601.517234 272.675306 
L 602.450864 270.587014 
L 603.384495 270.228668 
L 604.318126 268.362798 
L 605.251757 267.547252 
L 607.119018 267.460755 
L 608.052649 264.272711 
L 609.919911 264.173857 
L 613.654434 264.173857 
L 614.588065 263.432451 
L 615.521695 262.147349 
L 616.455326 261.183522 
L 617.388957 261.183522 
L 618.322588 260.108484 
L 619.256219 259.713067 
L 620.189849 258.736883 
L 621.12348 257.204645 
L 622.990742 255.981326 
L 628.592526 255.981326 
L 629.526157 255.252278 
L 630.459788 253.79418 
L 631.393419 253.077488 
L 632.32705 249.110969 
L 633.26068 248.740266 
L 634.194311 248.740266 
L 635.127942 248.208926 
L 636.061573 247.294526 
L 637.928834 247.04739 
L 638.862465 246.59019 
L 639.796096 242.93259 
L 640.729727 242.93259 
L 641.663358 240.448882 
L 642.596988 239.670406 
L 643.530619 239.287346 
L 645.397881 238.978427 
L 646.331511 238.978427 
L 647.265142 238.558298 
L 648.198773 238.385303 
L 649.132404 237.779822 
L 650.999665 235.147833 
L 651.933296 234.048081 
L 652.866927 230.563475 
L 653.800558 228.376329 
L 654.734189 225.002934 
L 656.60145 224.953507 
L 658.468712 224.298599 
L 659.402342 222.272091 
L 660.335973 222.259734 
L 661.269604 220.122015 
L 662.203235 218.812199 
L 665.004127 218.688631 
L 665.937758 217.885442 
L 666.871389 217.502382 
L 667.80502 216.340847 
L 668.73865 214.709755 
L 669.672281 214.561474 
L 670.605912 213.943636 
L 671.539543 211.459928 
L 672.473173 210.619668 
L 673.406804 210.471387 
L 674.340435 208.914435 
L 675.274066 208.160673 
L 676.207697 205.368046 
L 677.141327 204.663711 
L 678.074958 203.699884 
L 679.008589 203.650457 
L 679.94222 202.946121 
L 680.875851 200.610694 
L 681.809481 199.745721 
L 682.743112 199.659224 
L 683.676743 199.202024 
L 684.610374 199.202024 
L 685.544004 198.68304 
L 686.477635 198.68304 
L 687.411266 198.559472 
L 688.344897 198.114629 
L 689.278528 198.102272 
L 690.212158 197.632715 
L 691.145789 196.520607 
L 692.07942 191.47905 
L 693.013051 190.626434 
L 693.946682 187.463104 
L 695.813943 187.40132 
L 696.747574 184.645763 
L 697.681205 183.669579 
L 699.548466 183.669579 
L 700.482097 179.32 
L 701.415728 178.319103 
L 702.349359 177.837189 
L 703.282989 177.750692 
L 704.21662 177.392346 
L 705.150251 176.799221 
L 707.017513 174.389654 
L 707.951143 171.893589 
L 708.884774 171.893589 
L 709.818405 170.138929 
L 710.752036 169.978291 
L 712.619297 169.978291 
L 713.552928 167.717004 
L 714.486559 166.184766 
L 715.42019 165.739923 
L 716.35382 163.898766 
L 717.287451 162.502453 
L 719.154713 162.502453 
L 720.088344 159.796323 
L 721.021974 159.796323 
L 721.955605 159.450333 
L 722.889236 158.96842 
L 723.822867 157.831598 
L 724.756497 153.09896 
L 726.623759 153.086603 
L 727.55739 148.304538 
L 728.491021 147.995619 
L 729.424651 146.537521 
L 730.358282 138.060785 
L 731.291913 137.35645 
L 733.159175 134.205477 
L 734.092805 130.424309 
L 735.026436 128.212449 
L 735.960067 128.212449 
L 736.893698 127.755249 
L 737.827328 124.035865 
L 738.760959 111.691464 
L 739.69459 110.443431 
L 740.628221 100.150252 
L 741.561852 91.661159 
L 742.495482 90.635548 
L 743.429113 90.005354 
L 744.362744 90.005354 
L 745.296375 88.757321 
L 746.230006 86.78024 
L 747.163636 66.96 
L 747.163636 66.96 
" clip-path="url(#p083e1b0d0d)" style="fill: none; stroke: #ff0000; stroke-width: 0.5; stroke-linecap: square"/>
   </g>
   <g id="line2d_16">
    <path d="M 138.436364 339.685004 
L 140.303625 338.401475 
L 141.237256 333.098036 
L 143.104518 345.67459 
L 144.038148 369.36 
L 144.971779 341.934601 
L 145.90541 342.923871 
L 146.839041 340.890153 
L 150.573564 340.890153 
L 151.507195 342.873675 
L 152.440825 339.006383 
L 153.374456 338.401475 
L 154.308087 336.068403 
L 155.241718 336.068403 
L 156.175349 338.994582 
L 157.108979 340.591005 
L 158.04261 337.49752 
L 158.976241 338.688681 
L 159.909872 338.85048 
L 160.843503 332.963566 
L 161.777133 339.006383 
L 163.644395 339.006383 
L 164.578026 345.67459 
L 165.511656 339.004447 
L 166.445287 338.91945 
L 167.378918 338.668746 
L 168.312549 338.985947 
L 173.914334 339.006383 
L 182.317011 339.006383 
L 183.250641 338.673545 
L 184.184272 339.006383 
L 186.985165 339.006383 
L 189.786057 339.006383 
L 190.719688 336.244886 
L 191.653318 339.006383 
L 195.387842 339.006383 
L 196.321472 331.752906 
L 197.255103 339.006383 
L 201.923257 339.006383 
L 202.856888 337.534842 
L 203.790519 339.006383 
L 222.463134 339.006383 
L 223.396765 340.591005 
L 224.330396 339.006383 
L 231.799442 339.006383 
L 232.733073 338.781542 
L 233.666704 339.006383 
L 234.600335 339.006383 
L 235.533965 341.665686 
L 236.467596 339.006383 
L 239.268489 339.006383 
L 240.202119 340.890153 
L 241.13575 339.006383 
L 243.936642 339.006383 
L 244.870273 338.668746 
L 245.803904 339.006383 
L 246.737535 340.291568 
L 247.671166 339.006383 
L 250.472058 339.006383 
L 251.405689 332.963566 
L 252.33932 339.006383 
L 264.47652 339.006383 
L 265.410151 337.534842 
L 266.343781 339.006383 
L 271.011935 339.006383 
L 271.945566 344.079593 
L 272.879197 339.006383 
L 277.547351 339.006383 
L 278.480982 342.873675 
L 279.414612 339.006383 
L 312.09169 339.006383 
L 313.025321 338.669331 
L 313.958951 339.006383 
L 317.693475 339.006383 
L 318.627105 340.687788 
L 319.560736 339.006383 
L 328.897044 339.006383 
L 329.830675 340.890153 
L 330.764306 339.006383 
L 334.498829 339.006383 
L 335.43246 336.414082 
L 336.36609 339.006383 
L 338.233352 339.006383 
L 339.166983 338.668746 
L 340.100613 339.006383 
L 343.835137 339.006383 
L 344.768767 338.065368 
L 345.702398 339.006383 
L 366.242276 339.006383 
L 367.175906 339.267845 
L 368.109537 339.006383 
L 373.711322 339.006383 
L 374.644953 344.079593 
L 375.578583 339.006383 
L 376.512214 341.665686 
L 377.445845 339.006383 
L 402.653876 339.006383 
L 403.587507 344.298689 
L 404.521138 339.006383 
L 418.5256 339.006383 
L 419.45923 340.890153 
L 420.392861 339.006383 
L 424.127384 339.006383 
L 425.061015 339.236129 
L 425.994646 340.890153 
L 426.928277 339.006383 
L 428.795538 339.006383 
L 429.729169 340.807803 
L 430.6628 339.006383 
L 432.530061 339.006383 
L 433.463692 337.980718 
L 434.397323 339.006383 
L 445.600892 339.006383 
L 446.534523 340.890153 
L 447.468154 339.006383 
L 448.401785 338.995105 
L 449.335416 314.446786 
L 450.269046 338.85048 
L 451.202677 330.954556 
L 452.136308 337.363192 
L 453.069939 338.85048 
L 454.9372 339.006383 
L 455.870831 338.653359 
L 456.804462 334.003879 
L 457.738093 333.321107 
L 458.671723 330.708136 
L 459.605354 339.044935 
L 461.472616 339.044935 
L 462.406247 332.963566 
L 463.339877 338.85048 
L 464.273508 339.427512 
L 465.207139 337.909249 
L 466.14077 335.051962 
L 467.0744 334.003879 
L 468.008031 338.97226 
L 468.941662 335.002887 
L 469.875293 334.003879 
L 470.808924 334.552085 
L 471.742554 338.994582 
L 472.676185 335.243293 
L 473.609816 334.224853 
L 474.543447 326.947285 
L 475.477078 334.003879 
L 476.410708 329.439174 
L 477.344339 350.302928 
L 478.27797 320.68204 
L 479.211601 330.708136 
L 480.145231 330.708136 
L 481.078862 330.180679 
L 482.012493 328.035777 
L 482.946124 338.60814 
L 483.879755 328.035777 
L 484.813385 321.877201 
L 485.747016 339.006383 
L 486.680647 330.708136 
L 487.614278 330.708136 
L 488.547909 333.282764 
L 489.481539 320.673195 
L 490.41517 338.980726 
L 492.282432 323.290624 
L 493.216062 327.316705 
L 494.149693 326.838799 
L 495.083324 306.042164 
L 496.016955 306.239092 
L 496.950586 327.127604 
L 497.884216 334.342671 
L 498.817847 330.708136 
L 499.751478 327.974348 
L 500.685109 292.095614 
L 501.61874 321.799404 
L 502.55237 315.266723 
L 503.486001 320.673195 
L 504.419632 321.877201 
L 505.353263 337.29192 
L 506.286893 319.452938 
L 507.220524 334.407031 
L 508.154155 322.999985 
L 509.087786 323.035244 
L 510.021417 334.365028 
L 510.955047 326.021642 
L 511.888678 321.799404 
L 512.822309 341.175973 
L 513.75594 314.250028 
L 514.689571 323.035244 
L 515.623201 326.021642 
L 516.556832 319.452938 
L 517.490463 333.425765 
L 518.424094 308.668303 
L 519.357724 319.452938 
L 520.291355 276.112408 
L 521.224986 278.541889 
L 522.158617 306.860133 
L 523.092248 314.11661 
L 524.025878 338.980726 
L 524.959509 313.476425 
L 525.89314 313.476425 
L 526.826771 314.287144 
L 527.760402 307.719087 
L 528.694032 309.135294 
L 529.627663 314.287144 
L 530.561294 316.895719 
L 531.494925 259.536975 
L 532.428555 309.135294 
L 533.362186 313.476425 
L 534.295817 321.877201 
L 535.229448 308.73488 
L 536.163079 307.719087 
L 537.096709 326.021642 
L 538.03034 308.465841 
L 538.963971 301.549085 
L 539.897602 306.042164 
L 540.831233 303.290532 
L 541.764863 304.406827 
L 542.698494 286.828088 
L 543.632125 301.549085 
L 544.565756 307.060906 
L 545.499387 301.549085 
L 546.433017 303.109674 
L 547.366648 297.754157 
L 548.300279 299.900413 
L 549.23391 300.203847 
L 550.16754 299.811788 
L 551.101171 296.990247 
L 552.034802 301.549085 
L 552.968433 303.109674 
L 554.835694 299.900413 
L 555.769325 292.095614 
L 556.702956 293.499509 
L 557.636587 293.499509 
L 558.570218 300.203847 
L 559.503848 293.499509 
L 562.304741 293.499509 
L 563.238371 285.623275 
L 564.172002 276.530903 
L 565.105633 276.571269 
L 566.039264 293.435648 
L 566.972895 301.549085 
L 567.906525 301.55292 
L 568.840156 282.469922 
L 569.773787 293.499509 
L 570.707418 293.499509 
L 571.641049 292.478559 
L 572.574679 266.646207 
L 573.50831 260.378243 
L 574.441941 221.889079 
L 575.375572 278.772662 
L 576.309202 289.328896 
L 577.242833 260.881113 
L 578.176464 305.118122 
L 579.110095 282.469922 
L 580.043726 288.030341 
L 580.977356 285.623275 
L 581.910987 288.030341 
L 582.844618 282.366147 
L 583.778249 274.492874 
L 584.71188 274.048925 
L 585.64551 290.164232 
L 586.579141 250.048381 
L 587.512772 252.254819 
L 588.446403 264.577602 
L 589.380033 293.430771 
L 590.313664 183.96432 
L 591.247295 230.394661 
L 592.180926 218.544712 
L 593.114557 183.96432 
L 594.048187 270.279529 
L 594.981818 245.968655 
L 595.915449 274.492874 
L 596.84908 284.845323 
L 597.782711 284.845323 
L 598.716341 270.279529 
L 599.649972 278.772662 
L 600.583603 278.772662 
L 601.517234 208.6444 
L 602.450864 270.494327 
L 603.384495 270.385615 
L 604.318126 272.325188 
L 605.251757 249.973781 
L 606.185388 284.845323 
L 607.119018 273.265224 
L 608.052649 264.34298 
L 608.98628 266.646207 
L 609.919911 266.646207 
L 610.853542 252.254819 
L 611.787172 266.646207 
L 613.654434 266.646207 
L 614.588065 224.074809 
L 615.521695 258.938135 
L 617.388957 262.673331 
L 618.322588 257.241772 
L 619.256219 260.881113 
L 620.189849 272.647213 
L 621.12348 242.716869 
L 622.057111 236.694507 
L 622.990742 266.646207 
L 628.592526 266.646207 
L 629.526157 258.873754 
L 630.459788 260.972613 
L 631.393419 264.160985 
L 632.32705 260.972613 
L 633.26068 218.544712 
L 634.194311 250.735312 
L 635.127942 209.476803 
L 636.061573 271.265704 
L 636.995204 238.90008 
L 637.928834 236.694507 
L 638.862465 220.272113 
L 639.796096 257.241772 
L 641.663358 234.380643 
L 642.596988 249.973781 
L 643.530619 228.372756 
L 644.46425 273.930094 
L 645.397881 262.461038 
L 646.331511 227.21631 
L 647.265142 250.735312 
L 648.198773 278.205792 
L 649.132404 251.752601 
L 650.066035 250.735312 
L 650.999665 281.940668 
L 651.933296 247.59576 
L 652.866927 231.946997 
L 653.800558 252.398455 
L 654.734189 230.319581 
L 656.60145 230.319581 
L 657.535081 242.829295 
L 658.468712 238.90008 
L 659.402342 215.311031 
L 660.335973 220.885011 
L 661.269604 203.235265 
L 662.203235 213.618445 
L 663.136866 262.785359 
L 664.070496 266.323018 
L 665.004127 230.895717 
L 665.937758 238.90008 
L 666.871389 208.737782 
L 667.80502 247.764593 
L 669.672281 172.107746 
L 670.605912 214.393105 
L 671.539543 230.895717 
L 672.473173 210.101199 
L 673.406804 209.669413 
L 674.340435 210.101199 
L 675.274066 218.570936 
L 676.207697 163.67234 
L 677.141327 199.826472 
L 678.074958 213.618445 
L 679.008589 149.733449 
L 679.94222 211.849238 
L 680.875851 203.463143 
L 681.809481 199.826472 
L 682.743112 198.41198 
L 683.676743 204.010391 
L 684.610374 205.873227 
L 685.544004 204.010391 
L 686.477635 205.873227 
L 687.411266 213.618445 
L 688.344897 200.155119 
L 689.278528 213.618445 
L 690.212158 213.618445 
L 691.145789 199.826472 
L 692.07942 203.632836 
L 693.013051 160.432169 
L 693.946682 193.758988 
L 694.880312 185.56306 
L 695.813943 189.134955 
L 696.747574 194.59954 
L 697.681205 208.6444 
L 698.614835 208.6444 
L 699.548466 183.803894 
L 700.482097 149.733449 
L 701.415728 182.826699 
L 702.349359 172.289602 
L 703.282989 124.403108 
L 704.21662 172.171805 
L 705.150251 177.489526 
L 706.083882 174.893073 
L 707.017513 174.893073 
L 707.951143 203.7589 
L 708.884774 172.482586 
L 709.818405 232.229968 
L 710.752036 197.818629 
L 711.685666 175.815017 
L 712.619297 175.815017 
L 713.552928 239.577174 
L 714.486559 162.577063 
L 715.42019 160.282034 
L 716.35382 159.617294 
L 717.287451 158.369894 
L 718.221082 158.547401 
L 719.154713 158.369894 
L 720.088344 158.726308 
L 721.021974 151.418029 
L 721.955605 163.67234 
L 722.889236 163.67234 
L 723.822867 143.714344 
L 724.756497 215.311031 
L 726.623759 215.311031 
L 727.55739 221.889079 
L 728.491021 148.626515 
L 729.424651 175.815017 
L 730.358282 146.176774 
L 731.291913 146.356518 
L 732.225544 126.83491 
L 733.159175 146.356518 
L 734.092805 232.519033 
L 735.960067 128.996766 
L 736.893698 124.403108 
L 737.827328 163.323136 
L 738.760959 144.870313 
L 739.69459 144.870313 
L 740.628221 107.257571 
L 741.561852 79.980837 
L 742.495482 91.322568 
L 743.429113 218.251283 
L 744.362744 225.297072 
L 745.296375 218.251283 
L 746.230006 207.764418 
L 747.163636 147.309607 
L 747.163636 147.309607 
" clip-path="url(#p083e1b0d0d)" style="fill: none; stroke: #1f77b4; stroke-width: 0.5; stroke-linecap: square"/>
   </g>
   <g id="patch_3">
    <path d="M 108 384.48 
L 108 51.84 
" style="fill: none; stroke: #000000; stroke-width: 0.8; stroke-linejoin: miter; stroke-linecap: square"/>
   </g>
   <g id="patch_4">
    <path d="M 777.6 384.48 
L 777.6 51.84 
" style="fill: none; stroke: #000000; stroke-width: 0.8; stroke-linejoin: miter; stroke-linecap: square"/>
   </g>
   <g id="patch_5">
    <path d="M 108 384.48 
L 777.6 384.48 
" style="fill: none; stroke: #000000; stroke-width: 0.8; stroke-linejoin: miter; stroke-linecap: square"/>
   </g>
   <g id="patch_6">
    <path d="M 108 51.84 
L 777.6 51.84 
" style="fill: none; stroke: #000000; stroke-width: 0.8; stroke-linejoin: miter; stroke-linecap: square"/>
   </g>
   <g id="text_15">
    <!-- 1847 samples predictions -->
    <g transform="translate(365.55 45.84) scale(0.12 -0.12)">
     <defs>
      <path id="DejaVuSans-38" d="M 2034 2216 
Q 1584 2216 1326 1975 
Q 1069 1734 1069 1313 
Q 1069 891 1326 650 
Q 1584 409 2034 409 
Q 2484 409 2743 651 
Q 3003 894 3003 1313 
Q 3003 1734 2745 1975 
Q 2488 2216 2034 2216 
z
M 1403 2484 
Q 997 2584 770 2862 
Q 544 3141 544 3541 
Q 544 4100 942 4425 
Q 1341 4750 2034 4750 
Q 2731 4750 3128 4425 
Q 3525 4100 3525 3541 
Q 3525 3141 3298 2862 
Q 3072 2584 2669 2484 
Q 3125 2378 3379 2068 
Q 3634 1759 3634 1313 
Q 3634 634 3220 271 
Q 2806 -91 2034 -91 
Q 1263 -91 848 271 
Q 434 634 434 1313 
Q 434 1759 690 2068 
Q 947 2378 1403 2484 
z
M 1172 3481 
Q 1172 3119 1398 2916 
Q 1625 2713 2034 2713 
Q 2441 2713 2670 2916 
Q 2900 3119 2900 3481 
Q 2900 3844 2670 4047 
Q 2441 4250 2034 4250 
Q 1625 4250 1398 4047 
Q 1172 3844 1172 3481 
z
" transform="scale(0.015625)"/>
      <path id="DejaVuSans-37" d="M 525 4666 
L 3525 4666 
L 3525 4397 
L 1831 0 
L 1172 0 
L 2766 4134 
L 525 4134 
L 525 4666 
z
" transform="scale(0.015625)"/>
      <path id="DejaVuSans-64" d="M 2906 2969 
L 2906 4863 
L 3481 4863 
L 3481 0 
L 2906 0 
L 2906 525 
Q 2725 213 2448 61 
Q 2172 -91 1784 -91 
Q 1150 -91 751 415 
Q 353 922 353 1747 
Q 353 2572 751 3078 
Q 1150 3584 1784 3584 
Q 2172 3584 2448 3432 
Q 2725 3281 2906 2969 
z
M 947 1747 
Q 947 1113 1208 752 
Q 1469 391 1925 391 
Q 2381 391 2643 752 
Q 2906 1113 2906 1747 
Q 2906 2381 2643 2742 
Q 2381 3103 1925 3103 
Q 1469 3103 1208 2742 
Q 947 2381 947 1747 
z
" transform="scale(0.015625)"/>
      <path id="DejaVuSans-63" d="M 3122 3366 
L 3122 2828 
Q 2878 2963 2633 3030 
Q 2388 3097 2138 3097 
Q 1578 3097 1268 2742 
Q 959 2388 959 1747 
Q 959 1106 1268 751 
Q 1578 397 2138 397 
Q 2388 397 2633 464 
Q 2878 531 3122 666 
L 3122 134 
Q 2881 22 2623 -34 
Q 2366 -91 2075 -91 
Q 1284 -91 818 406 
Q 353 903 353 1747 
Q 353 2603 823 3093 
Q 1294 3584 2113 3584 
Q 2378 3584 2631 3529 
Q 2884 3475 3122 3366 
z
" transform="scale(0.015625)"/>
      <path id="DejaVuSans-6f" d="M 1959 3097 
Q 1497 3097 1228 2736 
Q 959 2375 959 1747 
Q 959 1119 1226 758 
Q 1494 397 1959 397 
Q 2419 397 2687 759 
Q 2956 1122 2956 1747 
Q 2956 2369 2687 2733 
Q 2419 3097 1959 3097 
z
M 1959 3584 
Q 2709 3584 3137 3096 
Q 3566 2609 3566 1747 
Q 3566 888 3137 398 
Q 2709 -91 1959 -91 
Q 1206 -91 779 398 
Q 353 888 353 1747 
Q 353 2609 779 3096 
Q 1206 3584 1959 3584 
z
" transform="scale(0.015625)"/>
     </defs>
     <use xlink:href="#DejaVuSans-31"/>
     <use xlink:href="#DejaVuSans-38" x="63.623047"/>
     <use xlink:href="#DejaVuSans-34" x="127.246094"/>
     <use xlink:href="#DejaVuSans-37" x="190.869141"/>
     <use xlink:href="#DejaVuSans-20" x="254.492188"/>
     <use xlink:href="#DejaVuSans-73" x="286.279297"/>
     <use xlink:href="#DejaVuSans-61" x="338.378906"/>
     <use xlink:href="#DejaVuSans-6d" x="399.658203"/>
     <use xlink:href="#DejaVuSans-70" x="497.070312"/>
     <use xlink:href="#DejaVuSans-6c" x="560.546875"/>
     <use xlink:href="#DejaVuSans-65" x="588.330078"/>
     <use xlink:href="#DejaVuSans-73" x="649.853516"/>
     <use xlink:href="#DejaVuSans-20" x="701.953125"/>
     <use xlink:href="#DejaVuSans-70" x="733.740234"/>
     <use xlink:href="#DejaVuSans-72" x="797.216797"/>
     <use xlink:href="#DejaVuSans-65" x="836.080078"/>
     <use xlink:href="#DejaVuSans-64" x="897.603516"/>
     <use xlink:href="#DejaVuSans-69" x="961.080078"/>
     <use xlink:href="#DejaVuSans-63" x="988.863281"/>
     <use xlink:href="#DejaVuSans-74" x="1043.84375"/>
     <use xlink:href="#DejaVuSans-69" x="1083.052734"/>
     <use xlink:href="#DejaVuSans-6f" x="1110.835938"/>
     <use xlink:href="#DejaVuSans-6e" x="1172.017578"/>
     <use xlink:href="#DejaVuSans-73" x="1235.396484"/>
    </g>
   </g>
   <g id="legend_1">
    <g id="patch_7">
     <path d="M 661.01875 379.48 
L 770.6 379.48 
Q 772.6 379.48 772.6 377.48 
L 772.6 349.12375 
Q 772.6 347.12375 770.6 347.12375 
L 661.01875 347.12375 
Q 659.01875 347.12375 659.01875 349.12375 
L 659.01875 377.48 
Q 659.01875 379.48 661.01875 379.48 
z
" style="fill: #ffffff; opacity: 0.8; stroke: #cccccc; stroke-linejoin: miter"/>
    </g>
    <g id="line2d_17">
     <path d="M 663.01875 355.222188 
L 673.01875 355.222188 
L 683.01875 355.222188 
" style="fill: none; stroke: #ff0000; stroke-width: 0.5; stroke-linecap: square"/>
    </g>
    <g id="text_16">
     <!-- Actual Value -->
     <g transform="translate(691.01875 358.722188) scale(0.1 -0.1)">
      <defs>
       <path id="DejaVuSans-41" d="M 2188 4044 
L 1331 1722 
L 3047 1722 
L 2188 4044 
z
M 1831 4666 
L 2547 4666 
L 4325 0 
L 3669 0 
L 3244 1197 
L 1141 1197 
L 716 0 
L 50 0 
L 1831 4666 
z
" transform="scale(0.015625)"/>
       <path id="DejaVuSans-56" d="M 1831 0 
L 50 4666 
L 709 4666 
L 2188 738 
L 3669 4666 
L 4325 4666 
L 2547 0 
L 1831 0 
z
" transform="scale(0.015625)"/>
      </defs>
      <use xlink:href="#DejaVuSans-41"/>
      <use xlink:href="#DejaVuSans-63" x="66.658203"/>
      <use xlink:href="#DejaVuSans-74" x="121.638672"/>
      <use xlink:href="#DejaVuSans-75" x="160.847656"/>
      <use xlink:href="#DejaVuSans-61" x="224.226562"/>
      <use xlink:href="#DejaVuSans-6c" x="285.505859"/>
      <use xlink:href="#DejaVuSans-20" x="313.289062"/>
      <use xlink:href="#DejaVuSans-56" x="345.076172"/>
      <use xlink:href="#DejaVuSans-61" x="405.734375"/>
      <use xlink:href="#DejaVuSans-6c" x="467.013672"/>
      <use xlink:href="#DejaVuSans-75" x="494.796875"/>
      <use xlink:href="#DejaVuSans-65" x="558.175781"/>
     </g>
    </g>
    <g id="line2d_18">
     <path d="M 663.01875 369.900312 
L 673.01875 369.900312 
L 683.01875 369.900312 
" style="fill: none; stroke: #1f77b4; stroke-width: 0.5; stroke-linecap: square"/>
    </g>
    <g id="text_17">
     <!-- Predicted Value -->
     <g transform="translate(691.01875 373.400312) scale(0.1 -0.1)">
      <defs>
       <path id="DejaVuSans-50" d="M 1259 4147 
L 1259 2394 
L 2053 2394 
Q 2494 2394 2734 2622 
Q 2975 2850 2975 3272 
Q 2975 3691 2734 3919 
Q 2494 4147 2053 4147 
L 1259 4147 
z
M 628 4666 
L 2053 4666 
Q 2838 4666 3239 4311 
Q 3641 3956 3641 3272 
Q 3641 2581 3239 2228 
Q 2838 1875 2053 1875 
L 1259 1875 
L 1259 0 
L 628 0 
L 628 4666 
z
" transform="scale(0.015625)"/>
      </defs>
      <use xlink:href="#DejaVuSans-50"/>
      <use xlink:href="#DejaVuSans-72" x="58.552734"/>
      <use xlink:href="#DejaVuSans-65" x="97.416016"/>
      <use xlink:href="#DejaVuSans-64" x="158.939453"/>
      <use xlink:href="#DejaVuSans-69" x="222.416016"/>
      <use xlink:href="#DejaVuSans-63" x="250.199219"/>
      <use xlink:href="#DejaVuSans-74" x="305.179688"/>
      <use xlink:href="#DejaVuSans-65" x="344.388672"/>
      <use xlink:href="#DejaVuSans-64" x="405.912109"/>
      <use xlink:href="#DejaVuSans-20" x="469.388672"/>
      <use xlink:href="#DejaVuSans-56" x="501.175781"/>
      <use xlink:href="#DejaVuSans-61" x="561.833984"/>
      <use xlink:href="#DejaVuSans-6c" x="623.113281"/>
      <use xlink:href="#DejaVuSans-75" x="650.896484"/>
      <use xlink:href="#DejaVuSans-65" x="714.275391"/>
     </g>
    </g>
   </g>
  </g>
 </g>
 <defs>
  <clipPath id="p083e1b0d0d">
   <rect x="108" y="51.84" width="669.6" height="332.64"/>
  </clipPath>
 </defs>
</svg>
