<?xml version="1.0" encoding="utf-8" standalone="no"?>
<!DOCTYPE svg PUBLIC "-//W3C//DTD SVG 1.1//EN"
  "http://www.w3.org/Graphics/SVG/1.1/DTD/svg11.dtd">
<svg xmlns:xlink="http://www.w3.org/1999/xlink" width="864pt" height="432pt" viewBox="0 0 864 432" xmlns="http://www.w3.org/2000/svg" version="1.1">
 <metadata>
  <rdf:RDF xmlns:dc="http://purl.org/dc/elements/1.1/" xmlns:cc="http://creativecommons.org/ns#" xmlns:rdf="http://www.w3.org/1999/02/22-rdf-syntax-ns#">
   <cc:Work>
    <dc:type rdf:resource="http://purl.org/dc/dcmitype/StillImage"/>
    <dc:date>2024-04-16T11:14:08.729690</dc:date>
    <dc:format>image/svg+xml</dc:format>
    <dc:creator>
     <cc:Agent>
      <dc:title>Matplotlib v3.8.2, https://matplotlib.org/</dc:title>
     </cc:Agent>
    </dc:creator>
   </cc:Work>
  </rdf:RDF>
 </metadata>
 <defs>
  <style type="text/css">*{stroke-linejoin: round; stroke-linecap: butt}</style>
 </defs>
 <g id="figure_1">
  <g id="patch_1">
   <path d="M 0 432 
L 864 432 
L 864 0 
L 0 0 
z
" style="fill: #ffffff"/>
  </g>
  <g id="axes_1">
   <g id="patch_2">
    <path d="M 108 384.48 
L 777.6 384.48 
L 777.6 51.84 
L 108 51.84 
z
" style="fill: #ffffff"/>
   </g>
   <g id="matplotlib.axis_1">
    <g id="xtick_1">
     <g id="line2d_1">
      <defs>
       <path id="m774ff5e36c" d="M 0 0 
L 0 3.5 
" style="stroke: #000000; stroke-width: 0.8"/>
      </defs>
      <g>
       <use xlink:href="#m774ff5e36c" x="138.436364" y="384.48" style="stroke: #000000; stroke-width: 0.8"/>
      </g>
     </g>
     <g id="text_1">
      <!-- 0 -->
      <g transform="translate(135.255114 399.078438) scale(0.1 -0.1)">
       <defs>
        <path id="DejaVuSans-30" d="M 2034 4250 
Q 1547 4250 1301 3770 
Q 1056 3291 1056 2328 
Q 1056 1369 1301 889 
Q 1547 409 2034 409 
Q 2525 409 2770 889 
Q 3016 1369 3016 2328 
Q 3016 3291 2770 3770 
Q 2525 4250 2034 4250 
z
M 2034 4750 
Q 2819 4750 3233 4129 
Q 3647 3509 3647 2328 
Q 3647 1150 3233 529 
Q 2819 -91 2034 -91 
Q 1250 -91 836 529 
Q 422 1150 422 2328 
Q 422 3509 836 4129 
Q 1250 4750 2034 4750 
z
" transform="scale(0.015625)"/>
       </defs>
       <use xlink:href="#DejaVuSans-30"/>
      </g>
     </g>
    </g>
    <g id="xtick_2">
     <g id="line2d_2">
      <g>
       <use xlink:href="#m774ff5e36c" x="231.799442" y="384.48" style="stroke: #000000; stroke-width: 0.8"/>
      </g>
     </g>
     <g id="text_2">
      <!-- 100 -->
      <g transform="translate(222.255692 399.078438) scale(0.1 -0.1)">
       <defs>
        <path id="DejaVuSans-31" d="M 794 531 
L 1825 531 
L 1825 4091 
L 703 3866 
L 703 4441 
L 1819 4666 
L 2450 4666 
L 2450 531 
L 3481 531 
L 3481 0 
L 794 0 
L 794 531 
z
" transform="scale(0.015625)"/>
       </defs>
       <use xlink:href="#DejaVuSans-31"/>
       <use xlink:href="#DejaVuSans-30" x="63.623047"/>
       <use xlink:href="#DejaVuSans-30" x="127.246094"/>
      </g>
     </g>
    </g>
    <g id="xtick_3">
     <g id="line2d_3">
      <g>
       <use xlink:href="#m774ff5e36c" x="325.162521" y="384.48" style="stroke: #000000; stroke-width: 0.8"/>
      </g>
     </g>
     <g id="text_3">
      <!-- 200 -->
      <g transform="translate(315.618771 399.078438) scale(0.1 -0.1)">
       <defs>
        <path id="DejaVuSans-32" d="M 1228 531 
L 3431 531 
L 3431 0 
L 469 0 
L 469 531 
Q 828 903 1448 1529 
Q 2069 2156 2228 2338 
Q 2531 2678 2651 2914 
Q 2772 3150 2772 3378 
Q 2772 3750 2511 3984 
Q 2250 4219 1831 4219 
Q 1534 4219 1204 4116 
Q 875 4013 500 3803 
L 500 4441 
Q 881 4594 1212 4672 
Q 1544 4750 1819 4750 
Q 2544 4750 2975 4387 
Q 3406 4025 3406 3419 
Q 3406 3131 3298 2873 
Q 3191 2616 2906 2266 
Q 2828 2175 2409 1742 
Q 1991 1309 1228 531 
z
" transform="scale(0.015625)"/>
       </defs>
       <use xlink:href="#DejaVuSans-32"/>
       <use xlink:href="#DejaVuSans-30" x="63.623047"/>
       <use xlink:href="#DejaVuSans-30" x="127.246094"/>
      </g>
     </g>
    </g>
    <g id="xtick_4">
     <g id="line2d_4">
      <g>
       <use xlink:href="#m774ff5e36c" x="418.5256" y="384.48" style="stroke: #000000; stroke-width: 0.8"/>
      </g>
     </g>
     <g id="text_4">
      <!-- 300 -->
      <g transform="translate(408.98185 399.078438) scale(0.1 -0.1)">
       <defs>
        <path id="DejaVuSans-33" d="M 2597 2516 
Q 3050 2419 3304 2112 
Q 3559 1806 3559 1356 
Q 3559 666 3084 287 
Q 2609 -91 1734 -91 
Q 1441 -91 1130 -33 
Q 819 25 488 141 
L 488 750 
Q 750 597 1062 519 
Q 1375 441 1716 441 
Q 2309 441 2620 675 
Q 2931 909 2931 1356 
Q 2931 1769 2642 2001 
Q 2353 2234 1838 2234 
L 1294 2234 
L 1294 2753 
L 1863 2753 
Q 2328 2753 2575 2939 
Q 2822 3125 2822 3475 
Q 2822 3834 2567 4026 
Q 2313 4219 1838 4219 
Q 1578 4219 1281 4162 
Q 984 4106 628 3988 
L 628 4550 
Q 988 4650 1302 4700 
Q 1616 4750 1894 4750 
Q 2613 4750 3031 4423 
Q 3450 4097 3450 3541 
Q 3450 3153 3228 2886 
Q 3006 2619 2597 2516 
z
" transform="scale(0.015625)"/>
       </defs>
       <use xlink:href="#DejaVuSans-33"/>
       <use xlink:href="#DejaVuSans-30" x="63.623047"/>
       <use xlink:href="#DejaVuSans-30" x="127.246094"/>
      </g>
     </g>
    </g>
    <g id="xtick_5">
     <g id="line2d_5">
      <g>
       <use xlink:href="#m774ff5e36c" x="511.888678" y="384.48" style="stroke: #000000; stroke-width: 0.8"/>
      </g>
     </g>
     <g id="text_5">
      <!-- 400 -->
      <g transform="translate(502.344928 399.078438) scale(0.1 -0.1)">
       <defs>
        <path id="DejaVuSans-34" d="M 2419 4116 
L 825 1625 
L 2419 1625 
L 2419 4116 
z
M 2253 4666 
L 3047 4666 
L 3047 1625 
L 3713 1625 
L 3713 1100 
L 3047 1100 
L 3047 0 
L 2419 0 
L 2419 1100 
L 313 1100 
L 313 1709 
L 2253 4666 
z
" transform="scale(0.015625)"/>
       </defs>
       <use xlink:href="#DejaVuSans-34"/>
       <use xlink:href="#DejaVuSans-30" x="63.623047"/>
       <use xlink:href="#DejaVuSans-30" x="127.246094"/>
      </g>
     </g>
    </g>
    <g id="xtick_6">
     <g id="line2d_6">
      <g>
       <use xlink:href="#m774ff5e36c" x="605.251757" y="384.48" style="stroke: #000000; stroke-width: 0.8"/>
      </g>
     </g>
     <g id="text_6">
      <!-- 500 -->
      <g transform="translate(595.708007 399.078438) scale(0.1 -0.1)">
       <defs>
        <path id="DejaVuSans-35" d="M 691 4666 
L 3169 4666 
L 3169 4134 
L 1269 4134 
L 1269 2991 
Q 1406 3038 1543 3061 
Q 1681 3084 1819 3084 
Q 2600 3084 3056 2656 
Q 3513 2228 3513 1497 
Q 3513 744 3044 326 
Q 2575 -91 1722 -91 
Q 1428 -91 1123 -41 
Q 819 9 494 109 
L 494 744 
Q 775 591 1075 516 
Q 1375 441 1709 441 
Q 2250 441 2565 725 
Q 2881 1009 2881 1497 
Q 2881 1984 2565 2268 
Q 2250 2553 1709 2553 
Q 1456 2553 1204 2497 
Q 953 2441 691 2322 
L 691 4666 
z
" transform="scale(0.015625)"/>
       </defs>
       <use xlink:href="#DejaVuSans-35"/>
       <use xlink:href="#DejaVuSans-30" x="63.623047"/>
       <use xlink:href="#DejaVuSans-30" x="127.246094"/>
      </g>
     </g>
    </g>
    <g id="xtick_7">
     <g id="line2d_7">
      <g>
       <use xlink:href="#m774ff5e36c" x="698.614835" y="384.48" style="stroke: #000000; stroke-width: 0.8"/>
      </g>
     </g>
     <g id="text_7">
      <!-- 600 -->
      <g transform="translate(689.071085 399.078438) scale(0.1 -0.1)">
       <defs>
        <path id="DejaVuSans-36" d="M 2113 2584 
Q 1688 2584 1439 2293 
Q 1191 2003 1191 1497 
Q 1191 994 1439 701 
Q 1688 409 2113 409 
Q 2538 409 2786 701 
Q 3034 994 3034 1497 
Q 3034 2003 2786 2293 
Q 2538 2584 2113 2584 
z
M 3366 4563 
L 3366 3988 
Q 3128 4100 2886 4159 
Q 2644 4219 2406 4219 
Q 1781 4219 1451 3797 
Q 1122 3375 1075 2522 
Q 1259 2794 1537 2939 
Q 1816 3084 2150 3084 
Q 2853 3084 3261 2657 
Q 3669 2231 3669 1497 
Q 3669 778 3244 343 
Q 2819 -91 2113 -91 
Q 1303 -91 875 529 
Q 447 1150 447 2328 
Q 447 3434 972 4092 
Q 1497 4750 2381 4750 
Q 2619 4750 2861 4703 
Q 3103 4656 3366 4563 
z
" transform="scale(0.015625)"/>
       </defs>
       <use xlink:href="#DejaVuSans-36"/>
       <use xlink:href="#DejaVuSans-30" x="63.623047"/>
       <use xlink:href="#DejaVuSans-30" x="127.246094"/>
      </g>
     </g>
    </g>
    <g id="text_8">
     <!-- Sample Number -->
     <g transform="translate(402.376562 412.756563) scale(0.1 -0.1)">
      <defs>
       <path id="DejaVuSans-53" d="M 3425 4513 
L 3425 3897 
Q 3066 4069 2747 4153 
Q 2428 4238 2131 4238 
Q 1616 4238 1336 4038 
Q 1056 3838 1056 3469 
Q 1056 3159 1242 3001 
Q 1428 2844 1947 2747 
L 2328 2669 
Q 3034 2534 3370 2195 
Q 3706 1856 3706 1288 
Q 3706 609 3251 259 
Q 2797 -91 1919 -91 
Q 1588 -91 1214 -16 
Q 841 59 441 206 
L 441 856 
Q 825 641 1194 531 
Q 1563 422 1919 422 
Q 2459 422 2753 634 
Q 3047 847 3047 1241 
Q 3047 1584 2836 1778 
Q 2625 1972 2144 2069 
L 1759 2144 
Q 1053 2284 737 2584 
Q 422 2884 422 3419 
Q 422 4038 858 4394 
Q 1294 4750 2059 4750 
Q 2388 4750 2728 4690 
Q 3069 4631 3425 4513 
z
" transform="scale(0.015625)"/>
       <path id="DejaVuSans-61" d="M 2194 1759 
Q 1497 1759 1228 1600 
Q 959 1441 959 1056 
Q 959 750 1161 570 
Q 1363 391 1709 391 
Q 2188 391 2477 730 
Q 2766 1069 2766 1631 
L 2766 1759 
L 2194 1759 
z
M 3341 1997 
L 3341 0 
L 2766 0 
L 2766 531 
Q 2569 213 2275 61 
Q 1981 -91 1556 -91 
Q 1019 -91 701 211 
Q 384 513 384 1019 
Q 384 1609 779 1909 
Q 1175 2209 1959 2209 
L 2766 2209 
L 2766 2266 
Q 2766 2663 2505 2880 
Q 2244 3097 1772 3097 
Q 1472 3097 1187 3025 
Q 903 2953 641 2809 
L 641 3341 
Q 956 3463 1253 3523 
Q 1550 3584 1831 3584 
Q 2591 3584 2966 3190 
Q 3341 2797 3341 1997 
z
" transform="scale(0.015625)"/>
       <path id="DejaVuSans-6d" d="M 3328 2828 
Q 3544 3216 3844 3400 
Q 4144 3584 4550 3584 
Q 5097 3584 5394 3201 
Q 5691 2819 5691 2113 
L 5691 0 
L 5113 0 
L 5113 2094 
Q 5113 2597 4934 2840 
Q 4756 3084 4391 3084 
Q 3944 3084 3684 2787 
Q 3425 2491 3425 1978 
L 3425 0 
L 2847 0 
L 2847 2094 
Q 2847 2600 2669 2842 
Q 2491 3084 2119 3084 
Q 1678 3084 1418 2786 
Q 1159 2488 1159 1978 
L 1159 0 
L 581 0 
L 581 3500 
L 1159 3500 
L 1159 2956 
Q 1356 3278 1631 3431 
Q 1906 3584 2284 3584 
Q 2666 3584 2933 3390 
Q 3200 3197 3328 2828 
z
" transform="scale(0.015625)"/>
       <path id="DejaVuSans-70" d="M 1159 525 
L 1159 -1331 
L 581 -1331 
L 581 3500 
L 1159 3500 
L 1159 2969 
Q 1341 3281 1617 3432 
Q 1894 3584 2278 3584 
Q 2916 3584 3314 3078 
Q 3713 2572 3713 1747 
Q 3713 922 3314 415 
Q 2916 -91 2278 -91 
Q 1894 -91 1617 61 
Q 1341 213 1159 525 
z
M 3116 1747 
Q 3116 2381 2855 2742 
Q 2594 3103 2138 3103 
Q 1681 3103 1420 2742 
Q 1159 2381 1159 1747 
Q 1159 1113 1420 752 
Q 1681 391 2138 391 
Q 2594 391 2855 752 
Q 3116 1113 3116 1747 
z
" transform="scale(0.015625)"/>
       <path id="DejaVuSans-6c" d="M 603 4863 
L 1178 4863 
L 1178 0 
L 603 0 
L 603 4863 
z
" transform="scale(0.015625)"/>
       <path id="DejaVuSans-65" d="M 3597 1894 
L 3597 1613 
L 953 1613 
Q 991 1019 1311 708 
Q 1631 397 2203 397 
Q 2534 397 2845 478 
Q 3156 559 3463 722 
L 3463 178 
Q 3153 47 2828 -22 
Q 2503 -91 2169 -91 
Q 1331 -91 842 396 
Q 353 884 353 1716 
Q 353 2575 817 3079 
Q 1281 3584 2069 3584 
Q 2775 3584 3186 3129 
Q 3597 2675 3597 1894 
z
M 3022 2063 
Q 3016 2534 2758 2815 
Q 2500 3097 2075 3097 
Q 1594 3097 1305 2825 
Q 1016 2553 972 2059 
L 3022 2063 
z
" transform="scale(0.015625)"/>
       <path id="DejaVuSans-20" transform="scale(0.015625)"/>
       <path id="DejaVuSans-4e" d="M 628 4666 
L 1478 4666 
L 3547 763 
L 3547 4666 
L 4159 4666 
L 4159 0 
L 3309 0 
L 1241 3903 
L 1241 0 
L 628 0 
L 628 4666 
z
" transform="scale(0.015625)"/>
       <path id="DejaVuSans-75" d="M 544 1381 
L 544 3500 
L 1119 3500 
L 1119 1403 
Q 1119 906 1312 657 
Q 1506 409 1894 409 
Q 2359 409 2629 706 
Q 2900 1003 2900 1516 
L 2900 3500 
L 3475 3500 
L 3475 0 
L 2900 0 
L 2900 538 
Q 2691 219 2414 64 
Q 2138 -91 1772 -91 
Q 1169 -91 856 284 
Q 544 659 544 1381 
z
M 1991 3584 
L 1991 3584 
z
" transform="scale(0.015625)"/>
       <path id="DejaVuSans-62" d="M 3116 1747 
Q 3116 2381 2855 2742 
Q 2594 3103 2138 3103 
Q 1681 3103 1420 2742 
Q 1159 2381 1159 1747 
Q 1159 1113 1420 752 
Q 1681 391 2138 391 
Q 2594 391 2855 752 
Q 3116 1113 3116 1747 
z
M 1159 2969 
Q 1341 3281 1617 3432 
Q 1894 3584 2278 3584 
Q 2916 3584 3314 3078 
Q 3713 2572 3713 1747 
Q 3713 922 3314 415 
Q 2916 -91 2278 -91 
Q 1894 -91 1617 61 
Q 1341 213 1159 525 
L 1159 0 
L 581 0 
L 581 4863 
L 1159 4863 
L 1159 2969 
z
" transform="scale(0.015625)"/>
       <path id="DejaVuSans-72" d="M 2631 2963 
Q 2534 3019 2420 3045 
Q 2306 3072 2169 3072 
Q 1681 3072 1420 2755 
Q 1159 2438 1159 1844 
L 1159 0 
L 581 0 
L 581 3500 
L 1159 3500 
L 1159 2956 
Q 1341 3275 1631 3429 
Q 1922 3584 2338 3584 
Q 2397 3584 2469 3576 
Q 2541 3569 2628 3553 
L 2631 2963 
z
" transform="scale(0.015625)"/>
      </defs>
      <use xlink:href="#DejaVuSans-53"/>
      <use xlink:href="#DejaVuSans-61" x="63.476562"/>
      <use xlink:href="#DejaVuSans-6d" x="124.755859"/>
      <use xlink:href="#DejaVuSans-70" x="222.167969"/>
      <use xlink:href="#DejaVuSans-6c" x="285.644531"/>
      <use xlink:href="#DejaVuSans-65" x="313.427734"/>
      <use xlink:href="#DejaVuSans-20" x="374.951172"/>
      <use xlink:href="#DejaVuSans-4e" x="406.738281"/>
      <use xlink:href="#DejaVuSans-75" x="481.542969"/>
      <use xlink:href="#DejaVuSans-6d" x="544.921875"/>
      <use xlink:href="#DejaVuSans-62" x="642.333984"/>
      <use xlink:href="#DejaVuSans-65" x="705.810547"/>
      <use xlink:href="#DejaVuSans-72" x="767.333984"/>
     </g>
    </g>
   </g>
   <g id="matplotlib.axis_2">
    <g id="ytick_1">
     <g id="line2d_8">
      <defs>
       <path id="m007dd04bf5" d="M 0 0 
L -3.5 0 
" style="stroke: #000000; stroke-width: 0.8"/>
      </defs>
      <g>
       <use xlink:href="#m007dd04bf5" x="108" y="339.58009" style="stroke: #000000; stroke-width: 0.8"/>
      </g>
     </g>
     <g id="text_9">
      <!-- 0 -->
      <g transform="translate(94.6375 343.379308) scale(0.1 -0.1)">
       <use xlink:href="#DejaVuSans-30"/>
      </g>
     </g>
    </g>
    <g id="ytick_2">
     <g id="line2d_9">
      <g>
       <use xlink:href="#m007dd04bf5" x="108" y="277.666007" style="stroke: #000000; stroke-width: 0.8"/>
      </g>
     </g>
     <g id="text_10">
      <!-- 5 -->
      <g transform="translate(94.6375 281.465226) scale(0.1 -0.1)">
       <use xlink:href="#DejaVuSans-35"/>
      </g>
     </g>
    </g>
    <g id="ytick_3">
     <g id="line2d_10">
      <g>
       <use xlink:href="#m007dd04bf5" x="108" y="215.751924" style="stroke: #000000; stroke-width: 0.8"/>
      </g>
     </g>
     <g id="text_11">
      <!-- 10 -->
      <g transform="translate(88.275 219.551143) scale(0.1 -0.1)">
       <use xlink:href="#DejaVuSans-31"/>
       <use xlink:href="#DejaVuSans-30" x="63.623047"/>
      </g>
     </g>
    </g>
    <g id="ytick_4">
     <g id="line2d_11">
      <g>
       <use xlink:href="#m007dd04bf5" x="108" y="153.837841" style="stroke: #000000; stroke-width: 0.8"/>
      </g>
     </g>
     <g id="text_12">
      <!-- 15 -->
      <g transform="translate(88.275 157.63706) scale(0.1 -0.1)">
       <use xlink:href="#DejaVuSans-31"/>
       <use xlink:href="#DejaVuSans-35" x="63.623047"/>
      </g>
     </g>
    </g>
    <g id="ytick_5">
     <g id="line2d_12">
      <g>
       <use xlink:href="#m007dd04bf5" x="108" y="91.923758" style="stroke: #000000; stroke-width: 0.8"/>
      </g>
     </g>
     <g id="text_13">
      <!-- 20 -->
      <g transform="translate(88.275 95.722977) scale(0.1 -0.1)">
       <use xlink:href="#DejaVuSans-32"/>
       <use xlink:href="#DejaVuSans-30" x="63.623047"/>
      </g>
     </g>
    </g>
    <g id="text_14">
     <!-- Magnetism -->
     <g transform="translate(82.195312 245.781875) rotate(-90) scale(0.1 -0.1)">
      <defs>
       <path id="DejaVuSans-4d" d="M 628 4666 
L 1569 4666 
L 2759 1491 
L 3956 4666 
L 4897 4666 
L 4897 0 
L 4281 0 
L 4281 4097 
L 3078 897 
L 2444 897 
L 1241 4097 
L 1241 0 
L 628 0 
L 628 4666 
z
" transform="scale(0.015625)"/>
       <path id="DejaVuSans-67" d="M 2906 1791 
Q 2906 2416 2648 2759 
Q 2391 3103 1925 3103 
Q 1463 3103 1205 2759 
Q 947 2416 947 1791 
Q 947 1169 1205 825 
Q 1463 481 1925 481 
Q 2391 481 2648 825 
Q 2906 1169 2906 1791 
z
M 3481 434 
Q 3481 -459 3084 -895 
Q 2688 -1331 1869 -1331 
Q 1566 -1331 1297 -1286 
Q 1028 -1241 775 -1147 
L 775 -588 
Q 1028 -725 1275 -790 
Q 1522 -856 1778 -856 
Q 2344 -856 2625 -561 
Q 2906 -266 2906 331 
L 2906 616 
Q 2728 306 2450 153 
Q 2172 0 1784 0 
Q 1141 0 747 490 
Q 353 981 353 1791 
Q 353 2603 747 3093 
Q 1141 3584 1784 3584 
Q 2172 3584 2450 3431 
Q 2728 3278 2906 2969 
L 2906 3500 
L 3481 3500 
L 3481 434 
z
" transform="scale(0.015625)"/>
       <path id="DejaVuSans-6e" d="M 3513 2113 
L 3513 0 
L 2938 0 
L 2938 2094 
Q 2938 2591 2744 2837 
Q 2550 3084 2163 3084 
Q 1697 3084 1428 2787 
Q 1159 2491 1159 1978 
L 1159 0 
L 581 0 
L 581 3500 
L 1159 3500 
L 1159 2956 
Q 1366 3272 1645 3428 
Q 1925 3584 2291 3584 
Q 2894 3584 3203 3211 
Q 3513 2838 3513 2113 
z
" transform="scale(0.015625)"/>
       <path id="DejaVuSans-74" d="M 1172 4494 
L 1172 3500 
L 2356 3500 
L 2356 3053 
L 1172 3053 
L 1172 1153 
Q 1172 725 1289 603 
Q 1406 481 1766 481 
L 2356 481 
L 2356 0 
L 1766 0 
Q 1100 0 847 248 
Q 594 497 594 1153 
L 594 3053 
L 172 3053 
L 172 3500 
L 594 3500 
L 594 4494 
L 1172 4494 
z
" transform="scale(0.015625)"/>
       <path id="DejaVuSans-69" d="M 603 3500 
L 1178 3500 
L 1178 0 
L 603 0 
L 603 3500 
z
M 603 4863 
L 1178 4863 
L 1178 4134 
L 603 4134 
L 603 4863 
z
" transform="scale(0.015625)"/>
       <path id="DejaVuSans-73" d="M 2834 3397 
L 2834 2853 
Q 2591 2978 2328 3040 
Q 2066 3103 1784 3103 
Q 1356 3103 1142 2972 
Q 928 2841 928 2578 
Q 928 2378 1081 2264 
Q 1234 2150 1697 2047 
L 1894 2003 
Q 2506 1872 2764 1633 
Q 3022 1394 3022 966 
Q 3022 478 2636 193 
Q 2250 -91 1575 -91 
Q 1294 -91 989 -36 
Q 684 19 347 128 
L 347 722 
Q 666 556 975 473 
Q 1284 391 1588 391 
Q 1994 391 2212 530 
Q 2431 669 2431 922 
Q 2431 1156 2273 1281 
Q 2116 1406 1581 1522 
L 1381 1569 
Q 847 1681 609 1914 
Q 372 2147 372 2553 
Q 372 3047 722 3315 
Q 1072 3584 1716 3584 
Q 2034 3584 2315 3537 
Q 2597 3491 2834 3397 
z
" transform="scale(0.015625)"/>
      </defs>
      <use xlink:href="#DejaVuSans-4d"/>
      <use xlink:href="#DejaVuSans-61" x="86.279297"/>
      <use xlink:href="#DejaVuSans-67" x="147.558594"/>
      <use xlink:href="#DejaVuSans-6e" x="211.035156"/>
      <use xlink:href="#DejaVuSans-65" x="274.414062"/>
      <use xlink:href="#DejaVuSans-74" x="335.9375"/>
      <use xlink:href="#DejaVuSans-69" x="375.146484"/>
      <use xlink:href="#DejaVuSans-73" x="402.929688"/>
      <use xlink:href="#DejaVuSans-6d" x="455.029297"/>
     </g>
    </g>
   </g>
   <g id="line2d_13">
    <path d="M 161.777133 384.48 
L 161.777133 51.84 
" clip-path="url(#pcad0820292)" style="fill: none; stroke-dasharray: 5.55,2.4; stroke-dashoffset: 0; stroke: #008000; stroke-width: 1.5"/>
   </g>
   <g id="line2d_14">
    <path d="M 448.401785 384.48 
L 448.401785 51.84 
" clip-path="url(#pcad0820292)" style="fill: none; stroke-dasharray: 5.55,2.4; stroke-dashoffset: 0; stroke: #008000; stroke-width: 1.5"/>
   </g>
   <g id="line2d_15">
    <path d="M 138.436364 364.494317 
L 139.369994 363.14459 
L 140.303625 358.414354 
L 141.237256 357.683768 
L 142.170887 357.559939 
L 143.104518 354.43947 
L 144.038148 353.770798 
L 144.971779 353.56029 
L 145.90541 353.47361 
L 146.839041 344.706576 
L 148.706302 344.706576 
L 149.639933 344.446537 
L 150.573564 344.446537 
L 151.507195 344.211263 
L 152.440825 344.211263 
L 153.374456 343.480677 
L 154.308087 342.390989 
L 155.241718 342.390989 
L 156.175349 340.867903 
L 157.108979 340.384973 
L 158.04261 340.087785 
L 158.976241 340.06302 
L 162.710764 339.58009 
L 449.335416 339.518176 
L 450.269046 339.233371 
L 452.136308 339.047629 
L 454.003569 339.022863 
L 454.9372 338.676144 
L 456.804462 338.515168 
L 460.538985 337.834113 
L 461.472616 337.73505 
L 462.406247 337.388331 
L 464.273508 337.227355 
L 465.207139 336.880636 
L 466.14077 336.112901 
L 468.941662 335.691885 
L 469.875293 335.654737 
L 470.808924 335.283252 
L 471.742554 335.159424 
L 472.676185 334.837471 
L 474.543447 334.416455 
L 475.477078 334.404072 
L 476.410708 334.106885 
L 477.344339 334.082119 
L 478.27797 333.02958 
L 480.145231 332.732392 
L 481.078862 331.481728 
L 482.012493 331.469345 
L 482.946124 331.283603 
L 483.879755 331.234071 
L 484.813385 330.924501 
L 485.747016 330.862587 
L 488.547909 328.831805 
L 489.481539 328.757508 
L 490.41517 328.274578 
L 491.348801 328.163133 
L 492.282432 327.865945 
L 493.216062 327.816414 
L 495.083324 327.432547 
L 496.950586 327.395398 
L 497.884216 326.380007 
L 498.817847 326.095202 
L 499.751478 325.934226 
L 500.685109 325.005515 
L 501.61874 324.881686 
L 503.486001 323.110944 
L 504.419632 323.110944 
L 507.220524 322.590865 
L 508.154155 322.590865 
L 509.087786 322.429889 
L 510.955047 322.306061 
L 512.822309 321.662154 
L 514.689571 321.451646 
L 515.623201 321.080162 
L 516.556832 320.906802 
L 517.490463 320.473404 
L 519.357724 320.002857 
L 520.291355 318.752192 
L 521.224986 317.959692 
L 522.158617 316.80809 
L 523.092248 314.727777 
L 524.025878 314.405824 
L 524.959509 310.319494 
L 526.826771 310.319494 
L 527.760402 309.353634 
L 528.694032 309.229806 
L 529.627663 309.229806 
L 530.561294 308.573517 
L 532.428555 308.400158 
L 533.362186 308.400158 
L 534.295817 307.892462 
L 535.229448 307.681954 
L 536.163079 307.681954 
L 537.096709 307.260938 
L 538.03034 307.13711 
L 538.963971 306.815157 
L 540.831233 306.74086 
L 541.764863 305.973126 
L 542.698494 305.63879 
L 544.565756 305.502579 
L 545.499387 304.920586 
L 546.433017 303.186992 
L 548.300279 303.112695 
L 549.23391 301.824882 
L 551.101171 301.824882 
L 552.034802 301.032382 
L 552.968433 299.595975 
L 553.902064 298.493904 
L 554.835694 296.822224 
L 555.769325 296.326911 
L 556.702956 295.261989 
L 557.636587 295.237224 
L 558.570218 294.246598 
L 559.503848 293.788434 
L 562.304741 293.738903 
L 563.238371 293.293121 
L 566.039264 293.033082 
L 566.972895 292.834957 
L 567.906525 292.834957 
L 568.840156 292.030074 
L 569.773787 291.534761 
L 570.707418 291.534761 
L 571.641049 290.061206 
L 572.574679 289.541128 
L 573.50831 287.671323 
L 574.441941 287.621791 
L 576.309202 287.312221 
L 578.176464 284.352728 
L 579.110095 284.129837 
L 580.043726 283.114446 
L 581.910987 283.114446 
L 582.844618 282.520071 
L 583.778249 282.173352 
L 585.64551 280.749328 
L 586.579141 279.634875 
L 587.512772 279.028117 
L 588.446403 277.703155 
L 589.380033 277.009718 
L 590.313664 276.774444 
L 593.114557 275.35042 
L 594.048187 274.434092 
L 594.981818 274.38456 
L 596.84908 273.827334 
L 597.782711 273.827334 
L 598.716341 273.443466 
L 600.583603 273.443466 
L 601.517234 273.10913 
L 602.450864 271.016434 
L 603.384495 270.657333 
L 604.318126 268.787527 
L 605.251757 267.970261 
L 607.119018 267.883582 
L 608.052649 264.688815 
L 609.919911 264.589753 
L 613.654434 264.589753 
L 614.588065 263.846784 
L 615.521695 262.558971 
L 616.455326 261.593111 
L 617.388957 261.593111 
L 618.322588 260.515806 
L 619.256219 260.119556 
L 620.189849 259.141313 
L 621.12348 257.605844 
L 622.990742 256.379945 
L 628.592526 256.379945 
L 629.526157 255.649359 
L 630.459788 254.188187 
L 631.393419 253.469983 
L 632.32705 249.495099 
L 633.26068 249.123615 
L 634.194311 249.123615 
L 635.127942 248.591154 
L 636.061573 247.674825 
L 637.928834 247.427169 
L 638.862465 246.969005 
L 639.796096 243.303691 
L 640.729727 243.303691 
L 641.663358 240.814745 
L 642.596988 240.034627 
L 643.530619 239.65076 
L 645.397881 239.34119 
L 646.331511 239.34119 
L 647.265142 238.920174 
L 648.198773 238.746814 
L 649.132404 238.140056 
L 650.999665 235.502516 
L 651.933296 234.400446 
L 652.866927 230.908491 
L 653.800558 228.716733 
L 654.734189 225.336224 
L 656.60145 225.286693 
L 658.468712 224.630403 
L 659.402342 222.599622 
L 660.335973 222.587239 
L 661.269604 220.445011 
L 662.203235 219.132433 
L 665.004127 219.008605 
L 665.937758 218.203722 
L 666.871389 217.819854 
L 667.80502 216.65587 
L 668.73865 215.021338 
L 669.672281 214.872744 
L 670.605912 214.253603 
L 671.539543 211.764657 
L 672.473173 210.922626 
L 673.406804 210.774032 
L 674.340435 209.213797 
L 675.274066 208.458445 
L 676.207697 205.659928 
L 677.141327 204.954108 
L 678.074958 203.988248 
L 679.008589 203.938717 
L 679.94222 203.232896 
L 680.875851 200.892544 
L 681.809481 200.025747 
L 682.743112 199.939067 
L 683.676743 199.480903 
L 684.610374 199.480903 
L 685.544004 198.960825 
L 686.477635 198.960825 
L 687.411266 198.836997 
L 688.344897 198.391215 
L 689.278528 198.378832 
L 690.212158 197.908285 
L 691.145789 196.793832 
L 692.07942 191.741643 
L 693.013051 190.887228 
L 693.946682 187.717227 
L 695.813943 187.655313 
L 696.747574 184.893945 
L 697.681205 183.915703 
L 699.548466 183.915703 
L 700.482097 179.556951 
L 701.415728 178.553943 
L 702.349359 178.071013 
L 703.282989 177.984333 
L 704.21662 177.625232 
L 705.150251 177.030857 
L 707.017513 174.616207 
L 707.951143 172.114878 
L 708.884774 172.114878 
L 709.818405 170.356518 
L 710.752036 170.195542 
L 712.619297 170.195542 
L 713.552928 167.929486 
L 714.486559 166.394017 
L 715.42019 165.948236 
L 716.35382 164.103196 
L 717.287451 162.703938 
L 719.154713 162.703938 
L 720.088344 159.992101 
L 721.021974 159.992101 
L 721.955605 159.645382 
L 722.889236 159.162452 
L 723.822867 158.023233 
L 724.756497 153.280614 
L 726.623759 153.268232 
L 727.55739 148.476082 
L 728.491021 148.166511 
L 729.424651 146.705339 
L 730.358282 138.210727 
L 731.291913 137.504906 
L 733.159175 134.347288 
L 734.092805 130.558146 
L 735.026436 128.341622 
L 735.960067 128.341622 
L 736.893698 127.883458 
L 737.827328 124.15623 
L 738.760959 111.785796 
L 739.69459 110.535132 
L 740.628221 100.220245 
L 741.561852 91.71325 
L 742.495482 90.685477 
L 743.429113 90.053953 
L 744.362744 90.053953 
L 745.296375 88.803288 
L 746.230006 86.822038 
L 747.163636 66.96 
L 747.163636 66.96 
" clip-path="url(#pcad0820292)" style="fill: none; stroke: #ff0000; stroke-width: 0.5; stroke-linecap: square"/>
   </g>
   <g id="line2d_16">
    <path d="M 138.436364 341.583757 
L 139.369994 339.58009 
L 140.303625 339.053578 
L 141.237256 333.817952 
L 142.170887 341.181814 
L 143.104518 346.220948 
L 144.038148 369.36 
L 144.971779 341.531823 
L 145.90541 344.801828 
L 146.839041 341.53656 
L 150.573564 341.53656 
L 151.507195 342.360584 
L 152.440825 339.58009 
L 153.374456 339.053578 
L 154.308087 336.865455 
L 155.241718 336.865455 
L 156.175349 339.572845 
L 157.108979 340.821467 
L 158.04261 339.58009 
L 158.976241 338.798461 
L 159.909872 339.385255 
L 160.843503 333.626492 
L 161.777133 339.58009 
L 163.644395 339.58009 
L 164.578026 346.220948 
L 165.511656 339.548008 
L 169.24618 339.58009 
L 171.113441 339.574022 
L 172.047072 340.726875 
L 172.980703 339.58009 
L 189.786057 339.58009 
L 190.719688 337.159938 
L 191.653318 339.58009 
L 195.387842 339.58009 
L 196.321472 333.839596 
L 197.255103 339.58009 
L 201.923257 339.58009 
L 202.856888 338.036164 
L 203.790519 339.58009 
L 222.463134 339.58009 
L 223.396765 340.821467 
L 224.330396 339.58009 
L 225.264027 339.58009 
L 226.197658 339.895193 
L 227.131288 339.58009 
L 234.600335 339.58009 
L 235.533965 342.353371 
L 236.467596 339.58009 
L 239.268489 339.58009 
L 240.202119 341.53656 
L 241.13575 339.58009 
L 245.803904 339.58009 
L 246.737535 339.334043 
L 247.671166 339.58009 
L 250.472058 339.58009 
L 251.405689 333.626492 
L 252.33932 339.58009 
L 264.47652 339.58009 
L 265.410151 338.036164 
L 266.343781 339.58009 
L 271.011935 339.58009 
L 271.945566 344.97641 
L 272.879197 339.58009 
L 277.547351 339.58009 
L 278.480982 342.360584 
L 279.414612 339.58009 
L 301.821751 339.58009 
L 302.755382 337.984041 
L 303.689013 339.58009 
L 312.09169 339.58009 
L 313.025321 342.839581 
L 313.958951 339.58009 
L 317.693475 339.58009 
L 318.627105 339.367724 
L 319.560736 339.58009 
L 328.897044 339.58009 
L 329.830675 341.53656 
L 330.764306 339.58009 
L 334.498829 339.58009 
L 335.43246 337.095654 
L 336.36609 339.58009 
L 343.835137 339.58009 
L 344.768767 338.562207 
L 345.702398 339.548008 
L 349.436921 339.58009 
L 373.711322 339.58009 
L 374.644953 344.97641 
L 375.578583 339.58009 
L 376.512214 342.353371 
L 377.445845 339.58009 
L 378.379476 339.58009 
L 379.313107 341.144028 
L 380.246737 339.58009 
L 402.653876 339.58009 
L 403.587507 345.158766 
L 404.521138 339.58009 
L 418.5256 339.613771 
L 419.45923 341.53656 
L 420.392861 339.58009 
L 425.061015 339.578679 
L 425.994646 341.53656 
L 426.928277 339.58009 
L 428.795538 339.58009 
L 429.729169 341.188678 
L 430.6628 339.58009 
L 445.600892 339.58009 
L 446.534523 341.53656 
L 447.468154 339.58009 
L 448.401785 339.54314 
L 449.335416 314.770902 
L 450.269046 339.385255 
L 451.202677 331.466412 
L 452.136308 337.69889 
L 453.069939 339.385255 
L 454.9372 339.58009 
L 455.870831 339.198726 
L 456.804462 334.526137 
L 457.738093 334.070964 
L 458.671723 331.319875 
L 459.605354 339.58009 
L 461.472616 339.58009 
L 462.406247 333.626492 
L 463.339877 339.385255 
L 464.273508 329.085103 
L 465.207139 338.575554 
L 466.14077 335.471928 
L 467.0744 334.526137 
L 468.008031 334.918774 
L 468.941662 335.749169 
L 469.875293 334.526137 
L 470.808924 330.526514 
L 471.742554 339.572845 
L 472.676185 335.66867 
L 473.609816 334.69186 
L 474.543447 327.413726 
L 475.477078 334.526137 
L 476.410708 330.63194 
L 477.344339 352.192089 
L 478.27797 321.504208 
L 479.211601 331.319875 
L 480.145231 331.319875 
L 481.078862 331.079748 
L 482.012493 328.409398 
L 482.946124 339.200579 
L 483.879755 328.409398 
L 484.813385 322.112108 
L 485.747016 339.58009 
L 486.680647 331.319875 
L 487.614278 331.319875 
L 488.547909 333.739439 
L 489.481539 321.129627 
L 490.41517 323.777581 
L 491.348801 331.319875 
L 492.282432 325.483801 
L 493.216062 321.734411 
L 494.149693 327.273058 
L 495.083324 306.418563 
L 496.016955 306.806301 
L 496.950586 327.956335 
L 497.884216 335.15903 
L 498.817847 331.319875 
L 499.751478 328.742989 
L 500.685109 293.324993 
L 501.61874 322.229642 
L 502.55237 316.291751 
L 503.486001 321.129627 
L 504.419632 322.112108 
L 505.353263 330.887014 
L 506.286893 320.034839 
L 507.220524 335.120711 
L 508.154155 323.303433 
L 509.087786 323.683018 
L 510.021417 334.836201 
L 510.955047 326.819318 
L 511.888678 322.229642 
L 512.822309 341.814078 
L 513.75594 314.521194 
L 514.689571 323.683018 
L 515.623201 326.819318 
L 516.556832 320.034839 
L 517.490463 334.554981 
L 518.424094 308.859174 
L 519.357724 320.034839 
L 520.291355 318.209316 
L 521.224986 318.209316 
L 522.158617 308.271712 
L 523.092248 314.741628 
L 524.025878 323.777581 
L 524.959509 313.747146 
L 525.89314 313.747146 
L 526.826771 314.846876 
L 527.760402 308.271201 
L 528.694032 309.625417 
L 529.627663 314.846876 
L 530.561294 318.412835 
L 531.494925 259.705701 
L 532.428555 309.625417 
L 533.362186 313.747146 
L 534.295817 322.112108 
L 535.229448 309.256123 
L 536.163079 308.271201 
L 537.096709 326.819318 
L 538.03034 309.023404 
L 538.963971 302.216238 
L 539.897602 306.418563 
L 540.831233 304.138405 
L 541.764863 305.247158 
L 542.698494 286.810981 
L 543.632125 302.216238 
L 544.565756 307.553861 
L 545.499387 302.216238 
L 546.433017 303.687739 
L 547.366648 298.336021 
L 548.300279 300.005472 
L 549.23391 300.246133 
L 550.16754 303.422524 
L 551.101171 297.253513 
L 552.034802 302.216238 
L 552.968433 303.687739 
L 553.902064 302.216238 
L 554.835694 300.005472 
L 555.769325 293.324993 
L 556.702956 293.839344 
L 557.636587 293.839344 
L 558.570218 300.246133 
L 559.503848 293.839344 
L 562.304741 293.839344 
L 564.172002 277.053924 
L 565.105633 276.897459 
L 566.039264 293.775717 
L 566.972895 302.216238 
L 567.906525 302.627541 
L 568.840156 282.304932 
L 569.773787 293.839344 
L 570.707418 293.839344 
L 571.641049 293.0044 
L 572.574679 267.745017 
L 573.50831 262.199004 
L 574.441941 222.821076 
L 575.375572 279.404199 
L 576.309202 289.595862 
L 577.242833 261.697341 
L 578.176464 306.112756 
L 579.110095 282.304932 
L 580.043726 288.823546 
L 580.977356 285.74873 
L 581.910987 288.823546 
L 582.844618 282.660721 
L 583.778249 275.52277 
L 584.71188 274.580135 
L 585.64551 290.868217 
L 586.579141 219.341169 
L 587.512772 252.899063 
L 588.446403 264.70516 
L 589.380033 294.048683 
L 590.313664 184.634756 
L 591.247295 226.622338 
L 592.180926 229.656394 
L 593.114557 184.634756 
L 594.048187 271.22636 
L 594.981818 246.676558 
L 595.915449 275.52277 
L 596.84908 285.519794 
L 597.782711 285.519794 
L 598.716341 271.22636 
L 599.649972 279.404199 
L 600.583603 279.404199 
L 601.517234 213.604346 
L 602.450864 270.687839 
L 603.384495 270.430614 
L 604.318126 273.216193 
L 605.251757 249.706119 
L 606.185388 285.519794 
L 607.119018 273.769986 
L 608.052649 265.051023 
L 608.98628 267.745017 
L 609.919911 267.745017 
L 610.853542 252.899063 
L 611.787172 267.745017 
L 613.654434 267.745017 
L 614.588065 224.652097 
L 615.521695 259.364334 
L 617.388957 263.066404 
L 618.322588 256.735906 
L 619.256219 261.697341 
L 620.189849 259.705701 
L 621.12348 243.564451 
L 622.057111 236.111839 
L 622.990742 267.745017 
L 628.592526 267.745017 
L 629.526157 256.522427 
L 630.459788 283.534876 
L 631.393419 263.26281 
L 632.32705 283.534876 
L 633.26068 229.656394 
L 634.194311 250.483065 
L 635.127942 227.010504 
L 636.061573 271.089101 
L 636.995204 244.202343 
L 637.928834 236.111839 
L 638.862465 223.250004 
L 639.796096 256.735906 
L 640.729727 242.82198 
L 641.663358 235.187268 
L 642.596988 249.706119 
L 643.530619 228.227516 
L 644.46425 275.050048 
L 645.397881 262.348559 
L 646.331511 226.642157 
L 648.198773 277.100242 
L 649.132404 252.153728 
L 650.066035 250.483065 
L 650.999665 283.579637 
L 651.933296 248.666344 
L 652.866927 232.531023 
L 653.800558 252.438726 
L 654.734189 230.907418 
L 656.60145 230.907418 
L 657.535081 245.000816 
L 658.468712 244.202343 
L 659.402342 215.928563 
L 660.335973 224.587555 
L 661.269604 201.36901 
L 662.203235 213.766045 
L 663.136866 262.868913 
L 664.070496 266.223372 
L 665.004127 230.464822 
L 665.937758 244.202343 
L 666.871389 209.28907 
L 667.80502 250.312741 
L 669.672281 174.33787 
L 670.605912 214.464114 
L 671.539543 230.464822 
L 672.473173 210.310342 
L 673.406804 210.046082 
L 674.340435 210.310342 
L 675.274066 220.294513 
L 676.207697 238.951068 
L 677.141327 200.149378 
L 678.074958 213.766045 
L 679.008589 149.831263 
L 679.94222 211.919623 
L 680.875851 203.45463 
L 681.809481 200.149378 
L 682.743112 199.066698 
L 683.676743 203.760043 
L 684.610374 205.310106 
L 685.544004 203.760043 
L 686.477635 205.310106 
L 687.411266 213.766045 
L 688.344897 200.539095 
L 689.278528 213.766045 
L 690.212158 213.766045 
L 691.145789 200.149378 
L 692.07942 203.880817 
L 693.013051 161.081417 
L 693.946682 194.560807 
L 694.880312 185.901488 
L 695.813943 189.944138 
L 696.747574 192.975191 
L 697.681205 213.604346 
L 698.614835 213.604346 
L 699.548466 184.261444 
L 700.482097 149.831263 
L 701.415728 184.222833 
L 702.349359 180.674255 
L 703.282989 125.468478 
L 704.21662 172.301609 
L 705.150251 177.05841 
L 706.083882 174.945069 
L 707.017513 174.945069 
L 707.951143 203.454708 
L 708.884774 170.912792 
L 709.818405 233.33747 
L 710.752036 195.186579 
L 711.685666 174.925054 
L 712.619297 174.925054 
L 713.552928 240.325378 
L 714.486559 162.741202 
L 716.35382 160.268608 
L 717.287451 158.726895 
L 718.221082 158.656737 
L 719.154713 158.726895 
L 720.088344 159.32037 
L 721.021974 154.036981 
L 721.955605 238.951068 
L 722.889236 238.951068 
L 723.822867 143.805178 
L 724.756497 215.928563 
L 726.623759 215.928563 
L 727.55739 222.821076 
L 728.491021 147.552792 
L 729.424651 174.925054 
L 730.358282 147.320955 
L 731.291913 143.152794 
L 732.225544 131.375612 
L 733.159175 143.152794 
L 734.092805 235.610502 
L 735.960067 129.803447 
L 736.893698 125.468478 
L 738.760959 207.071337 
L 739.69459 207.071337 
L 740.628221 105.668065 
L 741.561852 71.276726 
L 742.495482 89.582244 
L 743.429113 213.393344 
L 744.362744 217.261932 
L 745.296375 213.393344 
L 746.230006 139.442459 
L 747.163636 147.179871 
L 747.163636 147.179871 
" clip-path="url(#pcad0820292)" style="fill: none; stroke: #1f77b4; stroke-width: 0.5; stroke-linecap: square"/>
   </g>
   <g id="patch_3">
    <path d="M 108 384.48 
L 108 51.84 
" style="fill: none; stroke: #000000; stroke-width: 0.8; stroke-linejoin: miter; stroke-linecap: square"/>
   </g>
   <g id="patch_4">
    <path d="M 777.6 384.48 
L 777.6 51.84 
" style="fill: none; stroke: #000000; stroke-width: 0.8; stroke-linejoin: miter; stroke-linecap: square"/>
   </g>
   <g id="patch_5">
    <path d="M 108 384.48 
L 777.6 384.48 
" style="fill: none; stroke: #000000; stroke-width: 0.8; stroke-linejoin: miter; stroke-linecap: square"/>
   </g>
   <g id="patch_6">
    <path d="M 108 51.84 
L 777.6 51.84 
" style="fill: none; stroke: #000000; stroke-width: 0.8; stroke-linejoin: miter; stroke-linecap: square"/>
   </g>
   <g id="text_15">
    <!-- 1847 samples predictions -->
    <g transform="translate(365.55 45.84) scale(0.12 -0.12)">
     <defs>
      <path id="DejaVuSans-38" d="M 2034 2216 
Q 1584 2216 1326 1975 
Q 1069 1734 1069 1313 
Q 1069 891 1326 650 
Q 1584 409 2034 409 
Q 2484 409 2743 651 
Q 3003 894 3003 1313 
Q 3003 1734 2745 1975 
Q 2488 2216 2034 2216 
z
M 1403 2484 
Q 997 2584 770 2862 
Q 544 3141 544 3541 
Q 544 4100 942 4425 
Q 1341 4750 2034 4750 
Q 2731 4750 3128 4425 
Q 3525 4100 3525 3541 
Q 3525 3141 3298 2862 
Q 3072 2584 2669 2484 
Q 3125 2378 3379 2068 
Q 3634 1759 3634 1313 
Q 3634 634 3220 271 
Q 2806 -91 2034 -91 
Q 1263 -91 848 271 
Q 434 634 434 1313 
Q 434 1759 690 2068 
Q 947 2378 1403 2484 
z
M 1172 3481 
Q 1172 3119 1398 2916 
Q 1625 2713 2034 2713 
Q 2441 2713 2670 2916 
Q 2900 3119 2900 3481 
Q 2900 3844 2670 4047 
Q 2441 4250 2034 4250 
Q 1625 4250 1398 4047 
Q 1172 3844 1172 3481 
z
" transform="scale(0.015625)"/>
      <path id="DejaVuSans-37" d="M 525 4666 
L 3525 4666 
L 3525 4397 
L 1831 0 
L 1172 0 
L 2766 4134 
L 525 4134 
L 525 4666 
z
" transform="scale(0.015625)"/>
      <path id="DejaVuSans-64" d="M 2906 2969 
L 2906 4863 
L 3481 4863 
L 3481 0 
L 2906 0 
L 2906 525 
Q 2725 213 2448 61 
Q 2172 -91 1784 -91 
Q 1150 -91 751 415 
Q 353 922 353 1747 
Q 353 2572 751 3078 
Q 1150 3584 1784 3584 
Q 2172 3584 2448 3432 
Q 2725 3281 2906 2969 
z
M 947 1747 
Q 947 1113 1208 752 
Q 1469 391 1925 391 
Q 2381 391 2643 752 
Q 2906 1113 2906 1747 
Q 2906 2381 2643 2742 
Q 2381 3103 1925 3103 
Q 1469 3103 1208 2742 
Q 947 2381 947 1747 
z
" transform="scale(0.015625)"/>
      <path id="DejaVuSans-63" d="M 3122 3366 
L 3122 2828 
Q 2878 2963 2633 3030 
Q 2388 3097 2138 3097 
Q 1578 3097 1268 2742 
Q 959 2388 959 1747 
Q 959 1106 1268 751 
Q 1578 397 2138 397 
Q 2388 397 2633 464 
Q 2878 531 3122 666 
L 3122 134 
Q 2881 22 2623 -34 
Q 2366 -91 2075 -91 
Q 1284 -91 818 406 
Q 353 903 353 1747 
Q 353 2603 823 3093 
Q 1294 3584 2113 3584 
Q 2378 3584 2631 3529 
Q 2884 3475 3122 3366 
z
" transform="scale(0.015625)"/>
      <path id="DejaVuSans-6f" d="M 1959 3097 
Q 1497 3097 1228 2736 
Q 959 2375 959 1747 
Q 959 1119 1226 758 
Q 1494 397 1959 397 
Q 2419 397 2687 759 
Q 2956 1122 2956 1747 
Q 2956 2369 2687 2733 
Q 2419 3097 1959 3097 
z
M 1959 3584 
Q 2709 3584 3137 3096 
Q 3566 2609 3566 1747 
Q 3566 888 3137 398 
Q 2709 -91 1959 -91 
Q 1206 -91 779 398 
Q 353 888 353 1747 
Q 353 2609 779 3096 
Q 1206 3584 1959 3584 
z
" transform="scale(0.015625)"/>
     </defs>
     <use xlink:href="#DejaVuSans-31"/>
     <use xlink:href="#DejaVuSans-38" x="63.623047"/>
     <use xlink:href="#DejaVuSans-34" x="127.246094"/>
     <use xlink:href="#DejaVuSans-37" x="190.869141"/>
     <use xlink:href="#DejaVuSans-20" x="254.492188"/>
     <use xlink:href="#DejaVuSans-73" x="286.279297"/>
     <use xlink:href="#DejaVuSans-61" x="338.378906"/>
     <use xlink:href="#DejaVuSans-6d" x="399.658203"/>
     <use xlink:href="#DejaVuSans-70" x="497.070312"/>
     <use xlink:href="#DejaVuSans-6c" x="560.546875"/>
     <use xlink:href="#DejaVuSans-65" x="588.330078"/>
     <use xlink:href="#DejaVuSans-73" x="649.853516"/>
     <use xlink:href="#DejaVuSans-20" x="701.953125"/>
     <use xlink:href="#DejaVuSans-70" x="733.740234"/>
     <use xlink:href="#DejaVuSans-72" x="797.216797"/>
     <use xlink:href="#DejaVuSans-65" x="836.080078"/>
     <use xlink:href="#DejaVuSans-64" x="897.603516"/>
     <use xlink:href="#DejaVuSans-69" x="961.080078"/>
     <use xlink:href="#DejaVuSans-63" x="988.863281"/>
     <use xlink:href="#DejaVuSans-74" x="1043.84375"/>
     <use xlink:href="#DejaVuSans-69" x="1083.052734"/>
     <use xlink:href="#DejaVuSans-6f" x="1110.835938"/>
     <use xlink:href="#DejaVuSans-6e" x="1172.017578"/>
     <use xlink:href="#DejaVuSans-73" x="1235.396484"/>
    </g>
   </g>
   <g id="legend_1">
    <g id="patch_7">
     <path d="M 661.01875 379.48 
L 770.6 379.48 
Q 772.6 379.48 772.6 377.48 
L 772.6 349.12375 
Q 772.6 347.12375 770.6 347.12375 
L 661.01875 347.12375 
Q 659.01875 347.12375 659.01875 349.12375 
L 659.01875 377.48 
Q 659.01875 379.48 661.01875 379.48 
z
" style="fill: #ffffff; opacity: 0.8; stroke: #cccccc; stroke-linejoin: miter"/>
    </g>
    <g id="line2d_17">
     <path d="M 663.01875 355.222188 
L 673.01875 355.222188 
L 683.01875 355.222188 
" style="fill: none; stroke: #ff0000; stroke-width: 0.5; stroke-linecap: square"/>
    </g>
    <g id="text_16">
     <!-- Actual Value -->
     <g transform="translate(691.01875 358.722188) scale(0.1 -0.1)">
      <defs>
       <path id="DejaVuSans-41" d="M 2188 4044 
L 1331 1722 
L 3047 1722 
L 2188 4044 
z
M 1831 4666 
L 2547 4666 
L 4325 0 
L 3669 0 
L 3244 1197 
L 1141 1197 
L 716 0 
L 50 0 
L 1831 4666 
z
" transform="scale(0.015625)"/>
       <path id="DejaVuSans-56" d="M 1831 0 
L 50 4666 
L 709 4666 
L 2188 738 
L 3669 4666 
L 4325 4666 
L 2547 0 
L 1831 0 
z
" transform="scale(0.015625)"/>
      </defs>
      <use xlink:href="#DejaVuSans-41"/>
      <use xlink:href="#DejaVuSans-63" x="66.658203"/>
      <use xlink:href="#DejaVuSans-74" x="121.638672"/>
      <use xlink:href="#DejaVuSans-75" x="160.847656"/>
      <use xlink:href="#DejaVuSans-61" x="224.226562"/>
      <use xlink:href="#DejaVuSans-6c" x="285.505859"/>
      <use xlink:href="#DejaVuSans-20" x="313.289062"/>
      <use xlink:href="#DejaVuSans-56" x="345.076172"/>
      <use xlink:href="#DejaVuSans-61" x="405.734375"/>
      <use xlink:href="#DejaVuSans-6c" x="467.013672"/>
      <use xlink:href="#DejaVuSans-75" x="494.796875"/>
      <use xlink:href="#DejaVuSans-65" x="558.175781"/>
     </g>
    </g>
    <g id="line2d_18">
     <path d="M 663.01875 369.900312 
L 673.01875 369.900312 
L 683.01875 369.900312 
" style="fill: none; stroke: #1f77b4; stroke-width: 0.5; stroke-linecap: square"/>
    </g>
    <g id="text_17">
     <!-- Predicted Value -->
     <g transform="translate(691.01875 373.400312) scale(0.1 -0.1)">
      <defs>
       <path id="DejaVuSans-50" d="M 1259 4147 
L 1259 2394 
L 2053 2394 
Q 2494 2394 2734 2622 
Q 2975 2850 2975 3272 
Q 2975 3691 2734 3919 
Q 2494 4147 2053 4147 
L 1259 4147 
z
M 628 4666 
L 2053 4666 
Q 2838 4666 3239 4311 
Q 3641 3956 3641 3272 
Q 3641 2581 3239 2228 
Q 2838 1875 2053 1875 
L 1259 1875 
L 1259 0 
L 628 0 
L 628 4666 
z
" transform="scale(0.015625)"/>
      </defs>
      <use xlink:href="#DejaVuSans-50"/>
      <use xlink:href="#DejaVuSans-72" x="58.552734"/>
      <use xlink:href="#DejaVuSans-65" x="97.416016"/>
      <use xlink:href="#DejaVuSans-64" x="158.939453"/>
      <use xlink:href="#DejaVuSans-69" x="222.416016"/>
      <use xlink:href="#DejaVuSans-63" x="250.199219"/>
      <use xlink:href="#DejaVuSans-74" x="305.179688"/>
      <use xlink:href="#DejaVuSans-65" x="344.388672"/>
      <use xlink:href="#DejaVuSans-64" x="405.912109"/>
      <use xlink:href="#DejaVuSans-20" x="469.388672"/>
      <use xlink:href="#DejaVuSans-56" x="501.175781"/>
      <use xlink:href="#DejaVuSans-61" x="561.833984"/>
      <use xlink:href="#DejaVuSans-6c" x="623.113281"/>
      <use xlink:href="#DejaVuSans-75" x="650.896484"/>
      <use xlink:href="#DejaVuSans-65" x="714.275391"/>
     </g>
    </g>
   </g>
  </g>
 </g>
 <defs>
  <clipPath id="pcad0820292">
   <rect x="108" y="51.84" width="669.6" height="332.64"/>
  </clipPath>
 </defs>
</svg>
