<?xml version="1.0" encoding="utf-8" standalone="no"?>
<!DOCTYPE svg PUBLIC "-//W3C//DTD SVG 1.1//EN"
  "http://www.w3.org/Graphics/SVG/1.1/DTD/svg11.dtd">
<svg xmlns:xlink="http://www.w3.org/1999/xlink" width="864pt" height="432pt" viewBox="0 0 864 432" xmlns="http://www.w3.org/2000/svg" version="1.1">
 <metadata>
  <rdf:RDF xmlns:dc="http://purl.org/dc/elements/1.1/" xmlns:cc="http://creativecommons.org/ns#" xmlns:rdf="http://www.w3.org/1999/02/22-rdf-syntax-ns#">
   <cc:Work>
    <dc:type rdf:resource="http://purl.org/dc/dcmitype/StillImage"/>
    <dc:date>2024-04-16T11:14:05.270220</dc:date>
    <dc:format>image/svg+xml</dc:format>
    <dc:creator>
     <cc:Agent>
      <dc:title>Matplotlib v3.8.2, https://matplotlib.org/</dc:title>
     </cc:Agent>
    </dc:creator>
   </cc:Work>
  </rdf:RDF>
 </metadata>
 <defs>
  <style type="text/css">*{stroke-linejoin: round; stroke-linecap: butt}</style>
 </defs>
 <g id="figure_1">
  <g id="patch_1">
   <path d="M 0 432 
L 864 432 
L 864 0 
L 0 0 
z
" style="fill: #ffffff"/>
  </g>
  <g id="axes_1">
   <g id="patch_2">
    <path d="M 108 384.48 
L 777.6 384.48 
L 777.6 51.84 
L 108 51.84 
z
" style="fill: #ffffff"/>
   </g>
   <g id="matplotlib.axis_1">
    <g id="xtick_1">
     <g id="line2d_1">
      <defs>
       <path id="m808fe2dda2" d="M 0 0 
L 0 3.5 
" style="stroke: #000000; stroke-width: 0.8"/>
      </defs>
      <g>
       <use xlink:href="#m808fe2dda2" x="138.436364" y="384.48" style="stroke: #000000; stroke-width: 0.8"/>
      </g>
     </g>
     <g id="text_1">
      <!-- 0 -->
      <g transform="translate(135.255114 399.078438) scale(0.1 -0.1)">
       <defs>
        <path id="DejaVuSans-30" d="M 2034 4250 
Q 1547 4250 1301 3770 
Q 1056 3291 1056 2328 
Q 1056 1369 1301 889 
Q 1547 409 2034 409 
Q 2525 409 2770 889 
Q 3016 1369 3016 2328 
Q 3016 3291 2770 3770 
Q 2525 4250 2034 4250 
z
M 2034 4750 
Q 2819 4750 3233 4129 
Q 3647 3509 3647 2328 
Q 3647 1150 3233 529 
Q 2819 -91 2034 -91 
Q 1250 -91 836 529 
Q 422 1150 422 2328 
Q 422 3509 836 4129 
Q 1250 4750 2034 4750 
z
" transform="scale(0.015625)"/>
       </defs>
       <use xlink:href="#DejaVuSans-30"/>
      </g>
     </g>
    </g>
    <g id="xtick_2">
     <g id="line2d_2">
      <g>
       <use xlink:href="#m808fe2dda2" x="231.799442" y="384.48" style="stroke: #000000; stroke-width: 0.8"/>
      </g>
     </g>
     <g id="text_2">
      <!-- 100 -->
      <g transform="translate(222.255692 399.078438) scale(0.1 -0.1)">
       <defs>
        <path id="DejaVuSans-31" d="M 794 531 
L 1825 531 
L 1825 4091 
L 703 3866 
L 703 4441 
L 1819 4666 
L 2450 4666 
L 2450 531 
L 3481 531 
L 3481 0 
L 794 0 
L 794 531 
z
" transform="scale(0.015625)"/>
       </defs>
       <use xlink:href="#DejaVuSans-31"/>
       <use xlink:href="#DejaVuSans-30" x="63.623047"/>
       <use xlink:href="#DejaVuSans-30" x="127.246094"/>
      </g>
     </g>
    </g>
    <g id="xtick_3">
     <g id="line2d_3">
      <g>
       <use xlink:href="#m808fe2dda2" x="325.162521" y="384.48" style="stroke: #000000; stroke-width: 0.8"/>
      </g>
     </g>
     <g id="text_3">
      <!-- 200 -->
      <g transform="translate(315.618771 399.078438) scale(0.1 -0.1)">
       <defs>
        <path id="DejaVuSans-32" d="M 1228 531 
L 3431 531 
L 3431 0 
L 469 0 
L 469 531 
Q 828 903 1448 1529 
Q 2069 2156 2228 2338 
Q 2531 2678 2651 2914 
Q 2772 3150 2772 3378 
Q 2772 3750 2511 3984 
Q 2250 4219 1831 4219 
Q 1534 4219 1204 4116 
Q 875 4013 500 3803 
L 500 4441 
Q 881 4594 1212 4672 
Q 1544 4750 1819 4750 
Q 2544 4750 2975 4387 
Q 3406 4025 3406 3419 
Q 3406 3131 3298 2873 
Q 3191 2616 2906 2266 
Q 2828 2175 2409 1742 
Q 1991 1309 1228 531 
z
" transform="scale(0.015625)"/>
       </defs>
       <use xlink:href="#DejaVuSans-32"/>
       <use xlink:href="#DejaVuSans-30" x="63.623047"/>
       <use xlink:href="#DejaVuSans-30" x="127.246094"/>
      </g>
     </g>
    </g>
    <g id="xtick_4">
     <g id="line2d_4">
      <g>
       <use xlink:href="#m808fe2dda2" x="418.5256" y="384.48" style="stroke: #000000; stroke-width: 0.8"/>
      </g>
     </g>
     <g id="text_4">
      <!-- 300 -->
      <g transform="translate(408.98185 399.078438) scale(0.1 -0.1)">
       <defs>
        <path id="DejaVuSans-33" d="M 2597 2516 
Q 3050 2419 3304 2112 
Q 3559 1806 3559 1356 
Q 3559 666 3084 287 
Q 2609 -91 1734 -91 
Q 1441 -91 1130 -33 
Q 819 25 488 141 
L 488 750 
Q 750 597 1062 519 
Q 1375 441 1716 441 
Q 2309 441 2620 675 
Q 2931 909 2931 1356 
Q 2931 1769 2642 2001 
Q 2353 2234 1838 2234 
L 1294 2234 
L 1294 2753 
L 1863 2753 
Q 2328 2753 2575 2939 
Q 2822 3125 2822 3475 
Q 2822 3834 2567 4026 
Q 2313 4219 1838 4219 
Q 1578 4219 1281 4162 
Q 984 4106 628 3988 
L 628 4550 
Q 988 4650 1302 4700 
Q 1616 4750 1894 4750 
Q 2613 4750 3031 4423 
Q 3450 4097 3450 3541 
Q 3450 3153 3228 2886 
Q 3006 2619 2597 2516 
z
" transform="scale(0.015625)"/>
       </defs>
       <use xlink:href="#DejaVuSans-33"/>
       <use xlink:href="#DejaVuSans-30" x="63.623047"/>
       <use xlink:href="#DejaVuSans-30" x="127.246094"/>
      </g>
     </g>
    </g>
    <g id="xtick_5">
     <g id="line2d_5">
      <g>
       <use xlink:href="#m808fe2dda2" x="511.888678" y="384.48" style="stroke: #000000; stroke-width: 0.8"/>
      </g>
     </g>
     <g id="text_5">
      <!-- 400 -->
      <g transform="translate(502.344928 399.078438) scale(0.1 -0.1)">
       <defs>
        <path id="DejaVuSans-34" d="M 2419 4116 
L 825 1625 
L 2419 1625 
L 2419 4116 
z
M 2253 4666 
L 3047 4666 
L 3047 1625 
L 3713 1625 
L 3713 1100 
L 3047 1100 
L 3047 0 
L 2419 0 
L 2419 1100 
L 313 1100 
L 313 1709 
L 2253 4666 
z
" transform="scale(0.015625)"/>
       </defs>
       <use xlink:href="#DejaVuSans-34"/>
       <use xlink:href="#DejaVuSans-30" x="63.623047"/>
       <use xlink:href="#DejaVuSans-30" x="127.246094"/>
      </g>
     </g>
    </g>
    <g id="xtick_6">
     <g id="line2d_6">
      <g>
       <use xlink:href="#m808fe2dda2" x="605.251757" y="384.48" style="stroke: #000000; stroke-width: 0.8"/>
      </g>
     </g>
     <g id="text_6">
      <!-- 500 -->
      <g transform="translate(595.708007 399.078438) scale(0.1 -0.1)">
       <defs>
        <path id="DejaVuSans-35" d="M 691 4666 
L 3169 4666 
L 3169 4134 
L 1269 4134 
L 1269 2991 
Q 1406 3038 1543 3061 
Q 1681 3084 1819 3084 
Q 2600 3084 3056 2656 
Q 3513 2228 3513 1497 
Q 3513 744 3044 326 
Q 2575 -91 1722 -91 
Q 1428 -91 1123 -41 
Q 819 9 494 109 
L 494 744 
Q 775 591 1075 516 
Q 1375 441 1709 441 
Q 2250 441 2565 725 
Q 2881 1009 2881 1497 
Q 2881 1984 2565 2268 
Q 2250 2553 1709 2553 
Q 1456 2553 1204 2497 
Q 953 2441 691 2322 
L 691 4666 
z
" transform="scale(0.015625)"/>
       </defs>
       <use xlink:href="#DejaVuSans-35"/>
       <use xlink:href="#DejaVuSans-30" x="63.623047"/>
       <use xlink:href="#DejaVuSans-30" x="127.246094"/>
      </g>
     </g>
    </g>
    <g id="xtick_7">
     <g id="line2d_7">
      <g>
       <use xlink:href="#m808fe2dda2" x="698.614835" y="384.48" style="stroke: #000000; stroke-width: 0.8"/>
      </g>
     </g>
     <g id="text_7">
      <!-- 600 -->
      <g transform="translate(689.071085 399.078438) scale(0.1 -0.1)">
       <defs>
        <path id="DejaVuSans-36" d="M 2113 2584 
Q 1688 2584 1439 2293 
Q 1191 2003 1191 1497 
Q 1191 994 1439 701 
Q 1688 409 2113 409 
Q 2538 409 2786 701 
Q 3034 994 3034 1497 
Q 3034 2003 2786 2293 
Q 2538 2584 2113 2584 
z
M 3366 4563 
L 3366 3988 
Q 3128 4100 2886 4159 
Q 2644 4219 2406 4219 
Q 1781 4219 1451 3797 
Q 1122 3375 1075 2522 
Q 1259 2794 1537 2939 
Q 1816 3084 2150 3084 
Q 2853 3084 3261 2657 
Q 3669 2231 3669 1497 
Q 3669 778 3244 343 
Q 2819 -91 2113 -91 
Q 1303 -91 875 529 
Q 447 1150 447 2328 
Q 447 3434 972 4092 
Q 1497 4750 2381 4750 
Q 2619 4750 2861 4703 
Q 3103 4656 3366 4563 
z
" transform="scale(0.015625)"/>
       </defs>
       <use xlink:href="#DejaVuSans-36"/>
       <use xlink:href="#DejaVuSans-30" x="63.623047"/>
       <use xlink:href="#DejaVuSans-30" x="127.246094"/>
      </g>
     </g>
    </g>
    <g id="text_8">
     <!-- Sample Number -->
     <g transform="translate(402.376562 412.756563) scale(0.1 -0.1)">
      <defs>
       <path id="DejaVuSans-53" d="M 3425 4513 
L 3425 3897 
Q 3066 4069 2747 4153 
Q 2428 4238 2131 4238 
Q 1616 4238 1336 4038 
Q 1056 3838 1056 3469 
Q 1056 3159 1242 3001 
Q 1428 2844 1947 2747 
L 2328 2669 
Q 3034 2534 3370 2195 
Q 3706 1856 3706 1288 
Q 3706 609 3251 259 
Q 2797 -91 1919 -91 
Q 1588 -91 1214 -16 
Q 841 59 441 206 
L 441 856 
Q 825 641 1194 531 
Q 1563 422 1919 422 
Q 2459 422 2753 634 
Q 3047 847 3047 1241 
Q 3047 1584 2836 1778 
Q 2625 1972 2144 2069 
L 1759 2144 
Q 1053 2284 737 2584 
Q 422 2884 422 3419 
Q 422 4038 858 4394 
Q 1294 4750 2059 4750 
Q 2388 4750 2728 4690 
Q 3069 4631 3425 4513 
z
" transform="scale(0.015625)"/>
       <path id="DejaVuSans-61" d="M 2194 1759 
Q 1497 1759 1228 1600 
Q 959 1441 959 1056 
Q 959 750 1161 570 
Q 1363 391 1709 391 
Q 2188 391 2477 730 
Q 2766 1069 2766 1631 
L 2766 1759 
L 2194 1759 
z
M 3341 1997 
L 3341 0 
L 2766 0 
L 2766 531 
Q 2569 213 2275 61 
Q 1981 -91 1556 -91 
Q 1019 -91 701 211 
Q 384 513 384 1019 
Q 384 1609 779 1909 
Q 1175 2209 1959 2209 
L 2766 2209 
L 2766 2266 
Q 2766 2663 2505 2880 
Q 2244 3097 1772 3097 
Q 1472 3097 1187 3025 
Q 903 2953 641 2809 
L 641 3341 
Q 956 3463 1253 3523 
Q 1550 3584 1831 3584 
Q 2591 3584 2966 3190 
Q 3341 2797 3341 1997 
z
" transform="scale(0.015625)"/>
       <path id="DejaVuSans-6d" d="M 3328 2828 
Q 3544 3216 3844 3400 
Q 4144 3584 4550 3584 
Q 5097 3584 5394 3201 
Q 5691 2819 5691 2113 
L 5691 0 
L 5113 0 
L 5113 2094 
Q 5113 2597 4934 2840 
Q 4756 3084 4391 3084 
Q 3944 3084 3684 2787 
Q 3425 2491 3425 1978 
L 3425 0 
L 2847 0 
L 2847 2094 
Q 2847 2600 2669 2842 
Q 2491 3084 2119 3084 
Q 1678 3084 1418 2786 
Q 1159 2488 1159 1978 
L 1159 0 
L 581 0 
L 581 3500 
L 1159 3500 
L 1159 2956 
Q 1356 3278 1631 3431 
Q 1906 3584 2284 3584 
Q 2666 3584 2933 3390 
Q 3200 3197 3328 2828 
z
" transform="scale(0.015625)"/>
       <path id="DejaVuSans-70" d="M 1159 525 
L 1159 -1331 
L 581 -1331 
L 581 3500 
L 1159 3500 
L 1159 2969 
Q 1341 3281 1617 3432 
Q 1894 3584 2278 3584 
Q 2916 3584 3314 3078 
Q 3713 2572 3713 1747 
Q 3713 922 3314 415 
Q 2916 -91 2278 -91 
Q 1894 -91 1617 61 
Q 1341 213 1159 525 
z
M 3116 1747 
Q 3116 2381 2855 2742 
Q 2594 3103 2138 3103 
Q 1681 3103 1420 2742 
Q 1159 2381 1159 1747 
Q 1159 1113 1420 752 
Q 1681 391 2138 391 
Q 2594 391 2855 752 
Q 3116 1113 3116 1747 
z
" transform="scale(0.015625)"/>
       <path id="DejaVuSans-6c" d="M 603 4863 
L 1178 4863 
L 1178 0 
L 603 0 
L 603 4863 
z
" transform="scale(0.015625)"/>
       <path id="DejaVuSans-65" d="M 3597 1894 
L 3597 1613 
L 953 1613 
Q 991 1019 1311 708 
Q 1631 397 2203 397 
Q 2534 397 2845 478 
Q 3156 559 3463 722 
L 3463 178 
Q 3153 47 2828 -22 
Q 2503 -91 2169 -91 
Q 1331 -91 842 396 
Q 353 884 353 1716 
Q 353 2575 817 3079 
Q 1281 3584 2069 3584 
Q 2775 3584 3186 3129 
Q 3597 2675 3597 1894 
z
M 3022 2063 
Q 3016 2534 2758 2815 
Q 2500 3097 2075 3097 
Q 1594 3097 1305 2825 
Q 1016 2553 972 2059 
L 3022 2063 
z
" transform="scale(0.015625)"/>
       <path id="DejaVuSans-20" transform="scale(0.015625)"/>
       <path id="DejaVuSans-4e" d="M 628 4666 
L 1478 4666 
L 3547 763 
L 3547 4666 
L 4159 4666 
L 4159 0 
L 3309 0 
L 1241 3903 
L 1241 0 
L 628 0 
L 628 4666 
z
" transform="scale(0.015625)"/>
       <path id="DejaVuSans-75" d="M 544 1381 
L 544 3500 
L 1119 3500 
L 1119 1403 
Q 1119 906 1312 657 
Q 1506 409 1894 409 
Q 2359 409 2629 706 
Q 2900 1003 2900 1516 
L 2900 3500 
L 3475 3500 
L 3475 0 
L 2900 0 
L 2900 538 
Q 2691 219 2414 64 
Q 2138 -91 1772 -91 
Q 1169 -91 856 284 
Q 544 659 544 1381 
z
M 1991 3584 
L 1991 3584 
z
" transform="scale(0.015625)"/>
       <path id="DejaVuSans-62" d="M 3116 1747 
Q 3116 2381 2855 2742 
Q 2594 3103 2138 3103 
Q 1681 3103 1420 2742 
Q 1159 2381 1159 1747 
Q 1159 1113 1420 752 
Q 1681 391 2138 391 
Q 2594 391 2855 752 
Q 3116 1113 3116 1747 
z
M 1159 2969 
Q 1341 3281 1617 3432 
Q 1894 3584 2278 3584 
Q 2916 3584 3314 3078 
Q 3713 2572 3713 1747 
Q 3713 922 3314 415 
Q 2916 -91 2278 -91 
Q 1894 -91 1617 61 
Q 1341 213 1159 525 
L 1159 0 
L 581 0 
L 581 4863 
L 1159 4863 
L 1159 2969 
z
" transform="scale(0.015625)"/>
       <path id="DejaVuSans-72" d="M 2631 2963 
Q 2534 3019 2420 3045 
Q 2306 3072 2169 3072 
Q 1681 3072 1420 2755 
Q 1159 2438 1159 1844 
L 1159 0 
L 581 0 
L 581 3500 
L 1159 3500 
L 1159 2956 
Q 1341 3275 1631 3429 
Q 1922 3584 2338 3584 
Q 2397 3584 2469 3576 
Q 2541 3569 2628 3553 
L 2631 2963 
z
" transform="scale(0.015625)"/>
      </defs>
      <use xlink:href="#DejaVuSans-53"/>
      <use xlink:href="#DejaVuSans-61" x="63.476562"/>
      <use xlink:href="#DejaVuSans-6d" x="124.755859"/>
      <use xlink:href="#DejaVuSans-70" x="222.167969"/>
      <use xlink:href="#DejaVuSans-6c" x="285.644531"/>
      <use xlink:href="#DejaVuSans-65" x="313.427734"/>
      <use xlink:href="#DejaVuSans-20" x="374.951172"/>
      <use xlink:href="#DejaVuSans-4e" x="406.738281"/>
      <use xlink:href="#DejaVuSans-75" x="481.542969"/>
      <use xlink:href="#DejaVuSans-6d" x="544.921875"/>
      <use xlink:href="#DejaVuSans-62" x="642.333984"/>
      <use xlink:href="#DejaVuSans-65" x="705.810547"/>
      <use xlink:href="#DejaVuSans-72" x="767.333984"/>
     </g>
    </g>
   </g>
   <g id="matplotlib.axis_2">
    <g id="ytick_1">
     <g id="line2d_8">
      <defs>
       <path id="m7e1266ee9a" d="M 0 0 
L -3.5 0 
" style="stroke: #000000; stroke-width: 0.8"/>
      </defs>
      <g>
       <use xlink:href="#m7e1266ee9a" x="108" y="340.646304" style="stroke: #000000; stroke-width: 0.8"/>
      </g>
     </g>
     <g id="text_9">
      <!-- 0 -->
      <g transform="translate(94.6375 344.445522) scale(0.1 -0.1)">
       <use xlink:href="#DejaVuSans-30"/>
      </g>
     </g>
    </g>
    <g id="ytick_2">
     <g id="line2d_9">
      <g>
       <use xlink:href="#m7e1266ee9a" x="108" y="278.490076" style="stroke: #000000; stroke-width: 0.8"/>
      </g>
     </g>
     <g id="text_10">
      <!-- 5 -->
      <g transform="translate(94.6375 282.289294) scale(0.1 -0.1)">
       <use xlink:href="#DejaVuSans-35"/>
      </g>
     </g>
    </g>
    <g id="ytick_3">
     <g id="line2d_10">
      <g>
       <use xlink:href="#m7e1266ee9a" x="108" y="216.333847" style="stroke: #000000; stroke-width: 0.8"/>
      </g>
     </g>
     <g id="text_11">
      <!-- 10 -->
      <g transform="translate(88.275 220.133066) scale(0.1 -0.1)">
       <use xlink:href="#DejaVuSans-31"/>
       <use xlink:href="#DejaVuSans-30" x="63.623047"/>
      </g>
     </g>
    </g>
    <g id="ytick_4">
     <g id="line2d_11">
      <g>
       <use xlink:href="#m7e1266ee9a" x="108" y="154.177619" style="stroke: #000000; stroke-width: 0.8"/>
      </g>
     </g>
     <g id="text_12">
      <!-- 15 -->
      <g transform="translate(88.275 157.976838) scale(0.1 -0.1)">
       <use xlink:href="#DejaVuSans-31"/>
       <use xlink:href="#DejaVuSans-35" x="63.623047"/>
      </g>
     </g>
    </g>
    <g id="ytick_5">
     <g id="line2d_12">
      <g>
       <use xlink:href="#m7e1266ee9a" x="108" y="92.021391" style="stroke: #000000; stroke-width: 0.8"/>
      </g>
     </g>
     <g id="text_13">
      <!-- 20 -->
      <g transform="translate(88.275 95.82061) scale(0.1 -0.1)">
       <use xlink:href="#DejaVuSans-32"/>
       <use xlink:href="#DejaVuSans-30" x="63.623047"/>
      </g>
     </g>
    </g>
    <g id="text_14">
     <!-- Magnetism -->
     <g transform="translate(82.195312 245.781875) rotate(-90) scale(0.1 -0.1)">
      <defs>
       <path id="DejaVuSans-4d" d="M 628 4666 
L 1569 4666 
L 2759 1491 
L 3956 4666 
L 4897 4666 
L 4897 0 
L 4281 0 
L 4281 4097 
L 3078 897 
L 2444 897 
L 1241 4097 
L 1241 0 
L 628 0 
L 628 4666 
z
" transform="scale(0.015625)"/>
       <path id="DejaVuSans-67" d="M 2906 1791 
Q 2906 2416 2648 2759 
Q 2391 3103 1925 3103 
Q 1463 3103 1205 2759 
Q 947 2416 947 1791 
Q 947 1169 1205 825 
Q 1463 481 1925 481 
Q 2391 481 2648 825 
Q 2906 1169 2906 1791 
z
M 3481 434 
Q 3481 -459 3084 -895 
Q 2688 -1331 1869 -1331 
Q 1566 -1331 1297 -1286 
Q 1028 -1241 775 -1147 
L 775 -588 
Q 1028 -725 1275 -790 
Q 1522 -856 1778 -856 
Q 2344 -856 2625 -561 
Q 2906 -266 2906 331 
L 2906 616 
Q 2728 306 2450 153 
Q 2172 0 1784 0 
Q 1141 0 747 490 
Q 353 981 353 1791 
Q 353 2603 747 3093 
Q 1141 3584 1784 3584 
Q 2172 3584 2450 3431 
Q 2728 3278 2906 2969 
L 2906 3500 
L 3481 3500 
L 3481 434 
z
" transform="scale(0.015625)"/>
       <path id="DejaVuSans-6e" d="M 3513 2113 
L 3513 0 
L 2938 0 
L 2938 2094 
Q 2938 2591 2744 2837 
Q 2550 3084 2163 3084 
Q 1697 3084 1428 2787 
Q 1159 2491 1159 1978 
L 1159 0 
L 581 0 
L 581 3500 
L 1159 3500 
L 1159 2956 
Q 1366 3272 1645 3428 
Q 1925 3584 2291 3584 
Q 2894 3584 3203 3211 
Q 3513 2838 3513 2113 
z
" transform="scale(0.015625)"/>
       <path id="DejaVuSans-74" d="M 1172 4494 
L 1172 3500 
L 2356 3500 
L 2356 3053 
L 1172 3053 
L 1172 1153 
Q 1172 725 1289 603 
Q 1406 481 1766 481 
L 2356 481 
L 2356 0 
L 1766 0 
Q 1100 0 847 248 
Q 594 497 594 1153 
L 594 3053 
L 172 3053 
L 172 3500 
L 594 3500 
L 594 4494 
L 1172 4494 
z
" transform="scale(0.015625)"/>
       <path id="DejaVuSans-69" d="M 603 3500 
L 1178 3500 
L 1178 0 
L 603 0 
L 603 3500 
z
M 603 4863 
L 1178 4863 
L 1178 4134 
L 603 4134 
L 603 4863 
z
" transform="scale(0.015625)"/>
       <path id="DejaVuSans-73" d="M 2834 3397 
L 2834 2853 
Q 2591 2978 2328 3040 
Q 2066 3103 1784 3103 
Q 1356 3103 1142 2972 
Q 928 2841 928 2578 
Q 928 2378 1081 2264 
Q 1234 2150 1697 2047 
L 1894 2003 
Q 2506 1872 2764 1633 
Q 3022 1394 3022 966 
Q 3022 478 2636 193 
Q 2250 -91 1575 -91 
Q 1294 -91 989 -36 
Q 684 19 347 128 
L 347 722 
Q 666 556 975 473 
Q 1284 391 1588 391 
Q 1994 391 2212 530 
Q 2431 669 2431 922 
Q 2431 1156 2273 1281 
Q 2116 1406 1581 1522 
L 1381 1569 
Q 847 1681 609 1914 
Q 372 2147 372 2553 
Q 372 3047 722 3315 
Q 1072 3584 1716 3584 
Q 2034 3584 2315 3537 
Q 2597 3491 2834 3397 
z
" transform="scale(0.015625)"/>
      </defs>
      <use xlink:href="#DejaVuSans-4d"/>
      <use xlink:href="#DejaVuSans-61" x="86.279297"/>
      <use xlink:href="#DejaVuSans-67" x="147.558594"/>
      <use xlink:href="#DejaVuSans-6e" x="211.035156"/>
      <use xlink:href="#DejaVuSans-65" x="274.414062"/>
      <use xlink:href="#DejaVuSans-74" x="335.9375"/>
      <use xlink:href="#DejaVuSans-69" x="375.146484"/>
      <use xlink:href="#DejaVuSans-73" x="402.929688"/>
      <use xlink:href="#DejaVuSans-6d" x="455.029297"/>
     </g>
    </g>
   </g>
   <g id="line2d_13">
    <path d="M 161.777133 384.48 
L 161.777133 51.84 
" clip-path="url(#p9b939b4ec6)" style="fill: none; stroke-dasharray: 5.55,2.4; stroke-dashoffset: 0; stroke: #008000; stroke-width: 1.5"/>
   </g>
   <g id="line2d_14">
    <path d="M 448.401785 384.48 
L 448.401785 51.84 
" clip-path="url(#p9b939b4ec6)" style="fill: none; stroke-dasharray: 5.55,2.4; stroke-dashoffset: 0; stroke: #008000; stroke-width: 1.5"/>
   </g>
   <g id="line2d_15">
    <path d="M 138.436364 365.65797 
L 139.369994 364.302964 
L 140.303625 359.554228 
L 141.237256 358.820785 
L 142.170887 358.696472 
L 143.104518 355.563798 
L 144.038148 354.892511 
L 144.971779 354.68118 
L 145.90541 354.594161 
L 146.839041 345.792839 
L 148.706302 345.792839 
L 149.639933 345.531783 
L 150.573564 345.531783 
L 151.507195 345.29559 
L 152.440825 345.29559 
L 153.374456 344.562146 
L 154.308087 343.468196 
L 155.241718 343.468196 
L 156.175349 341.939153 
L 157.108979 341.454335 
L 158.04261 341.155985 
L 158.976241 341.131122 
L 162.710764 340.646304 
L 449.335416 340.584147 
L 450.269046 340.298229 
L 452.136308 340.11176 
L 454.003569 340.086898 
L 454.9372 339.738823 
L 456.804462 339.577217 
L 460.538985 338.893498 
L 461.472616 338.794048 
L 462.406247 338.445973 
L 464.273508 338.284367 
L 465.207139 337.936292 
L 466.14077 337.165555 
L 468.941662 336.742893 
L 469.875293 336.705599 
L 470.808924 336.332661 
L 471.742554 336.208349 
L 472.676185 335.885137 
L 474.543447 335.462474 
L 475.477078 335.450043 
L 476.410708 335.151693 
L 477.344339 335.126831 
L 478.27797 334.070175 
L 480.145231 333.771825 
L 481.078862 332.516269 
L 482.012493 332.503838 
L 482.946124 332.317369 
L 483.879755 332.267644 
L 484.813385 331.956863 
L 485.747016 331.894707 
L 488.547909 329.855982 
L 489.481539 329.781395 
L 490.41517 329.296576 
L 491.348801 329.184695 
L 492.282432 328.886345 
L 493.216062 328.83662 
L 495.083324 328.451252 
L 496.950586 328.413958 
L 497.884216 327.394596 
L 498.817847 327.108677 
L 499.751478 326.947071 
L 500.685109 326.014728 
L 501.61874 325.890415 
L 503.486001 324.112747 
L 504.419632 324.112747 
L 507.220524 323.590635 
L 508.154155 323.590635 
L 509.087786 323.429028 
L 510.955047 323.304716 
L 512.822309 322.658291 
L 514.689571 322.44696 
L 515.623201 322.074023 
L 516.556832 321.899985 
L 517.490463 321.464892 
L 519.357724 320.992504 
L 520.291355 319.736949 
L 521.224986 318.941349 
L 522.158617 317.785243 
L 523.092248 315.696794 
L 524.025878 315.373581 
L 524.959509 311.27127 
L 526.826771 311.27127 
L 527.760402 310.301633 
L 528.694032 310.177321 
L 529.627663 310.177321 
L 530.561294 309.518465 
L 532.428555 309.344427 
L 533.362186 309.344427 
L 534.295817 308.834746 
L 535.229448 308.623415 
L 536.163079 308.623415 
L 537.096709 308.200753 
L 538.03034 308.07644 
L 538.963971 307.753228 
L 540.831233 307.67864 
L 541.764863 306.907903 
L 542.698494 306.572259 
L 544.565756 306.435516 
L 545.499387 305.851247 
L 546.433017 304.110873 
L 548.300279 304.036285 
L 549.23391 302.743436 
L 551.101171 302.743436 
L 552.034802 301.947836 
L 552.968433 300.505812 
L 553.902064 299.399431 
L 554.835694 297.721213 
L 555.769325 297.223963 
L 556.702956 296.154876 
L 557.636587 296.130013 
L 558.570218 295.135513 
L 559.503848 294.675557 
L 562.304741 294.625832 
L 563.238371 294.178308 
L 566.039264 293.917251 
L 566.972895 293.718351 
L 567.906525 293.718351 
L 568.840156 292.91032 
L 569.773787 292.413071 
L 570.707418 292.413071 
L 571.641049 290.933752 
L 572.574679 290.41164 
L 573.50831 288.534522 
L 574.441941 288.484797 
L 576.309202 288.174016 
L 578.176464 285.202948 
L 579.110095 284.979186 
L 580.043726 283.959824 
L 581.910987 283.959824 
L 582.844618 283.363124 
L 583.778249 283.015049 
L 585.64551 281.585456 
L 586.579141 280.466644 
L 587.512772 279.857513 
L 588.446403 278.527369 
L 589.380033 277.83122 
L 590.313664 277.595026 
L 593.114557 276.165433 
L 594.048187 275.24552 
L 594.981818 275.195795 
L 596.84908 274.636389 
L 597.782711 274.636389 
L 598.716341 274.251021 
L 600.583603 274.251021 
L 601.517234 273.915377 
L 602.450864 271.814497 
L 603.384495 271.453991 
L 604.318126 269.576872 
L 605.251757 268.75641 
L 607.119018 268.669392 
L 608.052649 265.46213 
L 609.919911 265.36268 
L 613.654434 265.36268 
L 614.588065 264.616805 
L 615.521695 263.323956 
L 616.455326 262.354319 
L 617.388957 262.354319 
L 618.322588 261.2728 
L 619.256219 260.875001 
L 620.189849 259.892932 
L 621.12348 258.351458 
L 622.990742 257.120764 
L 628.592526 257.120764 
L 629.526157 256.387321 
L 630.459788 254.920434 
L 631.393419 254.199422 
L 632.32705 250.208992 
L 633.26068 249.836054 
L 634.194311 249.836054 
L 635.127942 249.301511 
L 636.061573 248.381599 
L 637.928834 248.132974 
L 638.862465 247.673018 
L 639.796096 243.993369 
L 640.729727 243.993369 
L 641.663358 241.494689 
L 642.596988 240.71152 
L 643.530619 240.326151 
L 645.397881 240.01537 
L 646.331511 240.01537 
L 647.265142 239.592708 
L 648.198773 239.418671 
L 649.132404 238.80954 
L 650.999665 236.161684 
L 651.933296 235.055303 
L 652.866927 231.549692 
L 653.800558 229.349362 
L 654.734189 225.955632 
L 656.60145 225.905907 
L 658.468712 225.247051 
L 659.402342 223.208326 
L 660.335973 223.195895 
L 661.269604 221.04529 
L 662.203235 219.727577 
L 665.004127 219.603265 
L 665.937758 218.795234 
L 666.871389 218.409865 
L 667.80502 217.241328 
L 668.73865 215.600404 
L 669.672281 215.451229 
L 670.605912 214.829667 
L 671.539543 212.330986 
L 672.473173 211.485662 
L 673.406804 211.336487 
L 674.340435 209.77015 
L 675.274066 209.011844 
L 676.207697 206.202382 
L 677.141327 205.493801 
L 678.074958 204.524164 
L 679.008589 204.474439 
L 679.94222 203.765858 
L 680.875851 201.416353 
L 681.809481 200.546165 
L 682.743112 200.459147 
L 683.676743 199.999191 
L 684.610374 199.999191 
L 685.544004 199.477078 
L 686.477635 199.477078 
L 687.411266 199.352766 
L 688.344897 198.905241 
L 689.278528 198.89281 
L 690.212158 198.420422 
L 691.145789 197.30161 
L 692.07942 192.229662 
L 693.013051 191.371906 
L 693.946682 188.189507 
L 695.813943 188.127351 
L 696.747574 185.355183 
L 697.681205 184.373115 
L 699.548466 184.373115 
L 700.482097 179.997316 
L 701.415728 178.990386 
L 702.349359 178.505567 
L 703.282989 178.418548 
L 704.21662 178.058042 
L 705.150251 177.461342 
L 707.017513 175.037249 
L 707.951143 172.526138 
L 708.884774 172.526138 
L 709.818405 170.760901 
L 710.752036 170.599295 
L 712.619297 170.599295 
L 713.552928 168.324377 
L 714.486559 166.782902 
L 715.42019 166.335378 
L 716.35382 164.483122 
L 717.287451 163.078391 
L 719.154713 163.078391 
L 720.088344 160.355948 
L 721.021974 160.355948 
L 721.955605 160.007874 
L 722.889236 159.523055 
L 723.822867 158.37938 
L 724.756497 153.618213 
L 726.623759 153.605782 
L 727.55739 148.79489 
L 728.491021 148.484109 
L 729.424651 147.017222 
L 730.358282 138.489387 
L 731.291913 137.780806 
L 733.159175 134.610839 
L 734.092805 130.806878 
L 735.026436 128.581685 
L 735.960067 128.581685 
L 736.893698 128.121728 
L 737.827328 124.379924 
L 738.760959 111.961109 
L 739.69459 110.705553 
L 740.628221 100.350326 
L 741.561852 91.81006 
L 742.495482 90.778267 
L 743.429113 90.144273 
L 744.362744 90.144273 
L 745.296375 88.888717 
L 746.230006 86.899718 
L 747.163636 66.96 
L 747.163636 66.96 
" clip-path="url(#p9b939b4ec6)" style="fill: none; stroke: #ff0000; stroke-width: 0.5; stroke-linecap: square"/>
   </g>
   <g id="line2d_16">
    <path d="M 138.436364 342.128802 
L 139.369994 340.646304 
L 140.303625 340.054966 
L 141.237256 345.1937 
L 142.170887 341.725783 
L 143.104518 346.51346 
L 144.038148 369.36 
L 144.971779 342.352656 
L 145.90541 345.372435 
L 146.839041 342.609455 
L 150.573564 342.609455 
L 151.507195 340.684095 
L 152.440825 340.646304 
L 153.374456 340.054966 
L 154.308087 340.234434 
L 155.241718 340.234434 
L 156.175349 340.634317 
L 157.108979 341.891197 
L 158.04261 340.646304 
L 158.976241 340.610336 
L 159.909872 340.293743 
L 160.843503 337.417453 
L 161.777133 340.646304 
L 163.644395 340.646304 
L 164.578026 346.51346 
L 165.511656 340.490395 
L 167.378918 340.695573 
L 169.24618 340.646304 
L 182.317011 340.646304 
L 183.250641 340.521096 
L 184.184272 340.646304 
L 189.786057 340.646304 
L 190.719688 338.540636 
L 191.653318 340.646304 
L 195.387842 340.646304 
L 196.321472 337.330318 
L 197.255103 340.646304 
L 201.923257 340.646304 
L 202.856888 339.985464 
L 203.790519 340.646304 
L 222.463134 340.646304 
L 223.396765 341.891197 
L 224.330396 340.646304 
L 225.264027 340.646304 
L 226.197658 330.932883 
L 227.131288 340.646304 
L 231.799442 340.646304 
L 232.733073 340.52122 
L 233.666704 340.646304 
L 234.600335 340.646304 
L 235.533965 342.446521 
L 236.467596 340.646304 
L 239.268489 340.646304 
L 240.202119 342.609455 
L 241.13575 340.646304 
L 243.936642 340.646304 
L 244.870273 340.521096 
L 246.737535 340.681608 
L 250.472058 340.646304 
L 251.405689 337.417453 
L 252.33932 340.646304 
L 264.47652 340.646304 
L 265.410151 339.985464 
L 266.343781 340.646304 
L 271.011935 340.646304 
L 271.945566 346.601511 
L 272.879197 340.646304 
L 301.821751 340.646304 
L 302.755382 338.872716 
L 303.689013 340.646304 
L 312.09169 340.646304 
L 313.025321 337.582116 
L 313.958951 340.646304 
L 328.897044 340.646304 
L 329.830675 342.609455 
L 330.764306 340.646304 
L 334.498829 340.646304 
L 335.43246 338.199465 
L 336.36609 340.646304 
L 338.233352 340.646304 
L 339.166983 340.507426 
L 340.100613 340.646304 
L 343.835137 340.646304 
L 344.768767 339.75091 
L 345.702398 340.646304 
L 366.242276 340.646304 
L 367.175906 308.887744 
L 368.109537 340.646304 
L 373.711322 340.646304 
L 374.644953 346.601511 
L 375.578583 340.646304 
L 376.512214 342.446521 
L 377.445845 340.646304 
L 382.113999 340.646304 
L 383.04763 340.396288 
L 383.98126 340.646304 
L 402.653876 340.646304 
L 403.587507 346.348986 
L 404.521138 340.646304 
L 418.5256 340.646304 
L 419.45923 342.609455 
L 420.392861 340.646304 
L 424.127384 340.646304 
L 425.061015 308.887744 
L 425.994646 342.609455 
L 426.928277 340.646304 
L 428.795538 340.646304 
L 429.729169 341.74383 
L 430.6628 340.646304 
L 432.530061 340.646304 
L 433.463692 339.234083 
L 434.397323 340.646304 
L 445.600892 340.646304 
L 446.534523 342.609455 
L 447.468154 340.646304 
L 448.401785 340.605551 
L 449.335416 323.508587 
L 450.269046 340.293743 
L 451.202677 332.221958 
L 452.136308 339.137098 
L 453.069939 340.293743 
L 454.003569 340.54896 
L 454.9372 340.593558 
L 455.870831 340.264008 
L 456.804462 335.923119 
L 457.738093 336.287389 
L 458.671723 332.384372 
L 459.605354 340.646304 
L 461.472616 340.646304 
L 462.406247 337.417453 
L 463.339877 340.293743 
L 464.273508 337.947464 
L 465.207139 337.981614 
L 466.14077 335.880545 
L 467.0744 335.923119 
L 468.008031 340.593991 
L 468.941662 336.615902 
L 469.875293 335.923119 
L 470.808924 340.479456 
L 471.742554 340.634317 
L 472.676185 336.978965 
L 473.609816 335.513858 
L 474.543447 328.194473 
L 475.477078 335.923119 
L 476.410708 331.051253 
L 477.344339 352.613112 
L 478.27797 322.369089 
L 479.211601 332.384372 
L 480.145231 332.384372 
L 481.078862 331.9827 
L 482.012493 329.597762 
L 482.946124 340.273598 
L 483.879755 329.597762 
L 484.813385 323.125502 
L 485.747016 340.646304 
L 486.680647 332.384372 
L 487.614278 332.384372 
L 488.547909 325.085916 
L 489.481539 322.110399 
L 490.41517 340.576212 
L 492.282432 323.25421 
L 493.216062 328.791229 
L 494.149693 328.642186 
L 495.083324 307.423946 
L 496.016955 307.723752 
L 496.950586 328.922049 
L 497.884216 332.547194 
L 498.817847 332.384372 
L 499.751478 329.120544 
L 500.685109 294.148558 
L 501.61874 323.301658 
L 502.55237 317.815717 
L 503.486001 322.110399 
L 504.419632 323.125502 
L 505.353263 339.023063 
L 506.286893 321.110084 
L 507.220524 336.172507 
L 508.154155 323.650693 
L 509.087786 323.824183 
L 510.021417 328.282502 
L 510.955047 329.830274 
L 511.888678 323.301658 
L 512.822309 342.334012 
L 513.75594 320.353902 
L 514.689571 323.824183 
L 515.623201 329.830274 
L 516.556832 321.110084 
L 517.490463 335.513858 
L 518.424094 311.32775 
L 519.357724 321.110084 
L 520.291355 318.182486 
L 521.224986 318.212818 
L 522.158617 307.948768 
L 523.092248 315.767445 
L 524.025878 340.576212 
L 524.959509 313.249885 
L 525.89314 313.249885 
L 526.826771 315.297037 
L 527.760402 309.156606 
L 528.694032 310.613844 
L 529.627663 315.297037 
L 530.561294 318.465829 
L 531.494925 259.683888 
L 532.428555 310.613844 
L 533.362186 313.249885 
L 534.295817 323.125502 
L 535.229448 310.226255 
L 536.163079 309.156606 
L 537.096709 329.830274 
L 538.03034 315.441102 
L 538.963971 303.331786 
L 539.897602 307.423946 
L 540.831233 304.928651 
L 541.764863 306.122197 
L 542.698494 288.305396 
L 543.632125 303.331786 
L 544.565756 308.364712 
L 545.499387 303.331786 
L 546.433017 304.870003 
L 547.366648 298.940311 
L 548.300279 300.400193 
L 549.23391 301.418321 
L 550.16754 298.580118 
L 551.101171 298.070162 
L 552.034802 303.331786 
L 552.968433 304.870003 
L 553.902064 303.331786 
L 554.835694 300.400193 
L 555.769325 294.148558 
L 556.702956 295.068992 
L 557.636587 295.068992 
L 558.570218 301.418321 
L 559.503848 295.068992 
L 562.304741 295.068992 
L 564.172002 278.106551 
L 565.105633 277.613371 
L 566.039264 294.868278 
L 566.972895 303.331786 
L 567.906525 303.179526 
L 568.840156 303.229249 
L 569.773787 295.068992 
L 570.707418 295.068992 
L 571.641049 294.231155 
L 572.574679 267.445135 
L 573.50831 261.479433 
L 574.441941 219.580094 
L 575.375572 278.315618 
L 576.309202 274.021654 
L 577.242833 262.542441 
L 578.176464 306.597611 
L 579.110095 303.229249 
L 580.043726 289.416151 
L 580.977356 286.614324 
L 581.910987 289.416151 
L 582.844618 283.309485 
L 583.778249 276.075754 
L 584.71188 286.832418 
L 585.64551 283.164295 
L 586.579141 227.059466 
L 587.512772 254.396434 
L 588.446403 265.703918 
L 589.380033 288.810872 
L 590.313664 235.667705 
L 591.247295 225.559925 
L 592.180926 232.375483 
L 593.114557 235.667705 
L 594.048187 274.167614 
L 594.981818 249.673048 
L 595.915449 276.075754 
L 596.84908 285.82957 
L 597.782711 285.82957 
L 598.716341 274.167614 
L 599.649972 278.315618 
L 600.583603 278.315618 
L 601.517234 187.778843 
L 602.450864 271.223133 
L 603.384495 271.609919 
L 604.318126 273.046883 
L 605.251757 248.212408 
L 606.185388 285.82957 
L 607.119018 273.735129 
L 608.052649 275.972476 
L 608.98628 267.445135 
L 609.919911 267.445135 
L 610.853542 254.396434 
L 611.787172 267.445135 
L 613.654434 267.445135 
L 614.588065 225.291456 
L 615.521695 259.360249 
L 616.455326 261.3926 
L 617.388957 263.698776 
L 618.322588 257.947911 
L 619.256219 262.542441 
L 620.189849 259.644601 
L 621.12348 244.601316 
L 622.057111 252.885281 
L 622.990742 267.445135 
L 628.592526 267.445135 
L 629.526157 258.414772 
L 630.459788 251.025014 
L 631.393419 221.288748 
L 632.32705 251.025014 
L 633.26068 232.375483 
L 634.194311 252.739529 
L 635.127942 209.971988 
L 636.061573 272.005867 
L 636.995204 237.791165 
L 637.928834 252.885281 
L 638.862465 167.807924 
L 639.796096 257.947911 
L 640.729727 243.26196 
L 641.663358 234.749905 
L 642.596988 248.212408 
L 643.530619 228.495099 
L 644.46425 275.110603 
L 645.397881 262.983905 
L 646.331511 228.098246 
L 648.198773 274.840934 
L 649.132404 244.843822 
L 650.066035 252.739529 
L 650.999665 282.681848 
L 651.933296 289.619962 
L 652.866927 233.467041 
L 653.800558 239.152016 
L 654.734189 233.16785 
L 656.60145 233.16785 
L 657.535081 241.270917 
L 658.468712 237.791165 
L 659.402342 216.716035 
L 660.335973 224.624548 
L 661.269604 203.007407 
L 662.203235 220.319597 
L 663.136866 259.826894 
L 664.070496 266.799417 
L 665.004127 231.748241 
L 665.937758 237.791165 
L 666.871389 209.492974 
L 667.80502 251.266348 
L 668.73865 215.442173 
L 669.672281 172.906004 
L 670.605912 216.811062 
L 671.539543 231.748241 
L 672.473173 210.808811 
L 674.340435 210.808811 
L 675.274066 219.78198 
L 676.207697 168.754245 
L 677.141327 201.773297 
L 678.074958 220.319597 
L 679.008589 150.901487 
L 679.94222 212.606475 
L 680.875851 202.754492 
L 681.809481 201.773297 
L 682.743112 199.884642 
L 683.676743 204.175293 
L 684.610374 207.230292 
L 685.544004 204.175293 
L 686.477635 207.230292 
L 687.411266 220.319597 
L 688.344897 201.058882 
L 689.278528 220.319597 
L 690.212158 220.319597 
L 691.145789 201.773297 
L 692.07942 209.70097 
L 693.013051 162.010584 
L 693.946682 194.730101 
L 694.880312 185.775882 
L 695.813943 190.751012 
L 696.747574 215.858475 
L 697.681205 187.778843 
L 698.614835 187.778843 
L 699.548466 202.5281 
L 700.482097 150.901487 
L 701.415728 182.122823 
L 702.349359 178.49615 
L 703.282989 144.80348 
L 704.21662 171.23681 
L 705.150251 177.969876 
L 706.083882 175.331804 
L 707.017513 175.331804 
L 707.951143 205.526982 
L 708.884774 206.379544 
L 709.818405 232.108997 
L 710.752036 195.833843 
L 711.685666 175.622425 
L 712.619297 175.622425 
L 713.552928 241.086132 
L 714.486559 166.444484 
L 715.42019 159.471507 
L 716.35382 165.992202 
L 717.287451 155.840495 
L 718.221082 159.733352 
L 719.154713 155.840495 
L 720.088344 160.907821 
L 721.021974 83.284236 
L 721.955605 168.754245 
L 722.889236 168.754245 
L 723.822867 144.155498 
L 724.756497 216.716035 
L 726.623759 216.716035 
L 727.55739 219.580094 
L 728.491021 148.396717 
L 729.424651 175.622425 
L 730.358282 148.465716 
L 731.291913 146.382114 
L 732.225544 129.986492 
L 733.159175 146.382114 
L 734.092805 130.753092 
L 735.026436 166.850548 
L 735.960067 131.014372 
L 736.893698 144.80348 
L 737.827328 166.64195 
L 738.760959 204.266391 
L 739.69459 204.266391 
L 740.628221 102.820563 
L 741.561852 94.454689 
L 742.495482 91.735924 
L 743.429113 219.852891 
L 744.362744 114.861714 
L 745.296375 219.852891 
L 747.163636 162.711529 
L 747.163636 162.711529 
" clip-path="url(#p9b939b4ec6)" style="fill: none; stroke: #1f77b4; stroke-width: 0.5; stroke-linecap: square"/>
   </g>
   <g id="patch_3">
    <path d="M 108 384.48 
L 108 51.84 
" style="fill: none; stroke: #000000; stroke-width: 0.8; stroke-linejoin: miter; stroke-linecap: square"/>
   </g>
   <g id="patch_4">
    <path d="M 777.6 384.48 
L 777.6 51.84 
" style="fill: none; stroke: #000000; stroke-width: 0.8; stroke-linejoin: miter; stroke-linecap: square"/>
   </g>
   <g id="patch_5">
    <path d="M 108 384.48 
L 777.6 384.48 
" style="fill: none; stroke: #000000; stroke-width: 0.8; stroke-linejoin: miter; stroke-linecap: square"/>
   </g>
   <g id="patch_6">
    <path d="M 108 51.84 
L 777.6 51.84 
" style="fill: none; stroke: #000000; stroke-width: 0.8; stroke-linejoin: miter; stroke-linecap: square"/>
   </g>
   <g id="text_15">
    <!-- 2217 samples predictions -->
    <g transform="translate(365.55 45.84) scale(0.12 -0.12)">
     <defs>
      <path id="DejaVuSans-37" d="M 525 4666 
L 3525 4666 
L 3525 4397 
L 1831 0 
L 1172 0 
L 2766 4134 
L 525 4134 
L 525 4666 
z
" transform="scale(0.015625)"/>
      <path id="DejaVuSans-64" d="M 2906 2969 
L 2906 4863 
L 3481 4863 
L 3481 0 
L 2906 0 
L 2906 525 
Q 2725 213 2448 61 
Q 2172 -91 1784 -91 
Q 1150 -91 751 415 
Q 353 922 353 1747 
Q 353 2572 751 3078 
Q 1150 3584 1784 3584 
Q 2172 3584 2448 3432 
Q 2725 3281 2906 2969 
z
M 947 1747 
Q 947 1113 1208 752 
Q 1469 391 1925 391 
Q 2381 391 2643 752 
Q 2906 1113 2906 1747 
Q 2906 2381 2643 2742 
Q 2381 3103 1925 3103 
Q 1469 3103 1208 2742 
Q 947 2381 947 1747 
z
" transform="scale(0.015625)"/>
      <path id="DejaVuSans-63" d="M 3122 3366 
L 3122 2828 
Q 2878 2963 2633 3030 
Q 2388 3097 2138 3097 
Q 1578 3097 1268 2742 
Q 959 2388 959 1747 
Q 959 1106 1268 751 
Q 1578 397 2138 397 
Q 2388 397 2633 464 
Q 2878 531 3122 666 
L 3122 134 
Q 2881 22 2623 -34 
Q 2366 -91 2075 -91 
Q 1284 -91 818 406 
Q 353 903 353 1747 
Q 353 2603 823 3093 
Q 1294 3584 2113 3584 
Q 2378 3584 2631 3529 
Q 2884 3475 3122 3366 
z
" transform="scale(0.015625)"/>
      <path id="DejaVuSans-6f" d="M 1959 3097 
Q 1497 3097 1228 2736 
Q 959 2375 959 1747 
Q 959 1119 1226 758 
Q 1494 397 1959 397 
Q 2419 397 2687 759 
Q 2956 1122 2956 1747 
Q 2956 2369 2687 2733 
Q 2419 3097 1959 3097 
z
M 1959 3584 
Q 2709 3584 3137 3096 
Q 3566 2609 3566 1747 
Q 3566 888 3137 398 
Q 2709 -91 1959 -91 
Q 1206 -91 779 398 
Q 353 888 353 1747 
Q 353 2609 779 3096 
Q 1206 3584 1959 3584 
z
" transform="scale(0.015625)"/>
     </defs>
     <use xlink:href="#DejaVuSans-32"/>
     <use xlink:href="#DejaVuSans-32" x="63.623047"/>
     <use xlink:href="#DejaVuSans-31" x="127.246094"/>
     <use xlink:href="#DejaVuSans-37" x="190.869141"/>
     <use xlink:href="#DejaVuSans-20" x="254.492188"/>
     <use xlink:href="#DejaVuSans-73" x="286.279297"/>
     <use xlink:href="#DejaVuSans-61" x="338.378906"/>
     <use xlink:href="#DejaVuSans-6d" x="399.658203"/>
     <use xlink:href="#DejaVuSans-70" x="497.070312"/>
     <use xlink:href="#DejaVuSans-6c" x="560.546875"/>
     <use xlink:href="#DejaVuSans-65" x="588.330078"/>
     <use xlink:href="#DejaVuSans-73" x="649.853516"/>
     <use xlink:href="#DejaVuSans-20" x="701.953125"/>
     <use xlink:href="#DejaVuSans-70" x="733.740234"/>
     <use xlink:href="#DejaVuSans-72" x="797.216797"/>
     <use xlink:href="#DejaVuSans-65" x="836.080078"/>
     <use xlink:href="#DejaVuSans-64" x="897.603516"/>
     <use xlink:href="#DejaVuSans-69" x="961.080078"/>
     <use xlink:href="#DejaVuSans-63" x="988.863281"/>
     <use xlink:href="#DejaVuSans-74" x="1043.84375"/>
     <use xlink:href="#DejaVuSans-69" x="1083.052734"/>
     <use xlink:href="#DejaVuSans-6f" x="1110.835938"/>
     <use xlink:href="#DejaVuSans-6e" x="1172.017578"/>
     <use xlink:href="#DejaVuSans-73" x="1235.396484"/>
    </g>
   </g>
   <g id="legend_1">
    <g id="patch_7">
     <path d="M 661.01875 379.48 
L 770.6 379.48 
Q 772.6 379.48 772.6 377.48 
L 772.6 349.12375 
Q 772.6 347.12375 770.6 347.12375 
L 661.01875 347.12375 
Q 659.01875 347.12375 659.01875 349.12375 
L 659.01875 377.48 
Q 659.01875 379.48 661.01875 379.48 
z
" style="fill: #ffffff; opacity: 0.8; stroke: #cccccc; stroke-linejoin: miter"/>
    </g>
    <g id="line2d_17">
     <path d="M 663.01875 355.222188 
L 673.01875 355.222188 
L 683.01875 355.222188 
" style="fill: none; stroke: #ff0000; stroke-width: 0.5; stroke-linecap: square"/>
    </g>
    <g id="text_16">
     <!-- Actual Value -->
     <g transform="translate(691.01875 358.722188) scale(0.1 -0.1)">
      <defs>
       <path id="DejaVuSans-41" d="M 2188 4044 
L 1331 1722 
L 3047 1722 
L 2188 4044 
z
M 1831 4666 
L 2547 4666 
L 4325 0 
L 3669 0 
L 3244 1197 
L 1141 1197 
L 716 0 
L 50 0 
L 1831 4666 
z
" transform="scale(0.015625)"/>
       <path id="DejaVuSans-56" d="M 1831 0 
L 50 4666 
L 709 4666 
L 2188 738 
L 3669 4666 
L 4325 4666 
L 2547 0 
L 1831 0 
z
" transform="scale(0.015625)"/>
      </defs>
      <use xlink:href="#DejaVuSans-41"/>
      <use xlink:href="#DejaVuSans-63" x="66.658203"/>
      <use xlink:href="#DejaVuSans-74" x="121.638672"/>
      <use xlink:href="#DejaVuSans-75" x="160.847656"/>
      <use xlink:href="#DejaVuSans-61" x="224.226562"/>
      <use xlink:href="#DejaVuSans-6c" x="285.505859"/>
      <use xlink:href="#DejaVuSans-20" x="313.289062"/>
      <use xlink:href="#DejaVuSans-56" x="345.076172"/>
      <use xlink:href="#DejaVuSans-61" x="405.734375"/>
      <use xlink:href="#DejaVuSans-6c" x="467.013672"/>
      <use xlink:href="#DejaVuSans-75" x="494.796875"/>
      <use xlink:href="#DejaVuSans-65" x="558.175781"/>
     </g>
    </g>
    <g id="line2d_18">
     <path d="M 663.01875 369.900312 
L 673.01875 369.900312 
L 683.01875 369.900312 
" style="fill: none; stroke: #1f77b4; stroke-width: 0.5; stroke-linecap: square"/>
    </g>
    <g id="text_17">
     <!-- Predicted Value -->
     <g transform="translate(691.01875 373.400312) scale(0.1 -0.1)">
      <defs>
       <path id="DejaVuSans-50" d="M 1259 4147 
L 1259 2394 
L 2053 2394 
Q 2494 2394 2734 2622 
Q 2975 2850 2975 3272 
Q 2975 3691 2734 3919 
Q 2494 4147 2053 4147 
L 1259 4147 
z
M 628 4666 
L 2053 4666 
Q 2838 4666 3239 4311 
Q 3641 3956 3641 3272 
Q 3641 2581 3239 2228 
Q 2838 1875 2053 1875 
L 1259 1875 
L 1259 0 
L 628 0 
L 628 4666 
z
" transform="scale(0.015625)"/>
      </defs>
      <use xlink:href="#DejaVuSans-50"/>
      <use xlink:href="#DejaVuSans-72" x="58.552734"/>
      <use xlink:href="#DejaVuSans-65" x="97.416016"/>
      <use xlink:href="#DejaVuSans-64" x="158.939453"/>
      <use xlink:href="#DejaVuSans-69" x="222.416016"/>
      <use xlink:href="#DejaVuSans-63" x="250.199219"/>
      <use xlink:href="#DejaVuSans-74" x="305.179688"/>
      <use xlink:href="#DejaVuSans-65" x="344.388672"/>
      <use xlink:href="#DejaVuSans-64" x="405.912109"/>
      <use xlink:href="#DejaVuSans-20" x="469.388672"/>
      <use xlink:href="#DejaVuSans-56" x="501.175781"/>
      <use xlink:href="#DejaVuSans-61" x="561.833984"/>
      <use xlink:href="#DejaVuSans-6c" x="623.113281"/>
      <use xlink:href="#DejaVuSans-75" x="650.896484"/>
      <use xlink:href="#DejaVuSans-65" x="714.275391"/>
     </g>
    </g>
   </g>
  </g>
 </g>
 <defs>
  <clipPath id="p9b939b4ec6">
   <rect x="108" y="51.84" width="669.6" height="332.64"/>
  </clipPath>
 </defs>
</svg>
