<?xml version="1.0" encoding="utf-8" standalone="no"?>
<!DOCTYPE svg PUBLIC "-//W3C//DTD SVG 1.1//EN"
  "http://www.w3.org/Graphics/SVG/1.1/DTD/svg11.dtd">
<svg xmlns:xlink="http://www.w3.org/1999/xlink" width="864pt" height="432pt" viewBox="0 0 864 432" xmlns="http://www.w3.org/2000/svg" version="1.1">
 <metadata>
  <rdf:RDF xmlns:dc="http://purl.org/dc/elements/1.1/" xmlns:cc="http://creativecommons.org/ns#" xmlns:rdf="http://www.w3.org/1999/02/22-rdf-syntax-ns#">
   <cc:Work>
    <dc:type rdf:resource="http://purl.org/dc/dcmitype/StillImage"/>
    <dc:date>2024-04-15T11:19:55.945503</dc:date>
    <dc:format>image/svg+xml</dc:format>
    <dc:creator>
     <cc:Agent>
      <dc:title>Matplotlib v3.8.2, https://matplotlib.org/</dc:title>
     </cc:Agent>
    </dc:creator>
   </cc:Work>
  </rdf:RDF>
 </metadata>
 <defs>
  <style type="text/css">*{stroke-linejoin: round; stroke-linecap: butt}</style>
 </defs>
 <g id="figure_1">
  <g id="patch_1">
   <path d="M 0 432 
L 864 432 
L 864 0 
L 0 0 
z
" style="fill: #ffffff"/>
  </g>
  <g id="axes_1">
   <g id="patch_2">
    <path d="M 108 384.48 
L 777.6 384.48 
L 777.6 51.84 
L 108 51.84 
z
" style="fill: #ffffff"/>
   </g>
   <g id="matplotlib.axis_1">
    <g id="xtick_1">
     <g id="line2d_1">
      <defs>
       <path id="m878369576d" d="M 0 0 
L 0 3.5 
" style="stroke: #000000; stroke-width: 0.8"/>
      </defs>
      <g>
       <use xlink:href="#m878369576d" x="138.436364" y="384.48" style="stroke: #000000; stroke-width: 0.8"/>
      </g>
     </g>
     <g id="text_1">
      <!-- 0 -->
      <g transform="translate(135.255114 399.078438) scale(0.1 -0.1)">
       <defs>
        <path id="DejaVuSans-30" d="M 2034 4250 
Q 1547 4250 1301 3770 
Q 1056 3291 1056 2328 
Q 1056 1369 1301 889 
Q 1547 409 2034 409 
Q 2525 409 2770 889 
Q 3016 1369 3016 2328 
Q 3016 3291 2770 3770 
Q 2525 4250 2034 4250 
z
M 2034 4750 
Q 2819 4750 3233 4129 
Q 3647 3509 3647 2328 
Q 3647 1150 3233 529 
Q 2819 -91 2034 -91 
Q 1250 -91 836 529 
Q 422 1150 422 2328 
Q 422 3509 836 4129 
Q 1250 4750 2034 4750 
z
" transform="scale(0.015625)"/>
       </defs>
       <use xlink:href="#DejaVuSans-30"/>
      </g>
     </g>
    </g>
    <g id="xtick_2">
     <g id="line2d_2">
      <g>
       <use xlink:href="#m878369576d" x="231.799442" y="384.48" style="stroke: #000000; stroke-width: 0.8"/>
      </g>
     </g>
     <g id="text_2">
      <!-- 100 -->
      <g transform="translate(222.255692 399.078438) scale(0.1 -0.1)">
       <defs>
        <path id="DejaVuSans-31" d="M 794 531 
L 1825 531 
L 1825 4091 
L 703 3866 
L 703 4441 
L 1819 4666 
L 2450 4666 
L 2450 531 
L 3481 531 
L 3481 0 
L 794 0 
L 794 531 
z
" transform="scale(0.015625)"/>
       </defs>
       <use xlink:href="#DejaVuSans-31"/>
       <use xlink:href="#DejaVuSans-30" x="63.623047"/>
       <use xlink:href="#DejaVuSans-30" x="127.246094"/>
      </g>
     </g>
    </g>
    <g id="xtick_3">
     <g id="line2d_3">
      <g>
       <use xlink:href="#m878369576d" x="325.162521" y="384.48" style="stroke: #000000; stroke-width: 0.8"/>
      </g>
     </g>
     <g id="text_3">
      <!-- 200 -->
      <g transform="translate(315.618771 399.078438) scale(0.1 -0.1)">
       <defs>
        <path id="DejaVuSans-32" d="M 1228 531 
L 3431 531 
L 3431 0 
L 469 0 
L 469 531 
Q 828 903 1448 1529 
Q 2069 2156 2228 2338 
Q 2531 2678 2651 2914 
Q 2772 3150 2772 3378 
Q 2772 3750 2511 3984 
Q 2250 4219 1831 4219 
Q 1534 4219 1204 4116 
Q 875 4013 500 3803 
L 500 4441 
Q 881 4594 1212 4672 
Q 1544 4750 1819 4750 
Q 2544 4750 2975 4387 
Q 3406 4025 3406 3419 
Q 3406 3131 3298 2873 
Q 3191 2616 2906 2266 
Q 2828 2175 2409 1742 
Q 1991 1309 1228 531 
z
" transform="scale(0.015625)"/>
       </defs>
       <use xlink:href="#DejaVuSans-32"/>
       <use xlink:href="#DejaVuSans-30" x="63.623047"/>
       <use xlink:href="#DejaVuSans-30" x="127.246094"/>
      </g>
     </g>
    </g>
    <g id="xtick_4">
     <g id="line2d_4">
      <g>
       <use xlink:href="#m878369576d" x="418.5256" y="384.48" style="stroke: #000000; stroke-width: 0.8"/>
      </g>
     </g>
     <g id="text_4">
      <!-- 300 -->
      <g transform="translate(408.98185 399.078438) scale(0.1 -0.1)">
       <defs>
        <path id="DejaVuSans-33" d="M 2597 2516 
Q 3050 2419 3304 2112 
Q 3559 1806 3559 1356 
Q 3559 666 3084 287 
Q 2609 -91 1734 -91 
Q 1441 -91 1130 -33 
Q 819 25 488 141 
L 488 750 
Q 750 597 1062 519 
Q 1375 441 1716 441 
Q 2309 441 2620 675 
Q 2931 909 2931 1356 
Q 2931 1769 2642 2001 
Q 2353 2234 1838 2234 
L 1294 2234 
L 1294 2753 
L 1863 2753 
Q 2328 2753 2575 2939 
Q 2822 3125 2822 3475 
Q 2822 3834 2567 4026 
Q 2313 4219 1838 4219 
Q 1578 4219 1281 4162 
Q 984 4106 628 3988 
L 628 4550 
Q 988 4650 1302 4700 
Q 1616 4750 1894 4750 
Q 2613 4750 3031 4423 
Q 3450 4097 3450 3541 
Q 3450 3153 3228 2886 
Q 3006 2619 2597 2516 
z
" transform="scale(0.015625)"/>
       </defs>
       <use xlink:href="#DejaVuSans-33"/>
       <use xlink:href="#DejaVuSans-30" x="63.623047"/>
       <use xlink:href="#DejaVuSans-30" x="127.246094"/>
      </g>
     </g>
    </g>
    <g id="xtick_5">
     <g id="line2d_5">
      <g>
       <use xlink:href="#m878369576d" x="511.888678" y="384.48" style="stroke: #000000; stroke-width: 0.8"/>
      </g>
     </g>
     <g id="text_5">
      <!-- 400 -->
      <g transform="translate(502.344928 399.078438) scale(0.1 -0.1)">
       <defs>
        <path id="DejaVuSans-34" d="M 2419 4116 
L 825 1625 
L 2419 1625 
L 2419 4116 
z
M 2253 4666 
L 3047 4666 
L 3047 1625 
L 3713 1625 
L 3713 1100 
L 3047 1100 
L 3047 0 
L 2419 0 
L 2419 1100 
L 313 1100 
L 313 1709 
L 2253 4666 
z
" transform="scale(0.015625)"/>
       </defs>
       <use xlink:href="#DejaVuSans-34"/>
       <use xlink:href="#DejaVuSans-30" x="63.623047"/>
       <use xlink:href="#DejaVuSans-30" x="127.246094"/>
      </g>
     </g>
    </g>
    <g id="xtick_6">
     <g id="line2d_6">
      <g>
       <use xlink:href="#m878369576d" x="605.251757" y="384.48" style="stroke: #000000; stroke-width: 0.8"/>
      </g>
     </g>
     <g id="text_6">
      <!-- 500 -->
      <g transform="translate(595.708007 399.078438) scale(0.1 -0.1)">
       <defs>
        <path id="DejaVuSans-35" d="M 691 4666 
L 3169 4666 
L 3169 4134 
L 1269 4134 
L 1269 2991 
Q 1406 3038 1543 3061 
Q 1681 3084 1819 3084 
Q 2600 3084 3056 2656 
Q 3513 2228 3513 1497 
Q 3513 744 3044 326 
Q 2575 -91 1722 -91 
Q 1428 -91 1123 -41 
Q 819 9 494 109 
L 494 744 
Q 775 591 1075 516 
Q 1375 441 1709 441 
Q 2250 441 2565 725 
Q 2881 1009 2881 1497 
Q 2881 1984 2565 2268 
Q 2250 2553 1709 2553 
Q 1456 2553 1204 2497 
Q 953 2441 691 2322 
L 691 4666 
z
" transform="scale(0.015625)"/>
       </defs>
       <use xlink:href="#DejaVuSans-35"/>
       <use xlink:href="#DejaVuSans-30" x="63.623047"/>
       <use xlink:href="#DejaVuSans-30" x="127.246094"/>
      </g>
     </g>
    </g>
    <g id="xtick_7">
     <g id="line2d_7">
      <g>
       <use xlink:href="#m878369576d" x="698.614835" y="384.48" style="stroke: #000000; stroke-width: 0.8"/>
      </g>
     </g>
     <g id="text_7">
      <!-- 600 -->
      <g transform="translate(689.071085 399.078438) scale(0.1 -0.1)">
       <defs>
        <path id="DejaVuSans-36" d="M 2113 2584 
Q 1688 2584 1439 2293 
Q 1191 2003 1191 1497 
Q 1191 994 1439 701 
Q 1688 409 2113 409 
Q 2538 409 2786 701 
Q 3034 994 3034 1497 
Q 3034 2003 2786 2293 
Q 2538 2584 2113 2584 
z
M 3366 4563 
L 3366 3988 
Q 3128 4100 2886 4159 
Q 2644 4219 2406 4219 
Q 1781 4219 1451 3797 
Q 1122 3375 1075 2522 
Q 1259 2794 1537 2939 
Q 1816 3084 2150 3084 
Q 2853 3084 3261 2657 
Q 3669 2231 3669 1497 
Q 3669 778 3244 343 
Q 2819 -91 2113 -91 
Q 1303 -91 875 529 
Q 447 1150 447 2328 
Q 447 3434 972 4092 
Q 1497 4750 2381 4750 
Q 2619 4750 2861 4703 
Q 3103 4656 3366 4563 
z
" transform="scale(0.015625)"/>
       </defs>
       <use xlink:href="#DejaVuSans-36"/>
       <use xlink:href="#DejaVuSans-30" x="63.623047"/>
       <use xlink:href="#DejaVuSans-30" x="127.246094"/>
      </g>
     </g>
    </g>
    <g id="text_8">
     <!-- Sample Number -->
     <g transform="translate(402.376562 412.756563) scale(0.1 -0.1)">
      <defs>
       <path id="DejaVuSans-53" d="M 3425 4513 
L 3425 3897 
Q 3066 4069 2747 4153 
Q 2428 4238 2131 4238 
Q 1616 4238 1336 4038 
Q 1056 3838 1056 3469 
Q 1056 3159 1242 3001 
Q 1428 2844 1947 2747 
L 2328 2669 
Q 3034 2534 3370 2195 
Q 3706 1856 3706 1288 
Q 3706 609 3251 259 
Q 2797 -91 1919 -91 
Q 1588 -91 1214 -16 
Q 841 59 441 206 
L 441 856 
Q 825 641 1194 531 
Q 1563 422 1919 422 
Q 2459 422 2753 634 
Q 3047 847 3047 1241 
Q 3047 1584 2836 1778 
Q 2625 1972 2144 2069 
L 1759 2144 
Q 1053 2284 737 2584 
Q 422 2884 422 3419 
Q 422 4038 858 4394 
Q 1294 4750 2059 4750 
Q 2388 4750 2728 4690 
Q 3069 4631 3425 4513 
z
" transform="scale(0.015625)"/>
       <path id="DejaVuSans-61" d="M 2194 1759 
Q 1497 1759 1228 1600 
Q 959 1441 959 1056 
Q 959 750 1161 570 
Q 1363 391 1709 391 
Q 2188 391 2477 730 
Q 2766 1069 2766 1631 
L 2766 1759 
L 2194 1759 
z
M 3341 1997 
L 3341 0 
L 2766 0 
L 2766 531 
Q 2569 213 2275 61 
Q 1981 -91 1556 -91 
Q 1019 -91 701 211 
Q 384 513 384 1019 
Q 384 1609 779 1909 
Q 1175 2209 1959 2209 
L 2766 2209 
L 2766 2266 
Q 2766 2663 2505 2880 
Q 2244 3097 1772 3097 
Q 1472 3097 1187 3025 
Q 903 2953 641 2809 
L 641 3341 
Q 956 3463 1253 3523 
Q 1550 3584 1831 3584 
Q 2591 3584 2966 3190 
Q 3341 2797 3341 1997 
z
" transform="scale(0.015625)"/>
       <path id="DejaVuSans-6d" d="M 3328 2828 
Q 3544 3216 3844 3400 
Q 4144 3584 4550 3584 
Q 5097 3584 5394 3201 
Q 5691 2819 5691 2113 
L 5691 0 
L 5113 0 
L 5113 2094 
Q 5113 2597 4934 2840 
Q 4756 3084 4391 3084 
Q 3944 3084 3684 2787 
Q 3425 2491 3425 1978 
L 3425 0 
L 2847 0 
L 2847 2094 
Q 2847 2600 2669 2842 
Q 2491 3084 2119 3084 
Q 1678 3084 1418 2786 
Q 1159 2488 1159 1978 
L 1159 0 
L 581 0 
L 581 3500 
L 1159 3500 
L 1159 2956 
Q 1356 3278 1631 3431 
Q 1906 3584 2284 3584 
Q 2666 3584 2933 3390 
Q 3200 3197 3328 2828 
z
" transform="scale(0.015625)"/>
       <path id="DejaVuSans-70" d="M 1159 525 
L 1159 -1331 
L 581 -1331 
L 581 3500 
L 1159 3500 
L 1159 2969 
Q 1341 3281 1617 3432 
Q 1894 3584 2278 3584 
Q 2916 3584 3314 3078 
Q 3713 2572 3713 1747 
Q 3713 922 3314 415 
Q 2916 -91 2278 -91 
Q 1894 -91 1617 61 
Q 1341 213 1159 525 
z
M 3116 1747 
Q 3116 2381 2855 2742 
Q 2594 3103 2138 3103 
Q 1681 3103 1420 2742 
Q 1159 2381 1159 1747 
Q 1159 1113 1420 752 
Q 1681 391 2138 391 
Q 2594 391 2855 752 
Q 3116 1113 3116 1747 
z
" transform="scale(0.015625)"/>
       <path id="DejaVuSans-6c" d="M 603 4863 
L 1178 4863 
L 1178 0 
L 603 0 
L 603 4863 
z
" transform="scale(0.015625)"/>
       <path id="DejaVuSans-65" d="M 3597 1894 
L 3597 1613 
L 953 1613 
Q 991 1019 1311 708 
Q 1631 397 2203 397 
Q 2534 397 2845 478 
Q 3156 559 3463 722 
L 3463 178 
Q 3153 47 2828 -22 
Q 2503 -91 2169 -91 
Q 1331 -91 842 396 
Q 353 884 353 1716 
Q 353 2575 817 3079 
Q 1281 3584 2069 3584 
Q 2775 3584 3186 3129 
Q 3597 2675 3597 1894 
z
M 3022 2063 
Q 3016 2534 2758 2815 
Q 2500 3097 2075 3097 
Q 1594 3097 1305 2825 
Q 1016 2553 972 2059 
L 3022 2063 
z
" transform="scale(0.015625)"/>
       <path id="DejaVuSans-20" transform="scale(0.015625)"/>
       <path id="DejaVuSans-4e" d="M 628 4666 
L 1478 4666 
L 3547 763 
L 3547 4666 
L 4159 4666 
L 4159 0 
L 3309 0 
L 1241 3903 
L 1241 0 
L 628 0 
L 628 4666 
z
" transform="scale(0.015625)"/>
       <path id="DejaVuSans-75" d="M 544 1381 
L 544 3500 
L 1119 3500 
L 1119 1403 
Q 1119 906 1312 657 
Q 1506 409 1894 409 
Q 2359 409 2629 706 
Q 2900 1003 2900 1516 
L 2900 3500 
L 3475 3500 
L 3475 0 
L 2900 0 
L 2900 538 
Q 2691 219 2414 64 
Q 2138 -91 1772 -91 
Q 1169 -91 856 284 
Q 544 659 544 1381 
z
M 1991 3584 
L 1991 3584 
z
" transform="scale(0.015625)"/>
       <path id="DejaVuSans-62" d="M 3116 1747 
Q 3116 2381 2855 2742 
Q 2594 3103 2138 3103 
Q 1681 3103 1420 2742 
Q 1159 2381 1159 1747 
Q 1159 1113 1420 752 
Q 1681 391 2138 391 
Q 2594 391 2855 752 
Q 3116 1113 3116 1747 
z
M 1159 2969 
Q 1341 3281 1617 3432 
Q 1894 3584 2278 3584 
Q 2916 3584 3314 3078 
Q 3713 2572 3713 1747 
Q 3713 922 3314 415 
Q 2916 -91 2278 -91 
Q 1894 -91 1617 61 
Q 1341 213 1159 525 
L 1159 0 
L 581 0 
L 581 4863 
L 1159 4863 
L 1159 2969 
z
" transform="scale(0.015625)"/>
       <path id="DejaVuSans-72" d="M 2631 2963 
Q 2534 3019 2420 3045 
Q 2306 3072 2169 3072 
Q 1681 3072 1420 2755 
Q 1159 2438 1159 1844 
L 1159 0 
L 581 0 
L 581 3500 
L 1159 3500 
L 1159 2956 
Q 1341 3275 1631 3429 
Q 1922 3584 2338 3584 
Q 2397 3584 2469 3576 
Q 2541 3569 2628 3553 
L 2631 2963 
z
" transform="scale(0.015625)"/>
      </defs>
      <use xlink:href="#DejaVuSans-53"/>
      <use xlink:href="#DejaVuSans-61" x="63.476562"/>
      <use xlink:href="#DejaVuSans-6d" x="124.755859"/>
      <use xlink:href="#DejaVuSans-70" x="222.167969"/>
      <use xlink:href="#DejaVuSans-6c" x="285.644531"/>
      <use xlink:href="#DejaVuSans-65" x="313.427734"/>
      <use xlink:href="#DejaVuSans-20" x="374.951172"/>
      <use xlink:href="#DejaVuSans-4e" x="406.738281"/>
      <use xlink:href="#DejaVuSans-75" x="481.542969"/>
      <use xlink:href="#DejaVuSans-6d" x="544.921875"/>
      <use xlink:href="#DejaVuSans-62" x="642.333984"/>
      <use xlink:href="#DejaVuSans-65" x="705.810547"/>
      <use xlink:href="#DejaVuSans-72" x="767.333984"/>
     </g>
    </g>
   </g>
   <g id="matplotlib.axis_2">
    <g id="ytick_1">
     <g id="line2d_8">
      <defs>
       <path id="mfa4743969c" d="M 0 0 
L -3.5 0 
" style="stroke: #000000; stroke-width: 0.8"/>
      </defs>
      <g>
       <use xlink:href="#mfa4743969c" x="108" y="340.935809" style="stroke: #000000; stroke-width: 0.8"/>
      </g>
     </g>
     <g id="text_9">
      <!-- 0 -->
      <g transform="translate(94.6375 344.735028) scale(0.1 -0.1)">
       <use xlink:href="#DejaVuSans-30"/>
      </g>
     </g>
    </g>
    <g id="ytick_2">
     <g id="line2d_9">
      <g>
       <use xlink:href="#mfa4743969c" x="108" y="278.713832" style="stroke: #000000; stroke-width: 0.8"/>
      </g>
     </g>
     <g id="text_10">
      <!-- 5 -->
      <g transform="translate(94.6375 282.513051) scale(0.1 -0.1)">
       <use xlink:href="#DejaVuSans-35"/>
      </g>
     </g>
    </g>
    <g id="ytick_3">
     <g id="line2d_10">
      <g>
       <use xlink:href="#mfa4743969c" x="108" y="216.491855" style="stroke: #000000; stroke-width: 0.8"/>
      </g>
     </g>
     <g id="text_11">
      <!-- 10 -->
      <g transform="translate(88.275 220.291074) scale(0.1 -0.1)">
       <use xlink:href="#DejaVuSans-31"/>
       <use xlink:href="#DejaVuSans-30" x="63.623047"/>
      </g>
     </g>
    </g>
    <g id="ytick_4">
     <g id="line2d_11">
      <g>
       <use xlink:href="#mfa4743969c" x="108" y="154.269878" style="stroke: #000000; stroke-width: 0.8"/>
      </g>
     </g>
     <g id="text_12">
      <!-- 15 -->
      <g transform="translate(88.275 158.069097) scale(0.1 -0.1)">
       <use xlink:href="#DejaVuSans-31"/>
       <use xlink:href="#DejaVuSans-35" x="63.623047"/>
      </g>
     </g>
    </g>
    <g id="ytick_5">
     <g id="line2d_12">
      <g>
       <use xlink:href="#mfa4743969c" x="108" y="92.047901" style="stroke: #000000; stroke-width: 0.8"/>
      </g>
     </g>
     <g id="text_13">
      <!-- 20 -->
      <g transform="translate(88.275 95.84712) scale(0.1 -0.1)">
       <use xlink:href="#DejaVuSans-32"/>
       <use xlink:href="#DejaVuSans-30" x="63.623047"/>
      </g>
     </g>
    </g>
    <g id="text_14">
     <!-- Magnetism -->
     <g transform="translate(82.195312 245.781875) rotate(-90) scale(0.1 -0.1)">
      <defs>
       <path id="DejaVuSans-4d" d="M 628 4666 
L 1569 4666 
L 2759 1491 
L 3956 4666 
L 4897 4666 
L 4897 0 
L 4281 0 
L 4281 4097 
L 3078 897 
L 2444 897 
L 1241 4097 
L 1241 0 
L 628 0 
L 628 4666 
z
" transform="scale(0.015625)"/>
       <path id="DejaVuSans-67" d="M 2906 1791 
Q 2906 2416 2648 2759 
Q 2391 3103 1925 3103 
Q 1463 3103 1205 2759 
Q 947 2416 947 1791 
Q 947 1169 1205 825 
Q 1463 481 1925 481 
Q 2391 481 2648 825 
Q 2906 1169 2906 1791 
z
M 3481 434 
Q 3481 -459 3084 -895 
Q 2688 -1331 1869 -1331 
Q 1566 -1331 1297 -1286 
Q 1028 -1241 775 -1147 
L 775 -588 
Q 1028 -725 1275 -790 
Q 1522 -856 1778 -856 
Q 2344 -856 2625 -561 
Q 2906 -266 2906 331 
L 2906 616 
Q 2728 306 2450 153 
Q 2172 0 1784 0 
Q 1141 0 747 490 
Q 353 981 353 1791 
Q 353 2603 747 3093 
Q 1141 3584 1784 3584 
Q 2172 3584 2450 3431 
Q 2728 3278 2906 2969 
L 2906 3500 
L 3481 3500 
L 3481 434 
z
" transform="scale(0.015625)"/>
       <path id="DejaVuSans-6e" d="M 3513 2113 
L 3513 0 
L 2938 0 
L 2938 2094 
Q 2938 2591 2744 2837 
Q 2550 3084 2163 3084 
Q 1697 3084 1428 2787 
Q 1159 2491 1159 1978 
L 1159 0 
L 581 0 
L 581 3500 
L 1159 3500 
L 1159 2956 
Q 1366 3272 1645 3428 
Q 1925 3584 2291 3584 
Q 2894 3584 3203 3211 
Q 3513 2838 3513 2113 
z
" transform="scale(0.015625)"/>
       <path id="DejaVuSans-74" d="M 1172 4494 
L 1172 3500 
L 2356 3500 
L 2356 3053 
L 1172 3053 
L 1172 1153 
Q 1172 725 1289 603 
Q 1406 481 1766 481 
L 2356 481 
L 2356 0 
L 1766 0 
Q 1100 0 847 248 
Q 594 497 594 1153 
L 594 3053 
L 172 3053 
L 172 3500 
L 594 3500 
L 594 4494 
L 1172 4494 
z
" transform="scale(0.015625)"/>
       <path id="DejaVuSans-69" d="M 603 3500 
L 1178 3500 
L 1178 0 
L 603 0 
L 603 3500 
z
M 603 4863 
L 1178 4863 
L 1178 4134 
L 603 4134 
L 603 4863 
z
" transform="scale(0.015625)"/>
       <path id="DejaVuSans-73" d="M 2834 3397 
L 2834 2853 
Q 2591 2978 2328 3040 
Q 2066 3103 1784 3103 
Q 1356 3103 1142 2972 
Q 928 2841 928 2578 
Q 928 2378 1081 2264 
Q 1234 2150 1697 2047 
L 1894 2003 
Q 2506 1872 2764 1633 
Q 3022 1394 3022 966 
Q 3022 478 2636 193 
Q 2250 -91 1575 -91 
Q 1294 -91 989 -36 
Q 684 19 347 128 
L 347 722 
Q 666 556 975 473 
Q 1284 391 1588 391 
Q 1994 391 2212 530 
Q 2431 669 2431 922 
Q 2431 1156 2273 1281 
Q 2116 1406 1581 1522 
L 1381 1569 
Q 847 1681 609 1914 
Q 372 2147 372 2553 
Q 372 3047 722 3315 
Q 1072 3584 1716 3584 
Q 2034 3584 2315 3537 
Q 2597 3491 2834 3397 
z
" transform="scale(0.015625)"/>
      </defs>
      <use xlink:href="#DejaVuSans-4d"/>
      <use xlink:href="#DejaVuSans-61" x="86.279297"/>
      <use xlink:href="#DejaVuSans-67" x="147.558594"/>
      <use xlink:href="#DejaVuSans-6e" x="211.035156"/>
      <use xlink:href="#DejaVuSans-65" x="274.414062"/>
      <use xlink:href="#DejaVuSans-74" x="335.9375"/>
      <use xlink:href="#DejaVuSans-69" x="375.146484"/>
      <use xlink:href="#DejaVuSans-73" x="402.929688"/>
      <use xlink:href="#DejaVuSans-6d" x="455.029297"/>
     </g>
    </g>
   </g>
   <g id="line2d_13">
    <path d="M 161.777133 384.48 
L 161.777133 51.84 
" clip-path="url(#pd18e6679f4)" style="fill: none; stroke-dasharray: 5.55,2.4; stroke-dashoffset: 0; stroke: #008000; stroke-width: 1.5"/>
   </g>
   <g id="line2d_14">
    <path d="M 448.401785 384.48 
L 448.401785 51.84 
" clip-path="url(#pd18e6679f4)" style="fill: none; stroke-dasharray: 5.55,2.4; stroke-dashoffset: 0; stroke: #008000; stroke-width: 1.5"/>
   </g>
   <g id="line2d_15">
    <path d="M 138.436364 365.973933 
L 139.369994 364.617494 
L 140.303625 359.863735 
L 141.237256 359.129515 
L 142.170887 359.005071 
L 143.104518 355.869084 
L 144.038148 355.197086 
L 144.971779 354.985532 
L 145.90541 354.898421 
L 146.839041 346.087789 
L 148.706302 346.087789 
L 149.639933 345.826457 
L 150.573564 345.826457 
L 151.507195 345.590013 
L 152.440825 345.590013 
L 153.374456 344.855794 
L 154.308087 343.760687 
L 155.241718 343.760687 
L 156.175349 342.230026 
L 157.108979 341.744695 
L 158.04261 341.446029 
L 158.976241 341.421141 
L 162.710764 340.935809 
L 449.335416 340.873587 
L 450.269046 340.587366 
L 452.136308 340.4007 
L 454.003569 340.375811 
L 454.9372 340.027368 
L 456.804462 339.865591 
L 460.538985 339.181149 
L 461.472616 339.081594 
L 462.406247 338.733151 
L 464.273508 338.571374 
L 465.207139 338.222931 
L 466.14077 337.451378 
L 468.941662 337.028269 
L 469.875293 336.990936 
L 470.808924 336.617604 
L 471.742554 336.49316 
L 472.676185 336.169606 
L 474.543447 335.746496 
L 475.477078 335.734052 
L 476.410708 335.435386 
L 477.344339 335.410498 
L 478.27797 334.352724 
L 480.145231 334.054059 
L 481.078862 332.797175 
L 482.012493 332.78473 
L 482.946124 332.598064 
L 483.879755 332.548287 
L 484.813385 332.237177 
L 485.747016 332.174955 
L 488.547909 330.134074 
L 489.481539 330.059408 
L 490.41517 329.574076 
L 491.348801 329.462077 
L 492.282432 329.163411 
L 493.216062 329.113634 
L 495.083324 328.727857 
L 496.950586 328.690524 
L 497.884216 327.670084 
L 498.817847 327.383863 
L 499.751478 327.222085 
L 500.685109 326.288756 
L 501.61874 326.164312 
L 503.486001 324.384763 
L 504.419632 324.384763 
L 507.220524 323.862099 
L 508.154155 323.862099 
L 509.087786 323.700322 
L 510.955047 323.575878 
L 512.822309 322.928769 
L 514.689571 322.717214 
L 515.623201 322.343882 
L 516.556832 322.169661 
L 517.490463 321.734107 
L 519.357724 321.26122 
L 520.291355 320.004336 
L 521.224986 319.207895 
L 522.158617 318.050566 
L 523.092248 315.959908 
L 524.025878 315.636353 
L 524.959509 311.529703 
L 526.826771 311.529703 
L 527.760402 310.55904 
L 528.694032 310.434596 
L 529.627663 310.434596 
L 530.561294 309.775043 
L 532.428555 309.600822 
L 533.362186 309.600822 
L 534.295817 309.090601 
L 535.229448 308.879047 
L 536.163079 308.879047 
L 537.096709 308.455937 
L 538.03034 308.331493 
L 538.963971 308.007939 
L 540.831233 307.933273 
L 541.764863 307.16172 
L 542.698494 306.825721 
L 544.565756 306.688833 
L 545.499387 306.103946 
L 546.433017 304.361731 
L 548.300279 304.287065 
L 549.23391 302.992848 
L 551.101171 302.992848 
L 552.034802 302.196406 
L 552.968433 300.752856 
L 553.902064 299.645305 
L 554.835694 297.965312 
L 555.769325 297.467536 
L 556.702956 296.397318 
L 557.636587 296.372429 
L 558.570218 295.376878 
L 559.503848 294.916435 
L 562.304741 294.866657 
L 563.238371 294.418659 
L 566.039264 294.157327 
L 566.972895 293.958217 
L 567.906525 293.958217 
L 568.840156 293.149331 
L 569.773787 292.651555 
L 570.707418 292.651555 
L 571.641049 291.170672 
L 572.574679 290.648007 
L 573.50831 288.768904 
L 574.441941 288.719126 
L 576.309202 288.408016 
L 578.176464 285.433806 
L 579.110095 285.209807 
L 580.043726 284.189366 
L 581.910987 284.189366 
L 582.844618 283.592035 
L 583.778249 283.243592 
L 585.64551 281.812487 
L 586.579141 280.692491 
L 587.512772 280.082716 
L 588.446403 278.751165 
L 589.380033 278.054279 
L 590.313664 277.817836 
L 593.114557 276.38673 
L 594.048187 275.465845 
L 594.981818 275.416067 
L 596.84908 274.85607 
L 597.782711 274.85607 
L 598.716341 274.470293 
L 600.583603 274.470293 
L 601.517234 274.134295 
L 602.450864 272.031192 
L 603.384495 271.670304 
L 604.318126 269.791201 
L 605.251757 268.969871 
L 607.119018 268.88276 
L 608.052649 265.672106 
L 609.919911 265.572551 
L 613.654434 265.572551 
L 614.588065 264.825887 
L 615.521695 263.53167 
L 616.455326 262.561007 
L 617.388957 262.561007 
L 618.322588 261.478345 
L 619.256219 261.080124 
L 620.189849 260.097017 
L 621.12348 258.553912 
L 622.990742 257.321916 
L 628.592526 257.321916 
L 629.526157 256.587697 
L 630.459788 255.119258 
L 631.393419 254.397484 
L 632.32705 250.402833 
L 633.26068 250.029501 
L 634.194311 250.029501 
L 635.127942 249.494392 
L 636.061573 248.573507 
L 637.928834 248.324619 
L 638.862465 247.864176 
L 639.796096 244.180635 
L 640.729727 244.180635 
L 641.663358 241.679311 
L 642.596988 240.895315 
L 643.530619 240.509538 
L 645.397881 240.198428 
L 646.331511 240.198428 
L 647.265142 239.775319 
L 648.198773 239.601097 
L 649.132404 238.991322 
L 650.999665 236.340666 
L 651.933296 235.233115 
L 652.866927 231.723795 
L 653.800558 229.521137 
L 654.734189 226.123817 
L 656.60145 226.07404 
L 658.468712 225.414487 
L 659.402342 223.373606 
L 660.335973 223.361161 
L 661.269604 221.208281 
L 662.203235 219.889175 
L 665.004127 219.764731 
L 665.937758 218.955845 
L 666.871389 218.570069 
L 667.80502 217.400296 
L 668.73865 215.757636 
L 669.672281 215.608303 
L 670.605912 214.986083 
L 671.539543 212.48476 
L 672.473173 211.638541 
L 673.406804 211.489208 
L 674.340435 209.921214 
L 675.274066 209.162106 
L 676.207697 206.349673 
L 677.141327 205.640342 
L 678.074958 204.66968 
L 679.008589 204.619902 
L 679.94222 203.910571 
L 680.875851 201.558581 
L 681.809481 200.687473 
L 682.743112 200.600362 
L 683.676743 200.13992 
L 684.610374 200.13992 
L 685.544004 199.617255 
L 686.477635 199.617255 
L 687.411266 199.492811 
L 688.344897 199.044813 
L 689.278528 199.032368 
L 690.212158 198.559481 
L 691.145789 197.439486 
L 692.07942 192.362172 
L 693.013051 191.503509 
L 693.946682 188.317744 
L 695.813943 188.255522 
L 696.747574 185.480422 
L 697.681205 184.497315 
L 699.548466 184.497315 
L 700.482097 180.116887 
L 701.415728 179.108891 
L 702.349359 178.62356 
L 703.282989 178.536449 
L 704.21662 178.175562 
L 705.150251 177.578231 
L 707.017513 175.151574 
L 707.951143 172.637806 
L 708.884774 172.637806 
L 709.818405 170.870702 
L 710.752036 170.708924 
L 712.619297 170.708924 
L 713.552928 168.4316 
L 714.486559 166.888495 
L 715.42019 166.440497 
L 716.35382 164.586282 
L 717.287451 163.180065 
L 719.154713 163.180065 
L 720.088344 160.454743 
L 721.021974 160.454743 
L 721.955605 160.1063 
L 722.889236 159.620968 
L 723.822867 158.476084 
L 724.756497 153.70988 
L 726.623759 153.697436 
L 727.55739 148.881455 
L 728.491021 148.570345 
L 729.424651 147.101906 
L 730.358282 138.565051 
L 731.291913 137.855721 
L 733.159175 134.6824 
L 734.092805 130.874415 
L 735.026436 128.646868 
L 735.960067 128.646868 
L 736.893698 128.186425 
L 737.827328 124.440662 
L 738.760959 112.008711 
L 739.69459 110.751827 
L 740.628221 100.385646 
L 741.561852 91.836346 
L 742.495482 90.803462 
L 743.429113 90.168797 
L 744.362744 90.168797 
L 745.296375 88.911913 
L 746.230006 86.92081 
L 747.163636 66.96 
L 747.163636 66.96 
" clip-path="url(#pd18e6679f4)" style="fill: none; stroke: #ff0000; stroke-width: 0.5; stroke-linecap: square"/>
   </g>
   <g id="line2d_16">
    <path d="M 138.436364 341.658655 
L 139.369994 340.935809 
L 140.303625 340.398576 
L 141.237256 345.728134 
L 143.104518 346.979987 
L 144.038148 369.36 
L 144.971779 342.17836 
L 145.90541 344.661554 
L 146.839041 343.126719 
L 150.573564 343.126719 
L 151.507195 340.951323 
L 152.440825 340.935809 
L 153.374456 340.398576 
L 155.241718 340.494662 
L 156.175349 340.953887 
L 157.108979 342.52089 
L 158.04261 337.63432 
L 158.976241 340.896831 
L 159.909872 340.52968 
L 160.843503 338.135955 
L 161.777133 340.935809 
L 163.644395 340.935809 
L 164.578026 346.979987 
L 165.511656 340.935809 
L 166.445287 340.935809 
L 167.378918 341.048849 
L 168.312549 340.919575 
L 174.847964 340.935809 
L 189.786057 340.935809 
L 190.719688 339.316311 
L 191.653318 340.935809 
L 201.923257 340.935809 
L 202.856888 340.312407 
L 203.790519 340.935809 
L 222.463134 340.935809 
L 223.396765 342.52089 
L 224.330396 340.935809 
L 225.264027 340.935809 
L 226.197658 332.256335 
L 227.131288 340.935809 
L 234.600335 340.935809 
L 235.533965 342.647587 
L 236.467596 340.935809 
L 239.268489 340.935809 
L 240.202119 343.126719 
L 241.13575 340.935809 
L 250.472058 340.935809 
L 251.405689 338.135955 
L 252.33932 340.935809 
L 264.47652 340.935809 
L 265.410151 340.312407 
L 266.343781 340.935809 
L 271.011935 340.935809 
L 271.945566 346.697319 
L 272.879197 340.935809 
L 312.09169 340.935809 
L 313.025321 338.501923 
L 313.958951 340.935809 
L 328.897044 340.935809 
L 329.830675 343.126719 
L 330.764306 340.935809 
L 334.498829 340.935809 
L 335.43246 338.987029 
L 336.36609 340.935809 
L 343.835137 340.935809 
L 344.768767 340.039847 
L 345.702398 340.935809 
L 366.242276 340.935809 
L 367.175906 314.303494 
L 368.109537 340.935809 
L 373.711322 340.935809 
L 374.644953 346.697319 
L 375.578583 340.935809 
L 376.512214 342.647587 
L 377.445845 340.935809 
L 402.653876 340.935809 
L 403.587507 347.980809 
L 404.521138 340.935809 
L 418.5256 340.935809 
L 419.45923 343.126719 
L 420.392861 340.935809 
L 424.127384 340.935809 
L 425.061015 314.411931 
L 425.994646 343.126719 
L 426.928277 340.935809 
L 428.795538 340.935809 
L 429.729169 345.22625 
L 430.6628 340.935809 
L 432.530061 340.935809 
L 433.463692 339.491447 
L 434.397323 340.935809 
L 445.600892 340.935809 
L 446.534523 343.126719 
L 447.468154 340.935809 
L 448.401785 341.076529 
L 449.335416 322.787413 
L 450.269046 340.52968 
L 451.202677 332.488514 
L 452.136308 337.546751 
L 453.069939 340.52968 
L 454.003569 340.83331 
L 454.9372 340.901053 
L 455.870831 339.770685 
L 456.804462 336.20221 
L 457.738093 337.180406 
L 458.671723 332.402041 
L 459.605354 340.877465 
L 461.472616 340.877465 
L 462.406247 338.135955 
L 463.339877 340.52968 
L 464.273508 337.862257 
L 465.207139 337.817547 
L 466.14077 337.496747 
L 467.0744 336.20221 
L 468.008031 336.455424 
L 468.941662 337.097398 
L 469.875293 336.20221 
L 470.808924 341.636478 
L 471.742554 340.953887 
L 472.676185 337.151717 
L 473.609816 336.146024 
L 474.543447 328.804368 
L 475.477078 336.20221 
L 476.410708 335.203054 
L 477.344339 353.410542 
L 478.27797 322.478717 
L 479.211601 332.402041 
L 480.145231 332.402041 
L 481.078862 289.972041 
L 482.012493 329.771202 
L 482.946124 340.554185 
L 483.879755 329.771202 
L 484.813385 323.46344 
L 485.747016 340.935809 
L 486.680647 332.402041 
L 487.614278 332.402041 
L 488.547909 325.927093 
L 489.481539 322.869438 
L 490.41517 336.238615 
L 491.348801 332.402041 
L 492.282432 324.651602 
L 493.216062 324.951217 
L 494.149693 328.662657 
L 495.083324 307.683808 
L 496.016955 312.370912 
L 496.950586 329.106195 
L 497.884216 333.399935 
L 498.817847 332.402041 
L 499.751478 329.236831 
L 500.685109 293.158086 
L 501.61874 325.081561 
L 502.55237 317.811637 
L 503.486001 322.869438 
L 504.419632 323.46344 
L 505.353263 336.085877 
L 506.286893 321.53494 
L 507.220524 336.80865 
L 508.154155 322.400912 
L 509.087786 324.464264 
L 510.021417 328.436385 
L 510.955047 325.982621 
L 511.888678 325.081561 
L 512.822309 342.47697 
L 513.75594 318.425836 
L 514.689571 324.464264 
L 515.623201 325.982621 
L 516.556832 321.53494 
L 517.490463 335.746138 
L 518.424094 310.976862 
L 519.357724 321.53494 
L 520.291355 293.0201 
L 521.224986 286.374478 
L 522.158617 309.323227 
L 523.092248 315.948002 
L 524.025878 336.238615 
L 524.959509 315.313744 
L 525.89314 315.313744 
L 526.826771 315.896118 
L 527.760402 309.46757 
L 528.694032 310.690001 
L 529.627663 315.896118 
L 530.561294 316.867887 
L 531.494925 260.284578 
L 532.428555 310.690001 
L 533.362186 315.313744 
L 534.295817 323.46344 
L 535.229448 310.481035 
L 536.163079 309.46757 
L 537.096709 325.982621 
L 538.03034 315.700247 
L 538.963971 303.172404 
L 539.897602 307.683808 
L 540.831233 304.851436 
L 541.764863 306.053602 
L 542.698494 286.09872 
L 543.632125 303.172404 
L 544.565756 308.95178 
L 545.499387 303.172404 
L 546.433017 305.512712 
L 547.366648 299.325968 
L 548.300279 299.697767 
L 549.23391 302.199438 
L 550.16754 295.655559 
L 551.101171 298.156226 
L 552.034802 303.172404 
L 552.968433 305.512712 
L 553.902064 303.172404 
L 554.835694 299.697767 
L 555.769325 293.158086 
L 556.702956 295.346733 
L 557.636587 295.346733 
L 558.570218 302.199438 
L 559.503848 295.346733 
L 562.304741 295.346733 
L 564.172002 278.33198 
L 565.105633 290.238114 
L 566.039264 295.218572 
L 566.972895 303.172404 
L 567.906525 304.485357 
L 568.840156 298.328074 
L 569.773787 295.346733 
L 570.707418 295.346733 
L 571.641049 295.227238 
L 572.574679 267.555433 
L 573.50831 254.579231 
L 574.441941 227.304717 
L 575.375572 289.013398 
L 576.309202 264.00111 
L 577.242833 262.158744 
L 578.176464 307.865732 
L 580.043726 289.830599 
L 580.977356 286.893243 
L 581.910987 289.830599 
L 582.844618 283.790602 
L 583.778249 276.094063 
L 584.71188 288.055451 
L 585.64551 284.774 
L 586.579141 227.817931 
L 587.512772 254.277532 
L 588.446403 268.66983 
L 589.380033 289.388964 
L 590.313664 206.127191 
L 591.247295 224.583885 
L 592.180926 256.719844 
L 593.114557 206.127191 
L 594.048187 274.764399 
L 594.981818 251.422402 
L 595.915449 276.094063 
L 596.84908 279.495384 
L 597.782711 279.495384 
L 598.716341 274.764399 
L 599.649972 289.013398 
L 600.583603 289.013398 
L 601.517234 209.364001 
L 602.450864 271.701247 
L 603.384495 271.650324 
L 604.318126 276.94428 
L 605.251757 251.46794 
L 606.185388 279.495384 
L 607.119018 267.430746 
L 608.052649 276.065763 
L 608.98628 267.555433 
L 609.919911 267.555433 
L 610.853542 254.277532 
L 611.787172 267.555433 
L 613.654434 267.555433 
L 614.588065 225.140091 
L 615.521695 260.252364 
L 617.388957 264.100917 
L 618.322588 258.263785 
L 619.256219 262.158744 
L 620.189849 267.539919 
L 621.12348 243.101576 
L 622.057111 238.242389 
L 622.990742 267.555433 
L 628.592526 267.555433 
L 629.526157 247.228588 
L 630.459788 251.459976 
L 631.393419 243.442531 
L 632.32705 251.459976 
L 633.26068 256.719844 
L 634.194311 251.970685 
L 635.127942 234.4391 
L 636.061573 282.661065 
L 636.995204 238.169019 
L 637.928834 238.242389 
L 638.862465 234.894741 
L 639.796096 258.263785 
L 641.663358 235.294769 
L 642.596988 251.46794 
L 643.530619 228.562458 
L 644.46425 275.279187 
L 645.397881 263.729951 
L 646.331511 227.835036 
L 648.198773 277.530477 
L 649.132404 247.054738 
L 650.066035 251.970685 
L 650.999665 283.740678 
L 651.933296 234.552912 
L 652.866927 265.762403 
L 653.800558 244.331347 
L 654.734189 234.703314 
L 656.60145 234.703314 
L 657.535081 238.607549 
L 658.468712 238.169019 
L 659.402342 216.489828 
L 660.335973 223.391112 
L 661.269604 203.54264 
L 662.203235 221.43596 
L 663.136866 260.644462 
L 664.070496 266.172035 
L 665.004127 231.040916 
L 665.937758 238.169019 
L 666.871389 209.290906 
L 667.80502 249.073805 
L 668.73865 219.745604 
L 669.672281 173.495055 
L 670.605912 216.833228 
L 671.539543 231.040916 
L 672.473173 227.232466 
L 673.406804 210.879299 
L 674.340435 227.232466 
L 675.274066 221.825797 
L 676.207697 247.351522 
L 677.141327 201.772482 
L 678.074958 221.43596 
L 679.008589 143.451855 
L 679.94222 213.902204 
L 680.875851 201.131412 
L 681.809481 201.772482 
L 682.743112 199.752218 
L 683.676743 203.990874 
L 684.610374 207.589374 
L 685.544004 203.990874 
L 686.477635 207.589374 
L 687.411266 267.984095 
L 688.344897 201.021269 
L 689.278528 221.43596 
L 690.212158 221.43596 
L 691.145789 201.772482 
L 692.07942 204.054094 
L 693.013051 162.168486 
L 693.946682 193.136141 
L 694.880312 186.422529 
L 695.813943 188.284964 
L 696.747574 215.156955 
L 697.681205 209.364001 
L 698.614835 209.364001 
L 699.548466 273.350332 
L 700.482097 143.451855 
L 701.415728 183.446016 
L 702.349359 170.131127 
L 703.282989 146.314298 
L 704.21662 172.250304 
L 705.150251 177.353724 
L 706.083882 176.021684 
L 707.017513 176.021684 
L 707.951143 205.311509 
L 708.884774 203.205061 
L 709.818405 249.30645 
L 710.752036 196.307173 
L 711.685666 176.702183 
L 712.619297 176.702183 
L 713.552928 240.913786 
L 714.486559 163.175985 
L 715.42019 161.891679 
L 716.35382 166.270189 
L 717.287451 159.345947 
L 718.221082 159.644613 
L 719.154713 159.345947 
L 720.088344 163.708337 
L 721.021974 90.050483 
L 721.955605 247.351522 
L 722.889236 247.351522 
L 723.822867 144.62432 
L 724.756497 216.489828 
L 726.623759 216.489828 
L 727.55739 227.304717 
L 728.491021 150.004999 
L 729.424651 176.702183 
L 730.358282 148.25596 
L 731.291913 144.013644 
L 732.225544 134.968305 
L 733.159175 144.013644 
L 734.092805 129.037225 
L 735.026436 127.850486 
L 735.960067 128.068553 
L 736.893698 146.314298 
L 737.827328 172.966673 
L 738.760959 177.080209 
L 739.69459 177.080209 
L 740.628221 105.217008 
L 741.561852 85.361355 
L 742.495482 91.118222 
L 743.429113 95.737515 
L 744.362744 175.226521 
L 745.296375 95.737515 
L 746.230006 208.070624 
L 747.163636 161.190733 
L 747.163636 161.190733 
" clip-path="url(#pd18e6679f4)" style="fill: none; stroke: #1f77b4; stroke-width: 0.5; stroke-linecap: square"/>
   </g>
   <g id="patch_3">
    <path d="M 108 384.48 
L 108 51.84 
" style="fill: none; stroke: #000000; stroke-width: 0.8; stroke-linejoin: miter; stroke-linecap: square"/>
   </g>
   <g id="patch_4">
    <path d="M 777.6 384.48 
L 777.6 51.84 
" style="fill: none; stroke: #000000; stroke-width: 0.8; stroke-linejoin: miter; stroke-linecap: square"/>
   </g>
   <g id="patch_5">
    <path d="M 108 384.48 
L 777.6 384.48 
" style="fill: none; stroke: #000000; stroke-width: 0.8; stroke-linejoin: miter; stroke-linecap: square"/>
   </g>
   <g id="patch_6">
    <path d="M 108 51.84 
L 777.6 51.84 
" style="fill: none; stroke: #000000; stroke-width: 0.8; stroke-linejoin: miter; stroke-linecap: square"/>
   </g>
   <g id="text_15">
    <!-- 2586 samples predictions -->
    <g transform="translate(365.55 45.84) scale(0.12 -0.12)">
     <defs>
      <path id="DejaVuSans-38" d="M 2034 2216 
Q 1584 2216 1326 1975 
Q 1069 1734 1069 1313 
Q 1069 891 1326 650 
Q 1584 409 2034 409 
Q 2484 409 2743 651 
Q 3003 894 3003 1313 
Q 3003 1734 2745 1975 
Q 2488 2216 2034 2216 
z
M 1403 2484 
Q 997 2584 770 2862 
Q 544 3141 544 3541 
Q 544 4100 942 4425 
Q 1341 4750 2034 4750 
Q 2731 4750 3128 4425 
Q 3525 4100 3525 3541 
Q 3525 3141 3298 2862 
Q 3072 2584 2669 2484 
Q 3125 2378 3379 2068 
Q 3634 1759 3634 1313 
Q 3634 634 3220 271 
Q 2806 -91 2034 -91 
Q 1263 -91 848 271 
Q 434 634 434 1313 
Q 434 1759 690 2068 
Q 947 2378 1403 2484 
z
M 1172 3481 
Q 1172 3119 1398 2916 
Q 1625 2713 2034 2713 
Q 2441 2713 2670 2916 
Q 2900 3119 2900 3481 
Q 2900 3844 2670 4047 
Q 2441 4250 2034 4250 
Q 1625 4250 1398 4047 
Q 1172 3844 1172 3481 
z
" transform="scale(0.015625)"/>
      <path id="DejaVuSans-64" d="M 2906 2969 
L 2906 4863 
L 3481 4863 
L 3481 0 
L 2906 0 
L 2906 525 
Q 2725 213 2448 61 
Q 2172 -91 1784 -91 
Q 1150 -91 751 415 
Q 353 922 353 1747 
Q 353 2572 751 3078 
Q 1150 3584 1784 3584 
Q 2172 3584 2448 3432 
Q 2725 3281 2906 2969 
z
M 947 1747 
Q 947 1113 1208 752 
Q 1469 391 1925 391 
Q 2381 391 2643 752 
Q 2906 1113 2906 1747 
Q 2906 2381 2643 2742 
Q 2381 3103 1925 3103 
Q 1469 3103 1208 2742 
Q 947 2381 947 1747 
z
" transform="scale(0.015625)"/>
      <path id="DejaVuSans-63" d="M 3122 3366 
L 3122 2828 
Q 2878 2963 2633 3030 
Q 2388 3097 2138 3097 
Q 1578 3097 1268 2742 
Q 959 2388 959 1747 
Q 959 1106 1268 751 
Q 1578 397 2138 397 
Q 2388 397 2633 464 
Q 2878 531 3122 666 
L 3122 134 
Q 2881 22 2623 -34 
Q 2366 -91 2075 -91 
Q 1284 -91 818 406 
Q 353 903 353 1747 
Q 353 2603 823 3093 
Q 1294 3584 2113 3584 
Q 2378 3584 2631 3529 
Q 2884 3475 3122 3366 
z
" transform="scale(0.015625)"/>
      <path id="DejaVuSans-6f" d="M 1959 3097 
Q 1497 3097 1228 2736 
Q 959 2375 959 1747 
Q 959 1119 1226 758 
Q 1494 397 1959 397 
Q 2419 397 2687 759 
Q 2956 1122 2956 1747 
Q 2956 2369 2687 2733 
Q 2419 3097 1959 3097 
z
M 1959 3584 
Q 2709 3584 3137 3096 
Q 3566 2609 3566 1747 
Q 3566 888 3137 398 
Q 2709 -91 1959 -91 
Q 1206 -91 779 398 
Q 353 888 353 1747 
Q 353 2609 779 3096 
Q 1206 3584 1959 3584 
z
" transform="scale(0.015625)"/>
     </defs>
     <use xlink:href="#DejaVuSans-32"/>
     <use xlink:href="#DejaVuSans-35" x="63.623047"/>
     <use xlink:href="#DejaVuSans-38" x="127.246094"/>
     <use xlink:href="#DejaVuSans-36" x="190.869141"/>
     <use xlink:href="#DejaVuSans-20" x="254.492188"/>
     <use xlink:href="#DejaVuSans-73" x="286.279297"/>
     <use xlink:href="#DejaVuSans-61" x="338.378906"/>
     <use xlink:href="#DejaVuSans-6d" x="399.658203"/>
     <use xlink:href="#DejaVuSans-70" x="497.070312"/>
     <use xlink:href="#DejaVuSans-6c" x="560.546875"/>
     <use xlink:href="#DejaVuSans-65" x="588.330078"/>
     <use xlink:href="#DejaVuSans-73" x="649.853516"/>
     <use xlink:href="#DejaVuSans-20" x="701.953125"/>
     <use xlink:href="#DejaVuSans-70" x="733.740234"/>
     <use xlink:href="#DejaVuSans-72" x="797.216797"/>
     <use xlink:href="#DejaVuSans-65" x="836.080078"/>
     <use xlink:href="#DejaVuSans-64" x="897.603516"/>
     <use xlink:href="#DejaVuSans-69" x="961.080078"/>
     <use xlink:href="#DejaVuSans-63" x="988.863281"/>
     <use xlink:href="#DejaVuSans-74" x="1043.84375"/>
     <use xlink:href="#DejaVuSans-69" x="1083.052734"/>
     <use xlink:href="#DejaVuSans-6f" x="1110.835938"/>
     <use xlink:href="#DejaVuSans-6e" x="1172.017578"/>
     <use xlink:href="#DejaVuSans-73" x="1235.396484"/>
    </g>
   </g>
   <g id="legend_1">
    <g id="patch_7">
     <path d="M 661.01875 379.48 
L 770.6 379.48 
Q 772.6 379.48 772.6 377.48 
L 772.6 349.12375 
Q 772.6 347.12375 770.6 347.12375 
L 661.01875 347.12375 
Q 659.01875 347.12375 659.01875 349.12375 
L 659.01875 377.48 
Q 659.01875 379.48 661.01875 379.48 
z
" style="fill: #ffffff; opacity: 0.8; stroke: #cccccc; stroke-linejoin: miter"/>
    </g>
    <g id="line2d_17">
     <path d="M 663.01875 355.222188 
L 673.01875 355.222188 
L 683.01875 355.222188 
" style="fill: none; stroke: #ff0000; stroke-width: 0.5; stroke-linecap: square"/>
    </g>
    <g id="text_16">
     <!-- Actual Value -->
     <g transform="translate(691.01875 358.722188) scale(0.1 -0.1)">
      <defs>
       <path id="DejaVuSans-41" d="M 2188 4044 
L 1331 1722 
L 3047 1722 
L 2188 4044 
z
M 1831 4666 
L 2547 4666 
L 4325 0 
L 3669 0 
L 3244 1197 
L 1141 1197 
L 716 0 
L 50 0 
L 1831 4666 
z
" transform="scale(0.015625)"/>
       <path id="DejaVuSans-56" d="M 1831 0 
L 50 4666 
L 709 4666 
L 2188 738 
L 3669 4666 
L 4325 4666 
L 2547 0 
L 1831 0 
z
" transform="scale(0.015625)"/>
      </defs>
      <use xlink:href="#DejaVuSans-41"/>
      <use xlink:href="#DejaVuSans-63" x="66.658203"/>
      <use xlink:href="#DejaVuSans-74" x="121.638672"/>
      <use xlink:href="#DejaVuSans-75" x="160.847656"/>
      <use xlink:href="#DejaVuSans-61" x="224.226562"/>
      <use xlink:href="#DejaVuSans-6c" x="285.505859"/>
      <use xlink:href="#DejaVuSans-20" x="313.289062"/>
      <use xlink:href="#DejaVuSans-56" x="345.076172"/>
      <use xlink:href="#DejaVuSans-61" x="405.734375"/>
      <use xlink:href="#DejaVuSans-6c" x="467.013672"/>
      <use xlink:href="#DejaVuSans-75" x="494.796875"/>
      <use xlink:href="#DejaVuSans-65" x="558.175781"/>
     </g>
    </g>
    <g id="line2d_18">
     <path d="M 663.01875 369.900312 
L 673.01875 369.900312 
L 683.01875 369.900312 
" style="fill: none; stroke: #1f77b4; stroke-width: 0.5; stroke-linecap: square"/>
    </g>
    <g id="text_17">
     <!-- Predicted Value -->
     <g transform="translate(691.01875 373.400312) scale(0.1 -0.1)">
      <defs>
       <path id="DejaVuSans-50" d="M 1259 4147 
L 1259 2394 
L 2053 2394 
Q 2494 2394 2734 2622 
Q 2975 2850 2975 3272 
Q 2975 3691 2734 3919 
Q 2494 4147 2053 4147 
L 1259 4147 
z
M 628 4666 
L 2053 4666 
Q 2838 4666 3239 4311 
Q 3641 3956 3641 3272 
Q 3641 2581 3239 2228 
Q 2838 1875 2053 1875 
L 1259 1875 
L 1259 0 
L 628 0 
L 628 4666 
z
" transform="scale(0.015625)"/>
      </defs>
      <use xlink:href="#DejaVuSans-50"/>
      <use xlink:href="#DejaVuSans-72" x="58.552734"/>
      <use xlink:href="#DejaVuSans-65" x="97.416016"/>
      <use xlink:href="#DejaVuSans-64" x="158.939453"/>
      <use xlink:href="#DejaVuSans-69" x="222.416016"/>
      <use xlink:href="#DejaVuSans-63" x="250.199219"/>
      <use xlink:href="#DejaVuSans-74" x="305.179688"/>
      <use xlink:href="#DejaVuSans-65" x="344.388672"/>
      <use xlink:href="#DejaVuSans-64" x="405.912109"/>
      <use xlink:href="#DejaVuSans-20" x="469.388672"/>
      <use xlink:href="#DejaVuSans-56" x="501.175781"/>
      <use xlink:href="#DejaVuSans-61" x="561.833984"/>
      <use xlink:href="#DejaVuSans-6c" x="623.113281"/>
      <use xlink:href="#DejaVuSans-75" x="650.896484"/>
      <use xlink:href="#DejaVuSans-65" x="714.275391"/>
     </g>
    </g>
   </g>
  </g>
 </g>
 <defs>
  <clipPath id="pd18e6679f4">
   <rect x="108" y="51.84" width="669.6" height="332.64"/>
  </clipPath>
 </defs>
</svg>
