<?xml version="1.0" encoding="utf-8" standalone="no"?>
<!DOCTYPE svg PUBLIC "-//W3C//DTD SVG 1.1//EN"
  "http://www.w3.org/Graphics/SVG/1.1/DTD/svg11.dtd">
<svg xmlns:xlink="http://www.w3.org/1999/xlink" width="864pt" height="432pt" viewBox="0 0 864 432" xmlns="http://www.w3.org/2000/svg" version="1.1">
 <metadata>
  <rdf:RDF xmlns:dc="http://purl.org/dc/elements/1.1/" xmlns:cc="http://creativecommons.org/ns#" xmlns:rdf="http://www.w3.org/1999/02/22-rdf-syntax-ns#">
   <cc:Work>
    <dc:type rdf:resource="http://purl.org/dc/dcmitype/StillImage"/>
    <dc:date>2024-04-16T11:13:58.199221</dc:date>
    <dc:format>image/svg+xml</dc:format>
    <dc:creator>
     <cc:Agent>
      <dc:title>Matplotlib v3.8.2, https://matplotlib.org/</dc:title>
     </cc:Agent>
    </dc:creator>
   </cc:Work>
  </rdf:RDF>
 </metadata>
 <defs>
  <style type="text/css">*{stroke-linejoin: round; stroke-linecap: butt}</style>
 </defs>
 <g id="figure_1">
  <g id="patch_1">
   <path d="M 0 432 
L 864 432 
L 864 0 
L 0 0 
z
" style="fill: #ffffff"/>
  </g>
  <g id="axes_1">
   <g id="patch_2">
    <path d="M 108 384.48 
L 777.6 384.48 
L 777.6 51.84 
L 108 51.84 
z
" style="fill: #ffffff"/>
   </g>
   <g id="matplotlib.axis_1">
    <g id="xtick_1">
     <g id="line2d_1">
      <defs>
       <path id="m5f90dd4e37" d="M 0 0 
L 0 3.5 
" style="stroke: #000000; stroke-width: 0.8"/>
      </defs>
      <g>
       <use xlink:href="#m5f90dd4e37" x="138.436364" y="384.48" style="stroke: #000000; stroke-width: 0.8"/>
      </g>
     </g>
     <g id="text_1">
      <!-- 0 -->
      <g transform="translate(135.255114 399.078438) scale(0.1 -0.1)">
       <defs>
        <path id="DejaVuSans-30" d="M 2034 4250 
Q 1547 4250 1301 3770 
Q 1056 3291 1056 2328 
Q 1056 1369 1301 889 
Q 1547 409 2034 409 
Q 2525 409 2770 889 
Q 3016 1369 3016 2328 
Q 3016 3291 2770 3770 
Q 2525 4250 2034 4250 
z
M 2034 4750 
Q 2819 4750 3233 4129 
Q 3647 3509 3647 2328 
Q 3647 1150 3233 529 
Q 2819 -91 2034 -91 
Q 1250 -91 836 529 
Q 422 1150 422 2328 
Q 422 3509 836 4129 
Q 1250 4750 2034 4750 
z
" transform="scale(0.015625)"/>
       </defs>
       <use xlink:href="#DejaVuSans-30"/>
      </g>
     </g>
    </g>
    <g id="xtick_2">
     <g id="line2d_2">
      <g>
       <use xlink:href="#m5f90dd4e37" x="231.799442" y="384.48" style="stroke: #000000; stroke-width: 0.8"/>
      </g>
     </g>
     <g id="text_2">
      <!-- 100 -->
      <g transform="translate(222.255692 399.078438) scale(0.1 -0.1)">
       <defs>
        <path id="DejaVuSans-31" d="M 794 531 
L 1825 531 
L 1825 4091 
L 703 3866 
L 703 4441 
L 1819 4666 
L 2450 4666 
L 2450 531 
L 3481 531 
L 3481 0 
L 794 0 
L 794 531 
z
" transform="scale(0.015625)"/>
       </defs>
       <use xlink:href="#DejaVuSans-31"/>
       <use xlink:href="#DejaVuSans-30" x="63.623047"/>
       <use xlink:href="#DejaVuSans-30" x="127.246094"/>
      </g>
     </g>
    </g>
    <g id="xtick_3">
     <g id="line2d_3">
      <g>
       <use xlink:href="#m5f90dd4e37" x="325.162521" y="384.48" style="stroke: #000000; stroke-width: 0.8"/>
      </g>
     </g>
     <g id="text_3">
      <!-- 200 -->
      <g transform="translate(315.618771 399.078438) scale(0.1 -0.1)">
       <defs>
        <path id="DejaVuSans-32" d="M 1228 531 
L 3431 531 
L 3431 0 
L 469 0 
L 469 531 
Q 828 903 1448 1529 
Q 2069 2156 2228 2338 
Q 2531 2678 2651 2914 
Q 2772 3150 2772 3378 
Q 2772 3750 2511 3984 
Q 2250 4219 1831 4219 
Q 1534 4219 1204 4116 
Q 875 4013 500 3803 
L 500 4441 
Q 881 4594 1212 4672 
Q 1544 4750 1819 4750 
Q 2544 4750 2975 4387 
Q 3406 4025 3406 3419 
Q 3406 3131 3298 2873 
Q 3191 2616 2906 2266 
Q 2828 2175 2409 1742 
Q 1991 1309 1228 531 
z
" transform="scale(0.015625)"/>
       </defs>
       <use xlink:href="#DejaVuSans-32"/>
       <use xlink:href="#DejaVuSans-30" x="63.623047"/>
       <use xlink:href="#DejaVuSans-30" x="127.246094"/>
      </g>
     </g>
    </g>
    <g id="xtick_4">
     <g id="line2d_4">
      <g>
       <use xlink:href="#m5f90dd4e37" x="418.5256" y="384.48" style="stroke: #000000; stroke-width: 0.8"/>
      </g>
     </g>
     <g id="text_4">
      <!-- 300 -->
      <g transform="translate(408.98185 399.078438) scale(0.1 -0.1)">
       <defs>
        <path id="DejaVuSans-33" d="M 2597 2516 
Q 3050 2419 3304 2112 
Q 3559 1806 3559 1356 
Q 3559 666 3084 287 
Q 2609 -91 1734 -91 
Q 1441 -91 1130 -33 
Q 819 25 488 141 
L 488 750 
Q 750 597 1062 519 
Q 1375 441 1716 441 
Q 2309 441 2620 675 
Q 2931 909 2931 1356 
Q 2931 1769 2642 2001 
Q 2353 2234 1838 2234 
L 1294 2234 
L 1294 2753 
L 1863 2753 
Q 2328 2753 2575 2939 
Q 2822 3125 2822 3475 
Q 2822 3834 2567 4026 
Q 2313 4219 1838 4219 
Q 1578 4219 1281 4162 
Q 984 4106 628 3988 
L 628 4550 
Q 988 4650 1302 4700 
Q 1616 4750 1894 4750 
Q 2613 4750 3031 4423 
Q 3450 4097 3450 3541 
Q 3450 3153 3228 2886 
Q 3006 2619 2597 2516 
z
" transform="scale(0.015625)"/>
       </defs>
       <use xlink:href="#DejaVuSans-33"/>
       <use xlink:href="#DejaVuSans-30" x="63.623047"/>
       <use xlink:href="#DejaVuSans-30" x="127.246094"/>
      </g>
     </g>
    </g>
    <g id="xtick_5">
     <g id="line2d_5">
      <g>
       <use xlink:href="#m5f90dd4e37" x="511.888678" y="384.48" style="stroke: #000000; stroke-width: 0.8"/>
      </g>
     </g>
     <g id="text_5">
      <!-- 400 -->
      <g transform="translate(502.344928 399.078438) scale(0.1 -0.1)">
       <defs>
        <path id="DejaVuSans-34" d="M 2419 4116 
L 825 1625 
L 2419 1625 
L 2419 4116 
z
M 2253 4666 
L 3047 4666 
L 3047 1625 
L 3713 1625 
L 3713 1100 
L 3047 1100 
L 3047 0 
L 2419 0 
L 2419 1100 
L 313 1100 
L 313 1709 
L 2253 4666 
z
" transform="scale(0.015625)"/>
       </defs>
       <use xlink:href="#DejaVuSans-34"/>
       <use xlink:href="#DejaVuSans-30" x="63.623047"/>
       <use xlink:href="#DejaVuSans-30" x="127.246094"/>
      </g>
     </g>
    </g>
    <g id="xtick_6">
     <g id="line2d_6">
      <g>
       <use xlink:href="#m5f90dd4e37" x="605.251757" y="384.48" style="stroke: #000000; stroke-width: 0.8"/>
      </g>
     </g>
     <g id="text_6">
      <!-- 500 -->
      <g transform="translate(595.708007 399.078438) scale(0.1 -0.1)">
       <defs>
        <path id="DejaVuSans-35" d="M 691 4666 
L 3169 4666 
L 3169 4134 
L 1269 4134 
L 1269 2991 
Q 1406 3038 1543 3061 
Q 1681 3084 1819 3084 
Q 2600 3084 3056 2656 
Q 3513 2228 3513 1497 
Q 3513 744 3044 326 
Q 2575 -91 1722 -91 
Q 1428 -91 1123 -41 
Q 819 9 494 109 
L 494 744 
Q 775 591 1075 516 
Q 1375 441 1709 441 
Q 2250 441 2565 725 
Q 2881 1009 2881 1497 
Q 2881 1984 2565 2268 
Q 2250 2553 1709 2553 
Q 1456 2553 1204 2497 
Q 953 2441 691 2322 
L 691 4666 
z
" transform="scale(0.015625)"/>
       </defs>
       <use xlink:href="#DejaVuSans-35"/>
       <use xlink:href="#DejaVuSans-30" x="63.623047"/>
       <use xlink:href="#DejaVuSans-30" x="127.246094"/>
      </g>
     </g>
    </g>
    <g id="xtick_7">
     <g id="line2d_7">
      <g>
       <use xlink:href="#m5f90dd4e37" x="698.614835" y="384.48" style="stroke: #000000; stroke-width: 0.8"/>
      </g>
     </g>
     <g id="text_7">
      <!-- 600 -->
      <g transform="translate(689.071085 399.078438) scale(0.1 -0.1)">
       <defs>
        <path id="DejaVuSans-36" d="M 2113 2584 
Q 1688 2584 1439 2293 
Q 1191 2003 1191 1497 
Q 1191 994 1439 701 
Q 1688 409 2113 409 
Q 2538 409 2786 701 
Q 3034 994 3034 1497 
Q 3034 2003 2786 2293 
Q 2538 2584 2113 2584 
z
M 3366 4563 
L 3366 3988 
Q 3128 4100 2886 4159 
Q 2644 4219 2406 4219 
Q 1781 4219 1451 3797 
Q 1122 3375 1075 2522 
Q 1259 2794 1537 2939 
Q 1816 3084 2150 3084 
Q 2853 3084 3261 2657 
Q 3669 2231 3669 1497 
Q 3669 778 3244 343 
Q 2819 -91 2113 -91 
Q 1303 -91 875 529 
Q 447 1150 447 2328 
Q 447 3434 972 4092 
Q 1497 4750 2381 4750 
Q 2619 4750 2861 4703 
Q 3103 4656 3366 4563 
z
" transform="scale(0.015625)"/>
       </defs>
       <use xlink:href="#DejaVuSans-36"/>
       <use xlink:href="#DejaVuSans-30" x="63.623047"/>
       <use xlink:href="#DejaVuSans-30" x="127.246094"/>
      </g>
     </g>
    </g>
    <g id="text_8">
     <!-- Sample Number -->
     <g transform="translate(402.376562 412.756563) scale(0.1 -0.1)">
      <defs>
       <path id="DejaVuSans-53" d="M 3425 4513 
L 3425 3897 
Q 3066 4069 2747 4153 
Q 2428 4238 2131 4238 
Q 1616 4238 1336 4038 
Q 1056 3838 1056 3469 
Q 1056 3159 1242 3001 
Q 1428 2844 1947 2747 
L 2328 2669 
Q 3034 2534 3370 2195 
Q 3706 1856 3706 1288 
Q 3706 609 3251 259 
Q 2797 -91 1919 -91 
Q 1588 -91 1214 -16 
Q 841 59 441 206 
L 441 856 
Q 825 641 1194 531 
Q 1563 422 1919 422 
Q 2459 422 2753 634 
Q 3047 847 3047 1241 
Q 3047 1584 2836 1778 
Q 2625 1972 2144 2069 
L 1759 2144 
Q 1053 2284 737 2584 
Q 422 2884 422 3419 
Q 422 4038 858 4394 
Q 1294 4750 2059 4750 
Q 2388 4750 2728 4690 
Q 3069 4631 3425 4513 
z
" transform="scale(0.015625)"/>
       <path id="DejaVuSans-61" d="M 2194 1759 
Q 1497 1759 1228 1600 
Q 959 1441 959 1056 
Q 959 750 1161 570 
Q 1363 391 1709 391 
Q 2188 391 2477 730 
Q 2766 1069 2766 1631 
L 2766 1759 
L 2194 1759 
z
M 3341 1997 
L 3341 0 
L 2766 0 
L 2766 531 
Q 2569 213 2275 61 
Q 1981 -91 1556 -91 
Q 1019 -91 701 211 
Q 384 513 384 1019 
Q 384 1609 779 1909 
Q 1175 2209 1959 2209 
L 2766 2209 
L 2766 2266 
Q 2766 2663 2505 2880 
Q 2244 3097 1772 3097 
Q 1472 3097 1187 3025 
Q 903 2953 641 2809 
L 641 3341 
Q 956 3463 1253 3523 
Q 1550 3584 1831 3584 
Q 2591 3584 2966 3190 
Q 3341 2797 3341 1997 
z
" transform="scale(0.015625)"/>
       <path id="DejaVuSans-6d" d="M 3328 2828 
Q 3544 3216 3844 3400 
Q 4144 3584 4550 3584 
Q 5097 3584 5394 3201 
Q 5691 2819 5691 2113 
L 5691 0 
L 5113 0 
L 5113 2094 
Q 5113 2597 4934 2840 
Q 4756 3084 4391 3084 
Q 3944 3084 3684 2787 
Q 3425 2491 3425 1978 
L 3425 0 
L 2847 0 
L 2847 2094 
Q 2847 2600 2669 2842 
Q 2491 3084 2119 3084 
Q 1678 3084 1418 2786 
Q 1159 2488 1159 1978 
L 1159 0 
L 581 0 
L 581 3500 
L 1159 3500 
L 1159 2956 
Q 1356 3278 1631 3431 
Q 1906 3584 2284 3584 
Q 2666 3584 2933 3390 
Q 3200 3197 3328 2828 
z
" transform="scale(0.015625)"/>
       <path id="DejaVuSans-70" d="M 1159 525 
L 1159 -1331 
L 581 -1331 
L 581 3500 
L 1159 3500 
L 1159 2969 
Q 1341 3281 1617 3432 
Q 1894 3584 2278 3584 
Q 2916 3584 3314 3078 
Q 3713 2572 3713 1747 
Q 3713 922 3314 415 
Q 2916 -91 2278 -91 
Q 1894 -91 1617 61 
Q 1341 213 1159 525 
z
M 3116 1747 
Q 3116 2381 2855 2742 
Q 2594 3103 2138 3103 
Q 1681 3103 1420 2742 
Q 1159 2381 1159 1747 
Q 1159 1113 1420 752 
Q 1681 391 2138 391 
Q 2594 391 2855 752 
Q 3116 1113 3116 1747 
z
" transform="scale(0.015625)"/>
       <path id="DejaVuSans-6c" d="M 603 4863 
L 1178 4863 
L 1178 0 
L 603 0 
L 603 4863 
z
" transform="scale(0.015625)"/>
       <path id="DejaVuSans-65" d="M 3597 1894 
L 3597 1613 
L 953 1613 
Q 991 1019 1311 708 
Q 1631 397 2203 397 
Q 2534 397 2845 478 
Q 3156 559 3463 722 
L 3463 178 
Q 3153 47 2828 -22 
Q 2503 -91 2169 -91 
Q 1331 -91 842 396 
Q 353 884 353 1716 
Q 353 2575 817 3079 
Q 1281 3584 2069 3584 
Q 2775 3584 3186 3129 
Q 3597 2675 3597 1894 
z
M 3022 2063 
Q 3016 2534 2758 2815 
Q 2500 3097 2075 3097 
Q 1594 3097 1305 2825 
Q 1016 2553 972 2059 
L 3022 2063 
z
" transform="scale(0.015625)"/>
       <path id="DejaVuSans-20" transform="scale(0.015625)"/>
       <path id="DejaVuSans-4e" d="M 628 4666 
L 1478 4666 
L 3547 763 
L 3547 4666 
L 4159 4666 
L 4159 0 
L 3309 0 
L 1241 3903 
L 1241 0 
L 628 0 
L 628 4666 
z
" transform="scale(0.015625)"/>
       <path id="DejaVuSans-75" d="M 544 1381 
L 544 3500 
L 1119 3500 
L 1119 1403 
Q 1119 906 1312 657 
Q 1506 409 1894 409 
Q 2359 409 2629 706 
Q 2900 1003 2900 1516 
L 2900 3500 
L 3475 3500 
L 3475 0 
L 2900 0 
L 2900 538 
Q 2691 219 2414 64 
Q 2138 -91 1772 -91 
Q 1169 -91 856 284 
Q 544 659 544 1381 
z
M 1991 3584 
L 1991 3584 
z
" transform="scale(0.015625)"/>
       <path id="DejaVuSans-62" d="M 3116 1747 
Q 3116 2381 2855 2742 
Q 2594 3103 2138 3103 
Q 1681 3103 1420 2742 
Q 1159 2381 1159 1747 
Q 1159 1113 1420 752 
Q 1681 391 2138 391 
Q 2594 391 2855 752 
Q 3116 1113 3116 1747 
z
M 1159 2969 
Q 1341 3281 1617 3432 
Q 1894 3584 2278 3584 
Q 2916 3584 3314 3078 
Q 3713 2572 3713 1747 
Q 3713 922 3314 415 
Q 2916 -91 2278 -91 
Q 1894 -91 1617 61 
Q 1341 213 1159 525 
L 1159 0 
L 581 0 
L 581 4863 
L 1159 4863 
L 1159 2969 
z
" transform="scale(0.015625)"/>
       <path id="DejaVuSans-72" d="M 2631 2963 
Q 2534 3019 2420 3045 
Q 2306 3072 2169 3072 
Q 1681 3072 1420 2755 
Q 1159 2438 1159 1844 
L 1159 0 
L 581 0 
L 581 3500 
L 1159 3500 
L 1159 2956 
Q 1341 3275 1631 3429 
Q 1922 3584 2338 3584 
Q 2397 3584 2469 3576 
Q 2541 3569 2628 3553 
L 2631 2963 
z
" transform="scale(0.015625)"/>
      </defs>
      <use xlink:href="#DejaVuSans-53"/>
      <use xlink:href="#DejaVuSans-61" x="63.476562"/>
      <use xlink:href="#DejaVuSans-6d" x="124.755859"/>
      <use xlink:href="#DejaVuSans-70" x="222.167969"/>
      <use xlink:href="#DejaVuSans-6c" x="285.644531"/>
      <use xlink:href="#DejaVuSans-65" x="313.427734"/>
      <use xlink:href="#DejaVuSans-20" x="374.951172"/>
      <use xlink:href="#DejaVuSans-4e" x="406.738281"/>
      <use xlink:href="#DejaVuSans-75" x="481.542969"/>
      <use xlink:href="#DejaVuSans-6d" x="544.921875"/>
      <use xlink:href="#DejaVuSans-62" x="642.333984"/>
      <use xlink:href="#DejaVuSans-65" x="705.810547"/>
      <use xlink:href="#DejaVuSans-72" x="767.333984"/>
     </g>
    </g>
   </g>
   <g id="matplotlib.axis_2">
    <g id="ytick_1">
     <g id="line2d_8">
      <defs>
       <path id="m876d2daf74" d="M 0 0 
L -3.5 0 
" style="stroke: #000000; stroke-width: 0.8"/>
      </defs>
      <g>
       <use xlink:href="#m876d2daf74" x="108" y="338.655579" style="stroke: #000000; stroke-width: 0.8"/>
      </g>
     </g>
     <g id="text_9">
      <!-- 0 -->
      <g transform="translate(94.6375 342.454798) scale(0.1 -0.1)">
       <use xlink:href="#DejaVuSans-30"/>
      </g>
     </g>
    </g>
    <g id="ytick_2">
     <g id="line2d_9">
      <g>
       <use xlink:href="#m876d2daf74" x="108" y="276.95146" style="stroke: #000000; stroke-width: 0.8"/>
      </g>
     </g>
     <g id="text_10">
      <!-- 5 -->
      <g transform="translate(94.6375 280.750679) scale(0.1 -0.1)">
       <use xlink:href="#DejaVuSans-35"/>
      </g>
     </g>
    </g>
    <g id="ytick_3">
     <g id="line2d_10">
      <g>
       <use xlink:href="#m876d2daf74" x="108" y="215.24734" style="stroke: #000000; stroke-width: 0.8"/>
      </g>
     </g>
     <g id="text_11">
      <!-- 10 -->
      <g transform="translate(88.275 219.046559) scale(0.1 -0.1)">
       <use xlink:href="#DejaVuSans-31"/>
       <use xlink:href="#DejaVuSans-30" x="63.623047"/>
      </g>
     </g>
    </g>
    <g id="ytick_4">
     <g id="line2d_11">
      <g>
       <use xlink:href="#m876d2daf74" x="108" y="153.543221" style="stroke: #000000; stroke-width: 0.8"/>
      </g>
     </g>
     <g id="text_12">
      <!-- 15 -->
      <g transform="translate(88.275 157.342439) scale(0.1 -0.1)">
       <use xlink:href="#DejaVuSans-31"/>
       <use xlink:href="#DejaVuSans-35" x="63.623047"/>
      </g>
     </g>
    </g>
    <g id="ytick_5">
     <g id="line2d_12">
      <g>
       <use xlink:href="#m876d2daf74" x="108" y="91.839101" style="stroke: #000000; stroke-width: 0.8"/>
      </g>
     </g>
     <g id="text_13">
      <!-- 20 -->
      <g transform="translate(88.275 95.63832) scale(0.1 -0.1)">
       <use xlink:href="#DejaVuSans-32"/>
       <use xlink:href="#DejaVuSans-30" x="63.623047"/>
      </g>
     </g>
    </g>
    <g id="text_14">
     <!-- Magnetism -->
     <g transform="translate(82.195312 245.781875) rotate(-90) scale(0.1 -0.1)">
      <defs>
       <path id="DejaVuSans-4d" d="M 628 4666 
L 1569 4666 
L 2759 1491 
L 3956 4666 
L 4897 4666 
L 4897 0 
L 4281 0 
L 4281 4097 
L 3078 897 
L 2444 897 
L 1241 4097 
L 1241 0 
L 628 0 
L 628 4666 
z
" transform="scale(0.015625)"/>
       <path id="DejaVuSans-67" d="M 2906 1791 
Q 2906 2416 2648 2759 
Q 2391 3103 1925 3103 
Q 1463 3103 1205 2759 
Q 947 2416 947 1791 
Q 947 1169 1205 825 
Q 1463 481 1925 481 
Q 2391 481 2648 825 
Q 2906 1169 2906 1791 
z
M 3481 434 
Q 3481 -459 3084 -895 
Q 2688 -1331 1869 -1331 
Q 1566 -1331 1297 -1286 
Q 1028 -1241 775 -1147 
L 775 -588 
Q 1028 -725 1275 -790 
Q 1522 -856 1778 -856 
Q 2344 -856 2625 -561 
Q 2906 -266 2906 331 
L 2906 616 
Q 2728 306 2450 153 
Q 2172 0 1784 0 
Q 1141 0 747 490 
Q 353 981 353 1791 
Q 353 2603 747 3093 
Q 1141 3584 1784 3584 
Q 2172 3584 2450 3431 
Q 2728 3278 2906 2969 
L 2906 3500 
L 3481 3500 
L 3481 434 
z
" transform="scale(0.015625)"/>
       <path id="DejaVuSans-6e" d="M 3513 2113 
L 3513 0 
L 2938 0 
L 2938 2094 
Q 2938 2591 2744 2837 
Q 2550 3084 2163 3084 
Q 1697 3084 1428 2787 
Q 1159 2491 1159 1978 
L 1159 0 
L 581 0 
L 581 3500 
L 1159 3500 
L 1159 2956 
Q 1366 3272 1645 3428 
Q 1925 3584 2291 3584 
Q 2894 3584 3203 3211 
Q 3513 2838 3513 2113 
z
" transform="scale(0.015625)"/>
       <path id="DejaVuSans-74" d="M 1172 4494 
L 1172 3500 
L 2356 3500 
L 2356 3053 
L 1172 3053 
L 1172 1153 
Q 1172 725 1289 603 
Q 1406 481 1766 481 
L 2356 481 
L 2356 0 
L 1766 0 
Q 1100 0 847 248 
Q 594 497 594 1153 
L 594 3053 
L 172 3053 
L 172 3500 
L 594 3500 
L 594 4494 
L 1172 4494 
z
" transform="scale(0.015625)"/>
       <path id="DejaVuSans-69" d="M 603 3500 
L 1178 3500 
L 1178 0 
L 603 0 
L 603 3500 
z
M 603 4863 
L 1178 4863 
L 1178 4134 
L 603 4134 
L 603 4863 
z
" transform="scale(0.015625)"/>
       <path id="DejaVuSans-73" d="M 2834 3397 
L 2834 2853 
Q 2591 2978 2328 3040 
Q 2066 3103 1784 3103 
Q 1356 3103 1142 2972 
Q 928 2841 928 2578 
Q 928 2378 1081 2264 
Q 1234 2150 1697 2047 
L 1894 2003 
Q 2506 1872 2764 1633 
Q 3022 1394 3022 966 
Q 3022 478 2636 193 
Q 2250 -91 1575 -91 
Q 1294 -91 989 -36 
Q 684 19 347 128 
L 347 722 
Q 666 556 975 473 
Q 1284 391 1588 391 
Q 1994 391 2212 530 
Q 2431 669 2431 922 
Q 2431 1156 2273 1281 
Q 2116 1406 1581 1522 
L 1381 1569 
Q 847 1681 609 1914 
Q 372 2147 372 2553 
Q 372 3047 722 3315 
Q 1072 3584 1716 3584 
Q 2034 3584 2315 3537 
Q 2597 3491 2834 3397 
z
" transform="scale(0.015625)"/>
      </defs>
      <use xlink:href="#DejaVuSans-4d"/>
      <use xlink:href="#DejaVuSans-61" x="86.279297"/>
      <use xlink:href="#DejaVuSans-67" x="147.558594"/>
      <use xlink:href="#DejaVuSans-6e" x="211.035156"/>
      <use xlink:href="#DejaVuSans-65" x="274.414062"/>
      <use xlink:href="#DejaVuSans-74" x="335.9375"/>
      <use xlink:href="#DejaVuSans-69" x="375.146484"/>
      <use xlink:href="#DejaVuSans-73" x="402.929688"/>
      <use xlink:href="#DejaVuSans-6d" x="455.029297"/>
     </g>
    </g>
   </g>
   <g id="line2d_13">
    <path d="M 161.777133 384.48 
L 161.777133 51.84 
" clip-path="url(#pe380ee643e)" style="fill: none; stroke-dasharray: 5.55,2.4; stroke-dashoffset: 0; stroke: #008000; stroke-width: 1.5"/>
   </g>
   <g id="line2d_14">
    <path d="M 448.401785 384.48 
L 448.401785 51.84 
" clip-path="url(#pe380ee643e)" style="fill: none; stroke-dasharray: 5.55,2.4; stroke-dashoffset: 0; stroke: #008000; stroke-width: 1.5"/>
   </g>
   <g id="line2d_15">
    <path d="M 138.436364 363.485317 
L 139.369994 362.140167 
L 140.303625 357.425973 
L 141.237256 356.697864 
L 142.170887 356.574456 
L 143.104518 353.464568 
L 144.038148 352.798164 
L 144.971779 352.58837 
L 145.90541 352.501984 
L 146.839041 343.76468 
L 148.706302 343.76468 
L 149.639933 343.505523 
L 150.573564 343.505523 
L 151.507195 343.271048 
L 152.440825 343.271048 
L 153.374456 342.542939 
L 154.308087 341.456946 
L 155.241718 341.456946 
L 156.175349 339.939025 
L 157.108979 339.457733 
L 158.04261 339.161553 
L 158.976241 339.136871 
L 162.710764 338.655579 
L 449.335416 338.593875 
L 450.269046 338.310036 
L 452.136308 338.124924 
L 454.003569 338.100242 
L 454.9372 337.754699 
L 456.804462 337.594269 
L 460.538985 336.915523 
L 461.472616 336.816797 
L 462.406247 336.471254 
L 464.273508 336.310823 
L 465.207139 335.96528 
L 466.14077 335.200149 
L 468.941662 334.780561 
L 469.875293 334.743538 
L 470.808924 334.373313 
L 471.742554 334.249905 
L 472.676185 333.929044 
L 474.543447 333.509456 
L 475.477078 333.497115 
L 476.410708 333.200935 
L 477.344339 333.176254 
L 478.27797 332.127284 
L 480.145231 331.831104 
L 481.078862 330.584681 
L 482.012493 330.57234 
L 482.946124 330.387227 
L 483.879755 330.337864 
L 484.813385 330.029343 
L 485.747016 329.967639 
L 488.547909 327.943744 
L 489.481539 327.869699 
L 490.41517 327.388407 
L 491.348801 327.27734 
L 492.282432 326.98116 
L 493.216062 326.931797 
L 495.083324 326.549231 
L 496.950586 326.512209 
L 497.884216 325.500261 
L 498.817847 325.216422 
L 499.751478 325.055991 
L 500.685109 324.13043 
L 501.61874 324.007021 
L 503.486001 322.242284 
L 504.419632 322.242284 
L 507.220524 321.723969 
L 508.154155 321.723969 
L 509.087786 321.563538 
L 510.955047 321.44013 
L 512.822309 320.798407 
L 514.689571 320.588613 
L 515.623201 320.218388 
L 516.556832 320.045617 
L 517.490463 319.613688 
L 519.357724 319.144737 
L 520.291355 317.898314 
L 521.224986 317.108501 
L 522.158617 315.960804 
L 523.092248 313.887546 
L 524.025878 313.566684 
L 524.959509 309.494212 
L 526.826771 309.494212 
L 527.760402 308.531628 
L 528.694032 308.40822 
L 529.627663 308.40822 
L 530.561294 307.754156 
L 532.428555 307.581385 
L 533.362186 307.581385 
L 534.295817 307.075411 
L 535.229448 306.865617 
L 536.163079 306.865617 
L 537.096709 306.446029 
L 538.03034 306.322621 
L 538.963971 306.001759 
L 540.831233 305.927714 
L 541.764863 305.162583 
L 542.698494 304.829381 
L 544.565756 304.693632 
L 545.499387 304.113613 
L 546.433017 302.385898 
L 548.300279 302.311853 
L 549.23391 301.028407 
L 551.101171 301.028407 
L 552.034802 300.238595 
L 552.968433 298.807059 
L 553.902064 297.708726 
L 554.835694 296.042714 
L 555.769325 295.549081 
L 556.702956 294.487771 
L 557.636587 294.463089 
L 558.570218 293.475823 
L 559.503848 293.019213 
L 562.304741 292.969849 
L 563.238371 292.52558 
L 566.039264 292.266422 
L 566.972895 292.068969 
L 567.906525 292.068969 
L 568.840156 291.266816 
L 569.773787 290.773183 
L 570.707418 290.773183 
L 571.641049 289.304625 
L 572.574679 288.78631 
L 573.50831 286.922845 
L 574.441941 286.873482 
L 576.309202 286.564962 
L 578.176464 283.615505 
L 579.110095 283.39337 
L 580.043726 282.381422 
L 581.910987 282.381422 
L 582.844618 281.789063 
L 583.778249 281.44352 
L 585.64551 280.024325 
L 586.579141 278.913651 
L 587.512772 278.30895 
L 588.446403 276.988482 
L 589.380033 276.297396 
L 590.313664 276.06292 
L 593.114557 274.643726 
L 594.048187 273.730505 
L 594.981818 273.681141 
L 596.84908 273.125804 
L 597.782711 273.125804 
L 598.716341 272.743239 
L 600.583603 272.743239 
L 601.517234 272.410037 
L 602.450864 270.324437 
L 603.384495 269.966553 
L 604.318126 268.103089 
L 605.251757 267.288595 
L 607.119018 267.202209 
L 608.052649 264.018276 
L 609.919911 263.91955 
L 613.654434 263.91955 
L 614.588065 263.1791 
L 615.521695 261.895655 
L 616.455326 260.93307 
L 617.388957 260.93307 
L 618.322588 259.859419 
L 619.256219 259.464512 
L 620.189849 258.489587 
L 621.12348 256.959325 
L 622.990742 255.737583 
L 628.592526 255.737583 
L 629.526157 255.009475 
L 630.459788 253.553258 
L 631.393419 252.83749 
L 632.32705 248.876085 
L 633.26068 248.505861 
L 634.194311 248.505861 
L 635.127942 247.975205 
L 636.061573 247.061984 
L 637.928834 246.815168 
L 638.862465 246.358557 
L 639.796096 242.705673 
L 640.729727 242.705673 
L 641.663358 240.225168 
L 642.596988 239.447696 
L 643.530619 239.06513 
L 645.397881 238.75661 
L 646.331511 238.75661 
L 647.265142 238.337022 
L 648.198773 238.16425 
L 649.132404 237.55955 
L 650.999665 234.930954 
L 651.933296 233.832621 
L 652.866927 230.352509 
L 653.800558 228.168183 
L 654.734189 224.799138 
L 656.60145 224.749775 
L 658.468712 224.095711 
L 659.402342 222.071816 
L 660.335973 222.059475 
L 661.269604 219.924512 
L 662.203235 218.616385 
L 665.004127 218.492977 
L 665.937758 217.690823 
L 666.871389 217.308258 
L 667.80502 216.14822 
L 668.73865 214.519232 
L 669.672281 214.371142 
L 670.605912 213.7541 
L 671.539543 211.273595 
L 672.473173 210.434419 
L 673.406804 210.286329 
L 674.340435 208.731385 
L 675.274066 207.978595 
L 676.207697 205.189569 
L 677.141327 204.486142 
L 678.074958 203.523557 
L 679.008589 203.474194 
L 679.94222 202.770767 
L 680.875851 200.438351 
L 681.809481 199.574494 
L 682.743112 199.488108 
L 683.676743 199.031498 
L 684.610374 199.031498 
L 685.544004 198.513183 
L 686.477635 198.513183 
L 687.411266 198.389775 
L 688.344897 197.945505 
L 689.278528 197.933164 
L 690.212158 197.464213 
L 691.145789 196.353539 
L 692.07942 191.318483 
L 693.013051 190.466966 
L 693.946682 187.307715 
L 695.813943 187.246011 
L 696.747574 184.494007 
L 697.681205 183.519082 
L 699.548466 183.519082 
L 700.482097 179.175112 
L 701.415728 178.175505 
L 702.349359 177.694213 
L 703.282989 177.607827 
L 704.21662 177.249943 
L 705.150251 176.657584 
L 707.017513 174.251123 
L 707.951143 171.758277 
L 708.884774 171.758277 
L 709.818405 170.00588 
L 710.752036 169.845449 
L 712.619297 169.845449 
L 713.552928 167.587078 
L 714.486559 166.056816 
L 715.42019 165.612546 
L 716.35382 163.773764 
L 717.287451 162.379251 
L 719.154713 162.379251 
L 720.088344 159.67661 
L 721.021974 159.67661 
L 721.955605 159.331067 
L 722.889236 158.849775 
L 723.822867 157.714419 
L 724.756497 152.987884 
L 726.623759 152.975543 
L 727.55739 148.199644 
L 728.491021 147.891123 
L 729.424651 146.434906 
L 730.358282 137.969101 
L 731.291913 137.265674 
L 733.159175 134.118764 
L 734.092805 130.342472 
L 735.026436 128.133464 
L 735.960067 128.133464 
L 736.893698 127.676854 
L 737.827328 123.962266 
L 738.760959 111.633783 
L 739.69459 110.387359 
L 740.628221 100.107453 
L 741.561852 91.629307 
L 742.495482 90.605019 
L 743.429113 89.975637 
L 744.362744 89.975637 
L 745.296375 88.729213 
L 746.230006 86.754682 
L 747.163636 66.96 
L 747.163636 66.96 
" clip-path="url(#pe380ee643e)" style="fill: none; stroke: #ff0000; stroke-width: 0.5; stroke-linecap: square"/>
   </g>
   <g id="line2d_16">
    <path d="M 138.436364 341.252291 
L 139.369994 338.691459 
L 140.303625 338.134273 
L 141.237256 347.433204 
L 142.170887 343.797189 
L 143.104518 345.247944 
L 144.038148 367.592899 
L 144.971779 340.031331 
L 145.90541 369.36 
L 146.839041 341.263645 
L 150.573564 341.263645 
L 151.507195 338.655086 
L 152.440825 338.655579 
L 153.374456 338.134273 
L 154.308087 338.344445 
L 155.241718 338.344445 
L 156.175349 338.593531 
L 157.108979 340.267225 
L 158.04261 338.655579 
L 158.976241 338.618502 
L 159.909872 338.467956 
L 160.843503 339.118758 
L 161.777133 338.655579 
L 163.644395 338.655579 
L 164.578026 345.247944 
L 165.511656 338.655579 
L 189.786057 338.655011 
L 190.719688 336.10223 
L 191.653318 338.655579 
L 195.387842 338.655579 
L 196.321472 338.252114 
L 197.255103 338.655579 
L 201.923257 338.655579 
L 202.856888 338.047789 
L 203.790519 338.655579 
L 222.463134 338.655579 
L 223.396765 340.267225 
L 224.330396 338.655011 
L 234.600335 338.655579 
L 235.533965 339.924971 
L 236.467596 338.655579 
L 239.268489 338.655579 
L 240.202119 341.263645 
L 241.13575 338.655579 
L 250.472058 338.655579 
L 251.405689 339.118758 
L 252.33932 338.655579 
L 264.47652 338.655579 
L 265.410151 338.047789 
L 266.343781 338.655579 
L 271.011935 338.655579 
L 271.945566 342.196673 
L 272.879197 338.655579 
L 312.09169 338.655579 
L 313.025321 336.371395 
L 313.958951 338.655579 
L 328.897044 338.655579 
L 329.830675 341.263645 
L 330.764306 338.655579 
L 334.498829 338.655579 
L 335.43246 336.702155 
L 336.36609 338.655579 
L 343.835137 338.655579 
L 344.768767 337.738532 
L 345.702398 338.655579 
L 357.839598 338.655579 
L 358.773229 339.91744 
L 359.70686 338.655579 
L 373.711322 338.66481 
L 374.644953 342.196673 
L 375.578583 338.655579 
L 376.512214 339.924971 
L 377.445845 338.655579 
L 402.653876 338.655579 
L 403.587507 343.934061 
L 404.521138 338.655579 
L 418.5256 338.655579 
L 419.45923 341.263645 
L 420.392861 338.655579 
L 425.061015 338.652299 
L 425.994646 341.263645 
L 426.928277 338.655579 
L 428.795538 338.655579 
L 429.729169 366.87789 
L 430.6628 338.655579 
L 432.530061 338.655579 
L 433.463692 336.963398 
L 434.397323 338.655579 
L 445.600892 338.655579 
L 446.534523 341.263645 
L 447.468154 338.655579 
L 448.401785 338.619162 
L 449.335416 321.208556 
L 450.269046 338.467956 
L 451.202677 330.269541 
L 452.136308 337.578291 
L 453.069939 338.467956 
L 454.9372 338.615502 
L 455.870831 337.567053 
L 456.804462 333.928276 
L 457.738093 334.930328 
L 458.671723 330.25848 
L 459.605354 337.045603 
L 461.472616 337.045603 
L 462.406247 339.118758 
L 463.339877 338.467956 
L 464.273508 328.669145 
L 465.207139 335.410167 
L 466.14077 335.158294 
L 467.0744 333.928276 
L 468.008031 334.081791 
L 468.941662 334.89575 
L 469.875293 333.928276 
L 470.808924 340.576202 
L 471.742554 338.593531 
L 472.676185 335.424323 
L 473.609816 333.571406 
L 474.543447 325.013594 
L 475.477078 333.928276 
L 476.410708 337.424265 
L 477.344339 350.272691 
L 478.27797 320.200003 
L 479.211601 330.25848 
L 480.145231 330.25848 
L 481.078862 329.65549 
L 482.012493 327.615354 
L 482.946124 338.364486 
L 483.879755 327.615354 
L 484.813385 321.522674 
L 485.747016 338.655579 
L 486.680647 330.25848 
L 487.614278 330.25848 
L 488.547909 328.156947 
L 489.481539 320.473506 
L 490.41517 338.638566 
L 491.348801 330.25848 
L 492.282432 320.211743 
L 494.149693 326.600013 
L 495.083324 305.669536 
L 496.016955 314.230666 
L 496.950586 326.795956 
L 497.884216 331.420455 
L 498.817847 330.25848 
L 499.751478 326.886559 
L 500.685109 291.574434 
L 501.61874 324.292204 
L 502.55237 315.755572 
L 503.486001 320.473506 
L 504.419632 321.522674 
L 505.353263 336.813855 
L 506.286893 319.453014 
L 507.220524 334.572787 
L 508.154155 321.529059 
L 509.087786 321.569638 
L 510.021417 326.826647 
L 510.955047 324.924094 
L 511.888678 324.292204 
L 512.822309 340.417583 
L 513.75594 313.939639 
L 514.689571 321.569638 
L 515.623201 324.924094 
L 516.556832 319.453014 
L 517.490463 321.344021 
L 518.424094 309.61354 
L 519.357724 319.453014 
L 520.291355 291.247295 
L 521.224986 289.021909 
L 522.158617 306.442447 
L 523.092248 313.892408 
L 524.025878 338.638566 
L 524.959509 312.740659 
L 525.89314 312.740659 
L 526.826771 313.051001 
L 527.760402 307.263711 
L 528.694032 308.918078 
L 529.627663 313.051001 
L 530.561294 315.797867 
L 531.494925 258.234869 
L 532.428555 308.918078 
L 533.362186 312.740659 
L 534.295817 321.522674 
L 535.229448 308.446326 
L 536.163079 307.263711 
L 537.096709 324.924094 
L 538.963971 301.61404 
L 539.897602 305.669536 
L 540.831233 302.949118 
L 541.764863 304.310645 
L 542.698494 289.426646 
L 543.632125 301.61404 
L 544.565756 305.969781 
L 545.499387 301.61404 
L 546.433017 303.436237 
L 547.366648 296.569705 
L 548.300279 298.463749 
L 549.23391 299.858954 
L 550.16754 296.243285 
L 551.101171 296.743461 
L 552.034802 301.61404 
L 552.968433 303.436237 
L 553.902064 301.61404 
L 554.835694 298.463749 
L 555.769325 291.574434 
L 556.702956 293.207921 
L 557.636587 293.207921 
L 558.570218 299.858954 
L 559.503848 293.207921 
L 562.304741 293.207921 
L 563.238371 285.205787 
L 564.172002 282.395413 
L 565.105633 288.409081 
L 566.039264 293.244408 
L 566.972895 301.61404 
L 567.906525 299.603875 
L 568.840156 281.043107 
L 569.773787 293.207921 
L 571.641049 293.211409 
L 572.574679 265.315093 
L 573.50831 253.879564 
L 574.441941 240.022147 
L 575.375572 278.048048 
L 576.309202 261.308165 
L 577.242833 260.604096 
L 578.176464 292.055972 
L 579.110095 281.043107 
L 580.043726 287.698216 
L 580.977356 285.205787 
L 581.910987 287.698216 
L 582.844618 281.391177 
L 583.778249 273.019022 
L 584.71188 285.488906 
L 585.64551 281.791445 
L 586.579141 224.868176 
L 587.512772 255.636903 
L 588.446403 267.397097 
L 589.380033 288.608463 
L 590.313664 208.435501 
L 591.247295 221.583651 
L 592.180926 256.081088 
L 593.114557 208.435501 
L 594.048187 274.703623 
L 594.981818 250.103135 
L 595.915449 273.019022 
L 596.84908 277.333413 
L 597.782711 277.333413 
L 598.716341 274.703623 
L 599.649972 278.048048 
L 600.583603 278.048048 
L 601.517234 184.626422 
L 602.450864 270.094372 
L 603.384495 270.027588 
L 604.318126 276.942898 
L 605.251757 249.973715 
L 606.185388 277.333413 
L 607.119018 265.54532 
L 608.052649 269.564777 
L 608.98628 265.315093 
L 609.919911 265.315093 
L 610.853542 255.636903 
L 611.787172 265.315093 
L 613.654434 265.315093 
L 614.588065 228.307868 
L 615.521695 258.914355 
L 616.455326 260.353137 
L 617.388957 266.573645 
L 618.322588 258.429395 
L 619.256219 260.604096 
L 620.189849 266.729358 
L 621.12348 242.838005 
L 622.057111 234.616216 
L 622.990742 265.315093 
L 628.592526 265.315093 
L 630.459788 252.556148 
L 631.393419 240.515236 
L 632.32705 252.556148 
L 633.26068 256.081088 
L 634.194311 250.744783 
L 635.127942 227.236428 
L 636.061573 280.025788 
L 636.995204 235.068478 
L 637.928834 234.616216 
L 638.862465 232.173214 
L 639.796096 258.429395 
L 640.729727 245.038415 
L 641.663358 233.30006 
L 642.596988 249.973715 
L 643.530619 228.622262 
L 644.46425 273.085314 
L 645.397881 261.311715 
L 646.331511 225.409797 
L 647.265142 250.744783 
L 648.198773 269.929154 
L 649.132404 254.101703 
L 650.066035 250.744783 
L 650.999665 279.301776 
L 651.933296 232.801063 
L 652.866927 255.747652 
L 653.800558 249.496989 
L 654.734189 235.455695 
L 656.60145 235.455695 
L 657.535081 235.601 
L 658.468712 235.068478 
L 659.402342 217.038702 
L 660.335973 221.903938 
L 661.269604 202.03692 
L 662.203235 219.87821 
L 663.136866 255.632145 
L 664.070496 265.43178 
L 665.004127 230.121862 
L 665.937758 235.068478 
L 666.871389 207.980567 
L 667.80502 249.671102 
L 668.73865 218.919799 
L 669.672281 172.523222 
L 670.605912 225.879104 
L 671.539543 230.121862 
L 672.473173 227.282298 
L 673.406804 209.662567 
L 674.340435 227.282298 
L 675.274066 147.677733 
L 676.207697 245.141468 
L 677.141327 200.76445 
L 678.074958 219.87821 
L 679.008589 163.262835 
L 679.94222 212.772 
L 680.875851 199.988159 
L 681.809481 200.76445 
L 682.743112 199.017923 
L 683.676743 212.748583 
L 684.610374 206.417349 
L 685.544004 212.748583 
L 686.477635 206.417349 
L 687.411266 219.87821 
L 688.344897 199.631573 
L 689.278528 219.87821 
L 690.212158 219.87821 
L 691.145789 200.76445 
L 692.07942 203.510096 
L 693.013051 163.573287 
L 693.946682 190.898485 
L 694.880312 186.074509 
L 695.813943 188.204113 
L 696.747574 228.03359 
L 697.681205 184.626422 
L 698.614835 184.626422 
L 699.548466 228.424081 
L 700.482097 163.262835 
L 701.415728 182.869847 
L 702.349359 170.193709 
L 703.282989 144.966248 
L 704.21662 170.540306 
L 705.150251 176.463876 
L 706.083882 175.000398 
L 707.017513 175.000398 
L 707.951143 203.691544 
L 708.884774 173.425327 
L 709.818405 225.967204 
L 710.752036 197.393727 
L 711.685666 164.982396 
L 712.619297 164.982396 
L 713.552928 240.596303 
L 714.486559 165.090653 
L 715.42019 165.663884 
L 716.35382 162.560459 
L 717.287451 155.975957 
L 718.221082 165.012198 
L 719.154713 155.975957 
L 720.088344 159.362044 
L 721.021974 88.159372 
L 721.955605 245.141468 
L 722.889236 245.141468 
L 723.822867 143.057003 
L 724.756497 217.038702 
L 726.623759 217.038702 
L 727.55739 240.022147 
L 728.491021 148.57552 
L 729.424651 164.982396 
L 730.358282 151.410089 
L 731.291913 136.149365 
L 732.225544 135.492421 
L 733.159175 136.149365 
L 734.092805 130.722215 
L 735.026436 240.80961 
L 735.960067 129.126333 
L 736.893698 144.966248 
L 737.827328 175.707705 
L 738.760959 160.582153 
L 739.69459 160.582153 
L 740.628221 104.477415 
L 741.561852 81.27782 
L 742.495482 91.173668 
L 743.429113 91.004201 
L 744.362744 171.103683 
L 745.296375 91.004201 
L 746.230006 189.339968 
L 747.163636 161.811222 
L 747.163636 161.811222 
" clip-path="url(#pe380ee643e)" style="fill: none; stroke: #1f77b4; stroke-width: 0.5; stroke-linecap: square"/>
   </g>
   <g id="patch_3">
    <path d="M 108 384.48 
L 108 51.84 
" style="fill: none; stroke: #000000; stroke-width: 0.8; stroke-linejoin: miter; stroke-linecap: square"/>
   </g>
   <g id="patch_4">
    <path d="M 777.6 384.48 
L 777.6 51.84 
" style="fill: none; stroke: #000000; stroke-width: 0.8; stroke-linejoin: miter; stroke-linecap: square"/>
   </g>
   <g id="patch_5">
    <path d="M 108 384.48 
L 777.6 384.48 
" style="fill: none; stroke: #000000; stroke-width: 0.8; stroke-linejoin: miter; stroke-linecap: square"/>
   </g>
   <g id="patch_6">
    <path d="M 108 51.84 
L 777.6 51.84 
" style="fill: none; stroke: #000000; stroke-width: 0.8; stroke-linejoin: miter; stroke-linecap: square"/>
   </g>
   <g id="text_15">
    <!-- 2956 samples predictions -->
    <g transform="translate(365.55 45.84) scale(0.12 -0.12)">
     <defs>
      <path id="DejaVuSans-39" d="M 703 97 
L 703 672 
Q 941 559 1184 500 
Q 1428 441 1663 441 
Q 2288 441 2617 861 
Q 2947 1281 2994 2138 
Q 2813 1869 2534 1725 
Q 2256 1581 1919 1581 
Q 1219 1581 811 2004 
Q 403 2428 403 3163 
Q 403 3881 828 4315 
Q 1253 4750 1959 4750 
Q 2769 4750 3195 4129 
Q 3622 3509 3622 2328 
Q 3622 1225 3098 567 
Q 2575 -91 1691 -91 
Q 1453 -91 1209 -44 
Q 966 3 703 97 
z
M 1959 2075 
Q 2384 2075 2632 2365 
Q 2881 2656 2881 3163 
Q 2881 3666 2632 3958 
Q 2384 4250 1959 4250 
Q 1534 4250 1286 3958 
Q 1038 3666 1038 3163 
Q 1038 2656 1286 2365 
Q 1534 2075 1959 2075 
z
" transform="scale(0.015625)"/>
      <path id="DejaVuSans-64" d="M 2906 2969 
L 2906 4863 
L 3481 4863 
L 3481 0 
L 2906 0 
L 2906 525 
Q 2725 213 2448 61 
Q 2172 -91 1784 -91 
Q 1150 -91 751 415 
Q 353 922 353 1747 
Q 353 2572 751 3078 
Q 1150 3584 1784 3584 
Q 2172 3584 2448 3432 
Q 2725 3281 2906 2969 
z
M 947 1747 
Q 947 1113 1208 752 
Q 1469 391 1925 391 
Q 2381 391 2643 752 
Q 2906 1113 2906 1747 
Q 2906 2381 2643 2742 
Q 2381 3103 1925 3103 
Q 1469 3103 1208 2742 
Q 947 2381 947 1747 
z
" transform="scale(0.015625)"/>
      <path id="DejaVuSans-63" d="M 3122 3366 
L 3122 2828 
Q 2878 2963 2633 3030 
Q 2388 3097 2138 3097 
Q 1578 3097 1268 2742 
Q 959 2388 959 1747 
Q 959 1106 1268 751 
Q 1578 397 2138 397 
Q 2388 397 2633 464 
Q 2878 531 3122 666 
L 3122 134 
Q 2881 22 2623 -34 
Q 2366 -91 2075 -91 
Q 1284 -91 818 406 
Q 353 903 353 1747 
Q 353 2603 823 3093 
Q 1294 3584 2113 3584 
Q 2378 3584 2631 3529 
Q 2884 3475 3122 3366 
z
" transform="scale(0.015625)"/>
      <path id="DejaVuSans-6f" d="M 1959 3097 
Q 1497 3097 1228 2736 
Q 959 2375 959 1747 
Q 959 1119 1226 758 
Q 1494 397 1959 397 
Q 2419 397 2687 759 
Q 2956 1122 2956 1747 
Q 2956 2369 2687 2733 
Q 2419 3097 1959 3097 
z
M 1959 3584 
Q 2709 3584 3137 3096 
Q 3566 2609 3566 1747 
Q 3566 888 3137 398 
Q 2709 -91 1959 -91 
Q 1206 -91 779 398 
Q 353 888 353 1747 
Q 353 2609 779 3096 
Q 1206 3584 1959 3584 
z
" transform="scale(0.015625)"/>
     </defs>
     <use xlink:href="#DejaVuSans-32"/>
     <use xlink:href="#DejaVuSans-39" x="63.623047"/>
     <use xlink:href="#DejaVuSans-35" x="127.246094"/>
     <use xlink:href="#DejaVuSans-36" x="190.869141"/>
     <use xlink:href="#DejaVuSans-20" x="254.492188"/>
     <use xlink:href="#DejaVuSans-73" x="286.279297"/>
     <use xlink:href="#DejaVuSans-61" x="338.378906"/>
     <use xlink:href="#DejaVuSans-6d" x="399.658203"/>
     <use xlink:href="#DejaVuSans-70" x="497.070312"/>
     <use xlink:href="#DejaVuSans-6c" x="560.546875"/>
     <use xlink:href="#DejaVuSans-65" x="588.330078"/>
     <use xlink:href="#DejaVuSans-73" x="649.853516"/>
     <use xlink:href="#DejaVuSans-20" x="701.953125"/>
     <use xlink:href="#DejaVuSans-70" x="733.740234"/>
     <use xlink:href="#DejaVuSans-72" x="797.216797"/>
     <use xlink:href="#DejaVuSans-65" x="836.080078"/>
     <use xlink:href="#DejaVuSans-64" x="897.603516"/>
     <use xlink:href="#DejaVuSans-69" x="961.080078"/>
     <use xlink:href="#DejaVuSans-63" x="988.863281"/>
     <use xlink:href="#DejaVuSans-74" x="1043.84375"/>
     <use xlink:href="#DejaVuSans-69" x="1083.052734"/>
     <use xlink:href="#DejaVuSans-6f" x="1110.835938"/>
     <use xlink:href="#DejaVuSans-6e" x="1172.017578"/>
     <use xlink:href="#DejaVuSans-73" x="1235.396484"/>
    </g>
   </g>
   <g id="legend_1">
    <g id="patch_7">
     <path d="M 661.01875 379.48 
L 770.6 379.48 
Q 772.6 379.48 772.6 377.48 
L 772.6 349.12375 
Q 772.6 347.12375 770.6 347.12375 
L 661.01875 347.12375 
Q 659.01875 347.12375 659.01875 349.12375 
L 659.01875 377.48 
Q 659.01875 379.48 661.01875 379.48 
z
" style="fill: #ffffff; opacity: 0.8; stroke: #cccccc; stroke-linejoin: miter"/>
    </g>
    <g id="line2d_17">
     <path d="M 663.01875 355.222188 
L 673.01875 355.222188 
L 683.01875 355.222188 
" style="fill: none; stroke: #ff0000; stroke-width: 0.5; stroke-linecap: square"/>
    </g>
    <g id="text_16">
     <!-- Actual Value -->
     <g transform="translate(691.01875 358.722188) scale(0.1 -0.1)">
      <defs>
       <path id="DejaVuSans-41" d="M 2188 4044 
L 1331 1722 
L 3047 1722 
L 2188 4044 
z
M 1831 4666 
L 2547 4666 
L 4325 0 
L 3669 0 
L 3244 1197 
L 1141 1197 
L 716 0 
L 50 0 
L 1831 4666 
z
" transform="scale(0.015625)"/>
       <path id="DejaVuSans-56" d="M 1831 0 
L 50 4666 
L 709 4666 
L 2188 738 
L 3669 4666 
L 4325 4666 
L 2547 0 
L 1831 0 
z
" transform="scale(0.015625)"/>
      </defs>
      <use xlink:href="#DejaVuSans-41"/>
      <use xlink:href="#DejaVuSans-63" x="66.658203"/>
      <use xlink:href="#DejaVuSans-74" x="121.638672"/>
      <use xlink:href="#DejaVuSans-75" x="160.847656"/>
      <use xlink:href="#DejaVuSans-61" x="224.226562"/>
      <use xlink:href="#DejaVuSans-6c" x="285.505859"/>
      <use xlink:href="#DejaVuSans-20" x="313.289062"/>
      <use xlink:href="#DejaVuSans-56" x="345.076172"/>
      <use xlink:href="#DejaVuSans-61" x="405.734375"/>
      <use xlink:href="#DejaVuSans-6c" x="467.013672"/>
      <use xlink:href="#DejaVuSans-75" x="494.796875"/>
      <use xlink:href="#DejaVuSans-65" x="558.175781"/>
     </g>
    </g>
    <g id="line2d_18">
     <path d="M 663.01875 369.900312 
L 673.01875 369.900312 
L 683.01875 369.900312 
" style="fill: none; stroke: #1f77b4; stroke-width: 0.5; stroke-linecap: square"/>
    </g>
    <g id="text_17">
     <!-- Predicted Value -->
     <g transform="translate(691.01875 373.400312) scale(0.1 -0.1)">
      <defs>
       <path id="DejaVuSans-50" d="M 1259 4147 
L 1259 2394 
L 2053 2394 
Q 2494 2394 2734 2622 
Q 2975 2850 2975 3272 
Q 2975 3691 2734 3919 
Q 2494 4147 2053 4147 
L 1259 4147 
z
M 628 4666 
L 2053 4666 
Q 2838 4666 3239 4311 
Q 3641 3956 3641 3272 
Q 3641 2581 3239 2228 
Q 2838 1875 2053 1875 
L 1259 1875 
L 1259 0 
L 628 0 
L 628 4666 
z
" transform="scale(0.015625)"/>
      </defs>
      <use xlink:href="#DejaVuSans-50"/>
      <use xlink:href="#DejaVuSans-72" x="58.552734"/>
      <use xlink:href="#DejaVuSans-65" x="97.416016"/>
      <use xlink:href="#DejaVuSans-64" x="158.939453"/>
      <use xlink:href="#DejaVuSans-69" x="222.416016"/>
      <use xlink:href="#DejaVuSans-63" x="250.199219"/>
      <use xlink:href="#DejaVuSans-74" x="305.179688"/>
      <use xlink:href="#DejaVuSans-65" x="344.388672"/>
      <use xlink:href="#DejaVuSans-64" x="405.912109"/>
      <use xlink:href="#DejaVuSans-20" x="469.388672"/>
      <use xlink:href="#DejaVuSans-56" x="501.175781"/>
      <use xlink:href="#DejaVuSans-61" x="561.833984"/>
      <use xlink:href="#DejaVuSans-6c" x="623.113281"/>
      <use xlink:href="#DejaVuSans-75" x="650.896484"/>
      <use xlink:href="#DejaVuSans-65" x="714.275391"/>
     </g>
    </g>
   </g>
  </g>
 </g>
 <defs>
  <clipPath id="pe380ee643e">
   <rect x="108" y="51.84" width="669.6" height="332.64"/>
  </clipPath>
 </defs>
</svg>
