<?xml version="1.0" encoding="utf-8" standalone="no"?>
<!DOCTYPE svg PUBLIC "-//W3C//DTD SVG 1.1//EN"
  "http://www.w3.org/Graphics/SVG/1.1/DTD/svg11.dtd">
<svg xmlns:xlink="http://www.w3.org/1999/xlink" width="864pt" height="432pt" viewBox="0 0 864 432" xmlns="http://www.w3.org/2000/svg" version="1.1">
 <metadata>
  <rdf:RDF xmlns:dc="http://purl.org/dc/elements/1.1/" xmlns:cc="http://creativecommons.org/ns#" xmlns:rdf="http://www.w3.org/1999/02/22-rdf-syntax-ns#">
   <cc:Work>
    <dc:type rdf:resource="http://purl.org/dc/dcmitype/StillImage"/>
    <dc:date>2024-04-16T11:13:53.700049</dc:date>
    <dc:format>image/svg+xml</dc:format>
    <dc:creator>
     <cc:Agent>
      <dc:title>Matplotlib v3.8.2, https://matplotlib.org/</dc:title>
     </cc:Agent>
    </dc:creator>
   </cc:Work>
  </rdf:RDF>
 </metadata>
 <defs>
  <style type="text/css">*{stroke-linejoin: round; stroke-linecap: butt}</style>
 </defs>
 <g id="figure_1">
  <g id="patch_1">
   <path d="M 0 432 
L 864 432 
L 864 0 
L 0 0 
z
" style="fill: #ffffff"/>
  </g>
  <g id="axes_1">
   <g id="patch_2">
    <path d="M 108 384.48 
L 777.6 384.48 
L 777.6 51.84 
L 108 51.84 
z
" style="fill: #ffffff"/>
   </g>
   <g id="matplotlib.axis_1">
    <g id="xtick_1">
     <g id="line2d_1">
      <defs>
       <path id="m8924d8f2d0" d="M 0 0 
L 0 3.5 
" style="stroke: #000000; stroke-width: 0.8"/>
      </defs>
      <g>
       <use xlink:href="#m8924d8f2d0" x="138.436364" y="384.48" style="stroke: #000000; stroke-width: 0.8"/>
      </g>
     </g>
     <g id="text_1">
      <!-- 0 -->
      <g transform="translate(135.255114 399.078438) scale(0.1 -0.1)">
       <defs>
        <path id="DejaVuSans-30" d="M 2034 4250 
Q 1547 4250 1301 3770 
Q 1056 3291 1056 2328 
Q 1056 1369 1301 889 
Q 1547 409 2034 409 
Q 2525 409 2770 889 
Q 3016 1369 3016 2328 
Q 3016 3291 2770 3770 
Q 2525 4250 2034 4250 
z
M 2034 4750 
Q 2819 4750 3233 4129 
Q 3647 3509 3647 2328 
Q 3647 1150 3233 529 
Q 2819 -91 2034 -91 
Q 1250 -91 836 529 
Q 422 1150 422 2328 
Q 422 3509 836 4129 
Q 1250 4750 2034 4750 
z
" transform="scale(0.015625)"/>
       </defs>
       <use xlink:href="#DejaVuSans-30"/>
      </g>
     </g>
    </g>
    <g id="xtick_2">
     <g id="line2d_2">
      <g>
       <use xlink:href="#m8924d8f2d0" x="231.799442" y="384.48" style="stroke: #000000; stroke-width: 0.8"/>
      </g>
     </g>
     <g id="text_2">
      <!-- 100 -->
      <g transform="translate(222.255692 399.078438) scale(0.1 -0.1)">
       <defs>
        <path id="DejaVuSans-31" d="M 794 531 
L 1825 531 
L 1825 4091 
L 703 3866 
L 703 4441 
L 1819 4666 
L 2450 4666 
L 2450 531 
L 3481 531 
L 3481 0 
L 794 0 
L 794 531 
z
" transform="scale(0.015625)"/>
       </defs>
       <use xlink:href="#DejaVuSans-31"/>
       <use xlink:href="#DejaVuSans-30" x="63.623047"/>
       <use xlink:href="#DejaVuSans-30" x="127.246094"/>
      </g>
     </g>
    </g>
    <g id="xtick_3">
     <g id="line2d_3">
      <g>
       <use xlink:href="#m8924d8f2d0" x="325.162521" y="384.48" style="stroke: #000000; stroke-width: 0.8"/>
      </g>
     </g>
     <g id="text_3">
      <!-- 200 -->
      <g transform="translate(315.618771 399.078438) scale(0.1 -0.1)">
       <defs>
        <path id="DejaVuSans-32" d="M 1228 531 
L 3431 531 
L 3431 0 
L 469 0 
L 469 531 
Q 828 903 1448 1529 
Q 2069 2156 2228 2338 
Q 2531 2678 2651 2914 
Q 2772 3150 2772 3378 
Q 2772 3750 2511 3984 
Q 2250 4219 1831 4219 
Q 1534 4219 1204 4116 
Q 875 4013 500 3803 
L 500 4441 
Q 881 4594 1212 4672 
Q 1544 4750 1819 4750 
Q 2544 4750 2975 4387 
Q 3406 4025 3406 3419 
Q 3406 3131 3298 2873 
Q 3191 2616 2906 2266 
Q 2828 2175 2409 1742 
Q 1991 1309 1228 531 
z
" transform="scale(0.015625)"/>
       </defs>
       <use xlink:href="#DejaVuSans-32"/>
       <use xlink:href="#DejaVuSans-30" x="63.623047"/>
       <use xlink:href="#DejaVuSans-30" x="127.246094"/>
      </g>
     </g>
    </g>
    <g id="xtick_4">
     <g id="line2d_4">
      <g>
       <use xlink:href="#m8924d8f2d0" x="418.5256" y="384.48" style="stroke: #000000; stroke-width: 0.8"/>
      </g>
     </g>
     <g id="text_4">
      <!-- 300 -->
      <g transform="translate(408.98185 399.078438) scale(0.1 -0.1)">
       <defs>
        <path id="DejaVuSans-33" d="M 2597 2516 
Q 3050 2419 3304 2112 
Q 3559 1806 3559 1356 
Q 3559 666 3084 287 
Q 2609 -91 1734 -91 
Q 1441 -91 1130 -33 
Q 819 25 488 141 
L 488 750 
Q 750 597 1062 519 
Q 1375 441 1716 441 
Q 2309 441 2620 675 
Q 2931 909 2931 1356 
Q 2931 1769 2642 2001 
Q 2353 2234 1838 2234 
L 1294 2234 
L 1294 2753 
L 1863 2753 
Q 2328 2753 2575 2939 
Q 2822 3125 2822 3475 
Q 2822 3834 2567 4026 
Q 2313 4219 1838 4219 
Q 1578 4219 1281 4162 
Q 984 4106 628 3988 
L 628 4550 
Q 988 4650 1302 4700 
Q 1616 4750 1894 4750 
Q 2613 4750 3031 4423 
Q 3450 4097 3450 3541 
Q 3450 3153 3228 2886 
Q 3006 2619 2597 2516 
z
" transform="scale(0.015625)"/>
       </defs>
       <use xlink:href="#DejaVuSans-33"/>
       <use xlink:href="#DejaVuSans-30" x="63.623047"/>
       <use xlink:href="#DejaVuSans-30" x="127.246094"/>
      </g>
     </g>
    </g>
    <g id="xtick_5">
     <g id="line2d_5">
      <g>
       <use xlink:href="#m8924d8f2d0" x="511.888678" y="384.48" style="stroke: #000000; stroke-width: 0.8"/>
      </g>
     </g>
     <g id="text_5">
      <!-- 400 -->
      <g transform="translate(502.344928 399.078438) scale(0.1 -0.1)">
       <defs>
        <path id="DejaVuSans-34" d="M 2419 4116 
L 825 1625 
L 2419 1625 
L 2419 4116 
z
M 2253 4666 
L 3047 4666 
L 3047 1625 
L 3713 1625 
L 3713 1100 
L 3047 1100 
L 3047 0 
L 2419 0 
L 2419 1100 
L 313 1100 
L 313 1709 
L 2253 4666 
z
" transform="scale(0.015625)"/>
       </defs>
       <use xlink:href="#DejaVuSans-34"/>
       <use xlink:href="#DejaVuSans-30" x="63.623047"/>
       <use xlink:href="#DejaVuSans-30" x="127.246094"/>
      </g>
     </g>
    </g>
    <g id="xtick_6">
     <g id="line2d_6">
      <g>
       <use xlink:href="#m8924d8f2d0" x="605.251757" y="384.48" style="stroke: #000000; stroke-width: 0.8"/>
      </g>
     </g>
     <g id="text_6">
      <!-- 500 -->
      <g transform="translate(595.708007 399.078438) scale(0.1 -0.1)">
       <defs>
        <path id="DejaVuSans-35" d="M 691 4666 
L 3169 4666 
L 3169 4134 
L 1269 4134 
L 1269 2991 
Q 1406 3038 1543 3061 
Q 1681 3084 1819 3084 
Q 2600 3084 3056 2656 
Q 3513 2228 3513 1497 
Q 3513 744 3044 326 
Q 2575 -91 1722 -91 
Q 1428 -91 1123 -41 
Q 819 9 494 109 
L 494 744 
Q 775 591 1075 516 
Q 1375 441 1709 441 
Q 2250 441 2565 725 
Q 2881 1009 2881 1497 
Q 2881 1984 2565 2268 
Q 2250 2553 1709 2553 
Q 1456 2553 1204 2497 
Q 953 2441 691 2322 
L 691 4666 
z
" transform="scale(0.015625)"/>
       </defs>
       <use xlink:href="#DejaVuSans-35"/>
       <use xlink:href="#DejaVuSans-30" x="63.623047"/>
       <use xlink:href="#DejaVuSans-30" x="127.246094"/>
      </g>
     </g>
    </g>
    <g id="xtick_7">
     <g id="line2d_7">
      <g>
       <use xlink:href="#m8924d8f2d0" x="698.614835" y="384.48" style="stroke: #000000; stroke-width: 0.8"/>
      </g>
     </g>
     <g id="text_7">
      <!-- 600 -->
      <g transform="translate(689.071085 399.078438) scale(0.1 -0.1)">
       <defs>
        <path id="DejaVuSans-36" d="M 2113 2584 
Q 1688 2584 1439 2293 
Q 1191 2003 1191 1497 
Q 1191 994 1439 701 
Q 1688 409 2113 409 
Q 2538 409 2786 701 
Q 3034 994 3034 1497 
Q 3034 2003 2786 2293 
Q 2538 2584 2113 2584 
z
M 3366 4563 
L 3366 3988 
Q 3128 4100 2886 4159 
Q 2644 4219 2406 4219 
Q 1781 4219 1451 3797 
Q 1122 3375 1075 2522 
Q 1259 2794 1537 2939 
Q 1816 3084 2150 3084 
Q 2853 3084 3261 2657 
Q 3669 2231 3669 1497 
Q 3669 778 3244 343 
Q 2819 -91 2113 -91 
Q 1303 -91 875 529 
Q 447 1150 447 2328 
Q 447 3434 972 4092 
Q 1497 4750 2381 4750 
Q 2619 4750 2861 4703 
Q 3103 4656 3366 4563 
z
" transform="scale(0.015625)"/>
       </defs>
       <use xlink:href="#DejaVuSans-36"/>
       <use xlink:href="#DejaVuSans-30" x="63.623047"/>
       <use xlink:href="#DejaVuSans-30" x="127.246094"/>
      </g>
     </g>
    </g>
    <g id="text_8">
     <!-- Sample Number -->
     <g transform="translate(402.376562 412.756563) scale(0.1 -0.1)">
      <defs>
       <path id="DejaVuSans-53" d="M 3425 4513 
L 3425 3897 
Q 3066 4069 2747 4153 
Q 2428 4238 2131 4238 
Q 1616 4238 1336 4038 
Q 1056 3838 1056 3469 
Q 1056 3159 1242 3001 
Q 1428 2844 1947 2747 
L 2328 2669 
Q 3034 2534 3370 2195 
Q 3706 1856 3706 1288 
Q 3706 609 3251 259 
Q 2797 -91 1919 -91 
Q 1588 -91 1214 -16 
Q 841 59 441 206 
L 441 856 
Q 825 641 1194 531 
Q 1563 422 1919 422 
Q 2459 422 2753 634 
Q 3047 847 3047 1241 
Q 3047 1584 2836 1778 
Q 2625 1972 2144 2069 
L 1759 2144 
Q 1053 2284 737 2584 
Q 422 2884 422 3419 
Q 422 4038 858 4394 
Q 1294 4750 2059 4750 
Q 2388 4750 2728 4690 
Q 3069 4631 3425 4513 
z
" transform="scale(0.015625)"/>
       <path id="DejaVuSans-61" d="M 2194 1759 
Q 1497 1759 1228 1600 
Q 959 1441 959 1056 
Q 959 750 1161 570 
Q 1363 391 1709 391 
Q 2188 391 2477 730 
Q 2766 1069 2766 1631 
L 2766 1759 
L 2194 1759 
z
M 3341 1997 
L 3341 0 
L 2766 0 
L 2766 531 
Q 2569 213 2275 61 
Q 1981 -91 1556 -91 
Q 1019 -91 701 211 
Q 384 513 384 1019 
Q 384 1609 779 1909 
Q 1175 2209 1959 2209 
L 2766 2209 
L 2766 2266 
Q 2766 2663 2505 2880 
Q 2244 3097 1772 3097 
Q 1472 3097 1187 3025 
Q 903 2953 641 2809 
L 641 3341 
Q 956 3463 1253 3523 
Q 1550 3584 1831 3584 
Q 2591 3584 2966 3190 
Q 3341 2797 3341 1997 
z
" transform="scale(0.015625)"/>
       <path id="DejaVuSans-6d" d="M 3328 2828 
Q 3544 3216 3844 3400 
Q 4144 3584 4550 3584 
Q 5097 3584 5394 3201 
Q 5691 2819 5691 2113 
L 5691 0 
L 5113 0 
L 5113 2094 
Q 5113 2597 4934 2840 
Q 4756 3084 4391 3084 
Q 3944 3084 3684 2787 
Q 3425 2491 3425 1978 
L 3425 0 
L 2847 0 
L 2847 2094 
Q 2847 2600 2669 2842 
Q 2491 3084 2119 3084 
Q 1678 3084 1418 2786 
Q 1159 2488 1159 1978 
L 1159 0 
L 581 0 
L 581 3500 
L 1159 3500 
L 1159 2956 
Q 1356 3278 1631 3431 
Q 1906 3584 2284 3584 
Q 2666 3584 2933 3390 
Q 3200 3197 3328 2828 
z
" transform="scale(0.015625)"/>
       <path id="DejaVuSans-70" d="M 1159 525 
L 1159 -1331 
L 581 -1331 
L 581 3500 
L 1159 3500 
L 1159 2969 
Q 1341 3281 1617 3432 
Q 1894 3584 2278 3584 
Q 2916 3584 3314 3078 
Q 3713 2572 3713 1747 
Q 3713 922 3314 415 
Q 2916 -91 2278 -91 
Q 1894 -91 1617 61 
Q 1341 213 1159 525 
z
M 3116 1747 
Q 3116 2381 2855 2742 
Q 2594 3103 2138 3103 
Q 1681 3103 1420 2742 
Q 1159 2381 1159 1747 
Q 1159 1113 1420 752 
Q 1681 391 2138 391 
Q 2594 391 2855 752 
Q 3116 1113 3116 1747 
z
" transform="scale(0.015625)"/>
       <path id="DejaVuSans-6c" d="M 603 4863 
L 1178 4863 
L 1178 0 
L 603 0 
L 603 4863 
z
" transform="scale(0.015625)"/>
       <path id="DejaVuSans-65" d="M 3597 1894 
L 3597 1613 
L 953 1613 
Q 991 1019 1311 708 
Q 1631 397 2203 397 
Q 2534 397 2845 478 
Q 3156 559 3463 722 
L 3463 178 
Q 3153 47 2828 -22 
Q 2503 -91 2169 -91 
Q 1331 -91 842 396 
Q 353 884 353 1716 
Q 353 2575 817 3079 
Q 1281 3584 2069 3584 
Q 2775 3584 3186 3129 
Q 3597 2675 3597 1894 
z
M 3022 2063 
Q 3016 2534 2758 2815 
Q 2500 3097 2075 3097 
Q 1594 3097 1305 2825 
Q 1016 2553 972 2059 
L 3022 2063 
z
" transform="scale(0.015625)"/>
       <path id="DejaVuSans-20" transform="scale(0.015625)"/>
       <path id="DejaVuSans-4e" d="M 628 4666 
L 1478 4666 
L 3547 763 
L 3547 4666 
L 4159 4666 
L 4159 0 
L 3309 0 
L 1241 3903 
L 1241 0 
L 628 0 
L 628 4666 
z
" transform="scale(0.015625)"/>
       <path id="DejaVuSans-75" d="M 544 1381 
L 544 3500 
L 1119 3500 
L 1119 1403 
Q 1119 906 1312 657 
Q 1506 409 1894 409 
Q 2359 409 2629 706 
Q 2900 1003 2900 1516 
L 2900 3500 
L 3475 3500 
L 3475 0 
L 2900 0 
L 2900 538 
Q 2691 219 2414 64 
Q 2138 -91 1772 -91 
Q 1169 -91 856 284 
Q 544 659 544 1381 
z
M 1991 3584 
L 1991 3584 
z
" transform="scale(0.015625)"/>
       <path id="DejaVuSans-62" d="M 3116 1747 
Q 3116 2381 2855 2742 
Q 2594 3103 2138 3103 
Q 1681 3103 1420 2742 
Q 1159 2381 1159 1747 
Q 1159 1113 1420 752 
Q 1681 391 2138 391 
Q 2594 391 2855 752 
Q 3116 1113 3116 1747 
z
M 1159 2969 
Q 1341 3281 1617 3432 
Q 1894 3584 2278 3584 
Q 2916 3584 3314 3078 
Q 3713 2572 3713 1747 
Q 3713 922 3314 415 
Q 2916 -91 2278 -91 
Q 1894 -91 1617 61 
Q 1341 213 1159 525 
L 1159 0 
L 581 0 
L 581 4863 
L 1159 4863 
L 1159 2969 
z
" transform="scale(0.015625)"/>
       <path id="DejaVuSans-72" d="M 2631 2963 
Q 2534 3019 2420 3045 
Q 2306 3072 2169 3072 
Q 1681 3072 1420 2755 
Q 1159 2438 1159 1844 
L 1159 0 
L 581 0 
L 581 3500 
L 1159 3500 
L 1159 2956 
Q 1341 3275 1631 3429 
Q 1922 3584 2338 3584 
Q 2397 3584 2469 3576 
Q 2541 3569 2628 3553 
L 2631 2963 
z
" transform="scale(0.015625)"/>
      </defs>
      <use xlink:href="#DejaVuSans-53"/>
      <use xlink:href="#DejaVuSans-61" x="63.476562"/>
      <use xlink:href="#DejaVuSans-6d" x="124.755859"/>
      <use xlink:href="#DejaVuSans-70" x="222.167969"/>
      <use xlink:href="#DejaVuSans-6c" x="285.644531"/>
      <use xlink:href="#DejaVuSans-65" x="313.427734"/>
      <use xlink:href="#DejaVuSans-20" x="374.951172"/>
      <use xlink:href="#DejaVuSans-4e" x="406.738281"/>
      <use xlink:href="#DejaVuSans-75" x="481.542969"/>
      <use xlink:href="#DejaVuSans-6d" x="544.921875"/>
      <use xlink:href="#DejaVuSans-62" x="642.333984"/>
      <use xlink:href="#DejaVuSans-65" x="705.810547"/>
      <use xlink:href="#DejaVuSans-72" x="767.333984"/>
     </g>
    </g>
   </g>
   <g id="matplotlib.axis_2">
    <g id="ytick_1">
     <g id="line2d_8">
      <defs>
       <path id="m469c61fe0f" d="M 0 0 
L -3.5 0 
" style="stroke: #000000; stroke-width: 0.8"/>
      </defs>
      <g>
       <use xlink:href="#m469c61fe0f" x="108" y="343.044829" style="stroke: #000000; stroke-width: 0.8"/>
      </g>
     </g>
     <g id="text_9">
      <!-- 0 -->
      <g transform="translate(94.6375 346.844047) scale(0.1 -0.1)">
       <use xlink:href="#DejaVuSans-30"/>
      </g>
     </g>
    </g>
    <g id="ytick_2">
     <g id="line2d_9">
      <g>
       <use xlink:href="#m469c61fe0f" x="108" y="280.343877" style="stroke: #000000; stroke-width: 0.8"/>
      </g>
     </g>
     <g id="text_10">
      <!-- 5 -->
      <g transform="translate(94.6375 284.143096) scale(0.1 -0.1)">
       <use xlink:href="#DejaVuSans-35"/>
      </g>
     </g>
    </g>
    <g id="ytick_3">
     <g id="line2d_10">
      <g>
       <use xlink:href="#m469c61fe0f" x="108" y="217.642926" style="stroke: #000000; stroke-width: 0.8"/>
      </g>
     </g>
     <g id="text_11">
      <!-- 10 -->
      <g transform="translate(88.275 221.442145) scale(0.1 -0.1)">
       <use xlink:href="#DejaVuSans-31"/>
       <use xlink:href="#DejaVuSans-30" x="63.623047"/>
      </g>
     </g>
    </g>
    <g id="ytick_4">
     <g id="line2d_11">
      <g>
       <use xlink:href="#m469c61fe0f" x="108" y="154.941975" style="stroke: #000000; stroke-width: 0.8"/>
      </g>
     </g>
     <g id="text_12">
      <!-- 15 -->
      <g transform="translate(88.275 158.741194) scale(0.1 -0.1)">
       <use xlink:href="#DejaVuSans-31"/>
       <use xlink:href="#DejaVuSans-35" x="63.623047"/>
      </g>
     </g>
    </g>
    <g id="ytick_5">
     <g id="line2d_12">
      <g>
       <use xlink:href="#m469c61fe0f" x="108" y="92.241024" style="stroke: #000000; stroke-width: 0.8"/>
      </g>
     </g>
     <g id="text_13">
      <!-- 20 -->
      <g transform="translate(88.275 96.040242) scale(0.1 -0.1)">
       <use xlink:href="#DejaVuSans-32"/>
       <use xlink:href="#DejaVuSans-30" x="63.623047"/>
      </g>
     </g>
    </g>
    <g id="text_14">
     <!-- Magnetism -->
     <g transform="translate(82.195312 245.781875) rotate(-90) scale(0.1 -0.1)">
      <defs>
       <path id="DejaVuSans-4d" d="M 628 4666 
L 1569 4666 
L 2759 1491 
L 3956 4666 
L 4897 4666 
L 4897 0 
L 4281 0 
L 4281 4097 
L 3078 897 
L 2444 897 
L 1241 4097 
L 1241 0 
L 628 0 
L 628 4666 
z
" transform="scale(0.015625)"/>
       <path id="DejaVuSans-67" d="M 2906 1791 
Q 2906 2416 2648 2759 
Q 2391 3103 1925 3103 
Q 1463 3103 1205 2759 
Q 947 2416 947 1791 
Q 947 1169 1205 825 
Q 1463 481 1925 481 
Q 2391 481 2648 825 
Q 2906 1169 2906 1791 
z
M 3481 434 
Q 3481 -459 3084 -895 
Q 2688 -1331 1869 -1331 
Q 1566 -1331 1297 -1286 
Q 1028 -1241 775 -1147 
L 775 -588 
Q 1028 -725 1275 -790 
Q 1522 -856 1778 -856 
Q 2344 -856 2625 -561 
Q 2906 -266 2906 331 
L 2906 616 
Q 2728 306 2450 153 
Q 2172 0 1784 0 
Q 1141 0 747 490 
Q 353 981 353 1791 
Q 353 2603 747 3093 
Q 1141 3584 1784 3584 
Q 2172 3584 2450 3431 
Q 2728 3278 2906 2969 
L 2906 3500 
L 3481 3500 
L 3481 434 
z
" transform="scale(0.015625)"/>
       <path id="DejaVuSans-6e" d="M 3513 2113 
L 3513 0 
L 2938 0 
L 2938 2094 
Q 2938 2591 2744 2837 
Q 2550 3084 2163 3084 
Q 1697 3084 1428 2787 
Q 1159 2491 1159 1978 
L 1159 0 
L 581 0 
L 581 3500 
L 1159 3500 
L 1159 2956 
Q 1366 3272 1645 3428 
Q 1925 3584 2291 3584 
Q 2894 3584 3203 3211 
Q 3513 2838 3513 2113 
z
" transform="scale(0.015625)"/>
       <path id="DejaVuSans-74" d="M 1172 4494 
L 1172 3500 
L 2356 3500 
L 2356 3053 
L 1172 3053 
L 1172 1153 
Q 1172 725 1289 603 
Q 1406 481 1766 481 
L 2356 481 
L 2356 0 
L 1766 0 
Q 1100 0 847 248 
Q 594 497 594 1153 
L 594 3053 
L 172 3053 
L 172 3500 
L 594 3500 
L 594 4494 
L 1172 4494 
z
" transform="scale(0.015625)"/>
       <path id="DejaVuSans-69" d="M 603 3500 
L 1178 3500 
L 1178 0 
L 603 0 
L 603 3500 
z
M 603 4863 
L 1178 4863 
L 1178 4134 
L 603 4134 
L 603 4863 
z
" transform="scale(0.015625)"/>
       <path id="DejaVuSans-73" d="M 2834 3397 
L 2834 2853 
Q 2591 2978 2328 3040 
Q 2066 3103 1784 3103 
Q 1356 3103 1142 2972 
Q 928 2841 928 2578 
Q 928 2378 1081 2264 
Q 1234 2150 1697 2047 
L 1894 2003 
Q 2506 1872 2764 1633 
Q 3022 1394 3022 966 
Q 3022 478 2636 193 
Q 2250 -91 1575 -91 
Q 1294 -91 989 -36 
Q 684 19 347 128 
L 347 722 
Q 666 556 975 473 
Q 1284 391 1588 391 
Q 1994 391 2212 530 
Q 2431 669 2431 922 
Q 2431 1156 2273 1281 
Q 2116 1406 1581 1522 
L 1381 1569 
Q 847 1681 609 1914 
Q 372 2147 372 2553 
Q 372 3047 722 3315 
Q 1072 3584 1716 3584 
Q 2034 3584 2315 3537 
Q 2597 3491 2834 3397 
z
" transform="scale(0.015625)"/>
      </defs>
      <use xlink:href="#DejaVuSans-4d"/>
      <use xlink:href="#DejaVuSans-61" x="86.279297"/>
      <use xlink:href="#DejaVuSans-67" x="147.558594"/>
      <use xlink:href="#DejaVuSans-6e" x="211.035156"/>
      <use xlink:href="#DejaVuSans-65" x="274.414062"/>
      <use xlink:href="#DejaVuSans-74" x="335.9375"/>
      <use xlink:href="#DejaVuSans-69" x="375.146484"/>
      <use xlink:href="#DejaVuSans-73" x="402.929688"/>
      <use xlink:href="#DejaVuSans-6d" x="455.029297"/>
     </g>
    </g>
   </g>
   <g id="line2d_13">
    <path d="M 161.777133 384.48 
L 161.777133 51.84 
" clip-path="url(#p635e841054)" style="fill: none; stroke-dasharray: 5.55,2.4; stroke-dashoffset: 0; stroke: #008000; stroke-width: 1.5"/>
   </g>
   <g id="line2d_14">
    <path d="M 448.401785 384.48 
L 448.401785 51.84 
" clip-path="url(#p635e841054)" style="fill: none; stroke-dasharray: 5.55,2.4; stroke-dashoffset: 0; stroke: #008000; stroke-width: 1.5"/>
   </g>
   <g id="line2d_15">
    <path d="M 138.436364 368.275692 
L 139.369994 366.908811 
L 140.303625 362.118458 
L 141.237256 361.378587 
L 142.170887 361.253185 
L 143.104518 358.093057 
L 144.038148 357.415887 
L 144.971779 357.202704 
L 145.90541 357.114922 
L 146.839041 348.236468 
L 148.706302 348.236468 
L 149.639933 347.973124 
L 150.573564 347.973124 
L 151.507195 347.73486 
L 152.440825 347.73486 
L 153.374456 346.994989 
L 154.308087 345.891452 
L 155.241718 345.891452 
L 156.175349 344.349009 
L 157.108979 343.859941 
L 158.04261 343.558977 
L 158.976241 343.533896 
L 161.777133 343.044829 
L 449.335416 342.982128 
L 450.269046 342.693703 
L 452.136308 342.505601 
L 454.003569 342.48052 
L 454.9372 342.129395 
L 456.804462 341.966372 
L 460.538985 341.276662 
L 461.472616 341.17634 
L 462.406247 340.825215 
L 464.273508 340.662193 
L 465.207139 340.311067 
L 466.14077 339.533575 
L 468.941662 339.107209 
L 469.875293 339.069588 
L 470.808924 338.693383 
L 471.742554 338.567981 
L 472.676185 338.241936 
L 474.543447 337.815569 
L 475.477078 337.803029 
L 476.410708 337.502065 
L 477.344339 337.476984 
L 478.27797 336.411068 
L 480.145231 336.110104 
L 481.078862 334.843544 
L 482.012493 334.831004 
L 482.946124 334.642901 
L 483.879755 334.592741 
L 484.813385 334.279236 
L 485.747016 334.216535 
L 488.547909 332.159944 
L 489.481539 332.084702 
L 490.41517 331.595635 
L 491.348801 331.482773 
L 492.282432 331.181809 
L 493.216062 331.131648 
L 495.083324 330.742902 
L 496.950586 330.705282 
L 497.884216 329.676986 
L 498.817847 329.388562 
L 499.751478 329.225539 
L 500.685109 328.285025 
L 501.61874 328.159623 
L 503.486001 326.366376 
L 504.419632 326.366376 
L 507.220524 325.839688 
L 508.154155 325.839688 
L 509.087786 325.676665 
L 510.955047 325.551263 
L 512.822309 324.899173 
L 514.689571 324.68599 
L 515.623201 324.309785 
L 516.556832 324.134222 
L 517.490463 323.695315 
L 519.357724 323.218788 
L 520.291355 321.952229 
L 521.224986 321.149657 
L 522.158617 319.983419 
L 523.092248 317.876667 
L 524.025878 317.550622 
L 524.959509 313.412359 
L 526.826771 313.412359 
L 527.760402 312.434224 
L 528.694032 312.308822 
L 529.627663 312.308822 
L 530.561294 311.644192 
L 532.428555 311.46863 
L 533.362186 311.46863 
L 534.295817 310.954482 
L 535.229448 310.741299 
L 536.163079 310.741299 
L 537.096709 310.314932 
L 538.03034 310.18953 
L 538.963971 309.863485 
L 540.831233 309.788244 
L 541.764863 309.010752 
L 542.698494 308.672167 
L 544.565756 308.534225 
L 545.499387 307.944836 
L 546.433017 306.18921 
L 548.300279 306.113968 
L 549.23391 304.809789 
L 551.101171 304.809789 
L 552.034802 304.007216 
L 552.968433 302.552554 
L 553.902064 301.436477 
L 554.835694 299.743552 
L 555.769325 299.241944 
L 556.702956 298.163488 
L 557.636587 298.138407 
L 558.570218 297.135192 
L 559.503848 296.671205 
L 562.304741 296.621044 
L 563.238371 296.169598 
L 566.039264 295.906254 
L 566.972895 295.705611 
L 567.906525 295.705611 
L 568.840156 294.890498 
L 569.773787 294.388891 
L 570.707418 294.388891 
L 571.641049 292.896608 
L 572.574679 292.36992 
L 573.50831 290.476351 
L 574.441941 290.42619 
L 576.309202 290.112686 
L 578.176464 287.11558 
L 579.110095 286.889857 
L 580.043726 285.861561 
L 581.910987 285.861561 
L 582.844618 285.259632 
L 583.778249 284.908507 
L 585.64551 283.466385 
L 586.579141 282.337768 
L 587.512772 281.723298 
L 588.446403 280.381498 
L 589.380033 279.679247 
L 590.313664 279.440984 
L 593.114557 277.998862 
L 594.048187 277.070888 
L 594.981818 277.020727 
L 596.84908 276.456418 
L 597.782711 276.456418 
L 598.716341 276.067673 
L 600.583603 276.067673 
L 601.517234 275.729087 
L 602.450864 273.609795 
L 603.384495 273.24613 
L 604.318126 271.352561 
L 605.251757 270.524908 
L 607.119018 270.437127 
L 608.052649 267.201758 
L 609.919911 267.101437 
L 613.654434 267.101437 
L 614.588065 266.349025 
L 615.521695 265.044845 
L 616.455326 264.06671 
L 617.388957 264.06671 
L 618.322588 262.975714 
L 619.256219 262.574428 
L 620.189849 261.583753 
L 621.12348 260.028769 
L 622.990742 258.78729 
L 628.592526 258.78729 
L 629.526157 258.047419 
L 630.459788 256.567677 
L 631.393419 255.840346 
L 632.32705 251.814945 
L 633.26068 251.438739 
L 634.194311 251.438739 
L 635.127942 250.899511 
L 636.061573 249.971537 
L 637.928834 249.720733 
L 638.862465 249.256746 
L 639.796096 245.544849 
L 640.729727 245.544849 
L 641.663358 243.024271 
L 642.596988 242.234239 
L 643.530619 241.845493 
L 645.397881 241.531989 
L 646.331511 241.531989 
L 647.265142 241.105622 
L 648.198773 240.930059 
L 649.132404 240.31559 
L 650.999665 237.64453 
L 651.933296 236.528453 
L 652.866927 232.992119 
L 653.800558 230.772505 
L 654.734189 227.349033 
L 656.60145 227.298873 
L 658.468712 226.634243 
L 659.402342 224.577651 
L 660.335973 224.565111 
L 661.269604 222.395658 
L 662.203235 221.066398 
L 665.004127 220.940996 
L 665.937758 220.125884 
L 666.871389 219.737138 
L 667.80502 218.55836 
L 668.73865 216.903055 
L 669.672281 216.752573 
L 670.605912 216.125563 
L 671.539543 213.604985 
L 672.473173 212.752252 
L 673.406804 212.60177 
L 674.340435 211.021706 
L 675.274066 210.256754 
L 676.207697 207.422671 
L 677.141327 206.70788 
L 678.074958 205.729745 
L 679.008589 205.679585 
L 679.94222 204.964794 
L 680.875851 202.594698 
L 681.809481 201.716885 
L 682.743112 201.629103 
L 683.676743 201.165116 
L 684.610374 201.165116 
L 685.544004 200.638428 
L 686.477635 200.638428 
L 687.411266 200.513026 
L 688.344897 200.061579 
L 689.278528 200.049039 
L 690.212158 199.572512 
L 691.145789 198.443895 
L 692.07942 193.327497 
L 693.013051 192.462224 
L 693.946682 189.251935 
L 695.813943 189.189234 
L 696.747574 186.392772 
L 697.681205 185.402097 
L 699.548466 185.402097 
L 700.482097 180.98795 
L 701.415728 179.972195 
L 702.349359 179.483127 
L 703.282989 179.395346 
L 704.21662 179.03168 
L 705.150251 178.429751 
L 707.017513 175.984414 
L 707.951143 173.451296 
L 708.884774 173.451296 
L 709.818405 171.670589 
L 710.752036 171.507566 
L 712.619297 171.507566 
L 713.552928 169.212711 
L 714.486559 167.657728 
L 715.42019 167.206281 
L 716.35382 165.337793 
L 717.287451 163.920751 
L 719.154713 163.920751 
L 720.088344 161.174449 
L 721.021974 161.174449 
L 721.955605 160.823324 
L 722.889236 160.334257 
L 723.822867 159.180559 
L 724.756497 154.377666 
L 726.623759 154.365126 
L 727.55739 149.512072 
L 728.491021 149.198568 
L 729.424651 147.718825 
L 730.358282 139.116255 
L 731.291913 138.401464 
L 733.159175 135.203715 
L 734.092805 131.366417 
L 735.026436 129.121723 
L 735.960067 129.121723 
L 736.893698 128.657736 
L 737.827328 124.883139 
L 738.760959 112.355489 
L 739.69459 111.08893 
L 740.628221 100.642951 
L 741.561852 92.02784 
L 742.495482 90.987005 
L 743.429113 90.347455 
L 744.362744 90.347455 
L 745.296375 89.080896 
L 746.230006 87.074465 
L 747.163636 66.96 
L 747.163636 66.96 
" clip-path="url(#p635e841054)" style="fill: none; stroke: #ff0000; stroke-width: 0.5; stroke-linecap: square"/>
   </g>
   <g id="line2d_16">
    <path d="M 138.436364 348.729011 
L 139.369994 343.075936 
L 140.303625 342.575924 
L 141.237256 354.327005 
L 142.170887 359.131114 
L 143.104518 347.988878 
L 144.038148 369.36 
L 144.971779 344.193764 
L 145.90541 352.702343 
L 146.839041 345.660769 
L 150.573564 345.660769 
L 151.507195 343.044829 
L 152.440825 343.044829 
L 154.308087 342.193719 
L 155.241718 342.193719 
L 156.175349 343.004252 
L 157.108979 344.370794 
L 158.04261 343.067473 
L 158.976241 342.981123 
L 159.909872 342.541406 
L 160.843503 343.921796 
L 161.777133 343.044829 
L 163.644395 343.044829 
L 164.578026 347.988878 
L 165.511656 343.044829 
L 170.17981 343.044829 
L 171.113441 343.044829 
L 172.047072 343.339917 
L 172.980703 343.044454 
L 182.317011 343.044454 
L 183.250641 343.208259 
L 184.184272 343.044829 
L 189.786057 343.044454 
L 190.719688 341.034675 
L 191.653318 343.044829 
L 201.923257 343.044829 
L 202.856888 342.368221 
L 203.790519 343.044829 
L 222.463134 343.044829 
L 223.396765 344.370794 
L 224.330396 343.044454 
L 225.264027 343.044829 
L 226.197658 342.30445 
L 227.131288 343.044829 
L 231.799442 343.044829 
L 232.733073 340.652669 
L 233.666704 343.044829 
L 234.600335 343.044829 
L 235.533965 344.335816 
L 236.467596 343.044829 
L 239.268489 343.044829 
L 240.202119 345.660769 
L 241.13575 343.044829 
L 243.936642 343.044829 
L 244.870273 343.208259 
L 245.803904 343.044829 
L 250.472058 343.044829 
L 251.405689 343.921796 
L 252.33932 343.044829 
L 264.47652 343.044829 
L 265.410151 342.368221 
L 266.343781 343.044829 
L 271.011935 343.044829 
L 271.945566 346.848827 
L 272.879197 343.044829 
L 301.821751 343.044829 
L 302.755382 339.051509 
L 303.689013 343.044829 
L 312.09169 343.044829 
L 313.025321 341.68654 
L 313.958951 343.044829 
L 328.897044 343.044829 
L 329.830675 345.660769 
L 330.764306 343.044829 
L 334.498829 343.044829 
L 335.43246 341.119041 
L 336.36609 343.044829 
L 338.233352 343.044829 
L 339.166983 343.201362 
L 340.100613 343.044829 
L 343.835137 343.044829 
L 344.768767 342.189483 
L 345.702398 343.044829 
L 357.839598 343.044829 
L 358.773229 343.89905 
L 359.70686 343.044829 
L 373.711322 343.044829 
L 374.644953 346.848827 
L 375.578583 343.044829 
L 376.512214 344.335816 
L 377.445845 343.044829 
L 382.113999 343.044829 
L 383.04763 343.189251 
L 383.98126 343.044829 
L 402.653876 343.044829 
L 403.587507 349.451194 
L 404.521138 343.044829 
L 418.5256 343.044829 
L 419.45923 345.660769 
L 420.392861 343.044829 
L 425.061015 343.081321 
L 425.994646 345.660769 
L 426.928277 343.044829 
L 428.795538 343.044829 
L 429.729169 354.869916 
L 430.6628 343.044829 
L 432.530061 343.044829 
L 433.463692 341.571793 
L 434.397323 343.044829 
L 437.198215 343.044829 
L 438.131846 343.339917 
L 439.065477 343.044829 
L 445.600892 343.044829 
L 446.534523 345.660769 
L 447.468154 343.044829 
L 448.401785 343.015677 
L 449.335416 336.924156 
L 450.269046 342.541406 
L 451.202677 334.274514 
L 452.136308 341.926024 
L 453.069939 342.541406 
L 454.003569 342.951301 
L 454.9372 343.008903 
L 455.870831 341.69423 
L 456.804462 338.334387 
L 457.738093 338.936832 
L 458.671723 334.424754 
L 459.605354 341.768131 
L 460.538985 341.313728 
L 461.472616 341.768131 
L 462.406247 343.921796 
L 463.339877 342.541406 
L 464.273508 338.523503 
L 465.207139 343.783375 
L 468.008031 334.884323 
L 468.941662 339.06401 
L 469.875293 338.334387 
L 470.808924 334.552235 
L 471.742554 343.004252 
L 472.676185 339.836828 
L 473.609816 338.260624 
L 474.543447 328.592993 
L 475.477078 338.334387 
L 476.410708 341.853481 
L 477.344339 356.173784 
L 478.27797 324.134377 
L 479.211601 334.424754 
L 480.145231 334.424754 
L 481.078862 335.790177 
L 482.012493 332.174795 
L 482.946124 342.769213 
L 483.879755 332.174795 
L 484.813385 328.852376 
L 485.747016 343.044829 
L 486.680647 334.424754 
L 487.614278 334.424754 
L 488.547909 331.979742 
L 489.481539 325.187435 
L 490.41517 335.288806 
L 491.348801 334.424754 
L 492.282432 325.701661 
L 493.216062 331.789503 
L 494.149693 330.613304 
L 495.083324 309.530171 
L 496.016955 317.080524 
L 496.950586 331.761407 
L 497.884216 335.463693 
L 498.817847 334.424754 
L 499.751478 330.829975 
L 500.685109 294.564989 
L 501.61874 328.306204 
L 502.55237 319.768295 
L 503.486001 325.187435 
L 504.419632 328.852376 
L 505.353263 337.968531 
L 506.286893 323.464192 
L 507.220524 336.421405 
L 508.154155 325.962473 
L 509.087786 326.207445 
L 510.021417 326.135491 
L 510.955047 329.512129 
L 511.888678 328.306204 
L 512.822309 344.582402 
L 513.75594 313.97518 
L 514.689571 326.207445 
L 515.623201 329.512129 
L 516.556832 323.464192 
L 517.490463 324.036101 
L 518.424094 314.97395 
L 519.357724 323.464192 
L 520.291355 320.323862 
L 521.224986 320.569054 
L 522.158617 320.521583 
L 523.092248 318.027005 
L 524.025878 335.288806 
L 524.959509 316.847069 
L 525.89314 316.847069 
L 526.826771 317.631563 
L 527.760402 311.153647 
L 528.694032 312.864767 
L 529.627663 317.631563 
L 530.561294 319.995403 
L 531.494925 261.4699 
L 532.428555 312.864767 
L 533.362186 316.847069 
L 534.295817 328.852376 
L 535.229448 312.075989 
L 536.163079 311.153647 
L 537.096709 329.512129 
L 538.963971 305.921234 
L 539.897602 309.530171 
L 540.831233 302.228553 
L 541.764863 308.308671 
L 542.698494 293.297926 
L 543.632125 305.921234 
L 544.565756 309.819549 
L 545.499387 305.921234 
L 546.433017 307.264855 
L 547.366648 300.014998 
L 548.300279 301.748768 
L 549.23391 303.949255 
L 550.16754 300.61888 
L 551.101171 301.72066 
L 552.034802 305.921234 
L 552.968433 307.264855 
L 553.902064 305.921234 
L 554.835694 301.748768 
L 555.769325 294.564989 
L 556.702956 296.838646 
L 557.636587 296.838646 
L 558.570218 303.949255 
L 559.503848 296.838646 
L 562.304741 296.838646 
L 563.238371 288.615939 
L 564.172002 286.726603 
L 565.105633 289.17948 
L 566.039264 296.949364 
L 566.972895 305.921234 
L 567.906525 306.552243 
L 568.840156 284.182505 
L 569.773787 296.838646 
L 570.707418 296.838646 
L 571.641049 297.184386 
L 572.574679 269.209748 
L 573.50831 256.034136 
L 574.441941 238.281419 
L 575.375572 282.302734 
L 576.309202 263.425875 
L 577.242833 263.796223 
L 578.176464 310.275703 
L 579.110095 284.182505 
L 580.043726 290.981421 
L 580.977356 288.615939 
L 581.910987 290.981421 
L 582.844618 285.592591 
L 583.778249 277.262014 
L 584.71188 290.941095 
L 585.64551 285.776732 
L 586.579141 227.950287 
L 587.512772 258.388558 
L 588.446403 270.358025 
L 589.380033 291.250376 
L 590.313664 211.158341 
L 591.247295 222.11185 
L 592.180926 258.819629 
L 593.114557 211.158341 
L 594.048187 284.462782 
L 594.981818 253.172252 
L 595.915449 277.262014 
L 596.84908 285.232277 
L 597.782711 285.232277 
L 598.716341 284.462782 
L 599.649972 282.302734 
L 600.583603 282.302734 
L 601.517234 185.39919 
L 602.450864 273.389634 
L 603.384495 273.165977 
L 604.318126 268.658172 
L 605.251757 251.703188 
L 606.185388 285.232277 
L 607.119018 266.635567 
L 608.052649 273.06527 
L 608.98628 269.209748 
L 609.919911 269.209748 
L 610.853542 258.388558 
L 611.787172 269.209748 
L 613.654434 269.209748 
L 614.588065 229.842665 
L 615.521695 261.734442 
L 616.455326 263.747156 
L 617.388957 268.874019 
L 618.322588 261.896593 
L 619.256219 263.796223 
L 620.189849 273.604324 
L 621.12348 242.778858 
L 622.057111 236.408981 
L 622.990742 269.209748 
L 628.592526 269.209748 
L 629.526157 261.700645 
L 630.459788 274.966026 
L 631.393419 243.219259 
L 632.32705 274.966026 
L 633.26068 258.819629 
L 634.194311 253.27806 
L 635.127942 212.552405 
L 636.061573 271.247031 
L 636.995204 236.484886 
L 638.862465 236.281233 
L 639.796096 261.896593 
L 641.663358 236.652906 
L 642.596988 251.703188 
L 643.530619 225.185431 
L 644.46425 277.427365 
L 645.397881 244.914976 
L 646.331511 228.533705 
L 648.198773 276.559095 
L 649.132404 256.231231 
L 650.066035 253.27806 
L 650.999665 275.467543 
L 651.933296 236.424777 
L 652.866927 267.525017 
L 653.800558 255.434312 
L 654.734189 236.856667 
L 656.60145 236.856667 
L 657.535081 240.17717 
L 658.468712 236.484886 
L 659.402342 219.861675 
L 660.335973 226.261578 
L 661.269604 213.493464 
L 662.203235 220.24659 
L 663.136866 258.338917 
L 664.070496 268.740317 
L 665.004127 225.969134 
L 665.937758 236.484886 
L 666.871389 211.968089 
L 667.80502 253.066806 
L 668.73865 220.274965 
L 669.672281 174.182285 
L 670.605912 226.631494 
L 671.539543 225.969134 
L 672.473173 224.525555 
L 673.406804 211.844992 
L 674.340435 224.525555 
L 675.274066 148.695644 
L 676.207697 248.78908 
L 677.141327 202.873952 
L 678.074958 220.24659 
L 679.008589 163.012985 
L 679.94222 221.518019 
L 680.875851 202.348429 
L 681.809481 202.873952 
L 682.743112 200.67901 
L 683.676743 215.863375 
L 684.610374 208.626443 
L 685.544004 215.863375 
L 686.477635 208.626443 
L 687.411266 220.24659 
L 688.344897 201.948013 
L 689.278528 220.24659 
L 690.212158 220.24659 
L 691.145789 202.873952 
L 692.07942 205.682461 
L 693.013051 165.443566 
L 693.946682 193.629517 
L 694.880312 188.11803 
L 695.813943 189.039833 
L 696.747574 229.472746 
L 697.681205 185.39919 
L 698.614835 185.39919 
L 699.548466 231.024718 
L 700.482097 163.012985 
L 701.415728 184.603708 
L 702.349359 170.968947 
L 703.282989 146.959707 
L 704.21662 190.059584 
L 705.150251 178.072534 
L 707.017513 178.050361 
L 707.951143 205.083845 
L 708.884774 199.355576 
L 709.818405 231.064551 
L 711.685666 166.75515 
L 712.619297 166.75515 
L 713.552928 242.087298 
L 714.486559 165.449184 
L 715.42019 165.746534 
L 716.35382 165.831649 
L 717.287451 157.732836 
L 718.221082 166.933186 
L 719.154713 157.732836 
L 720.088344 166.111138 
L 721.021974 96.400274 
L 721.955605 248.78908 
L 722.889236 248.78908 
L 723.822867 144.21102 
L 724.756497 219.861675 
L 726.623759 219.861675 
L 727.55739 238.281419 
L 728.491021 150.216248 
L 729.424651 166.75515 
L 731.291913 137.728572 
L 732.225544 136.767621 
L 733.159175 137.728572 
L 734.092805 166.474852 
L 735.960067 131.023349 
L 736.893698 146.959707 
L 737.827328 169.11899 
L 738.760959 177.974269 
L 739.69459 177.974269 
L 740.628221 108.814327 
L 741.561852 83.807058 
L 742.495482 92.879963 
L 743.429113 90.96638 
L 744.362744 170.155096 
L 745.296375 90.96638 
L 746.230006 203.526041 
L 747.163636 151.402062 
L 747.163636 151.402062 
" clip-path="url(#p635e841054)" style="fill: none; stroke: #1f77b4; stroke-width: 0.5; stroke-linecap: square"/>
   </g>
   <g id="patch_3">
    <path d="M 108 384.48 
L 108 51.84 
" style="fill: none; stroke: #000000; stroke-width: 0.8; stroke-linejoin: miter; stroke-linecap: square"/>
   </g>
   <g id="patch_4">
    <path d="M 777.6 384.48 
L 777.6 51.84 
" style="fill: none; stroke: #000000; stroke-width: 0.8; stroke-linejoin: miter; stroke-linecap: square"/>
   </g>
   <g id="patch_5">
    <path d="M 108 384.48 
L 777.6 384.48 
" style="fill: none; stroke: #000000; stroke-width: 0.8; stroke-linejoin: miter; stroke-linecap: square"/>
   </g>
   <g id="patch_6">
    <path d="M 108 51.84 
L 777.6 51.84 
" style="fill: none; stroke: #000000; stroke-width: 0.8; stroke-linejoin: miter; stroke-linecap: square"/>
   </g>
   <g id="text_15">
    <!-- 3325 samples predictions -->
    <g transform="translate(365.55 45.84) scale(0.12 -0.12)">
     <defs>
      <path id="DejaVuSans-64" d="M 2906 2969 
L 2906 4863 
L 3481 4863 
L 3481 0 
L 2906 0 
L 2906 525 
Q 2725 213 2448 61 
Q 2172 -91 1784 -91 
Q 1150 -91 751 415 
Q 353 922 353 1747 
Q 353 2572 751 3078 
Q 1150 3584 1784 3584 
Q 2172 3584 2448 3432 
Q 2725 3281 2906 2969 
z
M 947 1747 
Q 947 1113 1208 752 
Q 1469 391 1925 391 
Q 2381 391 2643 752 
Q 2906 1113 2906 1747 
Q 2906 2381 2643 2742 
Q 2381 3103 1925 3103 
Q 1469 3103 1208 2742 
Q 947 2381 947 1747 
z
" transform="scale(0.015625)"/>
      <path id="DejaVuSans-63" d="M 3122 3366 
L 3122 2828 
Q 2878 2963 2633 3030 
Q 2388 3097 2138 3097 
Q 1578 3097 1268 2742 
Q 959 2388 959 1747 
Q 959 1106 1268 751 
Q 1578 397 2138 397 
Q 2388 397 2633 464 
Q 2878 531 3122 666 
L 3122 134 
Q 2881 22 2623 -34 
Q 2366 -91 2075 -91 
Q 1284 -91 818 406 
Q 353 903 353 1747 
Q 353 2603 823 3093 
Q 1294 3584 2113 3584 
Q 2378 3584 2631 3529 
Q 2884 3475 3122 3366 
z
" transform="scale(0.015625)"/>
      <path id="DejaVuSans-6f" d="M 1959 3097 
Q 1497 3097 1228 2736 
Q 959 2375 959 1747 
Q 959 1119 1226 758 
Q 1494 397 1959 397 
Q 2419 397 2687 759 
Q 2956 1122 2956 1747 
Q 2956 2369 2687 2733 
Q 2419 3097 1959 3097 
z
M 1959 3584 
Q 2709 3584 3137 3096 
Q 3566 2609 3566 1747 
Q 3566 888 3137 398 
Q 2709 -91 1959 -91 
Q 1206 -91 779 398 
Q 353 888 353 1747 
Q 353 2609 779 3096 
Q 1206 3584 1959 3584 
z
" transform="scale(0.015625)"/>
     </defs>
     <use xlink:href="#DejaVuSans-33"/>
     <use xlink:href="#DejaVuSans-33" x="63.623047"/>
     <use xlink:href="#DejaVuSans-32" x="127.246094"/>
     <use xlink:href="#DejaVuSans-35" x="190.869141"/>
     <use xlink:href="#DejaVuSans-20" x="254.492188"/>
     <use xlink:href="#DejaVuSans-73" x="286.279297"/>
     <use xlink:href="#DejaVuSans-61" x="338.378906"/>
     <use xlink:href="#DejaVuSans-6d" x="399.658203"/>
     <use xlink:href="#DejaVuSans-70" x="497.070312"/>
     <use xlink:href="#DejaVuSans-6c" x="560.546875"/>
     <use xlink:href="#DejaVuSans-65" x="588.330078"/>
     <use xlink:href="#DejaVuSans-73" x="649.853516"/>
     <use xlink:href="#DejaVuSans-20" x="701.953125"/>
     <use xlink:href="#DejaVuSans-70" x="733.740234"/>
     <use xlink:href="#DejaVuSans-72" x="797.216797"/>
     <use xlink:href="#DejaVuSans-65" x="836.080078"/>
     <use xlink:href="#DejaVuSans-64" x="897.603516"/>
     <use xlink:href="#DejaVuSans-69" x="961.080078"/>
     <use xlink:href="#DejaVuSans-63" x="988.863281"/>
     <use xlink:href="#DejaVuSans-74" x="1043.84375"/>
     <use xlink:href="#DejaVuSans-69" x="1083.052734"/>
     <use xlink:href="#DejaVuSans-6f" x="1110.835938"/>
     <use xlink:href="#DejaVuSans-6e" x="1172.017578"/>
     <use xlink:href="#DejaVuSans-73" x="1235.396484"/>
    </g>
   </g>
   <g id="legend_1">
    <g id="patch_7">
     <path d="M 661.01875 379.48 
L 770.6 379.48 
Q 772.6 379.48 772.6 377.48 
L 772.6 349.12375 
Q 772.6 347.12375 770.6 347.12375 
L 661.01875 347.12375 
Q 659.01875 347.12375 659.01875 349.12375 
L 659.01875 377.48 
Q 659.01875 379.48 661.01875 379.48 
z
" style="fill: #ffffff; opacity: 0.8; stroke: #cccccc; stroke-linejoin: miter"/>
    </g>
    <g id="line2d_17">
     <path d="M 663.01875 355.222188 
L 673.01875 355.222188 
L 683.01875 355.222188 
" style="fill: none; stroke: #ff0000; stroke-width: 0.5; stroke-linecap: square"/>
    </g>
    <g id="text_16">
     <!-- Actual Value -->
     <g transform="translate(691.01875 358.722188) scale(0.1 -0.1)">
      <defs>
       <path id="DejaVuSans-41" d="M 2188 4044 
L 1331 1722 
L 3047 1722 
L 2188 4044 
z
M 1831 4666 
L 2547 4666 
L 4325 0 
L 3669 0 
L 3244 1197 
L 1141 1197 
L 716 0 
L 50 0 
L 1831 4666 
z
" transform="scale(0.015625)"/>
       <path id="DejaVuSans-56" d="M 1831 0 
L 50 4666 
L 709 4666 
L 2188 738 
L 3669 4666 
L 4325 4666 
L 2547 0 
L 1831 0 
z
" transform="scale(0.015625)"/>
      </defs>
      <use xlink:href="#DejaVuSans-41"/>
      <use xlink:href="#DejaVuSans-63" x="66.658203"/>
      <use xlink:href="#DejaVuSans-74" x="121.638672"/>
      <use xlink:href="#DejaVuSans-75" x="160.847656"/>
      <use xlink:href="#DejaVuSans-61" x="224.226562"/>
      <use xlink:href="#DejaVuSans-6c" x="285.505859"/>
      <use xlink:href="#DejaVuSans-20" x="313.289062"/>
      <use xlink:href="#DejaVuSans-56" x="345.076172"/>
      <use xlink:href="#DejaVuSans-61" x="405.734375"/>
      <use xlink:href="#DejaVuSans-6c" x="467.013672"/>
      <use xlink:href="#DejaVuSans-75" x="494.796875"/>
      <use xlink:href="#DejaVuSans-65" x="558.175781"/>
     </g>
    </g>
    <g id="line2d_18">
     <path d="M 663.01875 369.900312 
L 673.01875 369.900312 
L 683.01875 369.900312 
" style="fill: none; stroke: #1f77b4; stroke-width: 0.5; stroke-linecap: square"/>
    </g>
    <g id="text_17">
     <!-- Predicted Value -->
     <g transform="translate(691.01875 373.400312) scale(0.1 -0.1)">
      <defs>
       <path id="DejaVuSans-50" d="M 1259 4147 
L 1259 2394 
L 2053 2394 
Q 2494 2394 2734 2622 
Q 2975 2850 2975 3272 
Q 2975 3691 2734 3919 
Q 2494 4147 2053 4147 
L 1259 4147 
z
M 628 4666 
L 2053 4666 
Q 2838 4666 3239 4311 
Q 3641 3956 3641 3272 
Q 3641 2581 3239 2228 
Q 2838 1875 2053 1875 
L 1259 1875 
L 1259 0 
L 628 0 
L 628 4666 
z
" transform="scale(0.015625)"/>
      </defs>
      <use xlink:href="#DejaVuSans-50"/>
      <use xlink:href="#DejaVuSans-72" x="58.552734"/>
      <use xlink:href="#DejaVuSans-65" x="97.416016"/>
      <use xlink:href="#DejaVuSans-64" x="158.939453"/>
      <use xlink:href="#DejaVuSans-69" x="222.416016"/>
      <use xlink:href="#DejaVuSans-63" x="250.199219"/>
      <use xlink:href="#DejaVuSans-74" x="305.179688"/>
      <use xlink:href="#DejaVuSans-65" x="344.388672"/>
      <use xlink:href="#DejaVuSans-64" x="405.912109"/>
      <use xlink:href="#DejaVuSans-20" x="469.388672"/>
      <use xlink:href="#DejaVuSans-56" x="501.175781"/>
      <use xlink:href="#DejaVuSans-61" x="561.833984"/>
      <use xlink:href="#DejaVuSans-6c" x="623.113281"/>
      <use xlink:href="#DejaVuSans-75" x="650.896484"/>
      <use xlink:href="#DejaVuSans-65" x="714.275391"/>
     </g>
    </g>
   </g>
  </g>
 </g>
 <defs>
  <clipPath id="p635e841054">
   <rect x="108" y="51.84" width="669.6" height="332.64"/>
  </clipPath>
 </defs>
</svg>
