<?xml version="1.0" encoding="utf-8" standalone="no"?>
<!DOCTYPE svg PUBLIC "-//W3C//DTD SVG 1.1//EN"
  "http://www.w3.org/Graphics/SVG/1.1/DTD/svg11.dtd">
<svg xmlns:xlink="http://www.w3.org/1999/xlink" width="864pt" height="432pt" viewBox="0 0 864 432" xmlns="http://www.w3.org/2000/svg" version="1.1">
 <metadata>
  <rdf:RDF xmlns:dc="http://purl.org/dc/elements/1.1/" xmlns:cc="http://creativecommons.org/ns#" xmlns:rdf="http://www.w3.org/1999/02/22-rdf-syntax-ns#">
   <cc:Work>
    <dc:type rdf:resource="http://purl.org/dc/dcmitype/StillImage"/>
    <dc:date>2024-04-15T11:20:10.889502</dc:date>
    <dc:format>image/svg+xml</dc:format>
    <dc:creator>
     <cc:Agent>
      <dc:title>Matplotlib v3.8.2, https://matplotlib.org/</dc:title>
     </cc:Agent>
    </dc:creator>
   </cc:Work>
  </rdf:RDF>
 </metadata>
 <defs>
  <style type="text/css">*{stroke-linejoin: round; stroke-linecap: butt}</style>
 </defs>
 <g id="figure_1">
  <g id="patch_1">
   <path d="M 0 432 
L 864 432 
L 864 0 
L 0 0 
z
" style="fill: #ffffff"/>
  </g>
  <g id="axes_1">
   <g id="patch_2">
    <path d="M 108 384.48 
L 777.6 384.48 
L 777.6 51.84 
L 108 51.84 
z
" style="fill: #ffffff"/>
   </g>
   <g id="matplotlib.axis_1">
    <g id="xtick_1">
     <g id="line2d_1">
      <defs>
       <path id="m68969175f8" d="M 0 0 
L 0 3.5 
" style="stroke: #000000; stroke-width: 0.8"/>
      </defs>
      <g>
       <use xlink:href="#m68969175f8" x="138.436364" y="384.48" style="stroke: #000000; stroke-width: 0.8"/>
      </g>
     </g>
     <g id="text_1">
      <!-- 0 -->
      <g transform="translate(135.255114 399.078438) scale(0.1 -0.1)">
       <defs>
        <path id="DejaVuSans-30" d="M 2034 4250 
Q 1547 4250 1301 3770 
Q 1056 3291 1056 2328 
Q 1056 1369 1301 889 
Q 1547 409 2034 409 
Q 2525 409 2770 889 
Q 3016 1369 3016 2328 
Q 3016 3291 2770 3770 
Q 2525 4250 2034 4250 
z
M 2034 4750 
Q 2819 4750 3233 4129 
Q 3647 3509 3647 2328 
Q 3647 1150 3233 529 
Q 2819 -91 2034 -91 
Q 1250 -91 836 529 
Q 422 1150 422 2328 
Q 422 3509 836 4129 
Q 1250 4750 2034 4750 
z
" transform="scale(0.015625)"/>
       </defs>
       <use xlink:href="#DejaVuSans-30"/>
      </g>
     </g>
    </g>
    <g id="xtick_2">
     <g id="line2d_2">
      <g>
       <use xlink:href="#m68969175f8" x="231.799442" y="384.48" style="stroke: #000000; stroke-width: 0.8"/>
      </g>
     </g>
     <g id="text_2">
      <!-- 100 -->
      <g transform="translate(222.255692 399.078438) scale(0.1 -0.1)">
       <defs>
        <path id="DejaVuSans-31" d="M 794 531 
L 1825 531 
L 1825 4091 
L 703 3866 
L 703 4441 
L 1819 4666 
L 2450 4666 
L 2450 531 
L 3481 531 
L 3481 0 
L 794 0 
L 794 531 
z
" transform="scale(0.015625)"/>
       </defs>
       <use xlink:href="#DejaVuSans-31"/>
       <use xlink:href="#DejaVuSans-30" x="63.623047"/>
       <use xlink:href="#DejaVuSans-30" x="127.246094"/>
      </g>
     </g>
    </g>
    <g id="xtick_3">
     <g id="line2d_3">
      <g>
       <use xlink:href="#m68969175f8" x="325.162521" y="384.48" style="stroke: #000000; stroke-width: 0.8"/>
      </g>
     </g>
     <g id="text_3">
      <!-- 200 -->
      <g transform="translate(315.618771 399.078438) scale(0.1 -0.1)">
       <defs>
        <path id="DejaVuSans-32" d="M 1228 531 
L 3431 531 
L 3431 0 
L 469 0 
L 469 531 
Q 828 903 1448 1529 
Q 2069 2156 2228 2338 
Q 2531 2678 2651 2914 
Q 2772 3150 2772 3378 
Q 2772 3750 2511 3984 
Q 2250 4219 1831 4219 
Q 1534 4219 1204 4116 
Q 875 4013 500 3803 
L 500 4441 
Q 881 4594 1212 4672 
Q 1544 4750 1819 4750 
Q 2544 4750 2975 4387 
Q 3406 4025 3406 3419 
Q 3406 3131 3298 2873 
Q 3191 2616 2906 2266 
Q 2828 2175 2409 1742 
Q 1991 1309 1228 531 
z
" transform="scale(0.015625)"/>
       </defs>
       <use xlink:href="#DejaVuSans-32"/>
       <use xlink:href="#DejaVuSans-30" x="63.623047"/>
       <use xlink:href="#DejaVuSans-30" x="127.246094"/>
      </g>
     </g>
    </g>
    <g id="xtick_4">
     <g id="line2d_4">
      <g>
       <use xlink:href="#m68969175f8" x="418.5256" y="384.48" style="stroke: #000000; stroke-width: 0.8"/>
      </g>
     </g>
     <g id="text_4">
      <!-- 300 -->
      <g transform="translate(408.98185 399.078438) scale(0.1 -0.1)">
       <defs>
        <path id="DejaVuSans-33" d="M 2597 2516 
Q 3050 2419 3304 2112 
Q 3559 1806 3559 1356 
Q 3559 666 3084 287 
Q 2609 -91 1734 -91 
Q 1441 -91 1130 -33 
Q 819 25 488 141 
L 488 750 
Q 750 597 1062 519 
Q 1375 441 1716 441 
Q 2309 441 2620 675 
Q 2931 909 2931 1356 
Q 2931 1769 2642 2001 
Q 2353 2234 1838 2234 
L 1294 2234 
L 1294 2753 
L 1863 2753 
Q 2328 2753 2575 2939 
Q 2822 3125 2822 3475 
Q 2822 3834 2567 4026 
Q 2313 4219 1838 4219 
Q 1578 4219 1281 4162 
Q 984 4106 628 3988 
L 628 4550 
Q 988 4650 1302 4700 
Q 1616 4750 1894 4750 
Q 2613 4750 3031 4423 
Q 3450 4097 3450 3541 
Q 3450 3153 3228 2886 
Q 3006 2619 2597 2516 
z
" transform="scale(0.015625)"/>
       </defs>
       <use xlink:href="#DejaVuSans-33"/>
       <use xlink:href="#DejaVuSans-30" x="63.623047"/>
       <use xlink:href="#DejaVuSans-30" x="127.246094"/>
      </g>
     </g>
    </g>
    <g id="xtick_5">
     <g id="line2d_5">
      <g>
       <use xlink:href="#m68969175f8" x="511.888678" y="384.48" style="stroke: #000000; stroke-width: 0.8"/>
      </g>
     </g>
     <g id="text_5">
      <!-- 400 -->
      <g transform="translate(502.344928 399.078438) scale(0.1 -0.1)">
       <defs>
        <path id="DejaVuSans-34" d="M 2419 4116 
L 825 1625 
L 2419 1625 
L 2419 4116 
z
M 2253 4666 
L 3047 4666 
L 3047 1625 
L 3713 1625 
L 3713 1100 
L 3047 1100 
L 3047 0 
L 2419 0 
L 2419 1100 
L 313 1100 
L 313 1709 
L 2253 4666 
z
" transform="scale(0.015625)"/>
       </defs>
       <use xlink:href="#DejaVuSans-34"/>
       <use xlink:href="#DejaVuSans-30" x="63.623047"/>
       <use xlink:href="#DejaVuSans-30" x="127.246094"/>
      </g>
     </g>
    </g>
    <g id="xtick_6">
     <g id="line2d_6">
      <g>
       <use xlink:href="#m68969175f8" x="605.251757" y="384.48" style="stroke: #000000; stroke-width: 0.8"/>
      </g>
     </g>
     <g id="text_6">
      <!-- 500 -->
      <g transform="translate(595.708007 399.078438) scale(0.1 -0.1)">
       <defs>
        <path id="DejaVuSans-35" d="M 691 4666 
L 3169 4666 
L 3169 4134 
L 1269 4134 
L 1269 2991 
Q 1406 3038 1543 3061 
Q 1681 3084 1819 3084 
Q 2600 3084 3056 2656 
Q 3513 2228 3513 1497 
Q 3513 744 3044 326 
Q 2575 -91 1722 -91 
Q 1428 -91 1123 -41 
Q 819 9 494 109 
L 494 744 
Q 775 591 1075 516 
Q 1375 441 1709 441 
Q 2250 441 2565 725 
Q 2881 1009 2881 1497 
Q 2881 1984 2565 2268 
Q 2250 2553 1709 2553 
Q 1456 2553 1204 2497 
Q 953 2441 691 2322 
L 691 4666 
z
" transform="scale(0.015625)"/>
       </defs>
       <use xlink:href="#DejaVuSans-35"/>
       <use xlink:href="#DejaVuSans-30" x="63.623047"/>
       <use xlink:href="#DejaVuSans-30" x="127.246094"/>
      </g>
     </g>
    </g>
    <g id="xtick_7">
     <g id="line2d_7">
      <g>
       <use xlink:href="#m68969175f8" x="698.614835" y="384.48" style="stroke: #000000; stroke-width: 0.8"/>
      </g>
     </g>
     <g id="text_7">
      <!-- 600 -->
      <g transform="translate(689.071085 399.078438) scale(0.1 -0.1)">
       <defs>
        <path id="DejaVuSans-36" d="M 2113 2584 
Q 1688 2584 1439 2293 
Q 1191 2003 1191 1497 
Q 1191 994 1439 701 
Q 1688 409 2113 409 
Q 2538 409 2786 701 
Q 3034 994 3034 1497 
Q 3034 2003 2786 2293 
Q 2538 2584 2113 2584 
z
M 3366 4563 
L 3366 3988 
Q 3128 4100 2886 4159 
Q 2644 4219 2406 4219 
Q 1781 4219 1451 3797 
Q 1122 3375 1075 2522 
Q 1259 2794 1537 2939 
Q 1816 3084 2150 3084 
Q 2853 3084 3261 2657 
Q 3669 2231 3669 1497 
Q 3669 778 3244 343 
Q 2819 -91 2113 -91 
Q 1303 -91 875 529 
Q 447 1150 447 2328 
Q 447 3434 972 4092 
Q 1497 4750 2381 4750 
Q 2619 4750 2861 4703 
Q 3103 4656 3366 4563 
z
" transform="scale(0.015625)"/>
       </defs>
       <use xlink:href="#DejaVuSans-36"/>
       <use xlink:href="#DejaVuSans-30" x="63.623047"/>
       <use xlink:href="#DejaVuSans-30" x="127.246094"/>
      </g>
     </g>
    </g>
    <g id="text_8">
     <!-- Sample Number -->
     <g transform="translate(402.376562 412.756563) scale(0.1 -0.1)">
      <defs>
       <path id="DejaVuSans-53" d="M 3425 4513 
L 3425 3897 
Q 3066 4069 2747 4153 
Q 2428 4238 2131 4238 
Q 1616 4238 1336 4038 
Q 1056 3838 1056 3469 
Q 1056 3159 1242 3001 
Q 1428 2844 1947 2747 
L 2328 2669 
Q 3034 2534 3370 2195 
Q 3706 1856 3706 1288 
Q 3706 609 3251 259 
Q 2797 -91 1919 -91 
Q 1588 -91 1214 -16 
Q 841 59 441 206 
L 441 856 
Q 825 641 1194 531 
Q 1563 422 1919 422 
Q 2459 422 2753 634 
Q 3047 847 3047 1241 
Q 3047 1584 2836 1778 
Q 2625 1972 2144 2069 
L 1759 2144 
Q 1053 2284 737 2584 
Q 422 2884 422 3419 
Q 422 4038 858 4394 
Q 1294 4750 2059 4750 
Q 2388 4750 2728 4690 
Q 3069 4631 3425 4513 
z
" transform="scale(0.015625)"/>
       <path id="DejaVuSans-61" d="M 2194 1759 
Q 1497 1759 1228 1600 
Q 959 1441 959 1056 
Q 959 750 1161 570 
Q 1363 391 1709 391 
Q 2188 391 2477 730 
Q 2766 1069 2766 1631 
L 2766 1759 
L 2194 1759 
z
M 3341 1997 
L 3341 0 
L 2766 0 
L 2766 531 
Q 2569 213 2275 61 
Q 1981 -91 1556 -91 
Q 1019 -91 701 211 
Q 384 513 384 1019 
Q 384 1609 779 1909 
Q 1175 2209 1959 2209 
L 2766 2209 
L 2766 2266 
Q 2766 2663 2505 2880 
Q 2244 3097 1772 3097 
Q 1472 3097 1187 3025 
Q 903 2953 641 2809 
L 641 3341 
Q 956 3463 1253 3523 
Q 1550 3584 1831 3584 
Q 2591 3584 2966 3190 
Q 3341 2797 3341 1997 
z
" transform="scale(0.015625)"/>
       <path id="DejaVuSans-6d" d="M 3328 2828 
Q 3544 3216 3844 3400 
Q 4144 3584 4550 3584 
Q 5097 3584 5394 3201 
Q 5691 2819 5691 2113 
L 5691 0 
L 5113 0 
L 5113 2094 
Q 5113 2597 4934 2840 
Q 4756 3084 4391 3084 
Q 3944 3084 3684 2787 
Q 3425 2491 3425 1978 
L 3425 0 
L 2847 0 
L 2847 2094 
Q 2847 2600 2669 2842 
Q 2491 3084 2119 3084 
Q 1678 3084 1418 2786 
Q 1159 2488 1159 1978 
L 1159 0 
L 581 0 
L 581 3500 
L 1159 3500 
L 1159 2956 
Q 1356 3278 1631 3431 
Q 1906 3584 2284 3584 
Q 2666 3584 2933 3390 
Q 3200 3197 3328 2828 
z
" transform="scale(0.015625)"/>
       <path id="DejaVuSans-70" d="M 1159 525 
L 1159 -1331 
L 581 -1331 
L 581 3500 
L 1159 3500 
L 1159 2969 
Q 1341 3281 1617 3432 
Q 1894 3584 2278 3584 
Q 2916 3584 3314 3078 
Q 3713 2572 3713 1747 
Q 3713 922 3314 415 
Q 2916 -91 2278 -91 
Q 1894 -91 1617 61 
Q 1341 213 1159 525 
z
M 3116 1747 
Q 3116 2381 2855 2742 
Q 2594 3103 2138 3103 
Q 1681 3103 1420 2742 
Q 1159 2381 1159 1747 
Q 1159 1113 1420 752 
Q 1681 391 2138 391 
Q 2594 391 2855 752 
Q 3116 1113 3116 1747 
z
" transform="scale(0.015625)"/>
       <path id="DejaVuSans-6c" d="M 603 4863 
L 1178 4863 
L 1178 0 
L 603 0 
L 603 4863 
z
" transform="scale(0.015625)"/>
       <path id="DejaVuSans-65" d="M 3597 1894 
L 3597 1613 
L 953 1613 
Q 991 1019 1311 708 
Q 1631 397 2203 397 
Q 2534 397 2845 478 
Q 3156 559 3463 722 
L 3463 178 
Q 3153 47 2828 -22 
Q 2503 -91 2169 -91 
Q 1331 -91 842 396 
Q 353 884 353 1716 
Q 353 2575 817 3079 
Q 1281 3584 2069 3584 
Q 2775 3584 3186 3129 
Q 3597 2675 3597 1894 
z
M 3022 2063 
Q 3016 2534 2758 2815 
Q 2500 3097 2075 3097 
Q 1594 3097 1305 2825 
Q 1016 2553 972 2059 
L 3022 2063 
z
" transform="scale(0.015625)"/>
       <path id="DejaVuSans-20" transform="scale(0.015625)"/>
       <path id="DejaVuSans-4e" d="M 628 4666 
L 1478 4666 
L 3547 763 
L 3547 4666 
L 4159 4666 
L 4159 0 
L 3309 0 
L 1241 3903 
L 1241 0 
L 628 0 
L 628 4666 
z
" transform="scale(0.015625)"/>
       <path id="DejaVuSans-75" d="M 544 1381 
L 544 3500 
L 1119 3500 
L 1119 1403 
Q 1119 906 1312 657 
Q 1506 409 1894 409 
Q 2359 409 2629 706 
Q 2900 1003 2900 1516 
L 2900 3500 
L 3475 3500 
L 3475 0 
L 2900 0 
L 2900 538 
Q 2691 219 2414 64 
Q 2138 -91 1772 -91 
Q 1169 -91 856 284 
Q 544 659 544 1381 
z
M 1991 3584 
L 1991 3584 
z
" transform="scale(0.015625)"/>
       <path id="DejaVuSans-62" d="M 3116 1747 
Q 3116 2381 2855 2742 
Q 2594 3103 2138 3103 
Q 1681 3103 1420 2742 
Q 1159 2381 1159 1747 
Q 1159 1113 1420 752 
Q 1681 391 2138 391 
Q 2594 391 2855 752 
Q 3116 1113 3116 1747 
z
M 1159 2969 
Q 1341 3281 1617 3432 
Q 1894 3584 2278 3584 
Q 2916 3584 3314 3078 
Q 3713 2572 3713 1747 
Q 3713 922 3314 415 
Q 2916 -91 2278 -91 
Q 1894 -91 1617 61 
Q 1341 213 1159 525 
L 1159 0 
L 581 0 
L 581 4863 
L 1159 4863 
L 1159 2969 
z
" transform="scale(0.015625)"/>
       <path id="DejaVuSans-72" d="M 2631 2963 
Q 2534 3019 2420 3045 
Q 2306 3072 2169 3072 
Q 1681 3072 1420 2755 
Q 1159 2438 1159 1844 
L 1159 0 
L 581 0 
L 581 3500 
L 1159 3500 
L 1159 2956 
Q 1341 3275 1631 3429 
Q 1922 3584 2338 3584 
Q 2397 3584 2469 3576 
Q 2541 3569 2628 3553 
L 2631 2963 
z
" transform="scale(0.015625)"/>
      </defs>
      <use xlink:href="#DejaVuSans-53"/>
      <use xlink:href="#DejaVuSans-61" x="63.476562"/>
      <use xlink:href="#DejaVuSans-6d" x="124.755859"/>
      <use xlink:href="#DejaVuSans-70" x="222.167969"/>
      <use xlink:href="#DejaVuSans-6c" x="285.644531"/>
      <use xlink:href="#DejaVuSans-65" x="313.427734"/>
      <use xlink:href="#DejaVuSans-20" x="374.951172"/>
      <use xlink:href="#DejaVuSans-4e" x="406.738281"/>
      <use xlink:href="#DejaVuSans-75" x="481.542969"/>
      <use xlink:href="#DejaVuSans-6d" x="544.921875"/>
      <use xlink:href="#DejaVuSans-62" x="642.333984"/>
      <use xlink:href="#DejaVuSans-65" x="705.810547"/>
      <use xlink:href="#DejaVuSans-72" x="767.333984"/>
     </g>
    </g>
   </g>
   <g id="matplotlib.axis_2">
    <g id="ytick_1">
     <g id="line2d_8">
      <defs>
       <path id="m4d8e1b2dec" d="M 0 0 
L -3.5 0 
" style="stroke: #000000; stroke-width: 0.8"/>
      </defs>
      <g>
       <use xlink:href="#m4d8e1b2dec" x="108" y="344.038342" style="stroke: #000000; stroke-width: 0.8"/>
      </g>
     </g>
     <g id="text_9">
      <!-- 0 -->
      <g transform="translate(94.6375 347.837561) scale(0.1 -0.1)">
       <use xlink:href="#DejaVuSans-30"/>
      </g>
     </g>
    </g>
    <g id="ytick_2">
     <g id="line2d_9">
      <g>
       <use xlink:href="#m4d8e1b2dec" x="108" y="281.111756" style="stroke: #000000; stroke-width: 0.8"/>
      </g>
     </g>
     <g id="text_10">
      <!-- 5 -->
      <g transform="translate(94.6375 284.910975) scale(0.1 -0.1)">
       <use xlink:href="#DejaVuSans-35"/>
      </g>
     </g>
    </g>
    <g id="ytick_3">
     <g id="line2d_10">
      <g>
       <use xlink:href="#m4d8e1b2dec" x="108" y="218.185171" style="stroke: #000000; stroke-width: 0.8"/>
      </g>
     </g>
     <g id="text_11">
      <!-- 10 -->
      <g transform="translate(88.275 221.984389) scale(0.1 -0.1)">
       <use xlink:href="#DejaVuSans-31"/>
       <use xlink:href="#DejaVuSans-30" x="63.623047"/>
      </g>
     </g>
    </g>
    <g id="ytick_4">
     <g id="line2d_11">
      <g>
       <use xlink:href="#m4d8e1b2dec" x="108" y="155.258585" style="stroke: #000000; stroke-width: 0.8"/>
      </g>
     </g>
     <g id="text_12">
      <!-- 15 -->
      <g transform="translate(88.275 159.057804) scale(0.1 -0.1)">
       <use xlink:href="#DejaVuSans-31"/>
       <use xlink:href="#DejaVuSans-35" x="63.623047"/>
      </g>
     </g>
    </g>
    <g id="ytick_5">
     <g id="line2d_12">
      <g>
       <use xlink:href="#m4d8e1b2dec" x="108" y="92.331999" style="stroke: #000000; stroke-width: 0.8"/>
      </g>
     </g>
     <g id="text_13">
      <!-- 20 -->
      <g transform="translate(88.275 96.131218) scale(0.1 -0.1)">
       <use xlink:href="#DejaVuSans-32"/>
       <use xlink:href="#DejaVuSans-30" x="63.623047"/>
      </g>
     </g>
    </g>
    <g id="text_14">
     <!-- Magnetism -->
     <g transform="translate(82.195312 245.781875) rotate(-90) scale(0.1 -0.1)">
      <defs>
       <path id="DejaVuSans-4d" d="M 628 4666 
L 1569 4666 
L 2759 1491 
L 3956 4666 
L 4897 4666 
L 4897 0 
L 4281 0 
L 4281 4097 
L 3078 897 
L 2444 897 
L 1241 4097 
L 1241 0 
L 628 0 
L 628 4666 
z
" transform="scale(0.015625)"/>
       <path id="DejaVuSans-67" d="M 2906 1791 
Q 2906 2416 2648 2759 
Q 2391 3103 1925 3103 
Q 1463 3103 1205 2759 
Q 947 2416 947 1791 
Q 947 1169 1205 825 
Q 1463 481 1925 481 
Q 2391 481 2648 825 
Q 2906 1169 2906 1791 
z
M 3481 434 
Q 3481 -459 3084 -895 
Q 2688 -1331 1869 -1331 
Q 1566 -1331 1297 -1286 
Q 1028 -1241 775 -1147 
L 775 -588 
Q 1028 -725 1275 -790 
Q 1522 -856 1778 -856 
Q 2344 -856 2625 -561 
Q 2906 -266 2906 331 
L 2906 616 
Q 2728 306 2450 153 
Q 2172 0 1784 0 
Q 1141 0 747 490 
Q 353 981 353 1791 
Q 353 2603 747 3093 
Q 1141 3584 1784 3584 
Q 2172 3584 2450 3431 
Q 2728 3278 2906 2969 
L 2906 3500 
L 3481 3500 
L 3481 434 
z
" transform="scale(0.015625)"/>
       <path id="DejaVuSans-6e" d="M 3513 2113 
L 3513 0 
L 2938 0 
L 2938 2094 
Q 2938 2591 2744 2837 
Q 2550 3084 2163 3084 
Q 1697 3084 1428 2787 
Q 1159 2491 1159 1978 
L 1159 0 
L 581 0 
L 581 3500 
L 1159 3500 
L 1159 2956 
Q 1366 3272 1645 3428 
Q 1925 3584 2291 3584 
Q 2894 3584 3203 3211 
Q 3513 2838 3513 2113 
z
" transform="scale(0.015625)"/>
       <path id="DejaVuSans-74" d="M 1172 4494 
L 1172 3500 
L 2356 3500 
L 2356 3053 
L 1172 3053 
L 1172 1153 
Q 1172 725 1289 603 
Q 1406 481 1766 481 
L 2356 481 
L 2356 0 
L 1766 0 
Q 1100 0 847 248 
Q 594 497 594 1153 
L 594 3053 
L 172 3053 
L 172 3500 
L 594 3500 
L 594 4494 
L 1172 4494 
z
" transform="scale(0.015625)"/>
       <path id="DejaVuSans-69" d="M 603 3500 
L 1178 3500 
L 1178 0 
L 603 0 
L 603 3500 
z
M 603 4863 
L 1178 4863 
L 1178 4134 
L 603 4134 
L 603 4863 
z
" transform="scale(0.015625)"/>
       <path id="DejaVuSans-73" d="M 2834 3397 
L 2834 2853 
Q 2591 2978 2328 3040 
Q 2066 3103 1784 3103 
Q 1356 3103 1142 2972 
Q 928 2841 928 2578 
Q 928 2378 1081 2264 
Q 1234 2150 1697 2047 
L 1894 2003 
Q 2506 1872 2764 1633 
Q 3022 1394 3022 966 
Q 3022 478 2636 193 
Q 2250 -91 1575 -91 
Q 1294 -91 989 -36 
Q 684 19 347 128 
L 347 722 
Q 666 556 975 473 
Q 1284 391 1588 391 
Q 1994 391 2212 530 
Q 2431 669 2431 922 
Q 2431 1156 2273 1281 
Q 2116 1406 1581 1522 
L 1381 1569 
Q 847 1681 609 1914 
Q 372 2147 372 2553 
Q 372 3047 722 3315 
Q 1072 3584 1716 3584 
Q 2034 3584 2315 3537 
Q 2597 3491 2834 3397 
z
" transform="scale(0.015625)"/>
      </defs>
      <use xlink:href="#DejaVuSans-4d"/>
      <use xlink:href="#DejaVuSans-61" x="86.279297"/>
      <use xlink:href="#DejaVuSans-67" x="147.558594"/>
      <use xlink:href="#DejaVuSans-6e" x="211.035156"/>
      <use xlink:href="#DejaVuSans-65" x="274.414062"/>
      <use xlink:href="#DejaVuSans-74" x="335.9375"/>
      <use xlink:href="#DejaVuSans-69" x="375.146484"/>
      <use xlink:href="#DejaVuSans-73" x="402.929688"/>
      <use xlink:href="#DejaVuSans-6d" x="455.029297"/>
     </g>
    </g>
   </g>
   <g id="line2d_13">
    <path d="M 161.777133 384.48 
L 161.777133 51.84 
" clip-path="url(#pe444128800)" style="fill: none; stroke-dasharray: 5.55,2.4; stroke-dashoffset: 0; stroke: #008000; stroke-width: 1.5"/>
   </g>
   <g id="line2d_14">
    <path d="M 448.401785 384.48 
L 448.401785 51.84 
" clip-path="url(#pe444128800)" style="fill: none; stroke-dasharray: 5.55,2.4; stroke-dashoffset: 0; stroke: #008000; stroke-width: 1.5"/>
   </g>
   <g id="line2d_15">
    <path d="M 138.436364 369.36 
L 139.369994 367.9882 
L 140.303625 363.180609 
L 141.237256 362.438076 
L 142.170887 362.312222 
L 143.104518 359.140722 
L 144.038148 358.461115 
L 144.971779 358.247165 
L 145.90541 358.159068 
L 146.839041 349.248663 
L 148.706302 349.248663 
L 149.639933 348.984372 
L 150.573564 348.984372 
L 151.507195 348.745251 
L 152.440825 348.745251 
L 153.374456 348.002717 
L 154.308087 346.895209 
L 155.241718 346.895209 
L 156.175349 345.347215 
L 157.108979 344.856388 
L 158.04261 344.55434 
L 158.976241 344.529169 
L 161.777133 344.038342 
L 449.335416 343.975415 
L 450.269046 343.685953 
L 452.136308 343.497173 
L 454.003569 343.472003 
L 454.9372 343.119614 
L 456.804462 342.956005 
L 460.538985 342.263812 
L 461.472616 342.16313 
L 462.406247 341.810741 
L 464.273508 341.647132 
L 465.207139 341.294743 
L 466.14077 340.514453 
L 468.941662 340.086552 
L 469.875293 340.048796 
L 470.808924 339.671237 
L 471.742554 339.545384 
L 472.676185 339.218165 
L 474.543447 338.790265 
L 475.477078 338.777679 
L 476.410708 338.475632 
L 477.344339 338.450461 
L 478.27797 337.380709 
L 480.145231 337.078662 
L 481.078862 335.807545 
L 482.012493 335.794959 
L 482.946124 335.606179 
L 483.879755 335.555838 
L 484.813385 335.241205 
L 485.747016 335.178279 
L 488.547909 333.114287 
L 489.481539 333.038775 
L 490.41517 332.547947 
L 491.348801 332.43468 
L 492.282432 332.132632 
L 493.216062 332.082291 
L 495.083324 331.692146 
L 496.950586 331.65439 
L 497.884216 330.622394 
L 498.817847 330.332932 
L 499.751478 330.169322 
L 500.685109 329.225424 
L 501.61874 329.099571 
L 503.486001 327.29987 
L 504.419632 327.29987 
L 507.220524 326.771287 
L 508.154155 326.771287 
L 509.087786 326.607678 
L 510.955047 326.481825 
L 512.822309 325.827388 
L 514.689571 325.613438 
L 515.623201 325.235878 
L 516.556832 325.059684 
L 517.490463 324.619198 
L 519.357724 324.140956 
L 520.291355 322.869839 
L 521.224986 322.064378 
L 522.158617 320.893944 
L 523.092248 318.77961 
L 524.025878 318.452392 
L 524.959509 314.299238 
L 526.826771 314.299238 
L 527.760402 313.317583 
L 528.694032 313.19173 
L 529.627663 313.19173 
L 530.561294 312.524708 
L 532.428555 312.348513 
L 533.362186 312.348513 
L 534.295817 311.832515 
L 535.229448 311.618565 
L 536.163079 311.618565 
L 537.096709 311.190664 
L 538.03034 311.064811 
L 538.963971 310.737593 
L 540.831233 310.662081 
L 541.764863 309.881791 
L 542.698494 309.541988 
L 544.565756 309.403549 
L 545.499387 308.812039 
L 546.433017 307.050095 
L 548.300279 306.974583 
L 549.23391 305.66571 
L 551.101171 305.66571 
L 552.034802 304.86025 
L 552.968433 303.400353 
L 553.902064 302.28026 
L 554.835694 300.581242 
L 555.769325 300.077829 
L 556.702956 298.995492 
L 557.636587 298.970321 
L 558.570218 297.963496 
L 559.503848 297.497839 
L 562.304741 297.447498 
L 563.238371 296.994427 
L 566.039264 296.730135 
L 566.972895 296.52877 
L 567.906525 296.52877 
L 568.840156 295.710724 
L 569.773787 295.207311 
L 570.707418 295.207311 
L 571.641049 293.709659 
L 572.574679 293.181075 
L 573.50831 291.280693 
L 574.441941 291.230351 
L 576.309202 290.915718 
L 578.176464 287.907828 
L 579.110095 287.681292 
L 580.043726 286.649296 
L 581.910987 286.649296 
L 582.844618 286.045201 
L 583.778249 285.692812 
L 585.64551 284.2455 
L 586.579141 283.112822 
L 587.512772 282.496141 
L 588.446403 281.149512 
L 589.380033 280.444734 
L 590.313664 280.205613 
L 593.114557 278.758302 
L 594.048187 277.826989 
L 594.981818 277.776647 
L 596.84908 277.210308 
L 597.782711 277.210308 
L 598.716341 276.820163 
L 600.583603 276.820163 
L 601.517234 276.48036 
L 602.450864 274.353441 
L 603.384495 273.988467 
L 604.318126 272.088084 
L 605.251757 271.257453 
L 607.119018 271.169356 
L 608.052649 267.922344 
L 609.919911 267.821661 
L 613.654434 267.821661 
L 614.588065 267.066542 
L 615.521695 265.757669 
L 616.455326 264.776015 
L 617.388957 264.776015 
L 618.322588 263.681092 
L 619.256219 263.278362 
L 620.189849 262.284122 
L 621.12348 260.723543 
L 622.990742 259.477596 
L 628.592526 259.477596 
L 629.526157 258.735062 
L 630.459788 257.249995 
L 631.393419 256.520047 
L 632.32705 252.48016 
L 633.26068 252.1026 
L 634.194311 252.1026 
L 635.127942 251.561432 
L 636.061573 250.630118 
L 637.928834 250.378412 
L 638.862465 249.912755 
L 639.796096 246.187501 
L 640.729727 246.187501 
L 641.663358 243.657853 
L 642.596988 242.864978 
L 643.530619 242.474833 
L 645.397881 242.1602 
L 646.331511 242.1602 
L 647.265142 241.732299 
L 648.198773 241.556105 
L 649.132404 240.939424 
L 650.999665 238.258751 
L 651.933296 237.138658 
L 652.866927 233.589599 
L 653.800558 231.361998 
L 654.734189 227.926206 
L 656.60145 227.875865 
L 658.468712 227.208843 
L 659.402342 225.144851 
L 660.335973 225.132266 
L 661.269604 222.955006 
L 662.203235 221.620962 
L 665.004127 221.495109 
L 665.937758 220.677063 
L 666.871389 220.286919 
L 667.80502 219.103899 
L 668.73865 217.442637 
L 669.672281 217.291613 
L 670.605912 216.662347 
L 671.539543 214.132699 
L 672.473173 213.276897 
L 673.406804 213.125873 
L 674.340435 211.540123 
L 675.274066 210.772419 
L 676.207697 207.928137 
L 677.141327 207.210774 
L 678.074958 206.229119 
L 679.008589 206.178778 
L 679.94222 205.461415 
L 680.875851 203.08279 
L 681.809481 202.201818 
L 682.743112 202.113721 
L 683.676743 201.648064 
L 684.610374 201.648064 
L 685.544004 201.119481 
L 686.477635 201.119481 
L 687.411266 200.993627 
L 688.344897 200.540556 
L 689.278528 200.527971 
L 690.212158 200.049729 
L 691.145789 198.91705 
L 692.07942 193.782241 
L 693.013051 192.913854 
L 693.946682 189.692013 
L 695.813943 189.629086 
L 696.747574 186.82256 
L 697.681205 185.82832 
L 699.548466 185.82832 
L 700.482097 181.398289 
L 701.415728 180.378878 
L 702.349359 179.888051 
L 703.282989 179.799953 
L 704.21662 179.434979 
L 705.150251 178.830884 
L 707.017513 176.376747 
L 707.951143 173.834513 
L 708.884774 173.834513 
L 709.818405 172.047398 
L 710.752036 171.883789 
L 712.619297 171.883789 
L 713.552928 169.580676 
L 714.486559 168.020097 
L 715.42019 167.567025 
L 716.35382 165.691813 
L 717.287451 164.269672 
L 719.154713 164.269672 
L 720.088344 161.513488 
L 721.021974 161.513488 
L 721.955605 161.161099 
L 722.889236 160.670271 
L 723.822867 159.512422 
L 724.756497 154.692246 
L 726.623759 154.67966 
L 727.55739 149.809143 
L 728.491021 149.49451 
L 729.424651 148.009442 
L 730.358282 139.375915 
L 731.291913 138.658552 
L 733.159175 135.449296 
L 734.092805 131.598189 
L 735.026436 129.345417 
L 735.960067 129.345417 
L 736.893698 128.87976 
L 737.827328 125.09158 
L 738.760959 112.518848 
L 739.69459 111.247731 
L 740.628221 100.764162 
L 741.561852 92.118049 
L 742.495482 91.073468 
L 743.429113 90.431616 
L 744.362744 90.431616 
L 745.296375 89.160499 
L 746.230006 87.146849 
L 747.163636 66.96 
L 747.163636 66.96 
" clip-path="url(#pe444128800)" style="fill: none; stroke: #ff0000; stroke-width: 0.5; stroke-linecap: square"/>
   </g>
   <g id="line2d_16">
    <path d="M 138.436364 344.053633 
L 140.303625 344.038342 
L 141.237256 338.712888 
L 142.170887 354.592276 
L 143.104518 338.809669 
L 144.038148 364.184162 
L 144.971779 341.410404 
L 145.90541 353.55418 
L 146.839041 346.516871 
L 150.573564 346.516871 
L 151.507195 356.270787 
L 152.440825 344.038342 
L 153.374456 344.038342 
L 154.308087 341.315657 
L 155.241718 341.315657 
L 156.175349 344.32092 
L 157.108979 345.679353 
L 158.04261 342.63076 
L 158.976241 330.150824 
L 159.909872 326.030815 
L 160.843503 344.416307 
L 161.777133 344.038342 
L 163.644395 344.038342 
L 164.578026 338.809669 
L 165.511656 344.038342 
L 166.445287 343.954656 
L 168.312549 344.038342 
L 195.387842 344.038342 
L 196.321472 338.838993 
L 197.255103 344.038342 
L 201.923257 344.038342 
L 202.856888 341.796014 
L 203.790519 344.038342 
L 204.724149 344.038342 
L 205.65778 345.786294 
L 206.591411 344.038342 
L 222.463134 344.068924 
L 223.396765 345.679353 
L 224.330396 344.038342 
L 225.264027 344.038342 
L 226.197658 319.044982 
L 227.131288 344.038342 
L 234.600335 344.038342 
L 235.533965 348.515771 
L 236.467596 344.038342 
L 239.268489 344.038342 
L 240.202119 346.516871 
L 241.13575 344.038342 
L 250.472058 344.068924 
L 251.405689 344.416307 
L 252.33932 344.038342 
L 264.47652 344.038342 
L 265.410151 341.796014 
L 266.343781 344.038342 
L 271.011935 344.038342 
L 271.945566 352.878846 
L 272.879197 344.068924 
L 276.61372 344.038342 
L 277.547351 344.038342 
L 278.480982 356.270787 
L 279.414612 344.038342 
L 312.09169 344.038342 
L 313.025321 319.116782 
L 313.958951 344.038342 
L 328.897044 344.038342 
L 329.830675 346.516871 
L 330.764306 344.068924 
L 334.498829 344.038342 
L 343.835137 344.038342 
L 344.768767 343.147741 
L 345.702398 344.038342 
L 373.711322 344.038342 
L 374.644953 352.878846 
L 375.578583 344.038342 
L 376.512214 348.515771 
L 377.445845 344.038342 
L 378.379476 344.038342 
L 379.313107 345.806444 
L 380.246737 344.038342 
L 402.653876 344.038342 
L 403.587507 355.269702 
L 404.521138 344.038342 
L 418.5256 344.038342 
L 419.45923 346.516871 
L 420.392861 344.038342 
L 425.061015 344.013024 
L 425.994646 346.516871 
L 426.928277 344.038342 
L 428.795538 344.038342 
L 429.729169 355.860118 
L 430.6628 344.038342 
L 445.600892 344.038342 
L 446.534523 346.516871 
L 447.468154 344.038342 
L 448.401785 344.756443 
L 449.335416 341.266143 
L 450.269046 326.030815 
L 451.202677 336.004742 
L 452.136308 342.504154 
L 453.069939 326.030815 
L 454.003569 335.939861 
L 454.9372 344.038342 
L 455.870831 344.038342 
L 456.804462 339.773052 
L 457.738093 332.051092 
L 459.605354 344.016382 
L 461.472616 344.016382 
L 462.406247 344.416307 
L 463.339877 326.030815 
L 464.273508 305.429181 
L 465.207139 340.552886 
L 466.14077 340.042844 
L 467.0744 339.773052 
L 468.008031 305.418006 
L 468.941662 339.906272 
L 469.875293 339.773052 
L 470.808924 325.357442 
L 471.742554 344.32092 
L 472.676185 339.639428 
L 473.609816 339.152618 
L 474.543447 318.330384 
L 475.477078 339.773052 
L 476.410708 334.247521 
L 477.344339 345.484747 
L 478.27797 330.651375 
L 479.211601 338.057036 
L 480.145231 338.057036 
L 481.078862 291.082679 
L 482.012493 335.642803 
L 482.946124 344.029784 
L 483.879755 335.642803 
L 484.813385 325.422414 
L 485.747016 344.038342 
L 486.680647 338.057036 
L 487.614278 338.057036 
L 488.547909 327.160271 
L 489.481539 335.648225 
L 490.41517 305.539888 
L 491.348801 338.057036 
L 492.282432 305.394098 
L 493.216062 330.667752 
L 494.149693 331.938873 
L 495.083324 310.338185 
L 496.016955 310.593801 
L 496.950586 330.064913 
L 497.884216 343.222512 
L 498.817847 338.057036 
L 499.751478 330.294995 
L 500.685109 305.27166 
L 501.61874 330.398369 
L 502.55237 321.546038 
L 503.486001 335.648225 
L 504.419632 325.422414 
L 506.286893 324.792959 
L 507.220524 339.771222 
L 508.154155 330.344991 
L 509.087786 330.564624 
L 510.021417 270.131648 
L 510.955047 331.515491 
L 511.888678 330.398369 
L 512.822309 346.309491 
L 513.75594 315.244202 
L 514.689571 330.564624 
L 515.623201 331.515491 
L 516.556832 324.792959 
L 517.490463 330.483774 
L 518.424094 314.930796 
L 519.357724 324.792959 
L 520.291355 283.257696 
L 521.224986 282.928392 
L 523.092248 342.966228 
L 524.025878 305.539888 
L 524.959509 312.335739 
L 525.89314 312.335739 
L 526.826771 321.304948 
L 527.760402 312.279588 
L 528.694032 312.265199 
L 529.627663 321.304948 
L 530.561294 331.759234 
L 531.494925 305.172393 
L 532.428555 312.265199 
L 533.362186 312.335739 
L 534.295817 325.422414 
L 535.229448 315.429594 
L 536.163079 312.279588 
L 537.096709 331.515491 
L 538.03034 312.149382 
L 538.963971 305.486866 
L 539.897602 310.338185 
L 540.831233 299.036238 
L 541.764863 309.850251 
L 542.698494 283.020412 
L 543.632125 305.486866 
L 544.565756 309.993816 
L 545.499387 305.486866 
L 546.433017 307.832804 
L 547.366648 300.400227 
L 548.300279 303.246728 
L 549.23391 298.119878 
L 550.16754 297.994059 
L 551.101171 300.70582 
L 552.034802 305.486866 
L 552.968433 307.832804 
L 554.835694 303.246728 
L 555.769325 305.27166 
L 556.702956 297.775063 
L 557.636587 297.775063 
L 558.570218 298.119878 
L 559.503848 297.775063 
L 562.304741 297.775063 
L 563.238371 291.06438 
L 564.172002 285.613345 
L 565.105633 268.583222 
L 566.039264 301.171082 
L 566.972895 305.486866 
L 567.906525 308.037416 
L 568.840156 298.945475 
L 569.773787 297.775063 
L 570.707418 297.775063 
L 571.641049 293.602598 
L 572.574679 265.549198 
L 573.50831 265.235851 
L 574.441941 264.496721 
L 575.375572 280.793404 
L 576.309202 293.270607 
L 577.242833 264.803765 
L 578.176464 316.899919 
L 579.110095 298.945475 
L 580.043726 291.439454 
L 580.977356 291.06438 
L 581.910987 291.439454 
L 582.844618 303.505605 
L 583.778249 274.259429 
L 584.71188 277.741901 
L 585.64551 294.211486 
L 586.579141 221.2635 
L 587.512772 266.01693 
L 588.446403 293.689163 
L 591.247295 213.804289 
L 592.180926 251.00245 
L 593.114557 236.86993 
L 594.048187 293.776971 
L 594.981818 205.472742 
L 595.915449 274.259429 
L 596.84908 277.635847 
L 597.782711 277.635847 
L 598.716341 293.776971 
L 599.649972 280.793404 
L 600.583603 280.793404 
L 601.517234 236.311605 
L 602.450864 264.241634 
L 603.384495 273.604396 
L 604.318126 281.603845 
L 605.251757 254.749454 
L 606.185388 277.635847 
L 607.119018 281.66628 
L 608.052649 280.507845 
L 608.98628 265.549198 
L 609.919911 265.549198 
L 610.853542 266.01693 
L 611.787172 265.549198 
L 613.654434 265.549198 
L 614.588065 227.678853 
L 615.521695 256.68397 
L 616.455326 251.721434 
L 617.388957 265.057957 
L 618.322588 258.44994 
L 619.256219 264.803765 
L 620.189849 317.145861 
L 621.12348 267.893691 
L 622.057111 252.262429 
L 622.990742 265.549198 
L 628.592526 265.549198 
L 629.526157 277.805124 
L 630.459788 293.336074 
L 631.393419 224.893912 
L 632.32705 293.336074 
L 633.26068 251.00245 
L 634.194311 253.898168 
L 635.127942 231.165438 
L 636.061573 298.181962 
L 636.995204 261.129465 
L 637.928834 252.262429 
L 638.862465 224.884536 
L 639.796096 258.44994 
L 640.729727 251.401191 
L 641.663358 237.836376 
L 642.596988 254.749454 
L 643.530619 233.986457 
L 644.46425 277.198884 
L 645.397881 235.347067 
L 646.331511 235.569353 
L 647.265142 253.898168 
L 648.198773 266.528059 
L 649.132404 265.884085 
L 650.066035 253.898168 
L 650.999665 302.63118 
L 651.933296 268.353819 
L 652.866927 238.864553 
L 653.800558 344.162689 
L 654.734189 227.715401 
L 656.60145 227.715401 
L 657.535081 226.900001 
L 658.468712 261.129465 
L 659.402342 225.090592 
L 660.335973 226.794777 
L 661.269604 204.378868 
L 662.203235 202.11894 
L 663.136866 267.822609 
L 664.070496 269.493789 
L 665.004127 211.555932 
L 665.937758 261.129465 
L 666.871389 215.570747 
L 667.80502 211.542619 
L 668.73865 213.580958 
L 669.672281 181.090116 
L 670.605912 214.890243 
L 671.539543 211.555932 
L 672.473173 213.626106 
L 673.406804 211.98278 
L 674.340435 213.626106 
L 675.274066 210.070347 
L 676.207697 224.685965 
L 677.141327 204.462875 
L 678.074958 202.11894 
L 679.008589 199.110238 
L 679.94222 204.988129 
L 680.875851 206.049055 
L 681.809481 204.462875 
L 682.743112 201.063845 
L 683.676743 208.856137 
L 684.610374 221.234782 
L 685.544004 208.856137 
L 686.477635 221.234782 
L 687.411266 202.11894 
L 688.344897 201.39443 
L 689.278528 202.11894 
L 690.212158 202.11894 
L 691.145789 204.462875 
L 692.07942 209.194409 
L 693.013051 167.117876 
L 693.946682 189.645237 
L 694.880312 187.99541 
L 695.813943 190.960906 
L 696.747574 185.505518 
L 697.681205 236.311605 
L 698.614835 236.311605 
L 699.548466 234.82542 
L 700.482097 199.110238 
L 701.415728 178.626366 
L 702.349359 174.520135 
L 703.282989 176.788297 
L 704.21662 220.370221 
L 705.150251 180.617295 
L 706.083882 179.432064 
L 707.017513 179.432064 
L 707.951143 205.351996 
L 708.884774 175.048495 
L 709.818405 264.478082 
L 710.752036 182.440723 
L 711.685666 160.930903 
L 712.619297 160.930903 
L 713.552928 264.294202 
L 714.486559 166.864518 
L 715.42019 167.560565 
L 716.35382 167.953982 
L 717.287451 167.716906 
L 718.221082 167.321318 
L 719.154713 167.716906 
L 720.088344 161.026897 
L 721.021974 160.83451 
L 721.955605 224.685965 
L 722.889236 224.685965 
L 723.822867 147.630014 
L 724.756497 225.090592 
L 726.623759 225.090592 
L 727.55739 264.496721 
L 728.491021 150.258269 
L 729.424651 160.930903 
L 730.358282 141.010592 
L 731.291913 141.287572 
L 732.225544 139.60523 
L 733.159175 141.287572 
L 734.092805 234.09572 
L 735.026436 236.401693 
L 735.960067 234.615688 
L 736.893698 176.788297 
L 737.827328 223.617786 
L 738.760959 234.608701 
L 739.69459 234.608701 
L 740.628221 105.284808 
L 741.561852 126.462415 
L 742.495482 94.592952 
L 743.429113 135.318744 
L 744.362744 226.011546 
L 745.296375 135.318744 
L 746.230006 178.435323 
L 747.163636 135.38953 
L 747.163636 135.38953 
" clip-path="url(#pe444128800)" style="fill: none; stroke: #1f77b4; stroke-width: 0.5; stroke-linecap: square"/>
   </g>
   <g id="patch_3">
    <path d="M 108 384.48 
L 108 51.84 
" style="fill: none; stroke: #000000; stroke-width: 0.8; stroke-linejoin: miter; stroke-linecap: square"/>
   </g>
   <g id="patch_4">
    <path d="M 777.6 384.48 
L 777.6 51.84 
" style="fill: none; stroke: #000000; stroke-width: 0.8; stroke-linejoin: miter; stroke-linecap: square"/>
   </g>
   <g id="patch_5">
    <path d="M 108 384.48 
L 777.6 384.48 
" style="fill: none; stroke: #000000; stroke-width: 0.8; stroke-linejoin: miter; stroke-linecap: square"/>
   </g>
   <g id="patch_6">
    <path d="M 108 51.84 
L 777.6 51.84 
" style="fill: none; stroke: #000000; stroke-width: 0.8; stroke-linejoin: miter; stroke-linecap: square"/>
   </g>
   <g id="text_15">
    <!-- 739 samples predictions -->
    <g transform="translate(369.3675 45.84) scale(0.12 -0.12)">
     <defs>
      <path id="DejaVuSans-37" d="M 525 4666 
L 3525 4666 
L 3525 4397 
L 1831 0 
L 1172 0 
L 2766 4134 
L 525 4134 
L 525 4666 
z
" transform="scale(0.015625)"/>
      <path id="DejaVuSans-39" d="M 703 97 
L 703 672 
Q 941 559 1184 500 
Q 1428 441 1663 441 
Q 2288 441 2617 861 
Q 2947 1281 2994 2138 
Q 2813 1869 2534 1725 
Q 2256 1581 1919 1581 
Q 1219 1581 811 2004 
Q 403 2428 403 3163 
Q 403 3881 828 4315 
Q 1253 4750 1959 4750 
Q 2769 4750 3195 4129 
Q 3622 3509 3622 2328 
Q 3622 1225 3098 567 
Q 2575 -91 1691 -91 
Q 1453 -91 1209 -44 
Q 966 3 703 97 
z
M 1959 2075 
Q 2384 2075 2632 2365 
Q 2881 2656 2881 3163 
Q 2881 3666 2632 3958 
Q 2384 4250 1959 4250 
Q 1534 4250 1286 3958 
Q 1038 3666 1038 3163 
Q 1038 2656 1286 2365 
Q 1534 2075 1959 2075 
z
" transform="scale(0.015625)"/>
      <path id="DejaVuSans-64" d="M 2906 2969 
L 2906 4863 
L 3481 4863 
L 3481 0 
L 2906 0 
L 2906 525 
Q 2725 213 2448 61 
Q 2172 -91 1784 -91 
Q 1150 -91 751 415 
Q 353 922 353 1747 
Q 353 2572 751 3078 
Q 1150 3584 1784 3584 
Q 2172 3584 2448 3432 
Q 2725 3281 2906 2969 
z
M 947 1747 
Q 947 1113 1208 752 
Q 1469 391 1925 391 
Q 2381 391 2643 752 
Q 2906 1113 2906 1747 
Q 2906 2381 2643 2742 
Q 2381 3103 1925 3103 
Q 1469 3103 1208 2742 
Q 947 2381 947 1747 
z
" transform="scale(0.015625)"/>
      <path id="DejaVuSans-63" d="M 3122 3366 
L 3122 2828 
Q 2878 2963 2633 3030 
Q 2388 3097 2138 3097 
Q 1578 3097 1268 2742 
Q 959 2388 959 1747 
Q 959 1106 1268 751 
Q 1578 397 2138 397 
Q 2388 397 2633 464 
Q 2878 531 3122 666 
L 3122 134 
Q 2881 22 2623 -34 
Q 2366 -91 2075 -91 
Q 1284 -91 818 406 
Q 353 903 353 1747 
Q 353 2603 823 3093 
Q 1294 3584 2113 3584 
Q 2378 3584 2631 3529 
Q 2884 3475 3122 3366 
z
" transform="scale(0.015625)"/>
      <path id="DejaVuSans-6f" d="M 1959 3097 
Q 1497 3097 1228 2736 
Q 959 2375 959 1747 
Q 959 1119 1226 758 
Q 1494 397 1959 397 
Q 2419 397 2687 759 
Q 2956 1122 2956 1747 
Q 2956 2369 2687 2733 
Q 2419 3097 1959 3097 
z
M 1959 3584 
Q 2709 3584 3137 3096 
Q 3566 2609 3566 1747 
Q 3566 888 3137 398 
Q 2709 -91 1959 -91 
Q 1206 -91 779 398 
Q 353 888 353 1747 
Q 353 2609 779 3096 
Q 1206 3584 1959 3584 
z
" transform="scale(0.015625)"/>
     </defs>
     <use xlink:href="#DejaVuSans-37"/>
     <use xlink:href="#DejaVuSans-33" x="63.623047"/>
     <use xlink:href="#DejaVuSans-39" x="127.246094"/>
     <use xlink:href="#DejaVuSans-20" x="190.869141"/>
     <use xlink:href="#DejaVuSans-73" x="222.65625"/>
     <use xlink:href="#DejaVuSans-61" x="274.755859"/>
     <use xlink:href="#DejaVuSans-6d" x="336.035156"/>
     <use xlink:href="#DejaVuSans-70" x="433.447266"/>
     <use xlink:href="#DejaVuSans-6c" x="496.923828"/>
     <use xlink:href="#DejaVuSans-65" x="524.707031"/>
     <use xlink:href="#DejaVuSans-73" x="586.230469"/>
     <use xlink:href="#DejaVuSans-20" x="638.330078"/>
     <use xlink:href="#DejaVuSans-70" x="670.117188"/>
     <use xlink:href="#DejaVuSans-72" x="733.59375"/>
     <use xlink:href="#DejaVuSans-65" x="772.457031"/>
     <use xlink:href="#DejaVuSans-64" x="833.980469"/>
     <use xlink:href="#DejaVuSans-69" x="897.457031"/>
     <use xlink:href="#DejaVuSans-63" x="925.240234"/>
     <use xlink:href="#DejaVuSans-74" x="980.220703"/>
     <use xlink:href="#DejaVuSans-69" x="1019.429688"/>
     <use xlink:href="#DejaVuSans-6f" x="1047.212891"/>
     <use xlink:href="#DejaVuSans-6e" x="1108.394531"/>
     <use xlink:href="#DejaVuSans-73" x="1171.773438"/>
    </g>
   </g>
   <g id="legend_1">
    <g id="patch_7">
     <path d="M 661.01875 379.48 
L 770.6 379.48 
Q 772.6 379.48 772.6 377.48 
L 772.6 349.12375 
Q 772.6 347.12375 770.6 347.12375 
L 661.01875 347.12375 
Q 659.01875 347.12375 659.01875 349.12375 
L 659.01875 377.48 
Q 659.01875 379.48 661.01875 379.48 
z
" style="fill: #ffffff; opacity: 0.8; stroke: #cccccc; stroke-linejoin: miter"/>
    </g>
    <g id="line2d_17">
     <path d="M 663.01875 355.222188 
L 673.01875 355.222188 
L 683.01875 355.222188 
" style="fill: none; stroke: #ff0000; stroke-width: 0.5; stroke-linecap: square"/>
    </g>
    <g id="text_16">
     <!-- Actual Value -->
     <g transform="translate(691.01875 358.722188) scale(0.1 -0.1)">
      <defs>
       <path id="DejaVuSans-41" d="M 2188 4044 
L 1331 1722 
L 3047 1722 
L 2188 4044 
z
M 1831 4666 
L 2547 4666 
L 4325 0 
L 3669 0 
L 3244 1197 
L 1141 1197 
L 716 0 
L 50 0 
L 1831 4666 
z
" transform="scale(0.015625)"/>
       <path id="DejaVuSans-56" d="M 1831 0 
L 50 4666 
L 709 4666 
L 2188 738 
L 3669 4666 
L 4325 4666 
L 2547 0 
L 1831 0 
z
" transform="scale(0.015625)"/>
      </defs>
      <use xlink:href="#DejaVuSans-41"/>
      <use xlink:href="#DejaVuSans-63" x="66.658203"/>
      <use xlink:href="#DejaVuSans-74" x="121.638672"/>
      <use xlink:href="#DejaVuSans-75" x="160.847656"/>
      <use xlink:href="#DejaVuSans-61" x="224.226562"/>
      <use xlink:href="#DejaVuSans-6c" x="285.505859"/>
      <use xlink:href="#DejaVuSans-20" x="313.289062"/>
      <use xlink:href="#DejaVuSans-56" x="345.076172"/>
      <use xlink:href="#DejaVuSans-61" x="405.734375"/>
      <use xlink:href="#DejaVuSans-6c" x="467.013672"/>
      <use xlink:href="#DejaVuSans-75" x="494.796875"/>
      <use xlink:href="#DejaVuSans-65" x="558.175781"/>
     </g>
    </g>
    <g id="line2d_18">
     <path d="M 663.01875 369.900312 
L 673.01875 369.900312 
L 683.01875 369.900312 
" style="fill: none; stroke: #1f77b4; stroke-width: 0.5; stroke-linecap: square"/>
    </g>
    <g id="text_17">
     <!-- Predicted Value -->
     <g transform="translate(691.01875 373.400312) scale(0.1 -0.1)">
      <defs>
       <path id="DejaVuSans-50" d="M 1259 4147 
L 1259 2394 
L 2053 2394 
Q 2494 2394 2734 2622 
Q 2975 2850 2975 3272 
Q 2975 3691 2734 3919 
Q 2494 4147 2053 4147 
L 1259 4147 
z
M 628 4666 
L 2053 4666 
Q 2838 4666 3239 4311 
Q 3641 3956 3641 3272 
Q 3641 2581 3239 2228 
Q 2838 1875 2053 1875 
L 1259 1875 
L 1259 0 
L 628 0 
L 628 4666 
z
" transform="scale(0.015625)"/>
      </defs>
      <use xlink:href="#DejaVuSans-50"/>
      <use xlink:href="#DejaVuSans-72" x="58.552734"/>
      <use xlink:href="#DejaVuSans-65" x="97.416016"/>
      <use xlink:href="#DejaVuSans-64" x="158.939453"/>
      <use xlink:href="#DejaVuSans-69" x="222.416016"/>
      <use xlink:href="#DejaVuSans-63" x="250.199219"/>
      <use xlink:href="#DejaVuSans-74" x="305.179688"/>
      <use xlink:href="#DejaVuSans-65" x="344.388672"/>
      <use xlink:href="#DejaVuSans-64" x="405.912109"/>
      <use xlink:href="#DejaVuSans-20" x="469.388672"/>
      <use xlink:href="#DejaVuSans-56" x="501.175781"/>
      <use xlink:href="#DejaVuSans-61" x="561.833984"/>
      <use xlink:href="#DejaVuSans-6c" x="623.113281"/>
      <use xlink:href="#DejaVuSans-75" x="650.896484"/>
      <use xlink:href="#DejaVuSans-65" x="714.275391"/>
     </g>
    </g>
   </g>
  </g>
 </g>
 <defs>
  <clipPath id="pe444128800">
   <rect x="108" y="51.84" width="669.6" height="332.64"/>
  </clipPath>
 </defs>
</svg>
