<?xml version="1.0" encoding="utf-8" standalone="no"?>
<!DOCTYPE svg PUBLIC "-//W3C//DTD SVG 1.1//EN"
  "http://www.w3.org/Graphics/SVG/1.1/DTD/svg11.dtd">
<svg xmlns:xlink="http://www.w3.org/1999/xlink" width="864pt" height="864pt" viewBox="0 0 864 864" xmlns="http://www.w3.org/2000/svg" version="1.1">
 <metadata>
  <rdf:RDF xmlns:dc="http://purl.org/dc/elements/1.1/" xmlns:cc="http://creativecommons.org/ns#" xmlns:rdf="http://www.w3.org/1999/02/22-rdf-syntax-ns#">
   <cc:Work>
    <dc:type rdf:resource="http://purl.org/dc/dcmitype/StillImage"/>
    <dc:date>2024-04-13T18:09:17.839844</dc:date>
    <dc:format>image/svg+xml</dc:format>
    <dc:creator>
     <cc:Agent>
      <dc:title>Matplotlib v3.8.2, https://matplotlib.org/</dc:title>
     </cc:Agent>
    </dc:creator>
   </cc:Work>
  </rdf:RDF>
 </metadata>
 <defs>
  <style type="text/css">*{stroke-linejoin: round; stroke-linecap: butt}</style>
 </defs>
 <g id="figure_1">
  <g id="patch_1">
   <path d="M 0 864 
L 864 864 
L 864 0 
L 0 0 
z
" style="fill: #ffffff"/>
  </g>
  <g id="patch_2">
   <path d="M 110.16 768.96 
L 775.44 768.96 
L 775.44 103.68 
L 110.16 103.68 
z
" style="fill: #ffffff"/>
  </g>
  <g id="pane3d_1">
   <g id="patch_3">
    <path d="M 160.393228 604.923273 
L 380.090411 420.768737 
L 377.03641 155.184977 
L 146.825584 323.182353 
" style="fill: #f2f2f2; opacity: 0.5; stroke: #f2f2f2; stroke-linejoin: miter"/>
   </g>
  </g>
  <g id="pane3d_2">
   <g id="patch_4">
    <path d="M 380.090411 420.768737 
L 732.626001 523.236915 
L 745.206754 248.505427 
L 377.03641 155.184977 
" style="fill: #e6e6e6; opacity: 0.5; stroke: #e6e6e6; stroke-linejoin: miter"/>
   </g>
  </g>
  <g id="pane3d_3">
   <g id="patch_5">
    <path d="M 160.393228 604.923273 
L 534.098172 726.975307 
L 732.626001 523.236915 
L 380.090411 420.768737 
" style="fill: #ececec; opacity: 0.5; stroke: #ececec; stroke-linejoin: miter"/>
   </g>
  </g>
  <g id="grid3d_1">
   <g id="Line3DCollection_1">
    <path d="M 185.923426 613.261435 
L 404.27365 427.79785 
L 402.242548 161.573998 
" style="fill: none; stroke: #b0b0b0; stroke-width: 0.8"/>
    <path d="M 236.156296 629.667491 
L 451.813617 441.615842 
L 451.814622 174.139074 
" style="fill: none; stroke: #b0b0b0; stroke-width: 0.8"/>
    <path d="M 287.123111 646.313252 
L 499.990472 455.618951 
L 502.079592 186.879779 
" style="fill: none; stroke: #b0b0b0; stroke-width: 0.8"/>
    <path d="M 338.840073 663.204012 
L 548.8171 469.810925 
L 553.052089 199.799821 
" style="fill: none; stroke: #b0b0b0; stroke-width: 0.8"/>
    <path d="M 391.323867 680.345219 
L 598.306736 484.195608 
L 604.747156 212.903014 
" style="fill: none; stroke: #b0b0b0; stroke-width: 0.8"/>
    <path d="M 444.591675 697.742485 
L 648.472976 498.776953 
L 657.180268 226.193279 
" style="fill: none; stroke: #b0b0b0; stroke-width: 0.8"/>
    <path d="M 498.661197 715.40159 
L 699.329791 513.559022 
L 710.367344 239.674652 
" style="fill: none; stroke: #b0b0b0; stroke-width: 0.8"/>
   </g>
  </g>
  <g id="grid3d_2">
   <g id="Line3DCollection_2">
    <path d="M 156.796569 315.905982 
L 169.874334 596.976021 
L 542.701975 718.145689 
" style="fill: none; stroke: #b0b0b0; stroke-width: 0.8"/>
    <path d="M 195.332825 287.783977 
L 206.546573 566.236623 
L 575.94996 684.025077 
" style="fill: none; stroke: #b0b0b0; stroke-width: 0.8"/>
    <path d="M 232.78151 260.455633 
L 242.228491 536.327332 
L 608.253029 650.874181 
" style="fill: none; stroke: #b0b0b0; stroke-width: 0.8"/>
    <path d="M 269.188024 233.887817 
L 276.959668 507.214971 
L 639.650902 618.65224 
" style="fill: none; stroke: #b0b0b0; stroke-width: 0.8"/>
    <path d="M 304.595273 208.049219 
L 310.777603 478.868107 
L 670.181099 587.320747 
" style="fill: none; stroke: #b0b0b0; stroke-width: 0.8"/>
    <path d="M 339.043843 182.910222 
L 343.71785 451.25694 
L 699.879099 556.843293 
" style="fill: none; stroke: #b0b0b0; stroke-width: 0.8"/>
    <path d="M 372.572147 158.442793 
L 375.814137 424.353195 
L 728.778469 527.18543 
" style="fill: none; stroke: #b0b0b0; stroke-width: 0.8"/>
   </g>
  </g>
  <g id="grid3d_3">
   <g id="Line3DCollection_3">
    <path d="M 732.914379 516.939493 
L 380.020262 414.668431 
L 160.082741 598.47581 
" style="fill: none; stroke: #b0b0b0; stroke-width: 0.8"/>
    <path d="M 734.304097 486.5916 
L 379.682304 385.27874 
L 158.586138 567.397876 
" style="fill: none; stroke: #b0b0b0; stroke-width: 0.8"/>
    <path d="M 735.707623 455.94217 
L 379.341149 355.610954 
L 157.074099 535.999407 
" style="fill: none; stroke: #b0b0b0; stroke-width: 0.8"/>
    <path d="M 737.125165 424.986688 
L 378.996749 325.661106 
L 155.546384 504.275418 
" style="fill: none; stroke: #b0b0b0; stroke-width: 0.8"/>
    <path d="M 738.556932 393.720546 
L 378.64906 295.425155 
L 154.002748 472.220822 
" style="fill: none; stroke: #b0b0b0; stroke-width: 0.8"/>
    <path d="M 740.003141 362.139044 
L 378.298033 264.89898 
L 152.442941 439.830423 
" style="fill: none; stroke: #b0b0b0; stroke-width: 0.8"/>
    <path d="M 741.46401 330.237386 
L 377.943621 234.078385 
L 150.866708 407.098916 
" style="fill: none; stroke: #b0b0b0; stroke-width: 0.8"/>
    <path d="M 742.939765 298.01068 
L 377.585774 202.959087 
L 149.273787 374.020884 
" style="fill: none; stroke: #b0b0b0; stroke-width: 0.8"/>
    <path d="M 744.430633 265.453932 
L 377.224442 171.536724 
L 147.663913 340.590796 
" style="fill: none; stroke: #b0b0b0; stroke-width: 0.8"/>
   </g>
  </g>
  <g id="axis3d_1">
   <g id="line2d_1">
    <path d="M 160.393228 604.923273 
L 534.098172 726.975307 
" style="fill: none; stroke: #000000; stroke-width: 0.8; stroke-linecap: square"/>
   </g>
   <g id="xtick_1">
    <g id="line2d_2">
     <path d="M 187.824872 611.646374 
L 182.112371 616.498491 
" style="fill: none; stroke: #000000; stroke-width: 0.8; stroke-linecap: square"/>
    </g>
    <g id="text_1">
     <!-- 1.45 -->
     <g transform="translate(167.27947 636.543594) scale(0.1 -0.1)">
      <defs>
       <path id="DejaVuSans-31" d="M 794 531 
L 1825 531 
L 1825 4091 
L 703 3866 
L 703 4441 
L 1819 4666 
L 2450 4666 
L 2450 531 
L 3481 531 
L 3481 0 
L 794 0 
L 794 531 
z
" transform="scale(0.015625)"/>
       <path id="DejaVuSans-2e" d="M 684 794 
L 1344 794 
L 1344 0 
L 684 0 
L 684 794 
z
" transform="scale(0.015625)"/>
       <path id="DejaVuSans-34" d="M 2419 4116 
L 825 1625 
L 2419 1625 
L 2419 4116 
z
M 2253 4666 
L 3047 4666 
L 3047 1625 
L 3713 1625 
L 3713 1100 
L 3047 1100 
L 3047 0 
L 2419 0 
L 2419 1100 
L 313 1100 
L 313 1709 
L 2253 4666 
z
" transform="scale(0.015625)"/>
       <path id="DejaVuSans-35" d="M 691 4666 
L 3169 4666 
L 3169 4134 
L 1269 4134 
L 1269 2991 
Q 1406 3038 1543 3061 
Q 1681 3084 1819 3084 
Q 2600 3084 3056 2656 
Q 3513 2228 3513 1497 
Q 3513 744 3044 326 
Q 2575 -91 1722 -91 
Q 1428 -91 1123 -41 
Q 819 9 494 109 
L 494 744 
Q 775 591 1075 516 
Q 1375 441 1709 441 
Q 2250 441 2565 725 
Q 2881 1009 2881 1497 
Q 2881 1984 2565 2268 
Q 2250 2553 1709 2553 
Q 1456 2553 1204 2497 
Q 953 2441 691 2322 
L 691 4666 
z
" transform="scale(0.015625)"/>
      </defs>
      <use xlink:href="#DejaVuSans-31"/>
      <use xlink:href="#DejaVuSans-2e" x="63.623047"/>
      <use xlink:href="#DejaVuSans-34" x="95.410156"/>
      <use xlink:href="#DejaVuSans-35" x="159.033203"/>
     </g>
    </g>
   </g>
   <g id="xtick_2">
    <g id="line2d_3">
     <path d="M 238.035399 628.028927 
L 232.389966 632.951704 
" style="fill: none; stroke: #000000; stroke-width: 0.8; stroke-linecap: square"/>
    </g>
    <g id="text_2">
     <!-- 1.50 -->
     <g transform="translate(217.532884 653.088092) scale(0.1 -0.1)">
      <defs>
       <path id="DejaVuSans-30" d="M 2034 4250 
Q 1547 4250 1301 3770 
Q 1056 3291 1056 2328 
Q 1056 1369 1301 889 
Q 1547 409 2034 409 
Q 2525 409 2770 889 
Q 3016 1369 3016 2328 
Q 3016 3291 2770 3770 
Q 2525 4250 2034 4250 
z
M 2034 4750 
Q 2819 4750 3233 4129 
Q 3647 3509 3647 2328 
Q 3647 1150 3233 529 
Q 2819 -91 2034 -91 
Q 1250 -91 836 529 
Q 422 1150 422 2328 
Q 422 3509 836 4129 
Q 1250 4750 2034 4750 
z
" transform="scale(0.015625)"/>
      </defs>
      <use xlink:href="#DejaVuSans-31"/>
      <use xlink:href="#DejaVuSans-2e" x="63.623047"/>
      <use xlink:href="#DejaVuSans-35" x="95.410156"/>
      <use xlink:href="#DejaVuSans-30" x="159.033203"/>
     </g>
    </g>
   </g>
   <g id="xtick_3">
    <g id="line2d_4">
     <path d="M 288.979012 644.650669 
L 283.403225 649.645661 
" style="fill: none; stroke: #000000; stroke-width: 0.8; stroke-linecap: square"/>
    </g>
    <g id="text_3">
     <!-- 1.55 -->
     <g transform="translate(268.521647 669.874682) scale(0.1 -0.1)">
      <use xlink:href="#DejaVuSans-31"/>
      <use xlink:href="#DejaVuSans-2e" x="63.623047"/>
      <use xlink:href="#DejaVuSans-35" x="95.410156"/>
      <use xlink:href="#DejaVuSans-35" x="159.033203"/>
     </g>
    </g>
   </g>
   <g id="xtick_4">
    <g id="line2d_5">
     <path d="M 340.671884 661.516877 
L 335.168413 666.585685 
" style="fill: none; stroke: #000000; stroke-width: 0.8; stroke-linecap: square"/>
    </g>
    <g id="text_4">
     <!-- 1.60 -->
     <g transform="translate(320.262019 686.908718) scale(0.1 -0.1)">
      <defs>
       <path id="DejaVuSans-36" d="M 2113 2584 
Q 1688 2584 1439 2293 
Q 1191 2003 1191 1497 
Q 1191 994 1439 701 
Q 1688 409 2113 409 
Q 2538 409 2786 701 
Q 3034 994 3034 1497 
Q 3034 2003 2786 2293 
Q 2538 2584 2113 2584 
z
M 3366 4563 
L 3366 3988 
Q 3128 4100 2886 4159 
Q 2644 4219 2406 4219 
Q 1781 4219 1451 3797 
Q 1122 3375 1075 2522 
Q 1259 2794 1537 2939 
Q 1816 3084 2150 3084 
Q 2853 3084 3261 2657 
Q 3669 2231 3669 1497 
Q 3669 778 3244 343 
Q 2819 -91 2113 -91 
Q 1303 -91 875 529 
Q 447 1150 447 2328 
Q 447 3434 972 4092 
Q 1497 4750 2381 4750 
Q 2619 4750 2861 4703 
Q 3103 4656 3366 4563 
z
" transform="scale(0.015625)"/>
      </defs>
      <use xlink:href="#DejaVuSans-31"/>
      <use xlink:href="#DejaVuSans-2e" x="63.623047"/>
      <use xlink:href="#DejaVuSans-36" x="95.410156"/>
      <use xlink:href="#DejaVuSans-30" x="159.033203"/>
     </g>
    </g>
   </g>
   <g id="xtick_5">
    <g id="line2d_6">
     <path d="M 393.130667 678.632984 
L 387.702279 683.777256 
" style="fill: none; stroke: #000000; stroke-width: 0.8; stroke-linecap: square"/>
    </g>
    <g id="text_5">
     <!-- 1.65 -->
     <g transform="translate(372.770742 704.195712) scale(0.1 -0.1)">
      <use xlink:href="#DejaVuSans-31"/>
      <use xlink:href="#DejaVuSans-2e" x="63.623047"/>
      <use xlink:href="#DejaVuSans-36" x="95.410156"/>
      <use xlink:href="#DejaVuSans-35" x="159.033203"/>
     </g>
    </g>
   </g>
   <g id="xtick_6">
    <g id="line2d_7">
     <path d="M 446.372511 696.004587 
L 441.022072 701.226021 
" style="fill: none; stroke: #000000; stroke-width: 0.8; stroke-linecap: square"/>
    </g>
    <g id="text_6">
     <!-- 1.70 -->
     <g transform="translate(426.065059 721.741341) scale(0.1 -0.1)">
      <defs>
       <path id="DejaVuSans-37" d="M 525 4666 
L 3525 4666 
L 3525 4397 
L 1831 0 
L 1172 0 
L 2766 4134 
L 525 4134 
L 525 4666 
z
" transform="scale(0.015625)"/>
      </defs>
      <use xlink:href="#DejaVuSans-31"/>
      <use xlink:href="#DejaVuSans-2e" x="63.623047"/>
      <use xlink:href="#DejaVuSans-37" x="95.410156"/>
      <use xlink:href="#DejaVuSans-30" x="159.033203"/>
     </g>
    </g>
   </g>
   <g id="xtick_7">
    <g id="line2d_8">
     <path d="M 500.415079 713.637447 
L 495.145562 718.937793 
" style="fill: none; stroke: #000000; stroke-width: 0.8; stroke-linecap: square"/>
    </g>
    <g id="text_7">
     <!-- 1.75 -->
     <g transform="translate(480.162734 739.551451) scale(0.1 -0.1)">
      <use xlink:href="#DejaVuSans-31"/>
      <use xlink:href="#DejaVuSans-2e" x="63.623047"/>
      <use xlink:href="#DejaVuSans-37" x="95.410156"/>
      <use xlink:href="#DejaVuSans-35" x="159.033203"/>
     </g>
    </g>
   </g>
   <g id="text_8">
    <!-- MSE -->
    <g transform="translate(315.461369 702.196982) scale(0.1 -0.1)">
     <defs>
      <path id="DejaVuSans-4d" d="M 628 4666 
L 1569 4666 
L 2759 1491 
L 3956 4666 
L 4897 4666 
L 4897 0 
L 4281 0 
L 4281 4097 
L 3078 897 
L 2444 897 
L 1241 4097 
L 1241 0 
L 628 0 
L 628 4666 
z
" transform="scale(0.015625)"/>
      <path id="DejaVuSans-53" d="M 3425 4513 
L 3425 3897 
Q 3066 4069 2747 4153 
Q 2428 4238 2131 4238 
Q 1616 4238 1336 4038 
Q 1056 3838 1056 3469 
Q 1056 3159 1242 3001 
Q 1428 2844 1947 2747 
L 2328 2669 
Q 3034 2534 3370 2195 
Q 3706 1856 3706 1288 
Q 3706 609 3251 259 
Q 2797 -91 1919 -91 
Q 1588 -91 1214 -16 
Q 841 59 441 206 
L 441 856 
Q 825 641 1194 531 
Q 1563 422 1919 422 
Q 2459 422 2753 634 
Q 3047 847 3047 1241 
Q 3047 1584 2836 1778 
Q 2625 1972 2144 2069 
L 1759 2144 
Q 1053 2284 737 2584 
Q 422 2884 422 3419 
Q 422 4038 858 4394 
Q 1294 4750 2059 4750 
Q 2388 4750 2728 4690 
Q 3069 4631 3425 4513 
z
" transform="scale(0.015625)"/>
      <path id="DejaVuSans-45" d="M 628 4666 
L 3578 4666 
L 3578 4134 
L 1259 4134 
L 1259 2753 
L 3481 2753 
L 3481 2222 
L 1259 2222 
L 1259 531 
L 3634 531 
L 3634 0 
L 628 0 
L 628 4666 
z
" transform="scale(0.015625)"/>
     </defs>
     <use xlink:href="#DejaVuSans-4d"/>
     <use xlink:href="#DejaVuSans-53" x="86.279297"/>
     <use xlink:href="#DejaVuSans-45" x="149.755859"/>
    </g>
   </g>
  </g>
  <g id="axis3d_2">
   <g id="line2d_9">
    <path d="M 732.626001 523.236915 
L 534.098172 726.975307 
" style="fill: none; stroke: #000000; stroke-width: 0.8; stroke-linecap: square"/>
   </g>
   <g id="xtick_8">
    <g id="line2d_10">
     <path d="M 539.55979 717.124473 
L 548.994489 720.190767 
" style="fill: none; stroke: #000000; stroke-width: 0.8; stroke-linecap: square"/>
    </g>
    <g id="text_9">
     <!-- 0.52 -->
     <g transform="translate(544.472664 739.193797) scale(0.1 -0.1)">
      <defs>
       <path id="DejaVuSans-32" d="M 1228 531 
L 3431 531 
L 3431 0 
L 469 0 
L 469 531 
Q 828 903 1448 1529 
Q 2069 2156 2228 2338 
Q 2531 2678 2651 2914 
Q 2772 3150 2772 3378 
Q 2772 3750 2511 3984 
Q 2250 4219 1831 4219 
Q 1534 4219 1204 4116 
Q 875 4013 500 3803 
L 500 4441 
Q 881 4594 1212 4672 
Q 1544 4750 1819 4750 
Q 2544 4750 2975 4387 
Q 3406 4025 3406 3419 
Q 3406 3131 3298 2873 
Q 3191 2616 2906 2266 
Q 2828 2175 2409 1742 
Q 1991 1309 1228 531 
z
" transform="scale(0.015625)"/>
      </defs>
      <use xlink:href="#DejaVuSans-30"/>
      <use xlink:href="#DejaVuSans-2e" x="63.623047"/>
      <use xlink:href="#DejaVuSans-35" x="95.410156"/>
      <use xlink:href="#DejaVuSans-32" x="159.033203"/>
     </g>
    </g>
   </g>
   <g id="xtick_9">
    <g id="line2d_11">
     <path d="M 572.838913 683.033085 
L 582.180001 686.011597 
" style="fill: none; stroke: #000000; stroke-width: 0.8; stroke-linecap: square"/>
    </g>
    <g id="text_10">
     <!-- 0.53 -->
     <g transform="translate(577.542464 704.871194) scale(0.1 -0.1)">
      <defs>
       <path id="DejaVuSans-33" d="M 2597 2516 
Q 3050 2419 3304 2112 
Q 3559 1806 3559 1356 
Q 3559 666 3084 287 
Q 2609 -91 1734 -91 
Q 1441 -91 1130 -33 
Q 819 25 488 141 
L 488 750 
Q 750 597 1062 519 
Q 1375 441 1716 441 
Q 2309 441 2620 675 
Q 2931 909 2931 1356 
Q 2931 1769 2642 2001 
Q 2353 2234 1838 2234 
L 1294 2234 
L 1294 2753 
L 1863 2753 
Q 2328 2753 2575 2939 
Q 2822 3125 2822 3475 
Q 2822 3834 2567 4026 
Q 2313 4219 1838 4219 
Q 1578 4219 1281 4162 
Q 984 4106 628 3988 
L 628 4550 
Q 988 4650 1302 4700 
Q 1616 4750 1894 4750 
Q 2613 4750 3031 4423 
Q 3450 4097 3450 3541 
Q 3450 3153 3228 2886 
Q 3006 2619 2597 2516 
z
" transform="scale(0.015625)"/>
      </defs>
      <use xlink:href="#DejaVuSans-30"/>
      <use xlink:href="#DejaVuSans-2e" x="63.623047"/>
      <use xlink:href="#DejaVuSans-35" x="95.410156"/>
      <use xlink:href="#DejaVuSans-33" x="159.033203"/>
     </g>
    </g>
   </g>
   <g id="xtick_10">
    <g id="line2d_12">
     <path d="M 605.172631 649.910175 
L 614.421583 652.804621 
" style="fill: none; stroke: #000000; stroke-width: 0.8; stroke-linecap: square"/>
    </g>
    <g id="text_11">
     <!-- 0.54 -->
     <g transform="translate(609.672195 671.524274) scale(0.1 -0.1)">
      <use xlink:href="#DejaVuSans-30"/>
      <use xlink:href="#DejaVuSans-2e" x="63.623047"/>
      <use xlink:href="#DejaVuSans-35" x="95.410156"/>
      <use xlink:href="#DejaVuSans-34" x="159.033203"/>
     </g>
    </g>
   </g>
   <g id="xtick_11">
    <g id="line2d_13">
     <path d="M 636.600669 617.715052 
L 645.758942 620.528942 
" style="fill: none; stroke: #000000; stroke-width: 0.8; stroke-linecap: square"/>
    </g>
    <g id="text_12">
     <!-- 0.55 -->
     <g transform="translate(640.901378 639.112017) scale(0.1 -0.1)">
      <use xlink:href="#DejaVuSans-30"/>
      <use xlink:href="#DejaVuSans-2e" x="63.623047"/>
      <use xlink:href="#DejaVuSans-35" x="95.410156"/>
      <use xlink:href="#DejaVuSans-35" x="159.033203"/>
     </g>
    </g>
   </g>
   <g id="xtick_12">
    <g id="line2d_14">
     <path d="M 667.160551 586.409274 
L 676.229592 589.145923 
" style="fill: none; stroke: #000000; stroke-width: 0.8; stroke-linecap: square"/>
    </g>
    <g id="text_13">
     <!-- 0.56 -->
     <g transform="translate(671.267353 607.59567) scale(0.1 -0.1)">
      <use xlink:href="#DejaVuSans-30"/>
      <use xlink:href="#DejaVuSans-2e" x="63.623047"/>
      <use xlink:href="#DejaVuSans-35" x="95.410156"/>
      <use xlink:href="#DejaVuSans-36" x="159.033203"/>
     </g>
    </g>
   </g>
   <g id="xtick_13">
    <g id="line2d_15">
     <path d="M 696.887762 555.956492 
L 705.868998 558.619038 
" style="fill: none; stroke: #000000; stroke-width: 0.8; stroke-linecap: square"/>
    </g>
    <g id="text_14">
     <!-- 0.57 -->
     <g transform="translate(700.805421 576.938595) scale(0.1 -0.1)">
      <use xlink:href="#DejaVuSans-30"/>
      <use xlink:href="#DejaVuSans-2e" x="63.623047"/>
      <use xlink:href="#DejaVuSans-35" x="95.410156"/>
      <use xlink:href="#DejaVuSans-37" x="159.033203"/>
     </g>
    </g>
   </g>
   <g id="xtick_14">
    <g id="line2d_16">
     <path d="M 725.815874 526.322311 
L 734.710718 528.913725 
" style="fill: none; stroke: #000000; stroke-width: 0.8; stroke-linecap: square"/>
    </g>
    <g id="text_15">
     <!-- 0.58 -->
     <g transform="translate(729.548985 547.106121) scale(0.1 -0.1)">
      <defs>
       <path id="DejaVuSans-38" d="M 2034 2216 
Q 1584 2216 1326 1975 
Q 1069 1734 1069 1313 
Q 1069 891 1326 650 
Q 1584 409 2034 409 
Q 2484 409 2743 651 
Q 3003 894 3003 1313 
Q 3003 1734 2745 1975 
Q 2488 2216 2034 2216 
z
M 1403 2484 
Q 997 2584 770 2862 
Q 544 3141 544 3541 
Q 544 4100 942 4425 
Q 1341 4750 2034 4750 
Q 2731 4750 3128 4425 
Q 3525 4100 3525 3541 
Q 3525 3141 3298 2862 
Q 3072 2584 2669 2484 
Q 3125 2378 3379 2068 
Q 3634 1759 3634 1313 
Q 3634 634 3220 271 
Q 2806 -91 2034 -91 
Q 1263 -91 848 271 
Q 434 634 434 1313 
Q 434 1759 690 2068 
Q 947 2378 1403 2484 
z
M 1172 3481 
Q 1172 3119 1398 2916 
Q 1625 2713 2034 2713 
Q 2441 2713 2670 2916 
Q 2900 3119 2900 3481 
Q 2900 3844 2670 4047 
Q 2441 4250 2034 4250 
Q 1625 4250 1398 4047 
Q 1172 3844 1172 3481 
z
" transform="scale(0.015625)"/>
      </defs>
      <use xlink:href="#DejaVuSans-30"/>
      <use xlink:href="#DejaVuSans-2e" x="63.623047"/>
      <use xlink:href="#DejaVuSans-35" x="95.410156"/>
      <use xlink:href="#DejaVuSans-38" x="159.033203"/>
     </g>
    </g>
   </g>
   <g id="text_16">
    <!-- MAE -->
    <g transform="translate(653.864114 651.293249) scale(0.1 -0.1)">
     <defs>
      <path id="DejaVuSans-41" d="M 2188 4044 
L 1331 1722 
L 3047 1722 
L 2188 4044 
z
M 1831 4666 
L 2547 4666 
L 4325 0 
L 3669 0 
L 3244 1197 
L 1141 1197 
L 716 0 
L 50 0 
L 1831 4666 
z
" transform="scale(0.015625)"/>
     </defs>
     <use xlink:href="#DejaVuSans-4d"/>
     <use xlink:href="#DejaVuSans-41" x="86.279297"/>
     <use xlink:href="#DejaVuSans-45" x="154.6875"/>
    </g>
   </g>
  </g>
  <g id="axis3d_3">
   <g id="line2d_17">
    <path d="M 732.626001 523.236915 
L 745.206754 248.505427 
" style="fill: none; stroke: #000000; stroke-width: 0.8; stroke-linecap: square"/>
   </g>
   <g id="xtick_15">
    <g id="line2d_18">
     <path d="M 729.952483 516.081116 
L 738.845222 518.658291 
" style="fill: none; stroke: #000000; stroke-width: 0.8; stroke-linecap: square"/>
    </g>
    <g id="text_17">
     <!-- 0.918 -->
     <g transform="translate(736.900246 521.933136) scale(0.1 -0.1)">
      <defs>
       <path id="DejaVuSans-39" d="M 703 97 
L 703 672 
Q 941 559 1184 500 
Q 1428 441 1663 441 
Q 2288 441 2617 861 
Q 2947 1281 2994 2138 
Q 2813 1869 2534 1725 
Q 2256 1581 1919 1581 
Q 1219 1581 811 2004 
Q 403 2428 403 3163 
Q 403 3881 828 4315 
Q 1253 4750 1959 4750 
Q 2769 4750 3195 4129 
Q 3622 3509 3622 2328 
Q 3622 1225 3098 567 
Q 2575 -91 1691 -91 
Q 1453 -91 1209 -44 
Q 966 3 703 97 
z
M 1959 2075 
Q 2384 2075 2632 2365 
Q 2881 2656 2881 3163 
Q 2881 3666 2632 3958 
Q 2384 4250 1959 4250 
Q 1534 4250 1286 3958 
Q 1038 3666 1038 3163 
Q 1038 2656 1286 2365 
Q 1534 2075 1959 2075 
z
" transform="scale(0.015625)"/>
      </defs>
      <use xlink:href="#DejaVuSans-30"/>
      <use xlink:href="#DejaVuSans-2e" x="63.623047"/>
      <use xlink:href="#DejaVuSans-39" x="95.410156"/>
      <use xlink:href="#DejaVuSans-31" x="159.033203"/>
      <use xlink:href="#DejaVuSans-38" x="222.65625"/>
     </g>
    </g>
   </g>
   <g id="xtick_16">
    <g id="line2d_19">
     <path d="M 731.327011 485.741068 
L 740.265391 488.294698 
" style="fill: none; stroke: #000000; stroke-width: 0.8; stroke-linecap: square"/>
    </g>
    <g id="text_18">
     <!-- 0.920 -->
     <g transform="translate(738.378639 491.609061) scale(0.1 -0.1)">
      <use xlink:href="#DejaVuSans-30"/>
      <use xlink:href="#DejaVuSans-2e" x="63.623047"/>
      <use xlink:href="#DejaVuSans-39" x="95.410156"/>
      <use xlink:href="#DejaVuSans-32" x="159.033203"/>
      <use xlink:href="#DejaVuSans-30" x="222.65625"/>
     </g>
    </g>
   </g>
   <g id="xtick_17">
    <g id="line2d_20">
     <path d="M 732.715192 455.099683 
L 741.699681 457.629171 
" style="fill: none; stroke: #000000; stroke-width: 0.8; stroke-linecap: square"/>
    </g>
    <g id="text_19">
     <!-- 0.922 -->
     <g transform="translate(739.871704 460.984052) scale(0.1 -0.1)">
      <use xlink:href="#DejaVuSans-30"/>
      <use xlink:href="#DejaVuSans-2e" x="63.623047"/>
      <use xlink:href="#DejaVuSans-39" x="95.410156"/>
      <use xlink:href="#DejaVuSans-32" x="159.033203"/>
      <use xlink:href="#DejaVuSans-32" x="222.65625"/>
     </g>
    </g>
   </g>
   <g id="xtick_18">
    <g id="line2d_21">
     <path d="M 734.117228 424.152448 
L 743.148306 426.657184 
" style="fill: none; stroke: #000000; stroke-width: 0.8; stroke-linecap: square"/>
    </g>
    <g id="text_20">
     <!-- 0.924 -->
     <g transform="translate(741.37966 430.053607) scale(0.1 -0.1)">
      <use xlink:href="#DejaVuSans-30"/>
      <use xlink:href="#DejaVuSans-2e" x="63.623047"/>
      <use xlink:href="#DejaVuSans-39" x="95.410156"/>
      <use xlink:href="#DejaVuSans-32" x="159.033203"/>
      <use xlink:href="#DejaVuSans-34" x="222.65625"/>
     </g>
    </g>
   </g>
   <g id="xtick_19">
    <g id="line2d_22">
     <path d="M 735.53333 392.894762 
L 744.61148 395.37412 
" style="fill: none; stroke: #000000; stroke-width: 0.8; stroke-linecap: square"/>
    </g>
    <g id="text_21">
     <!-- 0.926 -->
     <g transform="translate(742.902731 398.813135) scale(0.1 -0.1)">
      <use xlink:href="#DejaVuSans-30"/>
      <use xlink:href="#DejaVuSans-2e" x="63.623047"/>
      <use xlink:href="#DejaVuSans-39" x="95.410156"/>
      <use xlink:href="#DejaVuSans-32" x="159.033203"/>
      <use xlink:href="#DejaVuSans-36" x="222.65625"/>
     </g>
    </g>
   </g>
   <g id="xtick_20">
    <g id="line2d_23">
     <path d="M 736.963708 361.321929 
L 746.089424 363.775268 
" style="fill: none; stroke: #000000; stroke-width: 0.8; stroke-linecap: square"/>
    </g>
    <g id="text_22">
     <!-- 0.928 -->
     <g transform="translate(744.441145 367.25795) scale(0.1 -0.1)">
      <use xlink:href="#DejaVuSans-30"/>
      <use xlink:href="#DejaVuSans-2e" x="63.623047"/>
      <use xlink:href="#DejaVuSans-39" x="95.410156"/>
      <use xlink:href="#DejaVuSans-32" x="159.033203"/>
      <use xlink:href="#DejaVuSans-38" x="222.65625"/>
     </g>
    </g>
   </g>
   <g id="xtick_21">
    <g id="line2d_24">
     <path d="M 738.408581 329.429159 
L 747.582363 331.855823 
" style="fill: none; stroke: #000000; stroke-width: 0.8; stroke-linecap: square"/>
    </g>
    <g id="text_23">
     <!-- 0.930 -->
     <g transform="translate(745.995136 335.383273) scale(0.1 -0.1)">
      <use xlink:href="#DejaVuSans-30"/>
      <use xlink:href="#DejaVuSans-2e" x="63.623047"/>
      <use xlink:href="#DejaVuSans-39" x="95.410156"/>
      <use xlink:href="#DejaVuSans-33" x="159.033203"/>
      <use xlink:href="#DejaVuSans-30" x="222.65625"/>
     </g>
    </g>
   </g>
   <g id="xtick_22">
    <g id="line2d_25">
     <path d="M 739.868171 297.211565 
L 749.090527 299.610881 
" style="fill: none; stroke: #000000; stroke-width: 0.8; stroke-linecap: square"/>
    </g>
    <g id="text_24">
     <!-- 0.932 -->
     <g transform="translate(747.56494 303.184227) scale(0.1 -0.1)">
      <use xlink:href="#DejaVuSans-30"/>
      <use xlink:href="#DejaVuSans-2e" x="63.623047"/>
      <use xlink:href="#DejaVuSans-39" x="95.410156"/>
      <use xlink:href="#DejaVuSans-33" x="159.033203"/>
      <use xlink:href="#DejaVuSans-32" x="222.65625"/>
     </g>
    </g>
   </g>
   <g id="xtick_23">
    <g id="line2d_26">
     <path d="M 741.342702 264.664158 
L 750.614148 267.035437 
" style="fill: none; stroke: #000000; stroke-width: 0.8; stroke-linecap: square"/>
    </g>
    <g id="text_25">
     <!-- 0.934 -->
     <g transform="translate(749.150801 270.655835) scale(0.1 -0.1)">
      <use xlink:href="#DejaVuSans-30"/>
      <use xlink:href="#DejaVuSans-2e" x="63.623047"/>
      <use xlink:href="#DejaVuSans-39" x="95.410156"/>
      <use xlink:href="#DejaVuSans-33" x="159.033203"/>
      <use xlink:href="#DejaVuSans-34" x="222.65625"/>
     </g>
    </g>
   </g>
   <g id="text_26">
    <!-- R2 -->
    <g transform="translate(772.660313 386.209007) scale(0.1 -0.1)">
     <defs>
      <path id="DejaVuSans-52" d="M 2841 2188 
Q 3044 2119 3236 1894 
Q 3428 1669 3622 1275 
L 4263 0 
L 3584 0 
L 2988 1197 
Q 2756 1666 2539 1819 
Q 2322 1972 1947 1972 
L 1259 1972 
L 1259 0 
L 628 0 
L 628 4666 
L 2053 4666 
Q 2853 4666 3247 4331 
Q 3641 3997 3641 3322 
Q 3641 2881 3436 2590 
Q 3231 2300 2841 2188 
z
M 1259 4147 
L 1259 2491 
L 2053 2491 
Q 2509 2491 2742 2702 
Q 2975 2913 2975 3322 
Q 2975 3731 2742 3939 
Q 2509 4147 2053 4147 
L 1259 4147 
z
" transform="scale(0.015625)"/>
     </defs>
     <use xlink:href="#DejaVuSans-52"/>
     <use xlink:href="#DejaVuSans-32" x="69.482422"/>
    </g>
   </g>
  </g>
  <g id="axes_1">
   <g id="Path3DCollection_1">
    <defs>
     <path id="m209fc5539b" d="M 0 2.236068 
C 0.593012 2.236068 1.161816 2.000462 1.581139 1.581139 
C 2.000462 1.161816 2.236068 0.593012 2.236068 0 
C 2.236068 -0.593012 2.000462 -1.161816 1.581139 -1.581139 
C 1.161816 -2.000462 0.593012 -2.236068 0 -2.236068 
C -0.593012 -2.236068 -1.161816 -2.000462 -1.581139 -1.581139 
C -2.000462 -1.161816 -2.236068 -0.593012 -2.236068 0 
C -2.236068 0.593012 -2.000462 1.161816 -1.581139 1.581139 
C -1.161816 2.000462 -0.593012 2.236068 0 2.236068 
z
" style="stroke: #000000"/>
    </defs>
    <g clip-path="url(#p5671e3783f)">
     <use xlink:href="#m209fc5539b" x="592.100531" y="541.234377" style="stroke: #000000"/>
    </g>
   </g>
   <g id="text_27">
    <!-- 3D graph of combinations of models -->
    <g transform="translate(333.499687 97.68) scale(0.12 -0.12)">
     <defs>
      <path id="DejaVuSans-44" d="M 1259 4147 
L 1259 519 
L 2022 519 
Q 2988 519 3436 956 
Q 3884 1394 3884 2338 
Q 3884 3275 3436 3711 
Q 2988 4147 2022 4147 
L 1259 4147 
z
M 628 4666 
L 1925 4666 
Q 3281 4666 3915 4102 
Q 4550 3538 4550 2338 
Q 4550 1131 3912 565 
Q 3275 0 1925 0 
L 628 0 
L 628 4666 
z
" transform="scale(0.015625)"/>
      <path id="DejaVuSans-20" transform="scale(0.015625)"/>
      <path id="DejaVuSans-67" d="M 2906 1791 
Q 2906 2416 2648 2759 
Q 2391 3103 1925 3103 
Q 1463 3103 1205 2759 
Q 947 2416 947 1791 
Q 947 1169 1205 825 
Q 1463 481 1925 481 
Q 2391 481 2648 825 
Q 2906 1169 2906 1791 
z
M 3481 434 
Q 3481 -459 3084 -895 
Q 2688 -1331 1869 -1331 
Q 1566 -1331 1297 -1286 
Q 1028 -1241 775 -1147 
L 775 -588 
Q 1028 -725 1275 -790 
Q 1522 -856 1778 -856 
Q 2344 -856 2625 -561 
Q 2906 -266 2906 331 
L 2906 616 
Q 2728 306 2450 153 
Q 2172 0 1784 0 
Q 1141 0 747 490 
Q 353 981 353 1791 
Q 353 2603 747 3093 
Q 1141 3584 1784 3584 
Q 2172 3584 2450 3431 
Q 2728 3278 2906 2969 
L 2906 3500 
L 3481 3500 
L 3481 434 
z
" transform="scale(0.015625)"/>
      <path id="DejaVuSans-72" d="M 2631 2963 
Q 2534 3019 2420 3045 
Q 2306 3072 2169 3072 
Q 1681 3072 1420 2755 
Q 1159 2438 1159 1844 
L 1159 0 
L 581 0 
L 581 3500 
L 1159 3500 
L 1159 2956 
Q 1341 3275 1631 3429 
Q 1922 3584 2338 3584 
Q 2397 3584 2469 3576 
Q 2541 3569 2628 3553 
L 2631 2963 
z
" transform="scale(0.015625)"/>
      <path id="DejaVuSans-61" d="M 2194 1759 
Q 1497 1759 1228 1600 
Q 959 1441 959 1056 
Q 959 750 1161 570 
Q 1363 391 1709 391 
Q 2188 391 2477 730 
Q 2766 1069 2766 1631 
L 2766 1759 
L 2194 1759 
z
M 3341 1997 
L 3341 0 
L 2766 0 
L 2766 531 
Q 2569 213 2275 61 
Q 1981 -91 1556 -91 
Q 1019 -91 701 211 
Q 384 513 384 1019 
Q 384 1609 779 1909 
Q 1175 2209 1959 2209 
L 2766 2209 
L 2766 2266 
Q 2766 2663 2505 2880 
Q 2244 3097 1772 3097 
Q 1472 3097 1187 3025 
Q 903 2953 641 2809 
L 641 3341 
Q 956 3463 1253 3523 
Q 1550 3584 1831 3584 
Q 2591 3584 2966 3190 
Q 3341 2797 3341 1997 
z
" transform="scale(0.015625)"/>
      <path id="DejaVuSans-70" d="M 1159 525 
L 1159 -1331 
L 581 -1331 
L 581 3500 
L 1159 3500 
L 1159 2969 
Q 1341 3281 1617 3432 
Q 1894 3584 2278 3584 
Q 2916 3584 3314 3078 
Q 3713 2572 3713 1747 
Q 3713 922 3314 415 
Q 2916 -91 2278 -91 
Q 1894 -91 1617 61 
Q 1341 213 1159 525 
z
M 3116 1747 
Q 3116 2381 2855 2742 
Q 2594 3103 2138 3103 
Q 1681 3103 1420 2742 
Q 1159 2381 1159 1747 
Q 1159 1113 1420 752 
Q 1681 391 2138 391 
Q 2594 391 2855 752 
Q 3116 1113 3116 1747 
z
" transform="scale(0.015625)"/>
      <path id="DejaVuSans-68" d="M 3513 2113 
L 3513 0 
L 2938 0 
L 2938 2094 
Q 2938 2591 2744 2837 
Q 2550 3084 2163 3084 
Q 1697 3084 1428 2787 
Q 1159 2491 1159 1978 
L 1159 0 
L 581 0 
L 581 4863 
L 1159 4863 
L 1159 2956 
Q 1366 3272 1645 3428 
Q 1925 3584 2291 3584 
Q 2894 3584 3203 3211 
Q 3513 2838 3513 2113 
z
" transform="scale(0.015625)"/>
      <path id="DejaVuSans-6f" d="M 1959 3097 
Q 1497 3097 1228 2736 
Q 959 2375 959 1747 
Q 959 1119 1226 758 
Q 1494 397 1959 397 
Q 2419 397 2687 759 
Q 2956 1122 2956 1747 
Q 2956 2369 2687 2733 
Q 2419 3097 1959 3097 
z
M 1959 3584 
Q 2709 3584 3137 3096 
Q 3566 2609 3566 1747 
Q 3566 888 3137 398 
Q 2709 -91 1959 -91 
Q 1206 -91 779 398 
Q 353 888 353 1747 
Q 353 2609 779 3096 
Q 1206 3584 1959 3584 
z
" transform="scale(0.015625)"/>
      <path id="DejaVuSans-66" d="M 2375 4863 
L 2375 4384 
L 1825 4384 
Q 1516 4384 1395 4259 
Q 1275 4134 1275 3809 
L 1275 3500 
L 2222 3500 
L 2222 3053 
L 1275 3053 
L 1275 0 
L 697 0 
L 697 3053 
L 147 3053 
L 147 3500 
L 697 3500 
L 697 3744 
Q 697 4328 969 4595 
Q 1241 4863 1831 4863 
L 2375 4863 
z
" transform="scale(0.015625)"/>
      <path id="DejaVuSans-63" d="M 3122 3366 
L 3122 2828 
Q 2878 2963 2633 3030 
Q 2388 3097 2138 3097 
Q 1578 3097 1268 2742 
Q 959 2388 959 1747 
Q 959 1106 1268 751 
Q 1578 397 2138 397 
Q 2388 397 2633 464 
Q 2878 531 3122 666 
L 3122 134 
Q 2881 22 2623 -34 
Q 2366 -91 2075 -91 
Q 1284 -91 818 406 
Q 353 903 353 1747 
Q 353 2603 823 3093 
Q 1294 3584 2113 3584 
Q 2378 3584 2631 3529 
Q 2884 3475 3122 3366 
z
" transform="scale(0.015625)"/>
      <path id="DejaVuSans-6d" d="M 3328 2828 
Q 3544 3216 3844 3400 
Q 4144 3584 4550 3584 
Q 5097 3584 5394 3201 
Q 5691 2819 5691 2113 
L 5691 0 
L 5113 0 
L 5113 2094 
Q 5113 2597 4934 2840 
Q 4756 3084 4391 3084 
Q 3944 3084 3684 2787 
Q 3425 2491 3425 1978 
L 3425 0 
L 2847 0 
L 2847 2094 
Q 2847 2600 2669 2842 
Q 2491 3084 2119 3084 
Q 1678 3084 1418 2786 
Q 1159 2488 1159 1978 
L 1159 0 
L 581 0 
L 581 3500 
L 1159 3500 
L 1159 2956 
Q 1356 3278 1631 3431 
Q 1906 3584 2284 3584 
Q 2666 3584 2933 3390 
Q 3200 3197 3328 2828 
z
" transform="scale(0.015625)"/>
      <path id="DejaVuSans-62" d="M 3116 1747 
Q 3116 2381 2855 2742 
Q 2594 3103 2138 3103 
Q 1681 3103 1420 2742 
Q 1159 2381 1159 1747 
Q 1159 1113 1420 752 
Q 1681 391 2138 391 
Q 2594 391 2855 752 
Q 3116 1113 3116 1747 
z
M 1159 2969 
Q 1341 3281 1617 3432 
Q 1894 3584 2278 3584 
Q 2916 3584 3314 3078 
Q 3713 2572 3713 1747 
Q 3713 922 3314 415 
Q 2916 -91 2278 -91 
Q 1894 -91 1617 61 
Q 1341 213 1159 525 
L 1159 0 
L 581 0 
L 581 4863 
L 1159 4863 
L 1159 2969 
z
" transform="scale(0.015625)"/>
      <path id="DejaVuSans-69" d="M 603 3500 
L 1178 3500 
L 1178 0 
L 603 0 
L 603 3500 
z
M 603 4863 
L 1178 4863 
L 1178 4134 
L 603 4134 
L 603 4863 
z
" transform="scale(0.015625)"/>
      <path id="DejaVuSans-6e" d="M 3513 2113 
L 3513 0 
L 2938 0 
L 2938 2094 
Q 2938 2591 2744 2837 
Q 2550 3084 2163 3084 
Q 1697 3084 1428 2787 
Q 1159 2491 1159 1978 
L 1159 0 
L 581 0 
L 581 3500 
L 1159 3500 
L 1159 2956 
Q 1366 3272 1645 3428 
Q 1925 3584 2291 3584 
Q 2894 3584 3203 3211 
Q 3513 2838 3513 2113 
z
" transform="scale(0.015625)"/>
      <path id="DejaVuSans-74" d="M 1172 4494 
L 1172 3500 
L 2356 3500 
L 2356 3053 
L 1172 3053 
L 1172 1153 
Q 1172 725 1289 603 
Q 1406 481 1766 481 
L 2356 481 
L 2356 0 
L 1766 0 
Q 1100 0 847 248 
Q 594 497 594 1153 
L 594 3053 
L 172 3053 
L 172 3500 
L 594 3500 
L 594 4494 
L 1172 4494 
z
" transform="scale(0.015625)"/>
      <path id="DejaVuSans-73" d="M 2834 3397 
L 2834 2853 
Q 2591 2978 2328 3040 
Q 2066 3103 1784 3103 
Q 1356 3103 1142 2972 
Q 928 2841 928 2578 
Q 928 2378 1081 2264 
Q 1234 2150 1697 2047 
L 1894 2003 
Q 2506 1872 2764 1633 
Q 3022 1394 3022 966 
Q 3022 478 2636 193 
Q 2250 -91 1575 -91 
Q 1294 -91 989 -36 
Q 684 19 347 128 
L 347 722 
Q 666 556 975 473 
Q 1284 391 1588 391 
Q 1994 391 2212 530 
Q 2431 669 2431 922 
Q 2431 1156 2273 1281 
Q 2116 1406 1581 1522 
L 1381 1569 
Q 847 1681 609 1914 
Q 372 2147 372 2553 
Q 372 3047 722 3315 
Q 1072 3584 1716 3584 
Q 2034 3584 2315 3537 
Q 2597 3491 2834 3397 
z
" transform="scale(0.015625)"/>
      <path id="DejaVuSans-64" d="M 2906 2969 
L 2906 4863 
L 3481 4863 
L 3481 0 
L 2906 0 
L 2906 525 
Q 2725 213 2448 61 
Q 2172 -91 1784 -91 
Q 1150 -91 751 415 
Q 353 922 353 1747 
Q 353 2572 751 3078 
Q 1150 3584 1784 3584 
Q 2172 3584 2448 3432 
Q 2725 3281 2906 2969 
z
M 947 1747 
Q 947 1113 1208 752 
Q 1469 391 1925 391 
Q 2381 391 2643 752 
Q 2906 1113 2906 1747 
Q 2906 2381 2643 2742 
Q 2381 3103 1925 3103 
Q 1469 3103 1208 2742 
Q 947 2381 947 1747 
z
" transform="scale(0.015625)"/>
      <path id="DejaVuSans-65" d="M 3597 1894 
L 3597 1613 
L 953 1613 
Q 991 1019 1311 708 
Q 1631 397 2203 397 
Q 2534 397 2845 478 
Q 3156 559 3463 722 
L 3463 178 
Q 3153 47 2828 -22 
Q 2503 -91 2169 -91 
Q 1331 -91 842 396 
Q 353 884 353 1716 
Q 353 2575 817 3079 
Q 1281 3584 2069 3584 
Q 2775 3584 3186 3129 
Q 3597 2675 3597 1894 
z
M 3022 2063 
Q 3016 2534 2758 2815 
Q 2500 3097 2075 3097 
Q 1594 3097 1305 2825 
Q 1016 2553 972 2059 
L 3022 2063 
z
" transform="scale(0.015625)"/>
      <path id="DejaVuSans-6c" d="M 603 4863 
L 1178 4863 
L 1178 0 
L 603 0 
L 603 4863 
z
" transform="scale(0.015625)"/>
     </defs>
     <use xlink:href="#DejaVuSans-33"/>
     <use xlink:href="#DejaVuSans-44" x="63.623047"/>
     <use xlink:href="#DejaVuSans-20" x="140.625"/>
     <use xlink:href="#DejaVuSans-67" x="172.412109"/>
     <use xlink:href="#DejaVuSans-72" x="235.888672"/>
     <use xlink:href="#DejaVuSans-61" x="277.001953"/>
     <use xlink:href="#DejaVuSans-70" x="338.28125"/>
     <use xlink:href="#DejaVuSans-68" x="401.757812"/>
     <use xlink:href="#DejaVuSans-20" x="465.136719"/>
     <use xlink:href="#DejaVuSans-6f" x="496.923828"/>
     <use xlink:href="#DejaVuSans-66" x="558.105469"/>
     <use xlink:href="#DejaVuSans-20" x="593.310547"/>
     <use xlink:href="#DejaVuSans-63" x="625.097656"/>
     <use xlink:href="#DejaVuSans-6f" x="680.078125"/>
     <use xlink:href="#DejaVuSans-6d" x="741.259766"/>
     <use xlink:href="#DejaVuSans-62" x="838.671875"/>
     <use xlink:href="#DejaVuSans-69" x="902.148438"/>
     <use xlink:href="#DejaVuSans-6e" x="929.931641"/>
     <use xlink:href="#DejaVuSans-61" x="993.310547"/>
     <use xlink:href="#DejaVuSans-74" x="1054.589844"/>
     <use xlink:href="#DejaVuSans-69" x="1093.798828"/>
     <use xlink:href="#DejaVuSans-6f" x="1121.582031"/>
     <use xlink:href="#DejaVuSans-6e" x="1182.763672"/>
     <use xlink:href="#DejaVuSans-73" x="1246.142578"/>
     <use xlink:href="#DejaVuSans-20" x="1298.242188"/>
     <use xlink:href="#DejaVuSans-6f" x="1330.029297"/>
     <use xlink:href="#DejaVuSans-66" x="1391.210938"/>
     <use xlink:href="#DejaVuSans-20" x="1426.416016"/>
     <use xlink:href="#DejaVuSans-6d" x="1458.203125"/>
     <use xlink:href="#DejaVuSans-6f" x="1555.615234"/>
     <use xlink:href="#DejaVuSans-64" x="1616.796875"/>
     <use xlink:href="#DejaVuSans-65" x="1680.273438"/>
     <use xlink:href="#DejaVuSans-6c" x="1741.796875"/>
     <use xlink:href="#DejaVuSans-73" x="1769.580078"/>
    </g>
   </g>
   <g id="Path3DCollection_2">
    <defs>
     <path id="C0_0_eaec3b33a6" d="M 0 2.236068 
C 0.593012 2.236068 1.161816 2.000462 1.581139 1.581139 
C 2.000462 1.161816 2.236068 0.593012 2.236068 -0 
C 2.236068 -0.593012 2.000462 -1.161816 1.581139 -1.581139 
C 1.161816 -2.000462 0.593012 -2.236068 0 -2.236068 
C -0.593012 -2.236068 -1.161816 -2.000462 -1.581139 -1.581139 
C -2.000462 -1.161816 -2.236068 -0.593012 -2.236068 0 
C -2.236068 0.593012 -2.000462 1.161816 -1.581139 1.581139 
C -1.161816 2.000462 -0.593012 2.236068 0 2.236068 
z
"/>
    </defs>
    <g clip-path="url(#p5671e3783f)">
     <use xlink:href="#C0_0_eaec3b33a6" x="621.298092" y="445.273731" style="fill: #ff0000; stroke: #ff0000"/>
    </g>
    <g clip-path="url(#p5671e3783f)">
     <use xlink:href="#C0_0_eaec3b33a6" x="626.345417" y="499.611054" style="fill: #ff0000; stroke: #ff0000"/>
    </g>
    <g clip-path="url(#p5671e3783f)">
     <use xlink:href="#C0_0_eaec3b33a6" x="674.40987" y="535.269935" style="fill: #ff0000; stroke: #ff0000"/>
    </g>
    <g clip-path="url(#p5671e3783f)">
     <use xlink:href="#C0_0_eaec3b33a6" x="431.618208" y="350.73424" style="fill: #ff0000; stroke: #ff0000"/>
    </g>
    <g clip-path="url(#p5671e3783f)">
     <use xlink:href="#C0_0_eaec3b33a6" x="321.895139" y="363.475675" style="fill: #ff0000; stroke: #ff0000"/>
    </g>
    <g clip-path="url(#p5671e3783f)">
     <use xlink:href="#C0_0_eaec3b33a6" x="261.824599" y="319.49694" style="fill: #ff0000; stroke: #ff0000"/>
    </g>
   </g>
   <g id="Path3DCollection_3">
    <defs>
     <path id="C1_0_3ddccf4b8f" d="M 0 2.236068 
C 0.593012 2.236068 1.161816 2.000462 1.581139 1.581139 
C 2.000462 1.161816 2.236068 0.593012 2.236068 -0 
C 2.236068 -0.593012 2.000462 -1.161816 1.581139 -1.581139 
C 1.161816 -2.000462 0.593012 -2.236068 0 -2.236068 
C -0.593012 -2.236068 -1.161816 -2.000462 -1.581139 -1.581139 
C -2.000462 -1.161816 -2.236068 -0.593012 -2.236068 0 
C -2.236068 0.593012 -2.000462 1.161816 -1.581139 1.581139 
C -1.161816 2.000462 -0.593012 2.236068 0 2.236068 
z
"/>
    </defs>
    <g clip-path="url(#p5671e3783f)">
     <use xlink:href="#C1_0_3ddccf4b8f" x="621.120922" y="534.781009" style="fill: #800080; stroke: #800080"/>
    </g>
    <g clip-path="url(#p5671e3783f)">
     <use xlink:href="#C1_0_3ddccf4b8f" x="598.166855" y="534.00816" style="fill: #800080; stroke: #800080"/>
    </g>
    <g clip-path="url(#p5671e3783f)">
     <use xlink:href="#C1_0_3ddccf4b8f" x="596.129304" y="539.004392" style="fill: #800080; stroke: #800080"/>
    </g>
    <g clip-path="url(#p5671e3783f)">
     <use xlink:href="#C1_0_3ddccf4b8f" x="596.593815" y="538.517185" style="fill: #800080; stroke: #800080"/>
    </g>
    <g clip-path="url(#p5671e3783f)">
     <use xlink:href="#C1_0_3ddccf4b8f" x="587.75501" y="539.047855" style="fill: #800080; stroke: #800080"/>
    </g>
    <g clip-path="url(#p5671e3783f)">
     <use xlink:href="#C1_0_3ddccf4b8f" x="273.524543" y="386.297448" style="fill: #800080; stroke: #800080"/>
    </g>
   </g>
   <g id="legend_1">
    <g id="patch_6">
     <path d="M 682.747812 199.74875 
L 768.44 199.74875 
Q 770.44 199.74875 770.44 197.74875 
L 770.44 110.68 
Q 770.44 108.68 768.44 108.68 
L 682.747812 108.68 
Q 680.747812 108.68 680.747812 110.68 
L 680.747812 197.74875 
Q 680.747812 199.74875 682.747812 199.74875 
z
" style="fill: #ffffff; opacity: 0.8; stroke: #cccccc; stroke-linejoin: miter"/>
    </g>
    <g id="Path3DCollection_4">
     <defs>
      <path id="m526d32d30c" d="M 0 2.236068 
C 0.593012 2.236068 1.161816 2.000462 1.581139 1.581139 
C 2.000462 1.161816 2.236068 0.593012 2.236068 0 
C 2.236068 -0.593012 2.000462 -1.161816 1.581139 -1.581139 
C 1.161816 -2.000462 0.593012 -2.236068 0 -2.236068 
C -0.593012 -2.236068 -1.161816 -2.000462 -1.581139 -1.581139 
C -2.000462 -1.161816 -2.236068 -0.593012 -2.236068 0 
C -2.236068 0.593012 -2.000462 1.161816 -1.581139 1.581139 
C -1.161816 2.000462 -0.593012 2.236068 0 2.236068 
z
" style="stroke: #ff0000"/>
     </defs>
     <g>
      <use xlink:href="#m526d32d30c" x="694.747812" y="117.653437" style="fill: #ff0000; stroke: #ff0000"/>
     </g>
    </g>
    <g id="text_28">
     <!-- 1 model(s) -->
     <g transform="translate(712.747812 120.278437) scale(0.1 -0.1)">
      <defs>
       <path id="DejaVuSans-28" d="M 1984 4856 
Q 1566 4138 1362 3434 
Q 1159 2731 1159 2009 
Q 1159 1288 1364 580 
Q 1569 -128 1984 -844 
L 1484 -844 
Q 1016 -109 783 600 
Q 550 1309 550 2009 
Q 550 2706 781 3412 
Q 1013 4119 1484 4856 
L 1984 4856 
z
" transform="scale(0.015625)"/>
       <path id="DejaVuSans-29" d="M 513 4856 
L 1013 4856 
Q 1481 4119 1714 3412 
Q 1947 2706 1947 2009 
Q 1947 1309 1714 600 
Q 1481 -109 1013 -844 
L 513 -844 
Q 928 -128 1133 580 
Q 1338 1288 1338 2009 
Q 1338 2731 1133 3434 
Q 928 4138 513 4856 
z
" transform="scale(0.015625)"/>
      </defs>
      <use xlink:href="#DejaVuSans-31"/>
      <use xlink:href="#DejaVuSans-20" x="63.623047"/>
      <use xlink:href="#DejaVuSans-6d" x="95.410156"/>
      <use xlink:href="#DejaVuSans-6f" x="192.822266"/>
      <use xlink:href="#DejaVuSans-64" x="254.003906"/>
      <use xlink:href="#DejaVuSans-65" x="317.480469"/>
      <use xlink:href="#DejaVuSans-6c" x="379.003906"/>
      <use xlink:href="#DejaVuSans-28" x="406.787109"/>
      <use xlink:href="#DejaVuSans-73" x="445.800781"/>
      <use xlink:href="#DejaVuSans-29" x="497.900391"/>
     </g>
    </g>
    <g id="Path3DCollection_5">
     <defs>
      <path id="me92efb4447" d="M 0 2.236068 
C 0.593012 2.236068 1.161816 2.000462 1.581139 1.581139 
C 2.000462 1.161816 2.236068 0.593012 2.236068 0 
C 2.236068 -0.593012 2.000462 -1.161816 1.581139 -1.581139 
C 1.161816 -2.000462 0.593012 -2.236068 0 -2.236068 
C -0.593012 -2.236068 -1.161816 -2.000462 -1.581139 -1.581139 
C -2.000462 -1.161816 -2.236068 -0.593012 -2.236068 0 
C -2.236068 0.593012 -2.000462 1.161816 -1.581139 1.581139 
C -1.161816 2.000462 -0.593012 2.236068 0 2.236068 
z
" style="stroke: #0000ff"/>
     </defs>
     <g>
      <use xlink:href="#me92efb4447" x="694.747812" y="132.331563" style="fill: #0000ff; stroke: #0000ff"/>
     </g>
    </g>
    <g id="text_29">
     <!-- 2 model(s) -->
     <g transform="translate(712.747812 134.956563) scale(0.1 -0.1)">
      <use xlink:href="#DejaVuSans-32"/>
      <use xlink:href="#DejaVuSans-20" x="63.623047"/>
      <use xlink:href="#DejaVuSans-6d" x="95.410156"/>
      <use xlink:href="#DejaVuSans-6f" x="192.822266"/>
      <use xlink:href="#DejaVuSans-64" x="254.003906"/>
      <use xlink:href="#DejaVuSans-65" x="317.480469"/>
      <use xlink:href="#DejaVuSans-6c" x="379.003906"/>
      <use xlink:href="#DejaVuSans-28" x="406.787109"/>
      <use xlink:href="#DejaVuSans-73" x="445.800781"/>
      <use xlink:href="#DejaVuSans-29" x="497.900391"/>
     </g>
    </g>
    <g id="Path3DCollection_6">
     <defs>
      <path id="mb39d23de3b" d="M 0 2.236068 
C 0.593012 2.236068 1.161816 2.000462 1.581139 1.581139 
C 2.000462 1.161816 2.236068 0.593012 2.236068 0 
C 2.236068 -0.593012 2.000462 -1.161816 1.581139 -1.581139 
C 1.161816 -2.000462 0.593012 -2.236068 0 -2.236068 
C -0.593012 -2.236068 -1.161816 -2.000462 -1.581139 -1.581139 
C -2.000462 -1.161816 -2.236068 -0.593012 -2.236068 0 
C -2.236068 0.593012 -2.000462 1.161816 -1.581139 1.581139 
C -1.161816 2.000462 -0.593012 2.236068 0 2.236068 
z
" style="stroke: #008000"/>
     </defs>
     <g>
      <use xlink:href="#mb39d23de3b" x="694.747812" y="147.009688" style="fill: #008000; stroke: #008000"/>
     </g>
    </g>
    <g id="text_30">
     <!-- 3 model(s) -->
     <g transform="translate(712.747812 149.634688) scale(0.1 -0.1)">
      <use xlink:href="#DejaVuSans-33"/>
      <use xlink:href="#DejaVuSans-20" x="63.623047"/>
      <use xlink:href="#DejaVuSans-6d" x="95.410156"/>
      <use xlink:href="#DejaVuSans-6f" x="192.822266"/>
      <use xlink:href="#DejaVuSans-64" x="254.003906"/>
      <use xlink:href="#DejaVuSans-65" x="317.480469"/>
      <use xlink:href="#DejaVuSans-6c" x="379.003906"/>
      <use xlink:href="#DejaVuSans-28" x="406.787109"/>
      <use xlink:href="#DejaVuSans-73" x="445.800781"/>
      <use xlink:href="#DejaVuSans-29" x="497.900391"/>
     </g>
    </g>
    <g id="Path3DCollection_7">
     <defs>
      <path id="md26c8df70a" d="M 0 2.236068 
C 0.593012 2.236068 1.161816 2.000462 1.581139 1.581139 
C 2.000462 1.161816 2.236068 0.593012 2.236068 0 
C 2.236068 -0.593012 2.000462 -1.161816 1.581139 -1.581139 
C 1.161816 -2.000462 0.593012 -2.236068 0 -2.236068 
C -0.593012 -2.236068 -1.161816 -2.000462 -1.581139 -1.581139 
C -2.000462 -1.161816 -2.236068 -0.593012 -2.236068 0 
C -2.236068 0.593012 -2.000462 1.161816 -1.581139 1.581139 
C -1.161816 2.000462 -0.593012 2.236068 0 2.236068 
z
" style="stroke: #ffa500"/>
     </defs>
     <g>
      <use xlink:href="#md26c8df70a" x="694.747812" y="161.687812" style="fill: #ffa500; stroke: #ffa500"/>
     </g>
    </g>
    <g id="text_31">
     <!-- 4 model(s) -->
     <g transform="translate(712.747812 164.312812) scale(0.1 -0.1)">
      <use xlink:href="#DejaVuSans-34"/>
      <use xlink:href="#DejaVuSans-20" x="63.623047"/>
      <use xlink:href="#DejaVuSans-6d" x="95.410156"/>
      <use xlink:href="#DejaVuSans-6f" x="192.822266"/>
      <use xlink:href="#DejaVuSans-64" x="254.003906"/>
      <use xlink:href="#DejaVuSans-65" x="317.480469"/>
      <use xlink:href="#DejaVuSans-6c" x="379.003906"/>
      <use xlink:href="#DejaVuSans-28" x="406.787109"/>
      <use xlink:href="#DejaVuSans-73" x="445.800781"/>
      <use xlink:href="#DejaVuSans-29" x="497.900391"/>
     </g>
    </g>
    <g id="Path3DCollection_8">
     <defs>
      <path id="mac7c70f0e5" d="M 0 2.236068 
C 0.593012 2.236068 1.161816 2.000462 1.581139 1.581139 
C 2.000462 1.161816 2.236068 0.593012 2.236068 0 
C 2.236068 -0.593012 2.000462 -1.161816 1.581139 -1.581139 
C 1.161816 -2.000462 0.593012 -2.236068 0 -2.236068 
C -0.593012 -2.236068 -1.161816 -2.000462 -1.581139 -1.581139 
C -2.000462 -1.161816 -2.236068 -0.593012 -2.236068 0 
C -2.236068 0.593012 -2.000462 1.161816 -1.581139 1.581139 
C -1.161816 2.000462 -0.593012 2.236068 0 2.236068 
z
" style="stroke: #800080"/>
     </defs>
     <g>
      <use xlink:href="#mac7c70f0e5" x="694.747812" y="176.365937" style="fill: #800080; stroke: #800080"/>
     </g>
    </g>
    <g id="text_32">
     <!-- 5 model(s) -->
     <g transform="translate(712.747812 178.990937) scale(0.1 -0.1)">
      <use xlink:href="#DejaVuSans-35"/>
      <use xlink:href="#DejaVuSans-20" x="63.623047"/>
      <use xlink:href="#DejaVuSans-6d" x="95.410156"/>
      <use xlink:href="#DejaVuSans-6f" x="192.822266"/>
      <use xlink:href="#DejaVuSans-64" x="254.003906"/>
      <use xlink:href="#DejaVuSans-65" x="317.480469"/>
      <use xlink:href="#DejaVuSans-6c" x="379.003906"/>
      <use xlink:href="#DejaVuSans-28" x="406.787109"/>
      <use xlink:href="#DejaVuSans-73" x="445.800781"/>
      <use xlink:href="#DejaVuSans-29" x="497.900391"/>
     </g>
    </g>
    <g id="Path3DCollection_9">
     <g>
      <use xlink:href="#m209fc5539b" x="694.747812" y="191.044062" style="stroke: #000000"/>
     </g>
    </g>
    <g id="text_33">
     <!-- 6 model(s) -->
     <g transform="translate(712.747812 193.669062) scale(0.1 -0.1)">
      <use xlink:href="#DejaVuSans-36"/>
      <use xlink:href="#DejaVuSans-20" x="63.623047"/>
      <use xlink:href="#DejaVuSans-6d" x="95.410156"/>
      <use xlink:href="#DejaVuSans-6f" x="192.822266"/>
      <use xlink:href="#DejaVuSans-64" x="254.003906"/>
      <use xlink:href="#DejaVuSans-65" x="317.480469"/>
      <use xlink:href="#DejaVuSans-6c" x="379.003906"/>
      <use xlink:href="#DejaVuSans-28" x="406.787109"/>
      <use xlink:href="#DejaVuSans-73" x="445.800781"/>
      <use xlink:href="#DejaVuSans-29" x="497.900391"/>
     </g>
    </g>
   </g>
   <g id="Path3DCollection_10">
    <defs>
     <path id="C2_0_b372910bc7" d="M 0 2.236068 
C 0.593012 2.236068 1.161816 2.000462 1.581139 1.581139 
C 2.000462 1.161816 2.236068 0.593012 2.236068 -0 
C 2.236068 -0.593012 2.000462 -1.161816 1.581139 -1.581139 
C 1.161816 -2.000462 0.593012 -2.236068 0 -2.236068 
C -0.593012 -2.236068 -1.161816 -2.000462 -1.581139 -1.581139 
C -2.000462 -1.161816 -2.236068 -0.593012 -2.236068 0 
C -2.236068 0.593012 -2.000462 1.161816 -1.581139 1.581139 
C -1.161816 2.000462 -0.593012 2.236068 0 2.236068 
z
"/>
    </defs>
    <g clip-path="url(#p5671e3783f)">
     <use xlink:href="#C2_0_b372910bc7" x="634.465293" y="536.053914" style="fill: #ffa500; stroke: #ffa500"/>
    </g>
    <g clip-path="url(#p5671e3783f)">
     <use xlink:href="#C2_0_b372910bc7" x="628.417879" y="529.315742" style="fill: #ffa500; stroke: #ffa500"/>
    </g>
    <g clip-path="url(#p5671e3783f)">
     <use xlink:href="#C2_0_b372910bc7" x="631.215221" y="538.590605" style="fill: #ffa500; stroke: #ffa500"/>
    </g>
    <g clip-path="url(#p5671e3783f)">
     <use xlink:href="#C2_0_b372910bc7" x="627.006099" y="540.619918" style="fill: #ffa500; stroke: #ffa500"/>
    </g>
    <g clip-path="url(#p5671e3783f)">
     <use xlink:href="#C2_0_b372910bc7" x="611.619684" y="536.303294" style="fill: #ffa500; stroke: #ffa500"/>
    </g>
    <g clip-path="url(#p5671e3783f)">
     <use xlink:href="#C2_0_b372910bc7" x="606.815052" y="542.618262" style="fill: #ffa500; stroke: #ffa500"/>
    </g>
    <g clip-path="url(#p5671e3783f)">
     <use xlink:href="#C2_0_b372910bc7" x="598.473609" y="527.147722" style="fill: #ffa500; stroke: #ffa500"/>
    </g>
    <g clip-path="url(#p5671e3783f)">
     <use xlink:href="#C2_0_b372910bc7" x="601.14728" y="544.759218" style="fill: #ffa500; stroke: #ffa500"/>
    </g>
    <g clip-path="url(#p5671e3783f)">
     <use xlink:href="#C2_0_b372910bc7" x="592.346396" y="531.857989" style="fill: #ffa500; stroke: #ffa500"/>
    </g>
    <g clip-path="url(#p5671e3783f)">
     <use xlink:href="#C2_0_b372910bc7" x="596.422085" y="542.139931" style="fill: #ffa500; stroke: #ffa500"/>
    </g>
    <g clip-path="url(#p5671e3783f)">
     <use xlink:href="#C2_0_b372910bc7" x="379.654371" y="400.990664" style="fill: #ffa500; stroke: #ffa500"/>
    </g>
    <g clip-path="url(#p5671e3783f)">
     <use xlink:href="#C2_0_b372910bc7" x="343.122195" y="399.732204" style="fill: #ffa500; stroke: #ffa500"/>
    </g>
    <g clip-path="url(#p5671e3783f)">
     <use xlink:href="#C2_0_b372910bc7" x="278.369631" y="373.821589" style="fill: #ffa500; stroke: #ffa500"/>
    </g>
    <g clip-path="url(#p5671e3783f)">
     <use xlink:href="#C2_0_b372910bc7" x="269.5553" y="397.185524" style="fill: #ffa500; stroke: #ffa500"/>
    </g>
    <g clip-path="url(#p5671e3783f)">
     <use xlink:href="#C2_0_b372910bc7" x="237.310262" y="369.449511" style="fill: #ffa500; stroke: #ffa500"/>
    </g>
   </g>
   <g id="Path3DCollection_11">
    <defs>
     <path id="C3_0_b335718ab8" d="M 0 2.236068 
C 0.593012 2.236068 1.161816 2.000462 1.581139 1.581139 
C 2.000462 1.161816 2.236068 0.593012 2.236068 -0 
C 2.236068 -0.593012 2.000462 -1.161816 1.581139 -1.581139 
C 1.161816 -2.000462 0.593012 -2.236068 0 -2.236068 
C -0.593012 -2.236068 -1.161816 -2.000462 -1.581139 -1.581139 
C -2.000462 -1.161816 -2.236068 -0.593012 -2.236068 0 
C -2.236068 0.593012 -2.000462 1.161816 -1.581139 1.581139 
C -1.161816 2.000462 -0.593012 2.236068 0 2.236068 
z
"/>
    </defs>
    <g clip-path="url(#p5671e3783f)">
     <use xlink:href="#C3_0_b335718ab8" x="529.28859" y="403.899365" style="fill: #0000ff; stroke: #0000ff"/>
    </g>
    <g clip-path="url(#p5671e3783f)">
     <use xlink:href="#C3_0_b335718ab8" x="655.308079" y="530.326974" style="fill: #0000ff; stroke: #0000ff"/>
    </g>
    <g clip-path="url(#p5671e3783f)">
     <use xlink:href="#C3_0_b335718ab8" x="647.070984" y="528.344864" style="fill: #0000ff; stroke: #0000ff"/>
    </g>
    <g clip-path="url(#p5671e3783f)">
     <use xlink:href="#C3_0_b335718ab8" x="654.280437" y="540.015489" style="fill: #0000ff; stroke: #0000ff"/>
    </g>
    <g clip-path="url(#p5671e3783f)">
     <use xlink:href="#C3_0_b335718ab8" x="650.232318" y="540.822935" style="fill: #0000ff; stroke: #0000ff"/>
    </g>
    <g clip-path="url(#p5671e3783f)">
     <use xlink:href="#C3_0_b335718ab8" x="461.138089" y="412.512082" style="fill: #0000ff; stroke: #0000ff"/>
    </g>
    <g clip-path="url(#p5671e3783f)">
     <use xlink:href="#C3_0_b335718ab8" x="619.274757" y="534.193246" style="fill: #0000ff; stroke: #0000ff"/>
    </g>
    <g clip-path="url(#p5671e3783f)">
     <use xlink:href="#C3_0_b335718ab8" x="399.344832" y="412.766461" style="fill: #0000ff; stroke: #0000ff"/>
    </g>
    <g clip-path="url(#p5671e3783f)">
     <use xlink:href="#C3_0_b335718ab8" x="371.336298" y="365.049713" style="fill: #0000ff; stroke: #0000ff"/>
    </g>
    <g clip-path="url(#p5671e3783f)">
     <use xlink:href="#C3_0_b335718ab8" x="359.293811" y="404.372793" style="fill: #0000ff; stroke: #0000ff"/>
    </g>
    <g clip-path="url(#p5671e3783f)">
     <use xlink:href="#C3_0_b335718ab8" x="329.089589" y="358.996918" style="fill: #0000ff; stroke: #0000ff"/>
    </g>
    <g clip-path="url(#p5671e3783f)">
     <use xlink:href="#C3_0_b335718ab8" x="290.72888" y="364.361885" style="fill: #0000ff; stroke: #0000ff"/>
    </g>
    <g clip-path="url(#p5671e3783f)">
     <use xlink:href="#C3_0_b335718ab8" x="281.098967" y="372.608018" style="fill: #0000ff; stroke: #0000ff"/>
    </g>
    <g clip-path="url(#p5671e3783f)">
     <use xlink:href="#C3_0_b335718ab8" x="201.259646" y="327.340226" style="fill: #0000ff; stroke: #0000ff"/>
    </g>
    <g clip-path="url(#p5671e3783f)">
     <use xlink:href="#C3_0_b335718ab8" x="192.79364" y="333.195337" style="fill: #0000ff; stroke: #0000ff"/>
    </g>
   </g>
   <g id="Path3DCollection_12">
    <defs>
     <path id="C4_0_339783de79" d="M 0 2.236068 
C 0.593012 2.236068 1.161816 2.000462 1.581139 1.581139 
C 2.000462 1.161816 2.236068 0.593012 2.236068 -0 
C 2.236068 -0.593012 2.000462 -1.161816 1.581139 -1.581139 
C 1.161816 -2.000462 0.593012 -2.236068 0 -2.236068 
C -0.593012 -2.236068 -1.161816 -2.000462 -1.581139 -1.581139 
C -2.000462 -1.161816 -2.236068 -0.593012 -2.236068 0 
C -2.236068 0.593012 -2.000462 1.161816 -1.581139 1.581139 
C -1.161816 2.000462 -0.593012 2.236068 0 2.236068 
z
"/>
    </defs>
    <g clip-path="url(#p5671e3783f)">
     <use xlink:href="#C4_0_339783de79" x="501.36363" y="427.269862" style="fill: #008000; stroke: #008000"/>
    </g>
    <g clip-path="url(#p5671e3783f)">
     <use xlink:href="#C4_0_339783de79" x="648.415237" y="539.898956" style="fill: #008000; stroke: #008000"/>
    </g>
    <g clip-path="url(#p5671e3783f)">
     <use xlink:href="#C4_0_339783de79" x="644.517599" y="531.399077" style="fill: #008000; stroke: #008000"/>
    </g>
    <g clip-path="url(#p5671e3783f)">
     <use xlink:href="#C4_0_339783de79" x="645.216869" y="534.755379" style="fill: #008000; stroke: #008000"/>
    </g>
    <g clip-path="url(#p5671e3783f)">
     <use xlink:href="#C4_0_339783de79" x="637.840483" y="538.799125" style="fill: #008000; stroke: #008000"/>
    </g>
    <g clip-path="url(#p5671e3783f)">
     <use xlink:href="#C4_0_339783de79" x="630.159583" y="539.560073" style="fill: #008000; stroke: #008000"/>
    </g>
    <g clip-path="url(#p5671e3783f)">
     <use xlink:href="#C4_0_339783de79" x="623.252301" y="526.3568" style="fill: #008000; stroke: #008000"/>
    </g>
    <g clip-path="url(#p5671e3783f)">
     <use xlink:href="#C4_0_339783de79" x="611.722207" y="533.660301" style="fill: #008000; stroke: #008000"/>
    </g>
    <g clip-path="url(#p5671e3783f)">
     <use xlink:href="#C4_0_339783de79" x="609.434907" y="536.185942" style="fill: #008000; stroke: #008000"/>
    </g>
    <g clip-path="url(#p5671e3783f)">
     <use xlink:href="#C4_0_339783de79" x="602.971451" y="529.315577" style="fill: #008000; stroke: #008000"/>
    </g>
    <g clip-path="url(#p5671e3783f)">
     <use xlink:href="#C4_0_339783de79" x="608.472672" y="542.334364" style="fill: #008000; stroke: #008000"/>
    </g>
    <g clip-path="url(#p5671e3783f)">
     <use xlink:href="#C4_0_339783de79" x="395.38513" y="364.364885" style="fill: #008000; stroke: #008000"/>
    </g>
    <g clip-path="url(#p5671e3783f)">
     <use xlink:href="#C4_0_339783de79" x="345.931234" y="391.489105" style="fill: #008000; stroke: #008000"/>
    </g>
    <g clip-path="url(#p5671e3783f)">
     <use xlink:href="#C4_0_339783de79" x="356.699154" y="417.60713" style="fill: #008000; stroke: #008000"/>
    </g>
    <g clip-path="url(#p5671e3783f)">
     <use xlink:href="#C4_0_339783de79" x="349.060727" y="407.876317" style="fill: #008000; stroke: #008000"/>
    </g>
    <g clip-path="url(#p5671e3783f)">
     <use xlink:href="#C4_0_339783de79" x="300.853708" y="380.62189" style="fill: #008000; stroke: #008000"/>
    </g>
    <g clip-path="url(#p5671e3783f)">
     <use xlink:href="#C4_0_339783de79" x="290.725438" y="373.74138" style="fill: #008000; stroke: #008000"/>
    </g>
    <g clip-path="url(#p5671e3783f)">
     <use xlink:href="#C4_0_339783de79" x="288.554299" y="382.029325" style="fill: #008000; stroke: #008000"/>
    </g>
    <g clip-path="url(#p5671e3783f)">
     <use xlink:href="#C4_0_339783de79" x="236.147537" y="344.284537" style="fill: #008000; stroke: #008000"/>
    </g>
    <g clip-path="url(#p5671e3783f)">
     <use xlink:href="#C4_0_339783de79" x="206.465219" y="361.877692" style="fill: #008000; stroke: #008000"/>
    </g>
   </g>
  </g>
 </g>
 <defs>
  <clipPath id="p5671e3783f">
   <rect x="110.16" y="103.68" width="665.28" height="665.28"/>
  </clipPath>
 </defs>
</svg>
