<?xml version="1.0" encoding="utf-8" standalone="no"?>
<!DOCTYPE svg PUBLIC "-//W3C//DTD SVG 1.1//EN"
  "http://www.w3.org/Graphics/SVG/1.1/DTD/svg11.dtd">
<svg xmlns:xlink="http://www.w3.org/1999/xlink" width="864pt" height="648pt" viewBox="0 0 864 648" xmlns="http://www.w3.org/2000/svg" version="1.1">
 <metadata>
  <rdf:RDF xmlns:dc="http://purl.org/dc/elements/1.1/" xmlns:cc="http://creativecommons.org/ns#" xmlns:rdf="http://www.w3.org/1999/02/22-rdf-syntax-ns#">
   <cc:Work>
    <dc:type rdf:resource="http://purl.org/dc/dcmitype/StillImage"/>
    <dc:date>2024-04-16T11:13:42.341049</dc:date>
    <dc:format>image/svg+xml</dc:format>
    <dc:creator>
     <cc:Agent>
      <dc:title>Matplotlib v3.8.2, https://matplotlib.org/</dc:title>
     </cc:Agent>
    </dc:creator>
   </cc:Work>
  </rdf:RDF>
 </metadata>
 <defs>
  <style type="text/css">*{stroke-linejoin: round; stroke-linecap: butt}</style>
 </defs>
 <g id="figure_1">
  <g id="patch_1">
   <path d="M 0 648 
L 864 648 
L 864 0 
L 0 0 
z
" style="fill: #ffffff"/>
  </g>
  <g id="axes_1">
   <g id="patch_2">
    <path d="M 108 224.512941 
L 777.6 224.512941 
L 777.6 77.76 
L 108 77.76 
z
" style="fill: #ffffff"/>
   </g>
   <g id="matplotlib.axis_1">
    <g id="xtick_1">
     <g id="line2d_1">
      <defs>
       <path id="mc105674e7d" d="M 0 0 
L 0 3.5 
" style="stroke: #000000; stroke-width: 0.8"/>
      </defs>
      <g>
       <use xlink:href="#mc105674e7d" x="138.436364" y="224.512941" style="stroke: #000000; stroke-width: 0.8"/>
      </g>
     </g>
    </g>
    <g id="xtick_2">
     <g id="line2d_2">
      <g>
       <use xlink:href="#mc105674e7d" x="260.181818" y="224.512941" style="stroke: #000000; stroke-width: 0.8"/>
      </g>
     </g>
    </g>
    <g id="xtick_3">
     <g id="line2d_3">
      <g>
       <use xlink:href="#mc105674e7d" x="381.927273" y="224.512941" style="stroke: #000000; stroke-width: 0.8"/>
      </g>
     </g>
    </g>
    <g id="xtick_4">
     <g id="line2d_4">
      <g>
       <use xlink:href="#mc105674e7d" x="503.672727" y="224.512941" style="stroke: #000000; stroke-width: 0.8"/>
      </g>
     </g>
    </g>
    <g id="xtick_5">
     <g id="line2d_5">
      <g>
       <use xlink:href="#mc105674e7d" x="625.418182" y="224.512941" style="stroke: #000000; stroke-width: 0.8"/>
      </g>
     </g>
    </g>
    <g id="xtick_6">
     <g id="line2d_6">
      <g>
       <use xlink:href="#mc105674e7d" x="747.163636" y="224.512941" style="stroke: #000000; stroke-width: 0.8"/>
      </g>
     </g>
    </g>
   </g>
   <g id="matplotlib.axis_2">
    <g id="ytick_1">
     <g id="line2d_7">
      <defs>
       <path id="medc832d015" d="M 0 0 
L -3.5 0 
" style="stroke: #000000; stroke-width: 0.8"/>
      </defs>
      <g>
       <use xlink:href="#medc832d015" x="108" y="202.087399" style="stroke: #000000; stroke-width: 0.8"/>
      </g>
     </g>
     <g id="text_1">
      <!-- 0 -->
      <g transform="translate(94.6375 205.886617) scale(0.1 -0.1)">
       <defs>
        <path id="DejaVuSans-30" d="M 2034 4250 
Q 1547 4250 1301 3770 
Q 1056 3291 1056 2328 
Q 1056 1369 1301 889 
Q 1547 409 2034 409 
Q 2525 409 2770 889 
Q 3016 1369 3016 2328 
Q 3016 3291 2770 3770 
Q 2525 4250 2034 4250 
z
M 2034 4750 
Q 2819 4750 3233 4129 
Q 3647 3509 3647 2328 
Q 3647 1150 3233 529 
Q 2819 -91 2034 -91 
Q 1250 -91 836 529 
Q 422 1150 422 2328 
Q 422 3509 836 4129 
Q 1250 4750 2034 4750 
z
" transform="scale(0.015625)"/>
       </defs>
       <use xlink:href="#DejaVuSans-30"/>
      </g>
     </g>
    </g>
    <g id="ytick_2">
     <g id="line2d_8">
      <g>
       <use xlink:href="#medc832d015" x="108" y="177.315458" style="stroke: #000000; stroke-width: 0.8"/>
      </g>
     </g>
     <g id="text_2">
      <!-- 5 -->
      <g transform="translate(94.6375 181.114676) scale(0.1 -0.1)">
       <defs>
        <path id="DejaVuSans-35" d="M 691 4666 
L 3169 4666 
L 3169 4134 
L 1269 4134 
L 1269 2991 
Q 1406 3038 1543 3061 
Q 1681 3084 1819 3084 
Q 2600 3084 3056 2656 
Q 3513 2228 3513 1497 
Q 3513 744 3044 326 
Q 2575 -91 1722 -91 
Q 1428 -91 1123 -41 
Q 819 9 494 109 
L 494 744 
Q 775 591 1075 516 
Q 1375 441 1709 441 
Q 2250 441 2565 725 
Q 2881 1009 2881 1497 
Q 2881 1984 2565 2268 
Q 2250 2553 1709 2553 
Q 1456 2553 1204 2497 
Q 953 2441 691 2322 
L 691 4666 
z
" transform="scale(0.015625)"/>
       </defs>
       <use xlink:href="#DejaVuSans-35"/>
      </g>
     </g>
    </g>
    <g id="ytick_3">
     <g id="line2d_9">
      <g>
       <use xlink:href="#medc832d015" x="108" y="152.543517" style="stroke: #000000; stroke-width: 0.8"/>
      </g>
     </g>
     <g id="text_3">
      <!-- 10 -->
      <g transform="translate(88.275 156.342736) scale(0.1 -0.1)">
       <defs>
        <path id="DejaVuSans-31" d="M 794 531 
L 1825 531 
L 1825 4091 
L 703 3866 
L 703 4441 
L 1819 4666 
L 2450 4666 
L 2450 531 
L 3481 531 
L 3481 0 
L 794 0 
L 794 531 
z
" transform="scale(0.015625)"/>
       </defs>
       <use xlink:href="#DejaVuSans-31"/>
       <use xlink:href="#DejaVuSans-30" x="63.623047"/>
      </g>
     </g>
    </g>
    <g id="ytick_4">
     <g id="line2d_10">
      <g>
       <use xlink:href="#medc832d015" x="108" y="127.771576" style="stroke: #000000; stroke-width: 0.8"/>
      </g>
     </g>
     <g id="text_4">
      <!-- 15 -->
      <g transform="translate(88.275 131.570795) scale(0.1 -0.1)">
       <use xlink:href="#DejaVuSans-31"/>
       <use xlink:href="#DejaVuSans-35" x="63.623047"/>
      </g>
     </g>
    </g>
    <g id="ytick_5">
     <g id="line2d_11">
      <g>
       <use xlink:href="#medc832d015" x="108" y="102.999635" style="stroke: #000000; stroke-width: 0.8"/>
      </g>
     </g>
     <g id="text_5">
      <!-- 20 -->
      <g transform="translate(88.275 106.798854) scale(0.1 -0.1)">
       <defs>
        <path id="DejaVuSans-32" d="M 1228 531 
L 3431 531 
L 3431 0 
L 469 0 
L 469 531 
Q 828 903 1448 1529 
Q 2069 2156 2228 2338 
Q 2531 2678 2651 2914 
Q 2772 3150 2772 3378 
Q 2772 3750 2511 3984 
Q 2250 4219 1831 4219 
Q 1534 4219 1204 4116 
Q 875 4013 500 3803 
L 500 4441 
Q 881 4594 1212 4672 
Q 1544 4750 1819 4750 
Q 2544 4750 2975 4387 
Q 3406 4025 3406 3419 
Q 3406 3131 3298 2873 
Q 3191 2616 2906 2266 
Q 2828 2175 2409 1742 
Q 1991 1309 1228 531 
z
" transform="scale(0.015625)"/>
       </defs>
       <use xlink:href="#DejaVuSans-32"/>
       <use xlink:href="#DejaVuSans-30" x="63.623047"/>
      </g>
     </g>
    </g>
    <g id="ytick_6">
     <g id="line2d_12">
      <g>
       <use xlink:href="#medc832d015" x="108" y="78.227694" style="stroke: #000000; stroke-width: 0.8"/>
      </g>
     </g>
     <g id="text_6">
      <!-- 25 -->
      <g transform="translate(88.275 82.026913) scale(0.1 -0.1)">
       <use xlink:href="#DejaVuSans-32"/>
       <use xlink:href="#DejaVuSans-35" x="63.623047"/>
      </g>
     </g>
    </g>
    <g id="text_7">
     <!-- Magnetism -->
     <g transform="translate(82.195312 178.758346) rotate(-90) scale(0.1 -0.1)">
      <defs>
       <path id="DejaVuSans-4d" d="M 628 4666 
L 1569 4666 
L 2759 1491 
L 3956 4666 
L 4897 4666 
L 4897 0 
L 4281 0 
L 4281 4097 
L 3078 897 
L 2444 897 
L 1241 4097 
L 1241 0 
L 628 0 
L 628 4666 
z
" transform="scale(0.015625)"/>
       <path id="DejaVuSans-61" d="M 2194 1759 
Q 1497 1759 1228 1600 
Q 959 1441 959 1056 
Q 959 750 1161 570 
Q 1363 391 1709 391 
Q 2188 391 2477 730 
Q 2766 1069 2766 1631 
L 2766 1759 
L 2194 1759 
z
M 3341 1997 
L 3341 0 
L 2766 0 
L 2766 531 
Q 2569 213 2275 61 
Q 1981 -91 1556 -91 
Q 1019 -91 701 211 
Q 384 513 384 1019 
Q 384 1609 779 1909 
Q 1175 2209 1959 2209 
L 2766 2209 
L 2766 2266 
Q 2766 2663 2505 2880 
Q 2244 3097 1772 3097 
Q 1472 3097 1187 3025 
Q 903 2953 641 2809 
L 641 3341 
Q 956 3463 1253 3523 
Q 1550 3584 1831 3584 
Q 2591 3584 2966 3190 
Q 3341 2797 3341 1997 
z
" transform="scale(0.015625)"/>
       <path id="DejaVuSans-67" d="M 2906 1791 
Q 2906 2416 2648 2759 
Q 2391 3103 1925 3103 
Q 1463 3103 1205 2759 
Q 947 2416 947 1791 
Q 947 1169 1205 825 
Q 1463 481 1925 481 
Q 2391 481 2648 825 
Q 2906 1169 2906 1791 
z
M 3481 434 
Q 3481 -459 3084 -895 
Q 2688 -1331 1869 -1331 
Q 1566 -1331 1297 -1286 
Q 1028 -1241 775 -1147 
L 775 -588 
Q 1028 -725 1275 -790 
Q 1522 -856 1778 -856 
Q 2344 -856 2625 -561 
Q 2906 -266 2906 331 
L 2906 616 
Q 2728 306 2450 153 
Q 2172 0 1784 0 
Q 1141 0 747 490 
Q 353 981 353 1791 
Q 353 2603 747 3093 
Q 1141 3584 1784 3584 
Q 2172 3584 2450 3431 
Q 2728 3278 2906 2969 
L 2906 3500 
L 3481 3500 
L 3481 434 
z
" transform="scale(0.015625)"/>
       <path id="DejaVuSans-6e" d="M 3513 2113 
L 3513 0 
L 2938 0 
L 2938 2094 
Q 2938 2591 2744 2837 
Q 2550 3084 2163 3084 
Q 1697 3084 1428 2787 
Q 1159 2491 1159 1978 
L 1159 0 
L 581 0 
L 581 3500 
L 1159 3500 
L 1159 2956 
Q 1366 3272 1645 3428 
Q 1925 3584 2291 3584 
Q 2894 3584 3203 3211 
Q 3513 2838 3513 2113 
z
" transform="scale(0.015625)"/>
       <path id="DejaVuSans-65" d="M 3597 1894 
L 3597 1613 
L 953 1613 
Q 991 1019 1311 708 
Q 1631 397 2203 397 
Q 2534 397 2845 478 
Q 3156 559 3463 722 
L 3463 178 
Q 3153 47 2828 -22 
Q 2503 -91 2169 -91 
Q 1331 -91 842 396 
Q 353 884 353 1716 
Q 353 2575 817 3079 
Q 1281 3584 2069 3584 
Q 2775 3584 3186 3129 
Q 3597 2675 3597 1894 
z
M 3022 2063 
Q 3016 2534 2758 2815 
Q 2500 3097 2075 3097 
Q 1594 3097 1305 2825 
Q 1016 2553 972 2059 
L 3022 2063 
z
" transform="scale(0.015625)"/>
       <path id="DejaVuSans-74" d="M 1172 4494 
L 1172 3500 
L 2356 3500 
L 2356 3053 
L 1172 3053 
L 1172 1153 
Q 1172 725 1289 603 
Q 1406 481 1766 481 
L 2356 481 
L 2356 0 
L 1766 0 
Q 1100 0 847 248 
Q 594 497 594 1153 
L 594 3053 
L 172 3053 
L 172 3500 
L 594 3500 
L 594 4494 
L 1172 4494 
z
" transform="scale(0.015625)"/>
       <path id="DejaVuSans-69" d="M 603 3500 
L 1178 3500 
L 1178 0 
L 603 0 
L 603 3500 
z
M 603 4863 
L 1178 4863 
L 1178 4134 
L 603 4134 
L 603 4863 
z
" transform="scale(0.015625)"/>
       <path id="DejaVuSans-73" d="M 2834 3397 
L 2834 2853 
Q 2591 2978 2328 3040 
Q 2066 3103 1784 3103 
Q 1356 3103 1142 2972 
Q 928 2841 928 2578 
Q 928 2378 1081 2264 
Q 1234 2150 1697 2047 
L 1894 2003 
Q 2506 1872 2764 1633 
Q 3022 1394 3022 966 
Q 3022 478 2636 193 
Q 2250 -91 1575 -91 
Q 1294 -91 989 -36 
Q 684 19 347 128 
L 347 722 
Q 666 556 975 473 
Q 1284 391 1588 391 
Q 1994 391 2212 530 
Q 2431 669 2431 922 
Q 2431 1156 2273 1281 
Q 2116 1406 1581 1522 
L 1381 1569 
Q 847 1681 609 1914 
Q 372 2147 372 2553 
Q 372 3047 722 3315 
Q 1072 3584 1716 3584 
Q 2034 3584 2315 3537 
Q 2597 3491 2834 3397 
z
" transform="scale(0.015625)"/>
       <path id="DejaVuSans-6d" d="M 3328 2828 
Q 3544 3216 3844 3400 
Q 4144 3584 4550 3584 
Q 5097 3584 5394 3201 
Q 5691 2819 5691 2113 
L 5691 0 
L 5113 0 
L 5113 2094 
Q 5113 2597 4934 2840 
Q 4756 3084 4391 3084 
Q 3944 3084 3684 2787 
Q 3425 2491 3425 1978 
L 3425 0 
L 2847 0 
L 2847 2094 
Q 2847 2600 2669 2842 
Q 2491 3084 2119 3084 
Q 1678 3084 1418 2786 
Q 1159 2488 1159 1978 
L 1159 0 
L 581 0 
L 581 3500 
L 1159 3500 
L 1159 2956 
Q 1356 3278 1631 3431 
Q 1906 3584 2284 3584 
Q 2666 3584 2933 3390 
Q 3200 3197 3328 2828 
z
" transform="scale(0.015625)"/>
      </defs>
      <use xlink:href="#DejaVuSans-4d"/>
      <use xlink:href="#DejaVuSans-61" x="86.279297"/>
      <use xlink:href="#DejaVuSans-67" x="147.558594"/>
      <use xlink:href="#DejaVuSans-6e" x="211.035156"/>
      <use xlink:href="#DejaVuSans-65" x="274.414062"/>
      <use xlink:href="#DejaVuSans-74" x="335.9375"/>
      <use xlink:href="#DejaVuSans-69" x="375.146484"/>
      <use xlink:href="#DejaVuSans-73" x="402.929688"/>
      <use xlink:href="#DejaVuSans-6d" x="455.029297"/>
     </g>
    </g>
   </g>
   <g id="line2d_13">
    <path d="M 138.436364 217.842353 
L 138.601152 217.758128 
L 138.76594 217.237918 
L 139.260304 217.237918 
L 139.425092 214.597229 
L 139.58988 214.428779 
L 139.919457 212.055628 
L 140.249033 212.015992 
L 140.413821 211.515599 
L 140.908185 211.287697 
L 141.237761 210.584174 
L 141.40255 210.584174 
L 141.567338 209.935149 
L 143.215219 209.895514 
L 143.874371 209.330714 
L 144.203947 209.276216 
L 144.368736 208.899682 
L 145.027888 208.597465 
L 145.192676 208.225885 
L 146.346193 208.032664 
L 146.675769 207.314278 
L 146.840557 207.314278 
L 147.664498 206.080635 
L 147.829286 205.590151 
L 148.158862 205.466291 
L 148.32365 205.446474 
L 148.488438 205.263161 
L 148.653226 205.258207 
L 148.818014 204.733042 
L 149.971531 204.138515 
L 154.256022 204.034473 
L 154.42081 203.94034 
L 154.585598 203.648031 
L 155.079963 203.45481 
L 155.244751 203.291315 
L 156.233479 203.212045 
L 156.727844 202.92469 
L 157.386996 202.860283 
L 157.716572 202.731469 
L 158.375725 202.602655 
L 158.705301 202.503567 
L 162.989792 202.092353 
L 166.779918 202.087399 
L 439.998602 201.983356 
L 442.8 201.82977 
L 444.777457 201.730683 
L 446.754915 201.478009 
L 447.743643 201.359103 
L 448.073219 201.269925 
L 451.039405 201.116338 
L 451.53377 201.042023 
L 452.852075 200.85871 
L 453.511227 200.744759 
L 457.136565 200.402907 
L 458.949235 200.303819 
L 462.244997 200.016464 
L 462.574573 199.93224 
L 463.563302 199.753882 
L 463.892878 199.64984 
L 465.540759 199.298078 
L 466.3647 199.114766 
L 468.836521 198.911636 
L 470.154826 198.807594 
L 474.439317 198.312155 
L 477.405503 197.668084 
L 477.570291 197.445137 
L 480.371689 197.251916 
L 482.678722 196.865473 
L 483.173087 196.810975 
L 483.667451 196.69207 
L 484.820968 196.627663 
L 485.150544 196.330399 
L 487.951942 195.770554 
L 490.258975 195.537697 
L 491.57728 195.294932 
L 492.895585 195.156209 
L 493.225161 195.076939 
L 493.554737 194.962988 
L 494.873042 194.735087 
L 496.191347 194.635999 
L 498.827957 194.170286 
L 499.322321 193.754118 
L 499.651897 193.615395 
L 500.475838 193.570805 
L 500.805414 193.437037 
L 501.13499 193.342903 
L 501.299779 193.278496 
L 501.464567 192.976279 
L 501.794143 192.931689 
L 502.123719 192.698833 
L 504.101176 192.431296 
L 504.430753 192.143941 
L 506.078634 192.124124 
L 506.40821 192.020082 
L 507.067362 191.911085 
L 507.23215 191.787226 
L 507.396939 191.380966 
L 508.220879 191.286832 
L 508.550455 191.187745 
L 508.715243 190.77653 
L 509.209608 190.593218 
L 509.86876 190.508993 
L 510.198336 190.489176 
L 510.527913 190.380179 
L 510.857489 190.295955 
L 511.022277 190.266228 
L 511.351853 190.122551 
L 511.516641 190.122551 
L 511.846217 189.993737 
L 512.340582 189.944193 
L 512.50537 189.944193 
L 512.834946 189.785653 
L 513.32931 189.651884 
L 514.812403 189.597386 
L 515.801132 189.324895 
L 517.778589 189.230761 
L 518.108166 189.156445 
L 519.591259 189.052403 
L 527.006723 188.056571 
L 527.501088 187.858396 
L 527.995452 187.719673 
L 529.478545 187.70481 
L 529.972909 187.526452 
L 531.291214 187.496725 
L 531.456002 187.249006 
L 535.081341 186.490985 
L 535.740493 186.396851 
L 536.89401 186.089679 
L 537.058798 185.767644 
L 538.377103 185.331658 
L 538.706679 185.148345 
L 540.519348 185.039349 
L 541.343289 184.940261 
L 542.826382 184.742086 
L 543.485534 184.538956 
L 543.81511 184.410142 
L 544.309475 184.370506 
L 546.45172 184.320963 
L 546.781296 184.197103 
L 549.253118 184.147559 
L 549.747482 184.013791 
L 551.560152 183.909748 
L 554.526338 183.746254 
L 555.020702 183.681846 
L 555.350278 183.543124 
L 557.492524 183.216134 
L 557.657312 182.899053 
L 558.316464 182.864372 
L 558.810828 182.799965 
L 559.305193 182.656288 
L 560.788286 182.547292 
L 561.28265 182.458113 
L 563.754472 182.145986 
L 564.084048 182.066716 
L 564.248836 182.041944 
L 564.578412 181.739726 
L 568.368539 181.298786 
L 568.698115 181.056021 
L 570.01642 180.699305 
L 571.169937 179.901648 
L 571.334725 179.589522 
L 571.993877 179.490434 
L 572.488241 179.376483 
L 573.806546 179.341802 
L 575.124851 178.722504 
L 575.948792 178.623416 
L 576.11358 178.410377 
L 576.607944 178.31129 
L 576.772732 178.043753 
L 577.596673 177.954574 
L 578.914978 177.86044 
L 579.57413 177.82576 
L 579.903706 177.706854 
L 580.398071 177.637493 
L 580.727647 177.384819 
L 580.892435 177.052875 
L 582.21074 176.958742 
L 582.375528 176.780384 
L 582.705104 176.735794 
L 583.03468 176.587163 
L 583.199468 176.587163 
L 583.529045 176.423668 
L 584.188197 176.319626 
L 584.352985 176.071906 
L 585.176926 176.002545 
L 587.319171 175.209843 
L 588.3079 175.125618 
L 588.637476 174.858081 
L 589.296628 174.843218 
L 589.626205 174.625225 
L 589.955781 174.511274 
L 591.109298 174.407232 
L 591.76845 174.278418 
L 592.098026 173.703709 
L 592.427603 173.436172 
L 593.416331 173.4114 
L 593.910695 172.940733 
L 595.064212 172.920915 
L 595.229 172.574108 
L 595.393788 172.574108 
L 595.723365 172.44034 
L 596.052941 172.370978 
L 596.217729 172.197575 
L 597.700822 172.098487 
L 599.019127 172.083624 
L 601.820525 172.063806 
L 601.985313 171.791315 
L 602.809253 171.78636 
L 602.974041 171.622866 
L 603.303618 171.612957 
L 603.633194 171.479188 
L 603.96277 171.46928 
L 604.292346 171.320648 
L 604.786711 171.276059 
L 606.764168 171.211651 
L 607.093744 170.884662 
L 608.576837 170.884662 
L 608.741625 170.458584 
L 610.05993 170.319862 
L 611.543023 170.101869 
L 611.707811 169.903693 
L 612.202176 169.869012 
L 612.861328 168.798864 
L 614.838785 168.798864 
L 615.33315 168.506556 
L 615.827514 168.506556 
L 616.486666 167.986345 
L 616.651454 167.986345 
L 616.816243 167.763397 
L 617.475395 167.66431 
L 618.134547 167.634583 
L 618.299336 167.332366 
L 618.958488 167.233278 
L 619.61764 167.104464 
L 620.276793 167.020239 
L 620.441581 166.856744 
L 621.265521 166.777474 
L 621.43031 166.623888 
L 621.595098 166.113586 
L 622.25425 165.895593 
L 622.913403 165.816323 
L 623.078191 165.637965 
L 624.89086 165.548786 
L 625.385224 165.281249 
L 626.373953 165.033529 
L 626.538741 164.676813 
L 626.703529 163.958427 
L 626.868317 163.849431 
L 627.033105 163.567031 
L 628.35141 163.48776 
L 628.516198 163.24995 
L 628.845774 163.24995 
L 629.175351 162.947732 
L 629.504927 162.853599 
L 629.669715 162.665332 
L 630.658444 162.665332 
L 630.823232 162.392841 
L 631.152808 162.392841 
L 631.482384 162.259072 
L 631.81196 162.254118 
L 632.141537 162.105486 
L 632.306325 162.105486 
L 632.635901 161.981626 
L 633.459842 161.704181 
L 634.613358 161.501051 
L 635.107723 161.198833 
L 635.272511 161.198833 
L 635.602087 160.970931 
L 635.766875 160.965977 
L 635.931663 160.797528 
L 636.261239 160.772756 
L 636.426027 160.445766 
L 636.755604 160.406131 
L 636.920392 160.094004 
L 638.568273 160.004825 
L 639.557002 159.519295 
L 639.72179 159.519295 
L 639.886578 159.093218 
L 640.380942 158.929723 
L 640.710518 158.42933 
L 641.864035 158.275744 
L 642.193611 157.730761 
L 642.852764 157.631673 
L 643.18234 157.468179 
L 643.511916 157.061919 
L 643.841492 156.92815 
L 644.335857 156.853835 
L 645.654162 156.388122 
L 647.466831 156.28408 
L 647.796407 156.214718 
L 651.91611 156.130494 
L 652.74005 156.090859 
L 653.728779 156.00168 
L 655.706236 155.669736 
L 656.035812 155.466606 
L 656.694965 155.283293 
L 657.848482 155.208978 
L 658.178058 155.164388 
L 658.342846 154.57977 
L 659.001998 154.470774 
L 659.661151 154.109103 
L 660.485091 154.01497 
L 660.649879 153.901019 
L 660.814668 153.633482 
L 661.47382 153.524486 
L 662.462549 152.92005 
L 662.956913 152.870506 
L 663.121701 152.617833 
L 663.616065 152.375068 
L 663.780853 152.251208 
L 663.945642 151.978717 
L 664.440006 151.780541 
L 664.769582 151.557594 
L 665.593523 151.522913 
L 666.417463 150.948204 
L 666.747039 150.948204 
L 666.911828 150.764891 
L 667.406192 150.764891 
L 667.735768 150.611305 
L 668.889285 150.551853 
L 669.218861 150.28927 
L 669.713225 150.239726 
L 670.372378 150.234772 
L 670.537166 149.937509 
L 671.525895 149.9276 
L 671.690683 149.689789 
L 672.185047 149.625382 
L 672.679411 149.372708 
L 673.173776 149.11508 
L 673.338564 148.892133 
L 674.821657 148.892133 
L 674.986445 148.728638 
L 675.316021 148.728638 
L 675.480809 148.515599 
L 676.139962 148.371922 
L 676.634326 148.139066 
L 676.799114 147.935936 
L 678.282207 147.846757 
L 678.941359 147.683262 
L 679.600512 147.301774 
L 679.930088 147.242321 
L 681.248393 147.202686 
L 681.577969 147.09369 
L 682.896274 146.910377 
L 684.873731 146.751837 
L 685.368096 146.598251 
L 687.015977 146.489254 
L 688.993434 146.310897 
L 689.32301 146.216763 
L 689.817375 146.191991 
L 690.146951 146.033451 
L 691.630044 145.983907 
L 692.289196 145.830321 
L 694.761018 145.731233 
L 695.090594 145.642054 
L 698.880721 145.206068 
L 699.375085 145.072299 
L 699.539873 144.784945 
L 700.528602 144.735401 
L 701.022966 143.754432 
L 701.352542 143.581029 
L 701.51733 143.407625 
L 701.846907 143.407625 
L 702.011695 142.936958 
L 702.341271 142.936958 
L 702.506059 142.624832 
L 703.165211 142.560425 
L 703.494788 142.382067 
L 703.659576 141.99067 
L 704.318728 141.886628 
L 704.813092 141.396143 
L 705.142669 141.326782 
L 706.131397 141.30201 
L 706.296185 141.133561 
L 707.61449 141.113743 
L 708.438431 140.712438 
L 709.921524 140.548943 
L 710.2511 140.360676 
L 711.075041 140.335904 
L 711.569405 140.246725 
L 712.063769 140.197182 
L 712.228557 139.805785 
L 713.546862 139.80083 
L 713.876438 139.657153 
L 714.370803 139.567974 
L 714.535591 139.394571 
L 714.700379 138.517644 
L 715.029955 138.324423 
L 715.359531 138.076703 
L 715.853896 138.056886 
L 716.513048 137.467314 
L 718.160929 137.051145 
L 718.490505 136.927285 
L 718.655294 136.927285 
L 719.149658 136.530934 
L 719.479234 136.456618 
L 719.80881 136.129629 
L 720.138387 136.129629 
L 720.467963 135.91659 
L 720.632751 135.91659 
L 720.797539 135.609418 
L 721.127115 135.549965 
L 721.291903 135.138751 
L 721.786268 135.084253 
L 721.951056 135.084253 
L 722.115844 134.697811 
L 722.280632 134.682947 
L 722.610208 134.360912 
L 723.269361 134.311368 
L 723.434149 134.157782 
L 723.763725 134.09833 
L 724.093301 133.023227 
L 724.258089 132.859733 
L 725.741182 132.745782 
L 726.070758 132.616968 
L 726.894699 132.616968 
L 727.389063 131.759858 
L 727.553851 131.759858 
L 727.71864 131.616181 
L 728.213004 130.739254 
L 728.377792 130.729346 
L 728.54258 130.412265 
L 728.707368 130.412265 
L 728.872156 130.233907 
L 729.036944 130.233907 
L 729.531309 129.773149 
L 730.355249 129.674061 
L 730.849614 129.446159 
L 731.17919 129.347071 
L 731.508766 129.267801 
L 731.673554 129.267801 
L 731.838342 128.346285 
L 732.662283 127.543674 
L 732.827071 127.543674 
L 732.991859 126.869877 
L 733.651011 126.468572 
L 733.8158 125.869091 
L 734.145376 125.695687 
L 734.310164 125.695687 
L 734.474952 125.502466 
L 734.63974 125.482649 
L 735.298893 125.031799 
L 735.628469 124.917848 
L 735.793257 124.551224 
L 735.958045 124.551224 
L 736.122833 124.387729 
L 736.617197 124.387729 
L 736.781986 123.396851 
L 736.946774 121.54391 
L 737.605926 121.236738 
L 738.429867 120.310267 
L 738.759443 117.570491 
L 739.089019 117.565536 
L 739.253807 117.139459 
L 739.583383 117.055234 
L 739.748171 116.708427 
L 740.077748 114.914939 
L 740.407324 114.914939 
L 740.572112 114.394728 
L 741.066476 114.394728 
L 741.231264 111.986895 
L 741.396053 111.897716 
L 741.560841 110.946474 
L 741.725629 110.827568 
L 741.890417 110.446081 
L 742.055205 110.436172 
L 742.384781 109.584017 
L 742.549569 109.415568 
L 742.714357 107.790528 
L 743.043934 107.12664 
L 743.37351 107.12664 
L 743.538298 104.66431 
L 743.703086 104.66431 
L 743.867874 102.915411 
L 744.362239 102.915411 
L 744.527027 102.251522 
L 745.350967 102.251522 
L 745.515755 101.751129 
L 745.680543 101.751129 
L 745.845331 96.876011 
L 746.01012 96.876011 
L 746.339696 90.519531 
L 746.83406 86.338028 
L 746.998848 86.338028 
L 747.163636 84.430588 
L 747.163636 84.430588 
" clip-path="url(#p24d36949cb)" style="fill: none; stroke: #ff0000; stroke-width: 1.5; stroke-linecap: square"/>
   </g>
   <g id="patch_3">
    <path d="M 108 224.512941 
L 108 77.76 
" style="fill: none; stroke: #000000; stroke-width: 0.8; stroke-linejoin: miter; stroke-linecap: square"/>
   </g>
   <g id="patch_4">
    <path d="M 777.6 224.512941 
L 777.6 77.76 
" style="fill: none; stroke: #000000; stroke-width: 0.8; stroke-linejoin: miter; stroke-linecap: square"/>
   </g>
   <g id="patch_5">
    <path d="M 108 224.512941 
L 777.6 224.512941 
" style="fill: none; stroke: #000000; stroke-width: 0.8; stroke-linejoin: miter; stroke-linecap: square"/>
   </g>
   <g id="patch_6">
    <path d="M 108 77.76 
L 777.6 77.76 
" style="fill: none; stroke: #000000; stroke-width: 0.8; stroke-linejoin: miter; stroke-linecap: square"/>
   </g>
   <g id="text_8">
    <!-- Checking for distribution of data -->
    <g transform="translate(345.696563 71.76) scale(0.12 -0.12)">
     <defs>
      <path id="DejaVuSans-43" d="M 4122 4306 
L 4122 3641 
Q 3803 3938 3442 4084 
Q 3081 4231 2675 4231 
Q 1875 4231 1450 3742 
Q 1025 3253 1025 2328 
Q 1025 1406 1450 917 
Q 1875 428 2675 428 
Q 3081 428 3442 575 
Q 3803 722 4122 1019 
L 4122 359 
Q 3791 134 3420 21 
Q 3050 -91 2638 -91 
Q 1578 -91 968 557 
Q 359 1206 359 2328 
Q 359 3453 968 4101 
Q 1578 4750 2638 4750 
Q 3056 4750 3426 4639 
Q 3797 4528 4122 4306 
z
" transform="scale(0.015625)"/>
      <path id="DejaVuSans-68" d="M 3513 2113 
L 3513 0 
L 2938 0 
L 2938 2094 
Q 2938 2591 2744 2837 
Q 2550 3084 2163 3084 
Q 1697 3084 1428 2787 
Q 1159 2491 1159 1978 
L 1159 0 
L 581 0 
L 581 4863 
L 1159 4863 
L 1159 2956 
Q 1366 3272 1645 3428 
Q 1925 3584 2291 3584 
Q 2894 3584 3203 3211 
Q 3513 2838 3513 2113 
z
" transform="scale(0.015625)"/>
      <path id="DejaVuSans-63" d="M 3122 3366 
L 3122 2828 
Q 2878 2963 2633 3030 
Q 2388 3097 2138 3097 
Q 1578 3097 1268 2742 
Q 959 2388 959 1747 
Q 959 1106 1268 751 
Q 1578 397 2138 397 
Q 2388 397 2633 464 
Q 2878 531 3122 666 
L 3122 134 
Q 2881 22 2623 -34 
Q 2366 -91 2075 -91 
Q 1284 -91 818 406 
Q 353 903 353 1747 
Q 353 2603 823 3093 
Q 1294 3584 2113 3584 
Q 2378 3584 2631 3529 
Q 2884 3475 3122 3366 
z
" transform="scale(0.015625)"/>
      <path id="DejaVuSans-6b" d="M 581 4863 
L 1159 4863 
L 1159 1991 
L 2875 3500 
L 3609 3500 
L 1753 1863 
L 3688 0 
L 2938 0 
L 1159 1709 
L 1159 0 
L 581 0 
L 581 4863 
z
" transform="scale(0.015625)"/>
      <path id="DejaVuSans-20" transform="scale(0.015625)"/>
      <path id="DejaVuSans-66" d="M 2375 4863 
L 2375 4384 
L 1825 4384 
Q 1516 4384 1395 4259 
Q 1275 4134 1275 3809 
L 1275 3500 
L 2222 3500 
L 2222 3053 
L 1275 3053 
L 1275 0 
L 697 0 
L 697 3053 
L 147 3053 
L 147 3500 
L 697 3500 
L 697 3744 
Q 697 4328 969 4595 
Q 1241 4863 1831 4863 
L 2375 4863 
z
" transform="scale(0.015625)"/>
      <path id="DejaVuSans-6f" d="M 1959 3097 
Q 1497 3097 1228 2736 
Q 959 2375 959 1747 
Q 959 1119 1226 758 
Q 1494 397 1959 397 
Q 2419 397 2687 759 
Q 2956 1122 2956 1747 
Q 2956 2369 2687 2733 
Q 2419 3097 1959 3097 
z
M 1959 3584 
Q 2709 3584 3137 3096 
Q 3566 2609 3566 1747 
Q 3566 888 3137 398 
Q 2709 -91 1959 -91 
Q 1206 -91 779 398 
Q 353 888 353 1747 
Q 353 2609 779 3096 
Q 1206 3584 1959 3584 
z
" transform="scale(0.015625)"/>
      <path id="DejaVuSans-72" d="M 2631 2963 
Q 2534 3019 2420 3045 
Q 2306 3072 2169 3072 
Q 1681 3072 1420 2755 
Q 1159 2438 1159 1844 
L 1159 0 
L 581 0 
L 581 3500 
L 1159 3500 
L 1159 2956 
Q 1341 3275 1631 3429 
Q 1922 3584 2338 3584 
Q 2397 3584 2469 3576 
Q 2541 3569 2628 3553 
L 2631 2963 
z
" transform="scale(0.015625)"/>
      <path id="DejaVuSans-64" d="M 2906 2969 
L 2906 4863 
L 3481 4863 
L 3481 0 
L 2906 0 
L 2906 525 
Q 2725 213 2448 61 
Q 2172 -91 1784 -91 
Q 1150 -91 751 415 
Q 353 922 353 1747 
Q 353 2572 751 3078 
Q 1150 3584 1784 3584 
Q 2172 3584 2448 3432 
Q 2725 3281 2906 2969 
z
M 947 1747 
Q 947 1113 1208 752 
Q 1469 391 1925 391 
Q 2381 391 2643 752 
Q 2906 1113 2906 1747 
Q 2906 2381 2643 2742 
Q 2381 3103 1925 3103 
Q 1469 3103 1208 2742 
Q 947 2381 947 1747 
z
" transform="scale(0.015625)"/>
      <path id="DejaVuSans-62" d="M 3116 1747 
Q 3116 2381 2855 2742 
Q 2594 3103 2138 3103 
Q 1681 3103 1420 2742 
Q 1159 2381 1159 1747 
Q 1159 1113 1420 752 
Q 1681 391 2138 391 
Q 2594 391 2855 752 
Q 3116 1113 3116 1747 
z
M 1159 2969 
Q 1341 3281 1617 3432 
Q 1894 3584 2278 3584 
Q 2916 3584 3314 3078 
Q 3713 2572 3713 1747 
Q 3713 922 3314 415 
Q 2916 -91 2278 -91 
Q 1894 -91 1617 61 
Q 1341 213 1159 525 
L 1159 0 
L 581 0 
L 581 4863 
L 1159 4863 
L 1159 2969 
z
" transform="scale(0.015625)"/>
      <path id="DejaVuSans-75" d="M 544 1381 
L 544 3500 
L 1119 3500 
L 1119 1403 
Q 1119 906 1312 657 
Q 1506 409 1894 409 
Q 2359 409 2629 706 
Q 2900 1003 2900 1516 
L 2900 3500 
L 3475 3500 
L 3475 0 
L 2900 0 
L 2900 538 
Q 2691 219 2414 64 
Q 2138 -91 1772 -91 
Q 1169 -91 856 284 
Q 544 659 544 1381 
z
M 1991 3584 
L 1991 3584 
z
" transform="scale(0.015625)"/>
     </defs>
     <use xlink:href="#DejaVuSans-43"/>
     <use xlink:href="#DejaVuSans-68" x="69.824219"/>
     <use xlink:href="#DejaVuSans-65" x="133.203125"/>
     <use xlink:href="#DejaVuSans-63" x="194.726562"/>
     <use xlink:href="#DejaVuSans-6b" x="249.707031"/>
     <use xlink:href="#DejaVuSans-69" x="307.617188"/>
     <use xlink:href="#DejaVuSans-6e" x="335.400391"/>
     <use xlink:href="#DejaVuSans-67" x="398.779297"/>
     <use xlink:href="#DejaVuSans-20" x="462.255859"/>
     <use xlink:href="#DejaVuSans-66" x="494.042969"/>
     <use xlink:href="#DejaVuSans-6f" x="529.248047"/>
     <use xlink:href="#DejaVuSans-72" x="590.429688"/>
     <use xlink:href="#DejaVuSans-20" x="631.542969"/>
     <use xlink:href="#DejaVuSans-64" x="663.330078"/>
     <use xlink:href="#DejaVuSans-69" x="726.806641"/>
     <use xlink:href="#DejaVuSans-73" x="754.589844"/>
     <use xlink:href="#DejaVuSans-74" x="806.689453"/>
     <use xlink:href="#DejaVuSans-72" x="845.898438"/>
     <use xlink:href="#DejaVuSans-69" x="887.011719"/>
     <use xlink:href="#DejaVuSans-62" x="914.794922"/>
     <use xlink:href="#DejaVuSans-75" x="978.271484"/>
     <use xlink:href="#DejaVuSans-74" x="1041.650391"/>
     <use xlink:href="#DejaVuSans-69" x="1080.859375"/>
     <use xlink:href="#DejaVuSans-6f" x="1108.642578"/>
     <use xlink:href="#DejaVuSans-6e" x="1169.824219"/>
     <use xlink:href="#DejaVuSans-20" x="1233.203125"/>
     <use xlink:href="#DejaVuSans-6f" x="1264.990234"/>
     <use xlink:href="#DejaVuSans-66" x="1326.171875"/>
     <use xlink:href="#DejaVuSans-20" x="1361.376953"/>
     <use xlink:href="#DejaVuSans-64" x="1393.164062"/>
     <use xlink:href="#DejaVuSans-61" x="1456.640625"/>
     <use xlink:href="#DejaVuSans-74" x="1517.919922"/>
     <use xlink:href="#DejaVuSans-61" x="1557.128906"/>
    </g>
   </g>
   <g id="legend_1">
    <g id="patch_7">
     <path d="M 115 100.438125 
L 281.19375 100.438125 
Q 283.19375 100.438125 283.19375 98.438125 
L 283.19375 84.76 
Q 283.19375 82.76 281.19375 82.76 
L 115 82.76 
Q 113 82.76 113 84.76 
L 113 98.438125 
Q 113 100.438125 115 100.438125 
z
" style="fill: #ffffff; opacity: 0.8; stroke: #cccccc; stroke-linejoin: miter"/>
    </g>
    <g id="line2d_14">
     <path d="M 117 90.858438 
L 127 90.858438 
L 137 90.858438 
" style="fill: none; stroke: #ff0000; stroke-width: 1.5; stroke-linecap: square"/>
    </g>
    <g id="text_9">
     <!-- Data Set 1 (3695 samples) -->
     <g transform="translate(145 94.358438) scale(0.1 -0.1)">
      <defs>
       <path id="DejaVuSans-44" d="M 1259 4147 
L 1259 519 
L 2022 519 
Q 2988 519 3436 956 
Q 3884 1394 3884 2338 
Q 3884 3275 3436 3711 
Q 2988 4147 2022 4147 
L 1259 4147 
z
M 628 4666 
L 1925 4666 
Q 3281 4666 3915 4102 
Q 4550 3538 4550 2338 
Q 4550 1131 3912 565 
Q 3275 0 1925 0 
L 628 0 
L 628 4666 
z
" transform="scale(0.015625)"/>
       <path id="DejaVuSans-53" d="M 3425 4513 
L 3425 3897 
Q 3066 4069 2747 4153 
Q 2428 4238 2131 4238 
Q 1616 4238 1336 4038 
Q 1056 3838 1056 3469 
Q 1056 3159 1242 3001 
Q 1428 2844 1947 2747 
L 2328 2669 
Q 3034 2534 3370 2195 
Q 3706 1856 3706 1288 
Q 3706 609 3251 259 
Q 2797 -91 1919 -91 
Q 1588 -91 1214 -16 
Q 841 59 441 206 
L 441 856 
Q 825 641 1194 531 
Q 1563 422 1919 422 
Q 2459 422 2753 634 
Q 3047 847 3047 1241 
Q 3047 1584 2836 1778 
Q 2625 1972 2144 2069 
L 1759 2144 
Q 1053 2284 737 2584 
Q 422 2884 422 3419 
Q 422 4038 858 4394 
Q 1294 4750 2059 4750 
Q 2388 4750 2728 4690 
Q 3069 4631 3425 4513 
z
" transform="scale(0.015625)"/>
       <path id="DejaVuSans-28" d="M 1984 4856 
Q 1566 4138 1362 3434 
Q 1159 2731 1159 2009 
Q 1159 1288 1364 580 
Q 1569 -128 1984 -844 
L 1484 -844 
Q 1016 -109 783 600 
Q 550 1309 550 2009 
Q 550 2706 781 3412 
Q 1013 4119 1484 4856 
L 1984 4856 
z
" transform="scale(0.015625)"/>
       <path id="DejaVuSans-33" d="M 2597 2516 
Q 3050 2419 3304 2112 
Q 3559 1806 3559 1356 
Q 3559 666 3084 287 
Q 2609 -91 1734 -91 
Q 1441 -91 1130 -33 
Q 819 25 488 141 
L 488 750 
Q 750 597 1062 519 
Q 1375 441 1716 441 
Q 2309 441 2620 675 
Q 2931 909 2931 1356 
Q 2931 1769 2642 2001 
Q 2353 2234 1838 2234 
L 1294 2234 
L 1294 2753 
L 1863 2753 
Q 2328 2753 2575 2939 
Q 2822 3125 2822 3475 
Q 2822 3834 2567 4026 
Q 2313 4219 1838 4219 
Q 1578 4219 1281 4162 
Q 984 4106 628 3988 
L 628 4550 
Q 988 4650 1302 4700 
Q 1616 4750 1894 4750 
Q 2613 4750 3031 4423 
Q 3450 4097 3450 3541 
Q 3450 3153 3228 2886 
Q 3006 2619 2597 2516 
z
" transform="scale(0.015625)"/>
       <path id="DejaVuSans-36" d="M 2113 2584 
Q 1688 2584 1439 2293 
Q 1191 2003 1191 1497 
Q 1191 994 1439 701 
Q 1688 409 2113 409 
Q 2538 409 2786 701 
Q 3034 994 3034 1497 
Q 3034 2003 2786 2293 
Q 2538 2584 2113 2584 
z
M 3366 4563 
L 3366 3988 
Q 3128 4100 2886 4159 
Q 2644 4219 2406 4219 
Q 1781 4219 1451 3797 
Q 1122 3375 1075 2522 
Q 1259 2794 1537 2939 
Q 1816 3084 2150 3084 
Q 2853 3084 3261 2657 
Q 3669 2231 3669 1497 
Q 3669 778 3244 343 
Q 2819 -91 2113 -91 
Q 1303 -91 875 529 
Q 447 1150 447 2328 
Q 447 3434 972 4092 
Q 1497 4750 2381 4750 
Q 2619 4750 2861 4703 
Q 3103 4656 3366 4563 
z
" transform="scale(0.015625)"/>
       <path id="DejaVuSans-39" d="M 703 97 
L 703 672 
Q 941 559 1184 500 
Q 1428 441 1663 441 
Q 2288 441 2617 861 
Q 2947 1281 2994 2138 
Q 2813 1869 2534 1725 
Q 2256 1581 1919 1581 
Q 1219 1581 811 2004 
Q 403 2428 403 3163 
Q 403 3881 828 4315 
Q 1253 4750 1959 4750 
Q 2769 4750 3195 4129 
Q 3622 3509 3622 2328 
Q 3622 1225 3098 567 
Q 2575 -91 1691 -91 
Q 1453 -91 1209 -44 
Q 966 3 703 97 
z
M 1959 2075 
Q 2384 2075 2632 2365 
Q 2881 2656 2881 3163 
Q 2881 3666 2632 3958 
Q 2384 4250 1959 4250 
Q 1534 4250 1286 3958 
Q 1038 3666 1038 3163 
Q 1038 2656 1286 2365 
Q 1534 2075 1959 2075 
z
" transform="scale(0.015625)"/>
       <path id="DejaVuSans-70" d="M 1159 525 
L 1159 -1331 
L 581 -1331 
L 581 3500 
L 1159 3500 
L 1159 2969 
Q 1341 3281 1617 3432 
Q 1894 3584 2278 3584 
Q 2916 3584 3314 3078 
Q 3713 2572 3713 1747 
Q 3713 922 3314 415 
Q 2916 -91 2278 -91 
Q 1894 -91 1617 61 
Q 1341 213 1159 525 
z
M 3116 1747 
Q 3116 2381 2855 2742 
Q 2594 3103 2138 3103 
Q 1681 3103 1420 2742 
Q 1159 2381 1159 1747 
Q 1159 1113 1420 752 
Q 1681 391 2138 391 
Q 2594 391 2855 752 
Q 3116 1113 3116 1747 
z
" transform="scale(0.015625)"/>
       <path id="DejaVuSans-6c" d="M 603 4863 
L 1178 4863 
L 1178 0 
L 603 0 
L 603 4863 
z
" transform="scale(0.015625)"/>
       <path id="DejaVuSans-29" d="M 513 4856 
L 1013 4856 
Q 1481 4119 1714 3412 
Q 1947 2706 1947 2009 
Q 1947 1309 1714 600 
Q 1481 -109 1013 -844 
L 513 -844 
Q 928 -128 1133 580 
Q 1338 1288 1338 2009 
Q 1338 2731 1133 3434 
Q 928 4138 513 4856 
z
" transform="scale(0.015625)"/>
      </defs>
      <use xlink:href="#DejaVuSans-44"/>
      <use xlink:href="#DejaVuSans-61" x="77.001953"/>
      <use xlink:href="#DejaVuSans-74" x="138.28125"/>
      <use xlink:href="#DejaVuSans-61" x="177.490234"/>
      <use xlink:href="#DejaVuSans-20" x="238.769531"/>
      <use xlink:href="#DejaVuSans-53" x="270.556641"/>
      <use xlink:href="#DejaVuSans-65" x="334.033203"/>
      <use xlink:href="#DejaVuSans-74" x="395.556641"/>
      <use xlink:href="#DejaVuSans-20" x="434.765625"/>
      <use xlink:href="#DejaVuSans-31" x="466.552734"/>
      <use xlink:href="#DejaVuSans-20" x="530.175781"/>
      <use xlink:href="#DejaVuSans-28" x="561.962891"/>
      <use xlink:href="#DejaVuSans-33" x="600.976562"/>
      <use xlink:href="#DejaVuSans-36" x="664.599609"/>
      <use xlink:href="#DejaVuSans-39" x="728.222656"/>
      <use xlink:href="#DejaVuSans-35" x="791.845703"/>
      <use xlink:href="#DejaVuSans-20" x="855.46875"/>
      <use xlink:href="#DejaVuSans-73" x="887.255859"/>
      <use xlink:href="#DejaVuSans-61" x="939.355469"/>
      <use xlink:href="#DejaVuSans-6d" x="1000.634766"/>
      <use xlink:href="#DejaVuSans-70" x="1098.046875"/>
      <use xlink:href="#DejaVuSans-6c" x="1161.523438"/>
      <use xlink:href="#DejaVuSans-65" x="1189.306641"/>
      <use xlink:href="#DejaVuSans-73" x="1250.830078"/>
      <use xlink:href="#DejaVuSans-29" x="1302.929688"/>
     </g>
    </g>
   </g>
  </g>
  <g id="axes_2">
   <g id="patch_8">
    <path d="M 108 400.616471 
L 777.6 400.616471 
L 777.6 253.863529 
L 108 253.863529 
z
" style="fill: #ffffff"/>
   </g>
   <g id="matplotlib.axis_3">
    <g id="xtick_7">
     <g id="line2d_15">
      <g>
       <use xlink:href="#mc105674e7d" x="138.436364" y="400.616471" style="stroke: #000000; stroke-width: 0.8"/>
      </g>
     </g>
    </g>
    <g id="xtick_8">
     <g id="line2d_16">
      <g>
       <use xlink:href="#mc105674e7d" x="260.181818" y="400.616471" style="stroke: #000000; stroke-width: 0.8"/>
      </g>
     </g>
    </g>
    <g id="xtick_9">
     <g id="line2d_17">
      <g>
       <use xlink:href="#mc105674e7d" x="381.927273" y="400.616471" style="stroke: #000000; stroke-width: 0.8"/>
      </g>
     </g>
    </g>
    <g id="xtick_10">
     <g id="line2d_18">
      <g>
       <use xlink:href="#mc105674e7d" x="503.672727" y="400.616471" style="stroke: #000000; stroke-width: 0.8"/>
      </g>
     </g>
    </g>
    <g id="xtick_11">
     <g id="line2d_19">
      <g>
       <use xlink:href="#mc105674e7d" x="625.418182" y="400.616471" style="stroke: #000000; stroke-width: 0.8"/>
      </g>
     </g>
    </g>
    <g id="xtick_12">
     <g id="line2d_20">
      <g>
       <use xlink:href="#mc105674e7d" x="747.163636" y="400.616471" style="stroke: #000000; stroke-width: 0.8"/>
      </g>
     </g>
    </g>
   </g>
   <g id="matplotlib.axis_4">
    <g id="ytick_7">
     <g id="line2d_21">
      <g>
       <use xlink:href="#medc832d015" x="108" y="378.190928" style="stroke: #000000; stroke-width: 0.8"/>
      </g>
     </g>
     <g id="text_10">
      <!-- 0 -->
      <g transform="translate(94.6375 381.990147) scale(0.1 -0.1)">
       <use xlink:href="#DejaVuSans-30"/>
      </g>
     </g>
    </g>
    <g id="ytick_8">
     <g id="line2d_22">
      <g>
       <use xlink:href="#medc832d015" x="108" y="353.418987" style="stroke: #000000; stroke-width: 0.8"/>
      </g>
     </g>
     <g id="text_11">
      <!-- 5 -->
      <g transform="translate(94.6375 357.218206) scale(0.1 -0.1)">
       <use xlink:href="#DejaVuSans-35"/>
      </g>
     </g>
    </g>
    <g id="ytick_9">
     <g id="line2d_23">
      <g>
       <use xlink:href="#medc832d015" x="108" y="328.647046" style="stroke: #000000; stroke-width: 0.8"/>
      </g>
     </g>
     <g id="text_12">
      <!-- 10 -->
      <g transform="translate(88.275 332.446265) scale(0.1 -0.1)">
       <use xlink:href="#DejaVuSans-31"/>
       <use xlink:href="#DejaVuSans-30" x="63.623047"/>
      </g>
     </g>
    </g>
    <g id="ytick_10">
     <g id="line2d_24">
      <g>
       <use xlink:href="#medc832d015" x="108" y="303.875105" style="stroke: #000000; stroke-width: 0.8"/>
      </g>
     </g>
     <g id="text_13">
      <!-- 15 -->
      <g transform="translate(88.275 307.674324) scale(0.1 -0.1)">
       <use xlink:href="#DejaVuSans-31"/>
       <use xlink:href="#DejaVuSans-35" x="63.623047"/>
      </g>
     </g>
    </g>
    <g id="ytick_11">
     <g id="line2d_25">
      <g>
       <use xlink:href="#medc832d015" x="108" y="279.103165" style="stroke: #000000; stroke-width: 0.8"/>
      </g>
     </g>
     <g id="text_14">
      <!-- 20 -->
      <g transform="translate(88.275 282.902383) scale(0.1 -0.1)">
       <use xlink:href="#DejaVuSans-32"/>
       <use xlink:href="#DejaVuSans-30" x="63.623047"/>
      </g>
     </g>
    </g>
    <g id="ytick_12">
     <g id="line2d_26">
      <g>
       <use xlink:href="#medc832d015" x="108" y="254.331224" style="stroke: #000000; stroke-width: 0.8"/>
      </g>
     </g>
     <g id="text_15">
      <!-- 25 -->
      <g transform="translate(88.275 258.130442) scale(0.1 -0.1)">
       <use xlink:href="#DejaVuSans-32"/>
       <use xlink:href="#DejaVuSans-35" x="63.623047"/>
      </g>
     </g>
    </g>
    <g id="text_16">
     <!-- Magnetism -->
     <g transform="translate(82.195312 354.861875) rotate(-90) scale(0.1 -0.1)">
      <use xlink:href="#DejaVuSans-4d"/>
      <use xlink:href="#DejaVuSans-61" x="86.279297"/>
      <use xlink:href="#DejaVuSans-67" x="147.558594"/>
      <use xlink:href="#DejaVuSans-6e" x="211.035156"/>
      <use xlink:href="#DejaVuSans-65" x="274.414062"/>
      <use xlink:href="#DejaVuSans-74" x="335.9375"/>
      <use xlink:href="#DejaVuSans-69" x="375.146484"/>
      <use xlink:href="#DejaVuSans-73" x="402.929688"/>
      <use xlink:href="#DejaVuSans-6d" x="455.029297"/>
     </g>
    </g>
   </g>
   <g id="line2d_27">
    <path d="M 138.436364 393.945882 
L 138.671848 393.341447 
L 138.907333 393.341447 
L 139.142817 390.700758 
L 139.378301 390.532309 
L 139.613786 388.159157 
L 139.84927 387.520041 
L 140.084755 387.520041 
L 140.320239 387.391227 
L 141.026692 386.038679 
L 142.910568 385.999044 
L 143.381537 385.434243 
L 143.852506 385.379745 
L 144.08799 385.003212 
L 144.558959 384.953668 
L 145.265412 384.299689 
L 146.20735 384.225373 
L 146.442835 384.136194 
L 147.149288 383.199814 
L 147.384772 383.021456 
L 147.855741 382.184165 
L 148.32671 380.836571 
L 148.562194 380.712712 
L 149.033163 380.242045 
L 153.271883 380.138003 
L 153.507368 380.043869 
L 153.742852 379.75156 
L 154.449305 379.558339 
L 154.68479 379.394844 
L 155.626728 379.315574 
L 156.333181 379.02822 
L 157.039634 378.963813 
L 157.510603 378.834998 
L 158.217056 378.706184 
L 158.92351 378.527826 
L 159.865448 378.443602 
L 160.807385 378.304879 
L 171.404185 378.190928 
L 443.85968 378.086886 
L 452.101635 377.462633 
L 452.572604 377.373454 
L 453.514542 377.314001 
L 455.162933 377.219868 
L 457.046809 376.848289 
L 467.879093 375.852457 
L 468.82103 375.565102 
L 470.704906 375.198478 
L 472.117813 375.094435 
L 474.001688 374.945804 
L 479.182346 374.509818 
L 480.359768 374.316596 
L 481.53719 374.16301 
L 482.714612 373.771614 
L 482.950097 373.543712 
L 484.127519 373.484259 
L 485.304941 373.152315 
L 485.540426 373.137452 
L 486.011394 372.969003 
L 486.717848 372.914505 
L 487.424301 372.795599 
L 488.837208 372.731192 
L 489.308177 372.260525 
L 489.779145 372.235753 
L 490.485599 372.032623 
L 493.311412 371.725451 
L 494.25335 371.641227 
L 494.488834 371.477732 
L 497.079163 371.17056 
L 497.550132 371.026883 
L 498.256585 370.917886 
L 501.082398 370.709802 
L 501.788852 370.546307 
L 502.966274 370.412539 
L 503.437243 370.090503 
L 503.908212 369.768468 
L 505.321118 369.382026 
L 505.556603 369.079808 
L 506.027572 369.035219 
L 506.263056 368.802362 
L 507.440478 368.628959 
L 508.853385 368.247471 
L 510.972745 368.014615 
L 511.208229 367.484495 
L 511.914683 367.410179 
L 512.385651 367.291274 
L 512.621136 366.88006 
L 513.092105 366.696747 
L 513.798558 366.612523 
L 514.505011 366.592705 
L 514.97598 366.483709 
L 515.446949 366.399484 
L 515.682434 366.369758 
L 515.917918 366.226081 
L 516.153402 366.226081 
L 516.388887 366.097266 
L 516.859856 366.047723 
L 517.566309 365.755414 
L 519.685669 365.700915 
L 521.098576 365.428424 
L 522.746967 365.354108 
L 523.217936 365.259975 
L 524.866327 365.136115 
L 525.57278 365.086571 
L 526.750202 364.997392 
L 527.221171 364.878487 
L 527.69214 364.838852 
L 528.163109 364.744718 
L 529.8115 364.675357 
L 530.753438 364.516817 
L 531.459891 364.472227 
L 531.695375 364.472227 
L 532.166344 364.24928 
L 533.579251 363.961925 
L 534.285704 363.818248 
L 535.698611 363.709251 
L 536.16958 363.629981 
L 537.111517 363.620072 
L 537.347002 363.164269 
L 538.995393 362.941321 
L 539.701846 362.653967 
L 541.114753 362.594514 
L 542.056691 362.505335 
L 542.998628 362.193209 
L 543.234113 361.821629 
L 543.469597 361.767131 
L 543.705082 361.479777 
L 544.176051 361.281601 
L 544.64702 361.142878 
L 547.237348 361.033882 
L 548.179286 360.914976 
L 550.063162 360.474036 
L 552.418006 360.449264 
L 552.888975 360.300632 
L 554.77285 360.251088 
L 555.008335 360.11732 
L 556.185757 360.013278 
L 558.305117 359.785376 
L 558.776086 359.567383 
L 559.718024 359.488113 
L 560.188992 359.319663 
L 560.424477 359.002583 
L 562.779321 358.759818 
L 564.192228 358.650821 
L 564.663197 358.561642 
L 565.36965 358.432828 
L 566.076103 358.37833 
L 567.018041 358.304014 
L 568.195463 357.962161 
L 568.666432 357.828393 
L 569.372886 357.788757 
L 569.843854 357.679761 
L 570.550308 357.605445 
L 571.492245 357.496449 
L 571.72773 357.402315 
L 571.963214 357.15955 
L 572.905152 356.981192 
L 573.376121 356.802834 
L 573.611605 356.366848 
L 574.082574 356.23308 
L 574.318059 355.693051 
L 574.789028 355.598918 
L 575.730965 355.480013 
L 577.143872 355.232293 
L 577.379356 354.915212 
L 578.556779 354.726946 
L 578.792263 354.726946 
L 579.498716 354.147282 
L 582.560014 353.790566 
L 582.795499 353.741022 
L 583.030983 353.156405 
L 584.208405 353.062271 
L 584.44389 352.883913 
L 584.914858 352.839324 
L 585.150343 352.690692 
L 585.621312 352.690692 
L 586.092281 352.527197 
L 586.798734 352.457836 
L 587.034218 352.175436 
L 587.740672 352.175436 
L 588.682609 351.729541 
L 588.918094 351.729541 
L 589.624547 351.313372 
L 591.272938 351.229148 
L 591.508423 351.001246 
L 592.685845 350.728754 
L 593.156814 350.614803 
L 594.098752 350.510761 
L 594.56972 350.381947 
L 595.276174 349.539701 
L 595.747143 349.514929 
L 596.453596 349.044262 
L 597.866503 349.039308 
L 598.101987 348.677638 
L 598.337471 348.677638 
L 598.572956 348.543869 
L 598.80844 348.538915 
L 599.043925 348.301104 
L 600.692316 348.226788 
L 601.398769 348.187153 
L 604.224582 348.167336 
L 604.460067 347.88989 
L 605.16652 347.88989 
L 605.402005 347.726395 
L 605.637489 347.716486 
L 606.343942 347.379588 
L 608.698787 347.315181 
L 609.169756 346.988191 
L 611.053631 346.988191 
L 611.289116 346.557159 
L 612.231053 346.517524 
L 612.702022 346.398619 
L 613.172991 346.398619 
L 613.64396 346.007222 
L 613.879444 345.972542 
L 614.114929 344.902394 
L 615.76332 344.902394 
L 616.469773 344.471362 
L 616.940742 343.866927 
L 617.647195 343.767839 
L 618.353649 343.738113 
L 618.589133 343.435895 
L 619.060102 343.336807 
L 619.295586 343.336807 
L 619.531071 343.207993 
L 620.473009 343.143586 
L 620.708493 342.960274 
L 621.650431 342.881003 
L 621.885915 342.217115 
L 623.769791 341.721677 
L 624.476244 341.652315 
L 624.711729 341.439277 
L 625.182697 341.305508 
L 625.418182 341.137059 
L 625.653666 341.137059 
L 625.889151 340.061957 
L 626.124635 339.95296 
L 626.36012 339.67056 
L 627.537542 339.59129 
L 627.773026 339.353479 
L 628.243995 339.353479 
L 628.714964 339.051261 
L 628.950448 339.051261 
L 629.185933 338.768861 
L 630.363355 338.768861 
L 630.598839 338.49637 
L 630.834324 338.49637 
L 631.069808 338.362601 
L 631.776262 338.357647 
L 632.247231 338.209015 
L 632.482715 338.209015 
L 633.189168 337.951387 
L 633.895622 337.782938 
L 634.837559 337.782938 
L 635.779497 337.128959 
L 636.014982 337.074461 
L 636.250466 336.901057 
L 636.48595 336.876285 
L 636.956919 336.197534 
L 638.369826 336.108355 
L 638.60531 336.009267 
L 638.840795 335.776411 
L 639.547248 335.622825 
L 639.782733 335.196747 
L 640.253701 335.033253 
L 640.72467 334.532859 
L 641.431124 334.508087 
L 641.902092 333.834291 
L 642.608546 333.735203 
L 642.84403 333.259582 
L 643.785968 332.957364 
L 644.021452 332.650192 
L 644.96339 332.46688 
L 646.376297 332.387609 
L 646.847266 332.318248 
L 650.850501 332.234023 
L 651.792439 332.194388 
L 652.734377 332.105209 
L 653.44083 332.020985 
L 653.676314 331.85749 
L 654.853737 331.773265 
L 655.324705 331.500774 
L 656.502128 331.386823 
L 656.973097 331.381869 
L 657.444065 331.267918 
L 657.67955 330.6833 
L 658.621488 330.574303 
L 659.327941 330.212633 
L 660.269879 330.212633 
L 660.740848 329.737012 
L 661.447301 329.628015 
L 661.91827 329.390204 
L 662.389239 329.02358 
L 662.624723 328.974036 
L 662.860207 328.676773 
L 663.095692 328.652001 
L 664.508599 327.661123 
L 664.979567 327.636351 
L 665.921505 327.091368 
L 667.098927 326.868421 
L 667.334412 326.714835 
L 668.27635 326.655382 
L 668.511834 326.3928 
L 669.218287 326.343256 
L 669.453772 326.041038 
L 670.631194 326.031129 
L 670.866678 325.793319 
L 671.573132 325.728912 
L 672.279585 325.476238 
L 672.750554 325.21861 
L 672.986038 324.995662 
L 674.398945 324.995662 
L 674.634429 324.832167 
L 674.869914 324.832167 
L 675.105398 324.619129 
L 675.576367 324.475451 
L 676.28282 324.039465 
L 677.931212 323.950286 
L 678.637665 323.786791 
L 679.344118 323.345851 
L 680.992509 323.306216 
L 681.463478 323.162539 
L 681.934447 323.10804 
L 682.6409 323.018861 
L 684.289291 322.929682 
L 685.231229 322.74637 
L 686.173167 322.672054 
L 688.057042 322.572966 
L 689.469949 322.414426 
L 689.940918 322.320293 
L 690.411887 322.320293 
L 690.882856 322.13698 
L 692.295762 322.087436 
L 692.531247 321.93385 
L 695.121576 321.874398 
L 695.828029 321.631633 
L 699.124811 321.175829 
L 699.360295 320.888474 
L 699.59578 320.888474 
L 699.831264 319.857962 
L 700.066749 319.511154 
L 700.537718 319.511154 
L 700.773202 319.040488 
L 701.008686 319.040488 
L 701.244171 318.728361 
L 701.71514 318.663954 
L 702.186109 318.485596 
L 702.421593 318.094199 
L 702.892562 317.990157 
L 703.128046 317.990157 
L 703.8345 317.499673 
L 704.305469 317.430311 
L 705.247406 317.405539 
L 705.482891 317.23709 
L 706.424829 317.217273 
L 707.837735 316.711925 
L 708.308704 316.652472 
L 708.544189 316.464206 
L 709.721611 316.439434 
L 710.19258 316.350255 
L 710.899033 316.300711 
L 711.134517 315.909314 
L 712.076455 315.909314 
L 712.547424 315.730956 
L 713.253877 315.4981 
L 713.489362 314.621173 
L 713.960331 314.427952 
L 714.431299 314.180233 
L 714.902268 314.160415 
L 715.608722 313.625341 
L 717.021628 313.392485 
L 717.257113 313.392485 
L 717.728082 313.030815 
L 717.963566 313.030815 
L 718.670019 312.634464 
L 719.140988 312.560148 
L 719.376473 312.233158 
L 719.847442 312.233158 
L 720.082926 312.02012 
L 720.31841 312.02012 
L 720.553895 311.712947 
L 720.789379 311.712947 
L 721.024864 311.187782 
L 721.495833 311.187782 
L 721.966801 310.543712 
L 723.144224 310.201859 
L 723.615193 308.963262 
L 725.263584 308.849311 
L 725.499068 308.720497 
L 725.970037 308.720497 
L 726.67649 307.719711 
L 726.911975 306.842784 
L 727.382944 306.337436 
L 727.618428 306.337436 
L 728.089397 305.876678 
L 729.266819 305.876678 
L 729.502303 305.549689 
L 729.973272 305.450601 
L 730.444241 305.371331 
L 730.679726 305.371331 
L 730.91521 304.449814 
L 731.386179 303.919695 
L 731.621663 303.652158 
L 731.857148 303.647204 
L 732.092632 302.973407 
L 733.03457 302.572101 
L 733.270055 301.97262 
L 733.741023 301.799217 
L 733.976508 301.799217 
L 734.211992 301.605996 
L 734.447477 301.586178 
L 734.682961 301.288915 
L 735.389414 301.100648 
L 735.624899 300.654753 
L 735.860383 300.491258 
L 736.331352 300.491258 
L 736.566837 299.500381 
L 736.802321 297.583032 
L 737.037806 297.340267 
L 737.27329 297.340267 
L 737.508774 297.161909 
L 737.979743 296.542611 
L 738.215228 294.560856 
L 738.450712 293.67402 
L 738.921681 293.669066 
L 739.157165 293.242988 
L 739.39265 293.158764 
L 739.628134 291.672447 
L 739.863619 291.018468 
L 740.099103 291.018468 
L 740.334588 290.498257 
L 740.570072 290.498257 
L 741.041041 286.54961 
L 741.276525 286.539701 
L 741.747494 285.687546 
L 741.982979 283.894058 
L 742.218463 283.23017 
L 742.689432 283.23017 
L 743.160401 279.01894 
L 743.63137 279.01894 
L 743.866854 278.355052 
L 744.808792 278.355052 
L 745.044276 277.854659 
L 745.279761 277.854659 
L 745.515245 272.979541 
L 745.75073 272.979541 
L 746.457183 262.803227 
L 746.692667 262.441557 
L 746.928152 262.441557 
L 747.163636 260.534118 
L 747.163636 260.534118 
" clip-path="url(#p8a5a6b6846)" style="fill: none; stroke: #1f77b4; stroke-width: 1.5; stroke-linecap: square"/>
   </g>
   <g id="patch_9">
    <path d="M 108 400.616471 
L 108 253.863529 
" style="fill: none; stroke: #000000; stroke-width: 0.8; stroke-linejoin: miter; stroke-linecap: square"/>
   </g>
   <g id="patch_10">
    <path d="M 777.6 400.616471 
L 777.6 253.863529 
" style="fill: none; stroke: #000000; stroke-width: 0.8; stroke-linejoin: miter; stroke-linecap: square"/>
   </g>
   <g id="patch_11">
    <path d="M 108 400.616471 
L 777.6 400.616471 
" style="fill: none; stroke: #000000; stroke-width: 0.8; stroke-linejoin: miter; stroke-linecap: square"/>
   </g>
   <g id="patch_12">
    <path d="M 108 253.863529 
L 777.6 253.863529 
" style="fill: none; stroke: #000000; stroke-width: 0.8; stroke-linejoin: miter; stroke-linecap: square"/>
   </g>
   <g id="legend_2">
    <g id="patch_13">
     <path d="M 115 276.541654 
L 281.19375 276.541654 
Q 283.19375 276.541654 283.19375 274.541654 
L 283.19375 260.863529 
Q 283.19375 258.863529 281.19375 258.863529 
L 115 258.863529 
Q 113 258.863529 113 260.863529 
L 113 274.541654 
Q 113 276.541654 115 276.541654 
z
" style="fill: #ffffff; opacity: 0.8; stroke: #cccccc; stroke-linejoin: miter"/>
    </g>
    <g id="line2d_28">
     <path d="M 117 266.961967 
L 127 266.961967 
L 137 266.961967 
" style="fill: none; stroke: #1f77b4; stroke-width: 1.5; stroke-linecap: square"/>
    </g>
    <g id="text_17">
     <!-- Data Set 2 (2586 samples) -->
     <g transform="translate(145 270.461967) scale(0.1 -0.1)">
      <defs>
       <path id="DejaVuSans-38" d="M 2034 2216 
Q 1584 2216 1326 1975 
Q 1069 1734 1069 1313 
Q 1069 891 1326 650 
Q 1584 409 2034 409 
Q 2484 409 2743 651 
Q 3003 894 3003 1313 
Q 3003 1734 2745 1975 
Q 2488 2216 2034 2216 
z
M 1403 2484 
Q 997 2584 770 2862 
Q 544 3141 544 3541 
Q 544 4100 942 4425 
Q 1341 4750 2034 4750 
Q 2731 4750 3128 4425 
Q 3525 4100 3525 3541 
Q 3525 3141 3298 2862 
Q 3072 2584 2669 2484 
Q 3125 2378 3379 2068 
Q 3634 1759 3634 1313 
Q 3634 634 3220 271 
Q 2806 -91 2034 -91 
Q 1263 -91 848 271 
Q 434 634 434 1313 
Q 434 1759 690 2068 
Q 947 2378 1403 2484 
z
M 1172 3481 
Q 1172 3119 1398 2916 
Q 1625 2713 2034 2713 
Q 2441 2713 2670 2916 
Q 2900 3119 2900 3481 
Q 2900 3844 2670 4047 
Q 2441 4250 2034 4250 
Q 1625 4250 1398 4047 
Q 1172 3844 1172 3481 
z
" transform="scale(0.015625)"/>
      </defs>
      <use xlink:href="#DejaVuSans-44"/>
      <use xlink:href="#DejaVuSans-61" x="77.001953"/>
      <use xlink:href="#DejaVuSans-74" x="138.28125"/>
      <use xlink:href="#DejaVuSans-61" x="177.490234"/>
      <use xlink:href="#DejaVuSans-20" x="238.769531"/>
      <use xlink:href="#DejaVuSans-53" x="270.556641"/>
      <use xlink:href="#DejaVuSans-65" x="334.033203"/>
      <use xlink:href="#DejaVuSans-74" x="395.556641"/>
      <use xlink:href="#DejaVuSans-20" x="434.765625"/>
      <use xlink:href="#DejaVuSans-32" x="466.552734"/>
      <use xlink:href="#DejaVuSans-20" x="530.175781"/>
      <use xlink:href="#DejaVuSans-28" x="561.962891"/>
      <use xlink:href="#DejaVuSans-32" x="600.976562"/>
      <use xlink:href="#DejaVuSans-35" x="664.599609"/>
      <use xlink:href="#DejaVuSans-38" x="728.222656"/>
      <use xlink:href="#DejaVuSans-36" x="791.845703"/>
      <use xlink:href="#DejaVuSans-20" x="855.46875"/>
      <use xlink:href="#DejaVuSans-73" x="887.255859"/>
      <use xlink:href="#DejaVuSans-61" x="939.355469"/>
      <use xlink:href="#DejaVuSans-6d" x="1000.634766"/>
      <use xlink:href="#DejaVuSans-70" x="1098.046875"/>
      <use xlink:href="#DejaVuSans-6c" x="1161.523438"/>
      <use xlink:href="#DejaVuSans-65" x="1189.306641"/>
      <use xlink:href="#DejaVuSans-73" x="1250.830078"/>
      <use xlink:href="#DejaVuSans-29" x="1302.929688"/>
     </g>
    </g>
   </g>
  </g>
  <g id="axes_3">
   <g id="patch_14">
    <path d="M 108 576.72 
L 777.6 576.72 
L 777.6 429.967059 
L 108 429.967059 
z
" style="fill: #ffffff"/>
   </g>
   <g id="matplotlib.axis_5">
    <g id="xtick_13">
     <g id="line2d_29">
      <g>
       <use xlink:href="#mc105674e7d" x="138.436364" y="576.72" style="stroke: #000000; stroke-width: 0.8"/>
      </g>
     </g>
     <g id="text_18">
      <!-- 0 -->
      <g transform="translate(135.255114 591.318438) scale(0.1 -0.1)">
       <use xlink:href="#DejaVuSans-30"/>
      </g>
     </g>
    </g>
    <g id="xtick_14">
     <g id="line2d_30">
      <g>
       <use xlink:href="#mc105674e7d" x="260.181818" y="576.72" style="stroke: #000000; stroke-width: 0.8"/>
      </g>
     </g>
     <g id="text_19">
      <!-- 20 -->
      <g transform="translate(253.819318 591.318438) scale(0.1 -0.1)">
       <use xlink:href="#DejaVuSans-32"/>
       <use xlink:href="#DejaVuSans-30" x="63.623047"/>
      </g>
     </g>
    </g>
    <g id="xtick_15">
     <g id="line2d_31">
      <g>
       <use xlink:href="#mc105674e7d" x="381.927273" y="576.72" style="stroke: #000000; stroke-width: 0.8"/>
      </g>
     </g>
     <g id="text_20">
      <!-- 40 -->
      <g transform="translate(375.564773 591.318438) scale(0.1 -0.1)">
       <defs>
        <path id="DejaVuSans-34" d="M 2419 4116 
L 825 1625 
L 2419 1625 
L 2419 4116 
z
M 2253 4666 
L 3047 4666 
L 3047 1625 
L 3713 1625 
L 3713 1100 
L 3047 1100 
L 3047 0 
L 2419 0 
L 2419 1100 
L 313 1100 
L 313 1709 
L 2253 4666 
z
" transform="scale(0.015625)"/>
       </defs>
       <use xlink:href="#DejaVuSans-34"/>
       <use xlink:href="#DejaVuSans-30" x="63.623047"/>
      </g>
     </g>
    </g>
    <g id="xtick_16">
     <g id="line2d_32">
      <g>
       <use xlink:href="#mc105674e7d" x="503.672727" y="576.72" style="stroke: #000000; stroke-width: 0.8"/>
      </g>
     </g>
     <g id="text_21">
      <!-- 60 -->
      <g transform="translate(497.310227 591.318438) scale(0.1 -0.1)">
       <use xlink:href="#DejaVuSans-36"/>
       <use xlink:href="#DejaVuSans-30" x="63.623047"/>
      </g>
     </g>
    </g>
    <g id="xtick_17">
     <g id="line2d_33">
      <g>
       <use xlink:href="#mc105674e7d" x="625.418182" y="576.72" style="stroke: #000000; stroke-width: 0.8"/>
      </g>
     </g>
     <g id="text_22">
      <!-- 80 -->
      <g transform="translate(619.055682 591.318438) scale(0.1 -0.1)">
       <use xlink:href="#DejaVuSans-38"/>
       <use xlink:href="#DejaVuSans-30" x="63.623047"/>
      </g>
     </g>
    </g>
    <g id="xtick_18">
     <g id="line2d_34">
      <g>
       <use xlink:href="#mc105674e7d" x="747.163636" y="576.72" style="stroke: #000000; stroke-width: 0.8"/>
      </g>
     </g>
     <g id="text_23">
      <!-- 100 -->
      <g transform="translate(737.619886 591.318438) scale(0.1 -0.1)">
       <use xlink:href="#DejaVuSans-31"/>
       <use xlink:href="#DejaVuSans-30" x="63.623047"/>
       <use xlink:href="#DejaVuSans-30" x="127.246094"/>
      </g>
     </g>
    </g>
    <g id="text_24">
     <!-- Data Point Position -->
     <g transform="translate(395.808594 604.996562) scale(0.1 -0.1)">
      <defs>
       <path id="DejaVuSans-50" d="M 1259 4147 
L 1259 2394 
L 2053 2394 
Q 2494 2394 2734 2622 
Q 2975 2850 2975 3272 
Q 2975 3691 2734 3919 
Q 2494 4147 2053 4147 
L 1259 4147 
z
M 628 4666 
L 2053 4666 
Q 2838 4666 3239 4311 
Q 3641 3956 3641 3272 
Q 3641 2581 3239 2228 
Q 2838 1875 2053 1875 
L 1259 1875 
L 1259 0 
L 628 0 
L 628 4666 
z
" transform="scale(0.015625)"/>
      </defs>
      <use xlink:href="#DejaVuSans-44"/>
      <use xlink:href="#DejaVuSans-61" x="77.001953"/>
      <use xlink:href="#DejaVuSans-74" x="138.28125"/>
      <use xlink:href="#DejaVuSans-61" x="177.490234"/>
      <use xlink:href="#DejaVuSans-20" x="238.769531"/>
      <use xlink:href="#DejaVuSans-50" x="270.556641"/>
      <use xlink:href="#DejaVuSans-6f" x="327.234375"/>
      <use xlink:href="#DejaVuSans-69" x="388.416016"/>
      <use xlink:href="#DejaVuSans-6e" x="416.199219"/>
      <use xlink:href="#DejaVuSans-74" x="479.578125"/>
      <use xlink:href="#DejaVuSans-20" x="518.787109"/>
      <use xlink:href="#DejaVuSans-50" x="550.574219"/>
      <use xlink:href="#DejaVuSans-6f" x="607.251953"/>
      <use xlink:href="#DejaVuSans-73" x="668.433594"/>
      <use xlink:href="#DejaVuSans-69" x="720.533203"/>
      <use xlink:href="#DejaVuSans-74" x="748.316406"/>
      <use xlink:href="#DejaVuSans-69" x="787.525391"/>
      <use xlink:href="#DejaVuSans-6f" x="815.308594"/>
      <use xlink:href="#DejaVuSans-6e" x="876.490234"/>
     </g>
    </g>
   </g>
   <g id="matplotlib.axis_6">
    <g id="ytick_13">
     <g id="line2d_35">
      <g>
       <use xlink:href="#medc832d015" x="108" y="554.294457" style="stroke: #000000; stroke-width: 0.8"/>
      </g>
     </g>
     <g id="text_25">
      <!-- 0 -->
      <g transform="translate(94.6375 558.093676) scale(0.1 -0.1)">
       <use xlink:href="#DejaVuSans-30"/>
      </g>
     </g>
    </g>
    <g id="ytick_14">
     <g id="line2d_36">
      <g>
       <use xlink:href="#medc832d015" x="108" y="529.522517" style="stroke: #000000; stroke-width: 0.8"/>
      </g>
     </g>
     <g id="text_26">
      <!-- 5 -->
      <g transform="translate(94.6375 533.321735) scale(0.1 -0.1)">
       <use xlink:href="#DejaVuSans-35"/>
      </g>
     </g>
    </g>
    <g id="ytick_15">
     <g id="line2d_37">
      <g>
       <use xlink:href="#medc832d015" x="108" y="504.750576" style="stroke: #000000; stroke-width: 0.8"/>
      </g>
     </g>
     <g id="text_27">
      <!-- 10 -->
      <g transform="translate(88.275 508.549794) scale(0.1 -0.1)">
       <use xlink:href="#DejaVuSans-31"/>
       <use xlink:href="#DejaVuSans-30" x="63.623047"/>
      </g>
     </g>
    </g>
    <g id="ytick_16">
     <g id="line2d_38">
      <g>
       <use xlink:href="#medc832d015" x="108" y="479.978635" style="stroke: #000000; stroke-width: 0.8"/>
      </g>
     </g>
     <g id="text_28">
      <!-- 15 -->
      <g transform="translate(88.275 483.777854) scale(0.1 -0.1)">
       <use xlink:href="#DejaVuSans-31"/>
       <use xlink:href="#DejaVuSans-35" x="63.623047"/>
      </g>
     </g>
    </g>
    <g id="ytick_17">
     <g id="line2d_39">
      <g>
       <use xlink:href="#medc832d015" x="108" y="455.206694" style="stroke: #000000; stroke-width: 0.8"/>
      </g>
     </g>
     <g id="text_29">
      <!-- 20 -->
      <g transform="translate(88.275 459.005913) scale(0.1 -0.1)">
       <use xlink:href="#DejaVuSans-32"/>
       <use xlink:href="#DejaVuSans-30" x="63.623047"/>
      </g>
     </g>
    </g>
    <g id="ytick_18">
     <g id="line2d_40">
      <g>
       <use xlink:href="#medc832d015" x="108" y="430.434753" style="stroke: #000000; stroke-width: 0.8"/>
      </g>
     </g>
     <g id="text_30">
      <!-- 25 -->
      <g transform="translate(88.275 434.233972) scale(0.1 -0.1)">
       <use xlink:href="#DejaVuSans-32"/>
       <use xlink:href="#DejaVuSans-35" x="63.623047"/>
      </g>
     </g>
    </g>
    <g id="text_31">
     <!-- Magnetism -->
     <g transform="translate(82.195312 530.965404) rotate(-90) scale(0.1 -0.1)">
      <use xlink:href="#DejaVuSans-4d"/>
      <use xlink:href="#DejaVuSans-61" x="86.279297"/>
      <use xlink:href="#DejaVuSans-67" x="147.558594"/>
      <use xlink:href="#DejaVuSans-6e" x="211.035156"/>
      <use xlink:href="#DejaVuSans-65" x="274.414062"/>
      <use xlink:href="#DejaVuSans-74" x="335.9375"/>
      <use xlink:href="#DejaVuSans-69" x="375.146484"/>
      <use xlink:href="#DejaVuSans-73" x="402.929688"/>
      <use xlink:href="#DejaVuSans-6d" x="455.029297"/>
     </g>
    </g>
   </g>
   <g id="line2d_41">
    <path d="M 138.436364 570.049412 
L 138.601152 569.965187 
L 138.76594 569.444976 
L 139.260304 569.444976 
L 139.425092 566.804288 
L 139.58988 566.635838 
L 139.919457 564.262686 
L 140.249033 564.223051 
L 140.413821 563.722658 
L 140.908185 563.494756 
L 141.237761 562.791233 
L 141.40255 562.791233 
L 141.567338 562.142208 
L 143.215219 562.102573 
L 143.874371 561.537773 
L 144.203947 561.483275 
L 144.368736 561.106741 
L 145.027888 560.804523 
L 145.192676 560.432944 
L 146.346193 560.239723 
L 146.675769 559.521337 
L 146.840557 559.521337 
L 147.664498 558.287694 
L 147.829286 557.79721 
L 148.158862 557.67335 
L 148.32365 557.653533 
L 148.488438 557.47022 
L 148.653226 557.465266 
L 148.818014 556.940101 
L 149.971531 556.345574 
L 154.256022 556.241532 
L 154.42081 556.147399 
L 154.585598 555.85509 
L 155.079963 555.661869 
L 155.244751 555.498374 
L 156.233479 555.419103 
L 156.727844 555.131749 
L 157.386996 555.067342 
L 157.716572 554.938528 
L 158.375725 554.809714 
L 158.705301 554.710626 
L 162.989792 554.299412 
L 166.779918 554.294457 
L 439.998602 554.190415 
L 442.8 554.036829 
L 444.777457 553.937741 
L 446.754915 553.685068 
L 447.743643 553.566162 
L 448.073219 553.476983 
L 451.039405 553.323397 
L 451.53377 553.249081 
L 452.852075 553.065769 
L 453.511227 552.951818 
L 457.136565 552.609965 
L 458.949235 552.510878 
L 462.244997 552.223523 
L 462.574573 552.139299 
L 463.563302 551.960941 
L 463.892878 551.856898 
L 465.540759 551.505137 
L 466.3647 551.321824 
L 468.836521 551.118695 
L 470.154826 551.014652 
L 474.439317 550.519214 
L 477.405503 549.875143 
L 477.570291 549.652196 
L 480.371689 549.458975 
L 482.678722 549.072532 
L 483.173087 549.018034 
L 483.667451 548.899129 
L 484.820968 548.834722 
L 485.150544 548.537458 
L 487.951942 547.977612 
L 490.258975 547.744756 
L 491.57728 547.501991 
L 492.895585 547.363268 
L 493.225161 547.283998 
L 493.554737 547.170047 
L 494.873042 546.942145 
L 496.191347 546.843058 
L 498.827957 546.377345 
L 499.322321 545.961176 
L 499.651897 545.822454 
L 500.475838 545.777864 
L 500.805414 545.644096 
L 501.13499 545.549962 
L 501.299779 545.485555 
L 501.464567 545.183338 
L 501.794143 545.138748 
L 502.123719 544.905892 
L 504.101176 544.638355 
L 504.430753 544.351 
L 506.078634 544.331183 
L 506.40821 544.227141 
L 507.067362 544.118144 
L 507.23215 543.994284 
L 507.396939 543.588025 
L 508.220879 543.493891 
L 508.550455 543.394803 
L 508.715243 542.983589 
L 509.209608 542.800277 
L 509.86876 542.716052 
L 510.198336 542.696235 
L 510.527913 542.587238 
L 510.857489 542.503014 
L 511.022277 542.473287 
L 511.351853 542.32961 
L 511.516641 542.32961 
L 511.846217 542.200796 
L 512.340582 542.151252 
L 512.50537 542.151252 
L 512.834946 541.992712 
L 513.32931 541.858943 
L 514.812403 541.804445 
L 515.801132 541.531953 
L 517.778589 541.43782 
L 518.108166 541.363504 
L 519.591259 541.259462 
L 527.006723 540.26363 
L 527.501088 540.065455 
L 527.995452 539.926732 
L 529.478545 539.911869 
L 529.972909 539.733511 
L 531.291214 539.703784 
L 531.456002 539.456065 
L 535.081341 538.698043 
L 535.740493 538.60391 
L 536.89401 538.296738 
L 537.058798 537.974703 
L 538.377103 537.538717 
L 538.706679 537.355404 
L 540.519348 537.246408 
L 541.343289 537.14732 
L 542.826382 536.949144 
L 543.485534 536.746014 
L 543.81511 536.6172 
L 544.309475 536.577565 
L 546.45172 536.528021 
L 546.781296 536.404162 
L 549.253118 536.354618 
L 549.747482 536.220849 
L 551.560152 536.116807 
L 554.526338 535.953312 
L 555.020702 535.888905 
L 555.350278 535.750182 
L 557.492524 535.423193 
L 557.657312 535.106112 
L 558.316464 535.071431 
L 558.810828 535.007024 
L 559.305193 534.863347 
L 560.788286 534.75435 
L 561.28265 534.665171 
L 563.754472 534.353045 
L 564.084048 534.273775 
L 564.248836 534.249003 
L 564.578412 533.946785 
L 568.368539 533.505845 
L 568.698115 533.26308 
L 570.01642 532.906364 
L 571.169937 532.108707 
L 571.334725 531.796581 
L 571.993877 531.697493 
L 572.488241 531.583542 
L 573.806546 531.548861 
L 575.124851 530.929563 
L 575.948792 530.830475 
L 576.11358 530.617436 
L 576.607944 530.518349 
L 576.772732 530.250812 
L 577.596673 530.161633 
L 578.914978 530.067499 
L 579.57413 530.032818 
L 579.903706 529.913913 
L 580.398071 529.844552 
L 580.727647 529.591878 
L 580.892435 529.259934 
L 582.21074 529.165801 
L 582.375528 528.987443 
L 582.705104 528.942853 
L 583.03468 528.794221 
L 583.199468 528.794221 
L 583.529045 528.630727 
L 584.188197 528.526684 
L 584.352985 528.278965 
L 585.176926 528.209604 
L 587.319171 527.416902 
L 588.3079 527.332677 
L 588.637476 527.06514 
L 589.296628 527.050277 
L 589.626205 526.832284 
L 589.955781 526.718333 
L 591.109298 526.614291 
L 591.76845 526.485477 
L 592.098026 525.910768 
L 592.427603 525.643231 
L 593.416331 525.618459 
L 593.910695 525.147792 
L 595.064212 525.127974 
L 595.229 524.781167 
L 595.393788 524.781167 
L 595.723365 524.647399 
L 596.052941 524.578037 
L 596.217729 524.404634 
L 597.700822 524.305546 
L 599.019127 524.290683 
L 601.820525 524.270865 
L 601.985313 523.998374 
L 602.809253 523.993419 
L 602.974041 523.829925 
L 603.303618 523.820016 
L 603.633194 523.686247 
L 603.96277 523.676338 
L 604.292346 523.527707 
L 604.786711 523.483117 
L 606.764168 523.41871 
L 607.093744 523.091721 
L 608.576837 523.091721 
L 608.741625 522.665643 
L 610.05993 522.52692 
L 611.543023 522.308927 
L 611.707811 522.110752 
L 612.202176 522.076071 
L 612.861328 521.005923 
L 614.838785 521.005923 
L 615.33315 520.713614 
L 615.827514 520.713614 
L 616.486666 520.193404 
L 616.651454 520.193404 
L 616.816243 519.970456 
L 617.475395 519.871368 
L 618.134547 519.841642 
L 618.299336 519.539424 
L 618.958488 519.440337 
L 619.61764 519.311522 
L 620.276793 519.227298 
L 620.441581 519.063803 
L 621.265521 518.984533 
L 621.43031 518.830947 
L 621.595098 518.320645 
L 622.25425 518.102652 
L 622.913403 518.023382 
L 623.078191 517.845024 
L 624.89086 517.755845 
L 625.385224 517.488308 
L 626.373953 517.240588 
L 626.538741 516.883872 
L 626.703529 516.165486 
L 626.868317 516.056489 
L 627.033105 515.774089 
L 628.35141 515.694819 
L 628.516198 515.457008 
L 628.845774 515.457008 
L 629.175351 515.154791 
L 629.504927 515.060657 
L 629.669715 514.872391 
L 630.658444 514.872391 
L 630.823232 514.599899 
L 631.152808 514.599899 
L 631.482384 514.466131 
L 631.81196 514.461176 
L 632.141537 514.312545 
L 632.306325 514.312545 
L 632.635901 514.188685 
L 633.459842 513.911239 
L 634.613358 513.708109 
L 635.107723 513.405892 
L 635.272511 513.405892 
L 635.602087 513.17799 
L 635.766875 513.173036 
L 635.931663 513.004586 
L 636.261239 512.979814 
L 636.426027 512.652825 
L 636.755604 512.61319 
L 636.920392 512.301063 
L 638.568273 512.211884 
L 639.557002 511.726354 
L 639.72179 511.726354 
L 639.886578 511.300277 
L 640.380942 511.136782 
L 640.710518 510.636389 
L 641.864035 510.482803 
L 642.193611 509.93782 
L 642.852764 509.838732 
L 643.18234 509.675237 
L 643.511916 509.268978 
L 643.841492 509.135209 
L 644.335857 509.060893 
L 645.654162 508.595181 
L 647.466831 508.491139 
L 647.796407 508.421777 
L 651.91611 508.337553 
L 652.74005 508.297918 
L 653.728779 508.208739 
L 655.706236 507.876795 
L 656.035812 507.673665 
L 656.694965 507.490352 
L 657.848482 507.416036 
L 658.178058 507.371447 
L 658.342846 506.786829 
L 659.001998 506.677833 
L 659.661151 506.316162 
L 660.485091 506.222029 
L 660.649879 506.108078 
L 660.814668 505.840541 
L 661.47382 505.731545 
L 662.462549 505.127109 
L 662.956913 505.077565 
L 663.121701 504.824891 
L 663.616065 504.582126 
L 663.780853 504.458267 
L 663.945642 504.185775 
L 664.440006 503.9876 
L 664.769582 503.764652 
L 665.593523 503.729972 
L 666.417463 503.155263 
L 666.747039 503.155263 
L 666.911828 502.97195 
L 667.406192 502.97195 
L 667.735768 502.818364 
L 668.889285 502.758912 
L 669.218861 502.496329 
L 669.713225 502.446785 
L 670.372378 502.441831 
L 670.537166 502.144567 
L 671.525895 502.134659 
L 671.690683 501.896848 
L 672.185047 501.832441 
L 672.679411 501.579767 
L 673.173776 501.322139 
L 673.338564 501.099192 
L 674.821657 501.099192 
L 674.986445 500.935697 
L 675.316021 500.935697 
L 675.480809 500.722658 
L 676.139962 500.578981 
L 676.634326 500.346125 
L 676.799114 500.142995 
L 678.282207 500.053816 
L 678.941359 499.890321 
L 679.600512 499.508833 
L 679.930088 499.44938 
L 681.248393 499.409745 
L 681.577969 499.300749 
L 682.896274 499.117436 
L 684.873731 498.958896 
L 685.368096 498.80531 
L 687.015977 498.696313 
L 688.993434 498.517955 
L 689.32301 498.423822 
L 689.817375 498.39905 
L 690.146951 498.24051 
L 691.630044 498.190966 
L 692.289196 498.03738 
L 694.761018 497.938292 
L 695.090594 497.849113 
L 698.880721 497.413127 
L 699.375085 497.279358 
L 699.539873 496.992004 
L 700.528602 496.94246 
L 701.022966 495.961491 
L 701.352542 495.788087 
L 701.51733 495.614684 
L 701.846907 495.614684 
L 702.011695 495.144017 
L 702.341271 495.144017 
L 702.506059 494.831891 
L 703.165211 494.767483 
L 703.494788 494.589126 
L 703.659576 494.197729 
L 704.318728 494.093687 
L 704.813092 493.603202 
L 705.142669 493.533841 
L 706.131397 493.509069 
L 706.296185 493.34062 
L 707.61449 493.320802 
L 708.438431 492.919497 
L 709.921524 492.756002 
L 710.2511 492.567735 
L 711.075041 492.542963 
L 711.569405 492.453784 
L 712.063769 492.40424 
L 712.228557 492.012844 
L 713.546862 492.007889 
L 713.876438 491.864212 
L 714.370803 491.775033 
L 714.535591 491.601629 
L 714.700379 490.724703 
L 715.029955 490.531482 
L 715.359531 490.283762 
L 715.853896 490.263945 
L 716.513048 489.674372 
L 718.160929 489.258204 
L 718.490505 489.134344 
L 718.655294 489.134344 
L 719.149658 488.737993 
L 719.479234 488.663677 
L 719.80881 488.336688 
L 720.138387 488.336688 
L 720.467963 488.123649 
L 720.632751 488.123649 
L 720.797539 487.816477 
L 721.127115 487.757024 
L 721.291903 487.34581 
L 721.786268 487.291312 
L 721.951056 487.291312 
L 722.115844 486.904869 
L 722.280632 486.890006 
L 722.610208 486.567971 
L 723.269361 486.518427 
L 723.434149 486.364841 
L 723.763725 486.305388 
L 724.093301 485.230286 
L 724.258089 485.066791 
L 725.741182 484.952841 
L 726.070758 484.824026 
L 726.894699 484.824026 
L 727.389063 483.966917 
L 727.553851 483.966917 
L 727.71864 483.82324 
L 728.213004 482.946313 
L 728.377792 482.936405 
L 728.54258 482.619324 
L 728.707368 482.619324 
L 728.872156 482.440966 
L 729.036944 482.440966 
L 729.531309 481.980208 
L 730.355249 481.88112 
L 730.849614 481.653218 
L 731.17919 481.55413 
L 731.508766 481.47486 
L 731.673554 481.47486 
L 731.838342 480.553344 
L 732.662283 479.750733 
L 732.827071 479.750733 
L 732.991859 479.076936 
L 733.651011 478.675631 
L 733.8158 478.07615 
L 734.145376 477.902746 
L 734.310164 477.902746 
L 734.474952 477.709525 
L 734.63974 477.689707 
L 735.298893 477.238858 
L 735.628469 477.124907 
L 735.793257 476.758282 
L 735.958045 476.758282 
L 736.122833 476.594788 
L 736.617197 476.594788 
L 736.781986 475.60391 
L 736.946774 473.750969 
L 737.605926 473.443797 
L 738.429867 472.517326 
L 738.759443 469.77755 
L 739.089019 469.772595 
L 739.253807 469.346518 
L 739.583383 469.262293 
L 739.748171 468.915486 
L 740.077748 467.121997 
L 740.407324 467.121997 
L 740.572112 466.601787 
L 741.066476 466.601787 
L 741.231264 464.193954 
L 741.396053 464.104775 
L 741.560841 463.153533 
L 741.725629 463.034627 
L 741.890417 462.653139 
L 742.055205 462.643231 
L 742.384781 461.791076 
L 742.549569 461.622627 
L 742.714357 459.997587 
L 743.043934 459.333699 
L 743.37351 459.333699 
L 743.538298 456.871368 
L 743.703086 456.871368 
L 743.867874 455.122469 
L 744.362239 455.122469 
L 744.527027 454.458581 
L 745.350967 454.458581 
L 745.515755 453.958188 
L 745.680543 453.958188 
L 745.845331 449.08307 
L 746.01012 449.08307 
L 746.339696 442.72659 
L 746.83406 438.545087 
L 746.998848 438.545087 
L 747.163636 436.637647 
L 747.163636 436.637647 
" clip-path="url(#pa3d08ee581)" style="fill: none; stroke: #ff0000; stroke-width: 1.5; stroke-linecap: square"/>
   </g>
   <g id="line2d_42">
    <path d="M 138.436364 570.049412 
L 138.671848 569.444976 
L 138.907333 569.444976 
L 139.142817 566.804288 
L 139.378301 566.635838 
L 139.613786 564.262686 
L 139.84927 563.62357 
L 140.084755 563.62357 
L 140.320239 563.494756 
L 141.026692 562.142208 
L 142.910568 562.102573 
L 143.381537 561.537773 
L 143.852506 561.483275 
L 144.08799 561.106741 
L 144.558959 561.057197 
L 145.265412 560.403218 
L 146.20735 560.328902 
L 146.442835 560.239723 
L 147.149288 559.303344 
L 147.384772 559.124986 
L 147.855741 558.287694 
L 148.32671 556.940101 
L 148.562194 556.816241 
L 149.033163 556.345574 
L 153.271883 556.241532 
L 153.507368 556.147399 
L 153.742852 555.85509 
L 154.449305 555.661869 
L 154.68479 555.498374 
L 155.626728 555.419103 
L 156.333181 555.131749 
L 157.039634 555.067342 
L 157.510603 554.938528 
L 158.217056 554.809714 
L 158.92351 554.631356 
L 159.865448 554.547131 
L 160.807385 554.408408 
L 171.404185 554.294457 
L 443.85968 554.190415 
L 452.101635 553.566162 
L 452.572604 553.476983 
L 453.514542 553.417531 
L 455.162933 553.323397 
L 457.046809 552.951818 
L 467.879093 551.955986 
L 468.82103 551.668632 
L 470.704906 551.302007 
L 472.117813 551.197965 
L 474.001688 551.049333 
L 479.182346 550.613347 
L 480.359768 550.420126 
L 481.53719 550.26654 
L 482.714612 549.875143 
L 482.950097 549.647241 
L 484.127519 549.587789 
L 485.304941 549.255845 
L 485.540426 549.240981 
L 486.011394 549.072532 
L 486.717848 549.018034 
L 487.424301 548.899129 
L 488.837208 548.834722 
L 489.308177 548.364055 
L 489.779145 548.339283 
L 490.485599 548.136153 
L 493.311412 547.828981 
L 494.25335 547.744756 
L 494.488834 547.581261 
L 497.079163 547.274089 
L 497.550132 547.130412 
L 498.256585 547.021416 
L 501.082398 546.813331 
L 501.788852 546.649836 
L 502.966274 546.516068 
L 503.437243 546.194033 
L 503.908212 545.871997 
L 505.321118 545.485555 
L 505.556603 545.183338 
L 506.027572 545.138748 
L 506.263056 544.905892 
L 507.440478 544.732488 
L 508.853385 544.351 
L 510.972745 544.118144 
L 511.208229 543.588025 
L 511.914683 543.513709 
L 512.385651 543.394803 
L 512.621136 542.983589 
L 513.092105 542.800277 
L 513.798558 542.716052 
L 514.505011 542.696235 
L 514.97598 542.587238 
L 515.446949 542.503014 
L 515.682434 542.473287 
L 515.917918 542.32961 
L 516.153402 542.32961 
L 516.388887 542.200796 
L 516.859856 542.151252 
L 517.566309 541.858943 
L 519.685669 541.804445 
L 521.098576 541.531953 
L 522.746967 541.457638 
L 523.217936 541.363504 
L 524.866327 541.239645 
L 525.57278 541.190101 
L 526.750202 541.100922 
L 527.221171 540.982016 
L 527.69214 540.942381 
L 528.163109 540.848248 
L 529.8115 540.778886 
L 530.753438 540.620346 
L 531.459891 540.575757 
L 531.695375 540.575757 
L 532.166344 540.352809 
L 533.579251 540.065455 
L 534.285704 539.921777 
L 535.698611 539.812781 
L 536.16958 539.733511 
L 537.111517 539.723602 
L 537.347002 539.267798 
L 538.995393 539.044851 
L 539.701846 538.757496 
L 541.114753 538.698043 
L 542.056691 538.608864 
L 542.998628 538.296738 
L 543.234113 537.925159 
L 543.469597 537.870661 
L 543.705082 537.583306 
L 544.176051 537.385131 
L 544.64702 537.246408 
L 547.237348 537.137411 
L 548.179286 537.018506 
L 550.063162 536.577565 
L 552.418006 536.552793 
L 552.888975 536.404162 
L 554.77285 536.354618 
L 555.008335 536.220849 
L 556.185757 536.116807 
L 558.305117 535.888905 
L 558.776086 535.670912 
L 559.718024 535.591642 
L 560.188992 535.423193 
L 560.424477 535.106112 
L 562.779321 534.863347 
L 564.192228 534.75435 
L 564.663197 534.665171 
L 565.36965 534.536357 
L 566.076103 534.481859 
L 567.018041 534.407543 
L 568.195463 534.06569 
L 568.666432 533.931922 
L 569.372886 533.892287 
L 569.843854 533.78329 
L 570.550308 533.708975 
L 571.492245 533.599978 
L 571.72773 533.505845 
L 571.963214 533.26308 
L 572.905152 533.084722 
L 573.376121 532.906364 
L 573.611605 532.470377 
L 574.082574 532.336609 
L 574.318059 531.796581 
L 574.789028 531.702447 
L 575.730965 531.583542 
L 577.143872 531.335823 
L 577.379356 531.018742 
L 578.556779 530.830475 
L 578.792263 530.830475 
L 579.498716 530.250812 
L 582.560014 529.894096 
L 582.795499 529.844552 
L 583.030983 529.259934 
L 584.208405 529.165801 
L 584.44389 528.987443 
L 584.914858 528.942853 
L 585.150343 528.794221 
L 585.621312 528.794221 
L 586.092281 528.630727 
L 586.798734 528.561365 
L 587.034218 528.278965 
L 587.740672 528.278965 
L 588.682609 527.83307 
L 588.918094 527.83307 
L 589.624547 527.416902 
L 591.272938 527.332677 
L 591.508423 527.104775 
L 592.685845 526.832284 
L 593.156814 526.718333 
L 594.098752 526.614291 
L 594.56972 526.485477 
L 595.276174 525.643231 
L 595.747143 525.618459 
L 596.453596 525.147792 
L 597.866503 525.142837 
L 598.101987 524.781167 
L 598.337471 524.781167 
L 598.572956 524.647399 
L 598.80844 524.642444 
L 599.043925 524.404634 
L 600.692316 524.330318 
L 601.398769 524.290683 
L 604.224582 524.270865 
L 604.460067 523.993419 
L 605.16652 523.993419 
L 605.402005 523.829925 
L 605.637489 523.820016 
L 606.343942 523.483117 
L 608.698787 523.41871 
L 609.169756 523.091721 
L 611.053631 523.091721 
L 611.289116 522.660689 
L 612.231053 522.621054 
L 612.702022 522.502148 
L 613.172991 522.502148 
L 613.64396 522.110752 
L 613.879444 522.076071 
L 614.114929 521.005923 
L 615.76332 521.005923 
L 616.469773 520.574891 
L 616.940742 519.970456 
L 617.647195 519.871368 
L 618.353649 519.841642 
L 618.589133 519.539424 
L 619.060102 519.440337 
L 619.295586 519.440337 
L 619.531071 519.311522 
L 620.473009 519.247115 
L 620.708493 519.063803 
L 621.650431 518.984533 
L 621.885915 518.320645 
L 623.769791 517.825206 
L 624.476244 517.755845 
L 624.711729 517.542806 
L 625.182697 517.409037 
L 625.418182 517.240588 
L 625.653666 517.240588 
L 625.889151 516.165486 
L 626.124635 516.056489 
L 626.36012 515.774089 
L 627.537542 515.694819 
L 627.773026 515.457008 
L 628.243995 515.457008 
L 628.714964 515.154791 
L 628.950448 515.154791 
L 629.185933 514.872391 
L 630.363355 514.872391 
L 630.598839 514.599899 
L 630.834324 514.599899 
L 631.069808 514.466131 
L 631.776262 514.461176 
L 632.247231 514.312545 
L 632.482715 514.312545 
L 633.189168 514.054917 
L 633.895622 513.886467 
L 634.837559 513.886467 
L 635.779497 513.232488 
L 636.014982 513.17799 
L 636.250466 513.004586 
L 636.48595 512.979814 
L 636.956919 512.301063 
L 638.369826 512.211884 
L 638.60531 512.112796 
L 638.840795 511.87994 
L 639.547248 511.726354 
L 639.782733 511.300277 
L 640.253701 511.136782 
L 640.72467 510.636389 
L 641.431124 510.611617 
L 641.902092 509.93782 
L 642.608546 509.838732 
L 642.84403 509.363111 
L 643.785968 509.060893 
L 644.021452 508.753721 
L 644.96339 508.570409 
L 646.376297 508.491139 
L 646.847266 508.421777 
L 650.850501 508.337553 
L 651.792439 508.297918 
L 652.734377 508.208739 
L 653.44083 508.124514 
L 653.676314 507.961019 
L 654.853737 507.876795 
L 655.324705 507.604303 
L 656.502128 507.490352 
L 656.973097 507.485398 
L 657.444065 507.371447 
L 657.67955 506.786829 
L 658.621488 506.677833 
L 659.327941 506.316162 
L 660.269879 506.316162 
L 660.740848 505.840541 
L 661.447301 505.731545 
L 661.91827 505.493734 
L 662.389239 505.127109 
L 662.624723 505.077565 
L 662.860207 504.780302 
L 663.095692 504.75553 
L 664.508599 503.764652 
L 664.979567 503.73988 
L 665.921505 503.194898 
L 667.098927 502.97195 
L 667.334412 502.818364 
L 668.27635 502.758912 
L 668.511834 502.496329 
L 669.218287 502.446785 
L 669.453772 502.144567 
L 670.631194 502.134659 
L 670.866678 501.896848 
L 671.573132 501.832441 
L 672.279585 501.579767 
L 672.750554 501.322139 
L 672.986038 501.099192 
L 674.398945 501.099192 
L 674.634429 500.935697 
L 674.869914 500.935697 
L 675.105398 500.722658 
L 675.576367 500.578981 
L 676.28282 500.142995 
L 677.931212 500.053816 
L 678.637665 499.890321 
L 679.344118 499.44938 
L 680.992509 499.409745 
L 681.463478 499.266068 
L 681.934447 499.21157 
L 682.6409 499.122391 
L 684.289291 499.033212 
L 685.231229 498.849899 
L 686.173167 498.775584 
L 688.057042 498.676496 
L 689.469949 498.517955 
L 689.940918 498.423822 
L 690.411887 498.423822 
L 690.882856 498.24051 
L 692.295762 498.190966 
L 692.531247 498.03738 
L 695.121576 497.977927 
L 695.828029 497.735162 
L 699.124811 497.279358 
L 699.360295 496.992004 
L 699.59578 496.992004 
L 699.831264 495.961491 
L 700.066749 495.614684 
L 700.537718 495.614684 
L 700.773202 495.144017 
L 701.008686 495.144017 
L 701.244171 494.831891 
L 701.71514 494.767483 
L 702.186109 494.589126 
L 702.421593 494.197729 
L 702.892562 494.093687 
L 703.128046 494.093687 
L 703.8345 493.603202 
L 704.305469 493.533841 
L 705.247406 493.509069 
L 705.482891 493.34062 
L 706.424829 493.320802 
L 707.837735 492.815455 
L 708.308704 492.756002 
L 708.544189 492.567735 
L 709.721611 492.542963 
L 710.19258 492.453784 
L 710.899033 492.40424 
L 711.134517 492.012844 
L 712.076455 492.012844 
L 712.547424 491.834486 
L 713.253877 491.601629 
L 713.489362 490.724703 
L 713.960331 490.531482 
L 714.431299 490.283762 
L 714.902268 490.263945 
L 715.608722 489.728871 
L 717.021628 489.496014 
L 717.257113 489.496014 
L 717.728082 489.134344 
L 717.963566 489.134344 
L 718.670019 488.737993 
L 719.140988 488.663677 
L 719.376473 488.336688 
L 719.847442 488.336688 
L 720.082926 488.123649 
L 720.31841 488.123649 
L 720.553895 487.816477 
L 720.789379 487.816477 
L 721.024864 487.291312 
L 721.495833 487.291312 
L 721.966801 486.647241 
L 723.144224 486.305388 
L 723.615193 485.066791 
L 725.263584 484.952841 
L 725.499068 484.824026 
L 725.970037 484.824026 
L 726.67649 483.82324 
L 726.911975 482.946313 
L 727.382944 482.440966 
L 727.618428 482.440966 
L 728.089397 481.980208 
L 729.266819 481.980208 
L 729.502303 481.653218 
L 729.973272 481.55413 
L 730.444241 481.47486 
L 730.679726 481.47486 
L 730.91521 480.553344 
L 731.386179 480.023224 
L 731.621663 479.755687 
L 731.857148 479.750733 
L 732.092632 479.076936 
L 733.03457 478.675631 
L 733.270055 478.07615 
L 733.741023 477.902746 
L 733.976508 477.902746 
L 734.211992 477.709525 
L 734.447477 477.689707 
L 734.682961 477.392444 
L 735.389414 477.204177 
L 735.624899 476.758282 
L 735.860383 476.594788 
L 736.331352 476.594788 
L 736.566837 475.60391 
L 736.802321 473.686562 
L 737.037806 473.443797 
L 737.27329 473.443797 
L 737.508774 473.265439 
L 737.979743 472.64614 
L 738.215228 470.664385 
L 738.450712 469.77755 
L 738.921681 469.772595 
L 739.157165 469.346518 
L 739.39265 469.262293 
L 739.628134 467.775977 
L 739.863619 467.121997 
L 740.099103 467.121997 
L 740.334588 466.601787 
L 740.570072 466.601787 
L 741.041041 462.653139 
L 741.276525 462.643231 
L 741.747494 461.791076 
L 741.982979 459.997587 
L 742.218463 459.333699 
L 742.689432 459.333699 
L 743.160401 455.122469 
L 743.63137 455.122469 
L 743.866854 454.458581 
L 744.808792 454.458581 
L 745.044276 453.958188 
L 745.279761 453.958188 
L 745.515245 449.08307 
L 745.75073 449.08307 
L 746.457183 438.906757 
L 746.692667 438.545087 
L 746.928152 438.545087 
L 747.163636 436.637647 
L 747.163636 436.637647 
" clip-path="url(#pa3d08ee581)" style="fill: none; stroke: #1f77b4; stroke-width: 1.5; stroke-linecap: square"/>
   </g>
   <g id="patch_15">
    <path d="M 108 576.72 
L 108 429.967059 
" style="fill: none; stroke: #000000; stroke-width: 0.8; stroke-linejoin: miter; stroke-linecap: square"/>
   </g>
   <g id="patch_16">
    <path d="M 777.6 576.72 
L 777.6 429.967059 
" style="fill: none; stroke: #000000; stroke-width: 0.8; stroke-linejoin: miter; stroke-linecap: square"/>
   </g>
   <g id="patch_17">
    <path d="M 108 576.72 
L 777.6 576.72 
" style="fill: none; stroke: #000000; stroke-width: 0.8; stroke-linejoin: miter; stroke-linecap: square"/>
   </g>
   <g id="patch_18">
    <path d="M 108 429.967059 
L 777.6 429.967059 
" style="fill: none; stroke: #000000; stroke-width: 0.8; stroke-linejoin: miter; stroke-linecap: square"/>
   </g>
   <g id="legend_3">
    <g id="patch_19">
     <path d="M 115 467.323309 
L 200.017188 467.323309 
Q 202.017188 467.323309 202.017188 465.323309 
L 202.017188 436.967059 
Q 202.017188 434.967059 200.017188 434.967059 
L 115 434.967059 
Q 113 434.967059 113 436.967059 
L 113 465.323309 
Q 113 467.323309 115 467.323309 
z
" style="fill: #ffffff; opacity: 0.8; stroke: #cccccc; stroke-linejoin: miter"/>
    </g>
    <g id="line2d_43">
     <path d="M 117 443.065496 
L 127 443.065496 
L 137 443.065496 
" style="fill: none; stroke: #ff0000; stroke-width: 1.5; stroke-linecap: square"/>
    </g>
    <g id="text_32">
     <!-- Data Set 1 -->
     <g transform="translate(145 446.565496) scale(0.1 -0.1)">
      <use xlink:href="#DejaVuSans-44"/>
      <use xlink:href="#DejaVuSans-61" x="77.001953"/>
      <use xlink:href="#DejaVuSans-74" x="138.28125"/>
      <use xlink:href="#DejaVuSans-61" x="177.490234"/>
      <use xlink:href="#DejaVuSans-20" x="238.769531"/>
      <use xlink:href="#DejaVuSans-53" x="270.556641"/>
      <use xlink:href="#DejaVuSans-65" x="334.033203"/>
      <use xlink:href="#DejaVuSans-74" x="395.556641"/>
      <use xlink:href="#DejaVuSans-20" x="434.765625"/>
      <use xlink:href="#DejaVuSans-31" x="466.552734"/>
     </g>
    </g>
    <g id="line2d_44">
     <path d="M 117 457.743621 
L 127 457.743621 
L 137 457.743621 
" style="fill: none; stroke: #1f77b4; stroke-width: 1.5; stroke-linecap: square"/>
    </g>
    <g id="text_33">
     <!-- Data Set 2 -->
     <g transform="translate(145 461.243621) scale(0.1 -0.1)">
      <use xlink:href="#DejaVuSans-44"/>
      <use xlink:href="#DejaVuSans-61" x="77.001953"/>
      <use xlink:href="#DejaVuSans-74" x="138.28125"/>
      <use xlink:href="#DejaVuSans-61" x="177.490234"/>
      <use xlink:href="#DejaVuSans-20" x="238.769531"/>
      <use xlink:href="#DejaVuSans-53" x="270.556641"/>
      <use xlink:href="#DejaVuSans-65" x="334.033203"/>
      <use xlink:href="#DejaVuSans-74" x="395.556641"/>
      <use xlink:href="#DejaVuSans-20" x="434.765625"/>
      <use xlink:href="#DejaVuSans-32" x="466.552734"/>
     </g>
    </g>
   </g>
  </g>
 </g>
 <defs>
  <clipPath id="p24d36949cb">
   <rect x="108" y="77.76" width="669.6" height="146.752941"/>
  </clipPath>
  <clipPath id="p8a5a6b6846">
   <rect x="108" y="253.863529" width="669.6" height="146.752941"/>
  </clipPath>
  <clipPath id="pa3d08ee581">
   <rect x="108" y="429.967059" width="669.6" height="146.752941"/>
  </clipPath>
 </defs>
</svg>
